0, 0, Header, 1, 11, 192
1, 0, Start_track
1, 0, SMPTE_offset, 96, 0, 3, 0, 0
1, 0, Time_signature, 4, 2, 24, 8
1, 0, Key_signature, 0, "major"
1, 0, Tempo, 714286
1, 0, End_track
2, 0, Start_track
2, 0, MIDI_port, 0
2, 0, Title_t, "**                  "
2, 0, Program_c, 0, 0
2, 0, Control_c, 0, 10, 64
2, 0, Pitch_bend_c, 0, 8192
2, 0, Control_c, 0, 1, 0
2, 0, Control_c, 0, 64, 0
2, 0, End_track
3, 0, Start_track
3, 0, MIDI_port, 0
3, 0, Title_t, "Unnamed             "
3, 0, Program_c, 1, 52
3, 0, Control_c, 1, 10, 64
3, 0, Pitch_bend_c, 1, 8192
3, 0, Control_c, 1, 1, 0
3, 0, Control_c, 1, 64, 0
3, 0, End_track
4, 0, Start_track
4, 0, MIDI_port, 0
4, 0, Title_t, "Unnamed             "
4, 0, Program_c, 2, 16
4, 0, Control_c, 2, 10, 64
4, 0, Pitch_bend_c, 2, 8192
4, 0, Control_c, 2, 1, 0
4, 0, Control_c, 2, 64, 0
4, 0, End_track
5, 0, Start_track
5, 0, MIDI_port, 0
5, 0, Title_t, "Bass                "
5, 0, Program_c, 3, 33
5, 0, Control_c, 3, 7, 75
5, 0, Control_c, 3, 10, 64
5, 0, Control_c, 3, 0, 0
5, 0, Control_c, 3, 91, 20
5, 0, Control_c, 3, 93, 12
5, 1532, Note_on_c, 3, 38, 112
5, 1704, Note_on_c, 3, 38, 0
5, 1728, Note_on_c, 3, 33, 112
5, 1916, Note_on_c, 3, 33, 0
5, 1920, Note_on_c, 3, 38, 112
5, 2080, Note_on_c, 3, 38, 0
5, 2112, Note_on_c, 3, 33, 112
5, 2260, Note_on_c, 3, 33, 0
5, 2304, Note_on_c, 3, 35, 112
5, 2472, Note_on_c, 3, 35, 0
5, 2496, Note_on_c, 3, 30, 112
5, 2656, Note_on_c, 3, 30, 0
5, 2688, Note_on_c, 3, 35, 112
5, 2828, Note_on_c, 3, 35, 0
5, 2880, Note_on_c, 3, 35, 112
5, 3048, Note_on_c, 3, 35, 0
5, 3072, Note_on_c, 3, 33, 112
5, 3232, Note_on_c, 3, 33, 0
5, 3264, Note_on_c, 3, 28, 112
5, 3432, Note_on_c, 3, 28, 0
5, 3456, Note_on_c, 3, 33, 112
5, 3616, Note_on_c, 3, 33, 0
5, 3648, Note_on_c, 3, 28, 112
5, 3692, Note_on_c, 3, 28, 0
5, 3744, Note_on_c, 3, 33, 112
5, 3804, Note_on_c, 3, 33, 0
5, 3840, Note_on_c, 3, 43, 112
5, 3976, Note_on_c, 3, 43, 0
5, 4032, Note_on_c, 3, 43, 112
5, 4064, Note_on_c, 3, 43, 0
5, 4128, Note_on_c, 3, 40, 112
5, 4172, Note_on_c, 3, 40, 0
5, 4220, Note_on_c, 3, 38, 112
5, 4392, Note_on_c, 3, 38, 0
5, 4416, Note_on_c, 3, 33, 112
5, 4584, Note_on_c, 3, 33, 0
5, 4608, Note_on_c, 3, 38, 112
5, 4760, Note_on_c, 3, 38, 0
5, 4796, Note_on_c, 3, 33, 112
5, 4968, Note_on_c, 3, 33, 0
5, 4988, Note_on_c, 3, 38, 112
5, 5164, Note_on_c, 3, 38, 0
5, 5180, Note_on_c, 3, 33, 112
5, 5352, Note_on_c, 3, 33, 0
5, 5372, Note_on_c, 3, 38, 112
5, 5528, Note_on_c, 3, 38, 0
5, 5568, Note_on_c, 3, 33, 112
5, 5620, Note_on_c, 3, 33, 0
5, 5664, Note_on_c, 3, 42, 112
5, 5716, Note_on_c, 3, 42, 0
5, 5760, Note_on_c, 3, 35, 112
5, 5920, Note_on_c, 3, 35, 0
5, 5952, Note_on_c, 3, 42, 112
5, 6100, Note_on_c, 3, 42, 0
5, 6144, Note_on_c, 3, 35, 112
5, 6272, Note_on_c, 3, 35, 0
5, 6336, Note_on_c, 3, 35, 112
5, 6476, Note_on_c, 3, 35, 0
5, 6528, Note_on_c, 3, 33, 112
5, 6696, Note_on_c, 3, 33, 0
5, 6720, Note_on_c, 3, 40, 112
5, 6884, Note_on_c, 3, 40, 0
5, 6912, Note_on_c, 3, 33, 112
5, 7076, Note_on_c, 3, 33, 0
5, 7104, Note_on_c, 3, 40, 112
5, 7152, Note_on_c, 3, 40, 0
5, 7200, Note_on_c, 3, 33, 112
5, 7248, Note_on_c, 3, 33, 0
5, 7296, Note_on_c, 3, 31, 112
5, 7464, Note_on_c, 3, 31, 0
5, 7484, Note_on_c, 3, 42, 112
5, 7536, Note_on_c, 3, 42, 0
5, 7588, Note_on_c, 3, 40, 112
5, 7628, Note_on_c, 3, 40, 0
5, 7680, Note_on_c, 3, 38, 112
5, 7840, Note_on_c, 3, 38, 0
5, 7872, Note_on_c, 3, 33, 112
5, 8032, Note_on_c, 3, 33, 0
5, 8064, Note_on_c, 3, 38, 112
5, 8212, Note_on_c, 3, 38, 0
5, 8256, Note_on_c, 3, 33, 112
5, 8436, Note_on_c, 3, 33, 0
5, 8448, Note_on_c, 3, 38, 112
5, 8596, Note_on_c, 3, 38, 0
5, 8640, Note_on_c, 3, 42, 112
5, 8704, Note_on_c, 3, 42, 0
5, 8736, Note_on_c, 3, 45, 112
5, 8784, Note_on_c, 3, 45, 0
5, 8832, Note_on_c, 3, 33, 112
5, 8984, Note_on_c, 3, 33, 0
5, 9024, Note_on_c, 3, 40, 112
5, 9176, Note_on_c, 3, 40, 0
5, 9216, Note_on_c, 3, 33, 112
5, 9396, Note_on_c, 3, 33, 0
5, 9408, Note_on_c, 3, 40, 112
5, 9560, Note_on_c, 3, 40, 0
5, 9600, Note_on_c, 3, 35, 112
5, 9760, Note_on_c, 3, 35, 0
5, 9792, Note_on_c, 3, 42, 112
5, 9960, Note_on_c, 3, 42, 0
5, 9984, Note_on_c, 3, 35, 112
5, 10136, Note_on_c, 3, 35, 0
5, 10176, Note_on_c, 3, 35, 112
5, 10220, Note_on_c, 3, 35, 0
5, 10272, Note_on_c, 3, 42, 112
5, 10324, Note_on_c, 3, 42, 0
5, 10368, Note_on_c, 3, 43, 112
5, 10528, Note_on_c, 3, 43, 0
5, 10560, Note_on_c, 3, 38, 112
5, 10740, Note_on_c, 3, 38, 0
5, 10752, Note_on_c, 3, 43, 112
5, 10876, Note_on_c, 3, 43, 0
5, 10944, Note_on_c, 3, 43, 112
5, 10988, Note_on_c, 3, 43, 0
5, 11044, Note_on_c, 3, 40, 112
5, 11112, Note_on_c, 3, 40, 0
5, 11136, Note_on_c, 3, 38, 112
5, 11296, Note_on_c, 3, 38, 0
5, 11328, Note_on_c, 3, 33, 112
5, 11496, Note_on_c, 3, 33, 0
5, 11520, Note_on_c, 3, 38, 112
5, 11688, Note_on_c, 3, 38, 0
5, 11712, Note_on_c, 3, 42, 112
5, 11764, Note_on_c, 3, 42, 0
5, 11808, Note_on_c, 3, 43, 112
5, 11868, Note_on_c, 3, 43, 0
5, 11904, Note_on_c, 3, 45, 112
5, 12064, Note_on_c, 3, 45, 0
5, 12096, Note_on_c, 3, 40, 112
5, 12276, Note_on_c, 3, 40, 0
5, 12288, Note_on_c, 3, 45, 112
5, 12440, Note_on_c, 3, 45, 0
5, 12480, Note_on_c, 3, 40, 112
5, 12532, Note_on_c, 3, 40, 0
5, 12576, Note_on_c, 3, 42, 112
5, 12628, Note_on_c, 3, 42, 0
5, 12672, Note_on_c, 3, 43, 112
5, 12832, Note_on_c, 3, 43, 0
5, 12864, Note_on_c, 3, 38, 112
5, 13024, Note_on_c, 3, 38, 0
5, 13056, Note_on_c, 3, 43, 112
5, 13236, Note_on_c, 3, 43, 0
5, 13248, Note_on_c, 3, 42, 112
5, 13300, Note_on_c, 3, 42, 0
5, 13344, Note_on_c, 3, 40, 112
5, 13416, Note_on_c, 3, 40, 0
5, 13436, Note_on_c, 3, 38, 112
5, 13580, Note_on_c, 3, 38, 0
5, 13632, Note_on_c, 3, 33, 112
5, 13800, Note_on_c, 3, 33, 0
5, 13824, Note_on_c, 3, 38, 112
5, 13992, Note_on_c, 3, 38, 0
5, 14016, Note_on_c, 3, 33, 112
5, 14168, Note_on_c, 3, 33, 0
5, 14208, Note_on_c, 3, 38, 112
5, 14360, Note_on_c, 3, 38, 0
5, 14400, Note_on_c, 3, 33, 112
5, 14560, Note_on_c, 3, 33, 0
5, 14592, Note_on_c, 3, 38, 112
5, 14780, Note_on_c, 3, 38, 0
5, 14784, Note_on_c, 3, 33, 112
5, 14944, Note_on_c, 3, 33, 0
5, 14976, Note_on_c, 3, 35, 112
5, 15136, Note_on_c, 3, 35, 0
5, 15168, Note_on_c, 3, 42, 112
5, 15336, Note_on_c, 3, 42, 0
5, 15360, Note_on_c, 3, 35, 112
5, 15512, Note_on_c, 3, 35, 0
5, 15552, Note_on_c, 3, 38, 112
5, 15620, Note_on_c, 3, 38, 0
5, 15648, Note_on_c, 3, 35, 112
5, 15692, Note_on_c, 3, 35, 0
5, 15744, Note_on_c, 3, 33, 112
5, 15904, Note_on_c, 3, 33, 0
5, 15936, Note_on_c, 3, 40, 112
5, 16096, Note_on_c, 3, 40, 0
5, 16124, Note_on_c, 3, 33, 112
5, 16292, Note_on_c, 3, 33, 0
5, 16320, Note_on_c, 3, 40, 112
5, 16372, Note_on_c, 3, 40, 0
5, 16420, Note_on_c, 3, 33, 112
5, 16460, Note_on_c, 3, 33, 0
5, 16512, Note_on_c, 3, 31, 112
5, 16672, Note_on_c, 3, 31, 0
5, 16704, Note_on_c, 3, 42, 112
5, 16748, Note_on_c, 3, 42, 0
5, 16800, Note_on_c, 3, 40, 112
5, 16844, Note_on_c, 3, 40, 0
5, 16896, Note_on_c, 3, 38, 112
5, 17064, Note_on_c, 3, 38, 0
5, 17088, Note_on_c, 3, 33, 112
5, 17248, Note_on_c, 3, 33, 0
5, 17280, Note_on_c, 3, 38, 112
5, 17460, Note_on_c, 3, 38, 0
5, 17472, Note_on_c, 3, 33, 112
5, 17612, Note_on_c, 3, 33, 0
5, 17664, Note_on_c, 3, 38, 112
5, 17816, Note_on_c, 3, 38, 0
5, 17852, Note_on_c, 3, 33, 112
5, 18016, Note_on_c, 3, 33, 0
5, 18048, Note_on_c, 3, 38, 112
5, 18196, Note_on_c, 3, 38, 0
5, 18236, Note_on_c, 3, 33, 112
5, 18288, Note_on_c, 3, 33, 0
5, 18336, Note_on_c, 3, 42, 112
5, 18388, Note_on_c, 3, 42, 0
5, 18432, Note_on_c, 3, 35, 112
5, 18620, Note_on_c, 3, 35, 0
5, 18624, Note_on_c, 3, 42, 112
5, 18776, Note_on_c, 3, 42, 0
5, 18812, Note_on_c, 3, 35, 112
5, 18984, Note_on_c, 3, 35, 0
5, 19008, Note_on_c, 3, 42, 112
5, 19056, Note_on_c, 3, 42, 0
5, 19104, Note_on_c, 3, 35, 112
5, 19148, Note_on_c, 3, 35, 0
5, 19200, Note_on_c, 3, 33, 112
5, 19368, Note_on_c, 3, 33, 0
5, 19392, Note_on_c, 3, 40, 112
5, 19552, Note_on_c, 3, 40, 0
5, 19584, Note_on_c, 3, 33, 112
5, 19752, Note_on_c, 3, 33, 0
5, 19776, Note_on_c, 3, 40, 112
5, 19828, Note_on_c, 3, 40, 0
5, 19872, Note_on_c, 3, 33, 112
5, 19916, Note_on_c, 3, 33, 0
5, 19964, Note_on_c, 3, 31, 112
5, 20160, Note_on_c, 3, 42, 112
5, 20164, Note_on_c, 3, 31, 0
5, 20208, Note_on_c, 3, 42, 0
5, 20252, Note_on_c, 3, 40, 112
5, 20300, Note_on_c, 3, 40, 0
5, 20352, Note_on_c, 3, 38, 112
5, 20532, Note_on_c, 3, 38, 0
5, 20544, Note_on_c, 3, 33, 112
5, 20704, Note_on_c, 3, 33, 0
5, 20736, Note_on_c, 3, 38, 112
5, 20888, Note_on_c, 3, 38, 0
5, 20928, Note_on_c, 3, 33, 112
5, 21076, Note_on_c, 3, 33, 0
5, 21116, Note_on_c, 3, 38, 112
5, 21284, Note_on_c, 3, 38, 0
5, 21312, Note_on_c, 3, 42, 112
5, 21364, Note_on_c, 3, 42, 0
5, 21408, Note_on_c, 3, 43, 112
5, 21480, Note_on_c, 3, 43, 0
5, 21504, Note_on_c, 3, 45, 112
5, 21652, Note_on_c, 3, 45, 0
5, 21696, Note_on_c, 3, 40, 112
5, 21860, Note_on_c, 3, 40, 0
5, 21888, Note_on_c, 3, 45, 112
5, 22020, Note_on_c, 3, 45, 0
5, 22076, Note_on_c, 3, 30, 112
5, 22120, Note_on_c, 3, 30, 0
5, 22176, Note_on_c, 3, 33, 112
5, 22224, Note_on_c, 3, 33, 0
5, 22272, Note_on_c, 3, 35, 112
5, 22432, Note_on_c, 3, 35, 0
5, 22464, Note_on_c, 3, 42, 112
5, 22624, Note_on_c, 3, 42, 0
5, 22656, Note_on_c, 3, 35, 112
5, 22820, Note_on_c, 3, 35, 0
5, 22848, Note_on_c, 3, 42, 112
5, 22900, Note_on_c, 3, 42, 0
5, 22944, Note_on_c, 3, 45, 112
5, 22988, Note_on_c, 3, 45, 0
5, 23040, Note_on_c, 3, 43, 112
5, 23200, Note_on_c, 3, 43, 0
5, 23232, Note_on_c, 3, 38, 112
5, 23400, Note_on_c, 3, 38, 0
5, 23424, Note_on_c, 3, 43, 112
5, 23552, Note_on_c, 3, 43, 0
5, 23616, Note_on_c, 3, 43, 112
5, 23648, Note_on_c, 3, 43, 0
5, 23712, Note_on_c, 3, 40, 112
5, 23736, Note_on_c, 3, 40, 0
5, 23808, Note_on_c, 3, 38, 112
5, 23988, Note_on_c, 3, 38, 0
5, 24000, Note_on_c, 3, 33, 112
5, 24152, Note_on_c, 3, 33, 0
5, 24192, Note_on_c, 3, 38, 112
5, 24356, Note_on_c, 3, 38, 0
5, 24384, Note_on_c, 3, 42, 112
5, 24428, Note_on_c, 3, 42, 0
5, 24484, Note_on_c, 3, 43, 112
5, 24532, Note_on_c, 3, 43, 0
5, 24576, Note_on_c, 3, 45, 112
5, 24736, Note_on_c, 3, 45, 0
5, 24768, Note_on_c, 3, 40, 112
5, 24936, Note_on_c, 3, 40, 0
5, 24960, Note_on_c, 3, 45, 112
5, 25120, Note_on_c, 3, 45, 0
5, 25152, Note_on_c, 3, 40, 112
5, 25216, Note_on_c, 3, 40, 0
5, 25248, Note_on_c, 3, 45, 112
5, 25280, Note_on_c, 3, 45, 0
5, 25344, Note_on_c, 3, 43, 112
5, 25512, Note_on_c, 3, 43, 0
5, 25536, Note_on_c, 3, 38, 112
5, 25696, Note_on_c, 3, 38, 0
5, 25728, Note_on_c, 3, 43, 112
5, 25896, Note_on_c, 3, 43, 0
5, 25920, Note_on_c, 3, 42, 112
5, 25972, Note_on_c, 3, 42, 0
5, 26016, Note_on_c, 3, 40, 112
5, 26060, Note_on_c, 3, 40, 0
5, 26108, Note_on_c, 3, 38, 112
5, 26260, Note_on_c, 3, 38, 0
5, 26304, Note_on_c, 3, 33, 112
5, 26464, Note_on_c, 3, 33, 0
5, 26496, Note_on_c, 3, 38, 112
5, 26664, Note_on_c, 3, 38, 0
5, 26688, Note_on_c, 3, 33, 112
5, 26736, Note_on_c, 3, 33, 0
5, 26784, Note_on_c, 3, 34, 112
5, 26828, Note_on_c, 3, 34, 0
5, 26880, Note_on_c, 3, 35, 112
5, 27044, Note_on_c, 3, 35, 0
5, 27072, Note_on_c, 3, 42, 112
5, 27124, Note_on_c, 3, 42, 0
5, 27168, Note_on_c, 3, 35, 112
5, 27212, Note_on_c, 3, 35, 0
5, 27264, Note_on_c, 3, 33, 112
5, 27388, Note_on_c, 3, 33, 0
5, 27456, Note_on_c, 3, 33, 112
5, 27616, Note_on_c, 3, 33, 0
5, 27648, Note_on_c, 3, 38, 112
5, 27812, Note_on_c, 3, 38, 0
5, 27840, Note_on_c, 3, 45, 112
5, 28004, Note_on_c, 3, 45, 0
5, 28032, Note_on_c, 3, 38, 112
5, 28212, Note_on_c, 3, 38, 0
5, 28220, Note_on_c, 3, 40, 112
5, 28272, Note_on_c, 3, 40, 0
5, 28320, Note_on_c, 3, 42, 112
5, 28372, Note_on_c, 3, 42, 0
5, 28412, Note_on_c, 3, 43, 112
5, 28552, Note_on_c, 3, 43, 0
5, 28608, Note_on_c, 3, 43, 112
5, 28748, Note_on_c, 3, 43, 0
5, 28800, Note_on_c, 3, 38, 112
5, 28920, Note_on_c, 3, 38, 0
5, 28992, Note_on_c, 3, 38, 112
5, 29056, Note_on_c, 3, 38, 0
5, 29088, Note_on_c, 3, 42, 112
5, 29100, Note_on_c, 3, 42, 0
5, 29132, Note_on_c, 3, 45, 112
5, 29144, Note_on_c, 3, 45, 0
5, 29184, Note_on_c, 3, 33, 112
5, 29324, Note_on_c, 3, 33, 0
5, 29376, Note_on_c, 3, 40, 112
5, 29544, Note_on_c, 3, 40, 0
5, 29568, Note_on_c, 3, 45, 112
5, 29716, Note_on_c, 3, 45, 0
5, 29760, Note_on_c, 3, 33, 112
5, 29792, Note_on_c, 3, 33, 0
5, 29856, Note_on_c, 3, 34, 112
5, 29900, Note_on_c, 3, 34, 0
5, 29952, Note_on_c, 3, 35, 112
5, 30080, Note_on_c, 3, 35, 0
5, 30144, Note_on_c, 3, 35, 112
5, 30296, Note_on_c, 3, 35, 0
5, 30336, Note_on_c, 3, 36, 112
5, 30508, Note_on_c, 3, 36, 0
5, 30528, Note_on_c, 3, 40, 112
5, 30572, Note_on_c, 3, 40, 0
5, 30624, Note_on_c, 3, 43, 112
5, 30648, Note_on_c, 3, 43, 0
5, 30720, Note_on_c, 3, 43, 112
5, 30872, Note_on_c, 3, 43, 0
5, 30912, Note_on_c, 3, 42, 112
5, 30956, Note_on_c, 3, 42, 0
5, 31008, Note_on_c, 3, 40, 112
5, 31052, Note_on_c, 3, 40, 0
5, 31100, Note_on_c, 3, 38, 112
5, 31236, Note_on_c, 3, 38, 0
5, 31296, Note_on_c, 3, 38, 112
5, 31444, Note_on_c, 3, 38, 0
5, 31488, Note_on_c, 3, 45, 112
5, 31636, Note_on_c, 3, 45, 0
5, 31680, Note_on_c, 3, 40, 112
5, 31848, Note_on_c, 3, 40, 0
5, 31868, Note_on_c, 3, 45, 112
5, 32032, Note_on_c, 3, 45, 0
5, 32064, Note_on_c, 3, 40, 112
5, 32076, Note_on_c, 3, 40, 0
5, 32160, Note_on_c, 3, 40, 112
5, 32220, Note_on_c, 3, 40, 0
5, 32256, Note_on_c, 3, 45, 112
5, 32408, Note_on_c, 3, 45, 0
5, 32444, Note_on_c, 3, 40, 112
5, 32596, Note_on_c, 3, 40, 0
5, 32640, Note_on_c, 3, 45, 112
5, 33024, Note_on_c, 3, 38, 112
5, 33044, Note_on_c, 3, 45, 0
5, 33172, Note_on_c, 3, 38, 0
5, 33216, Note_on_c, 3, 33, 112
5, 33396, Note_on_c, 3, 33, 0
5, 33408, Note_on_c, 3, 38, 112
5, 33556, Note_on_c, 3, 38, 0
5, 33600, Note_on_c, 3, 42, 112
5, 33660, Note_on_c, 3, 42, 0
5, 33696, Note_on_c, 3, 45, 112
5, 33740, Note_on_c, 3, 45, 0
5, 33792, Note_on_c, 3, 33, 112
5, 33940, Note_on_c, 3, 33, 0
5, 33984, Note_on_c, 3, 40, 112
5, 34136, Note_on_c, 3, 40, 0
5, 34176, Note_on_c, 3, 33, 112
5, 34356, Note_on_c, 3, 33, 0
5, 34368, Note_on_c, 3, 40, 112
5, 34520, Note_on_c, 3, 40, 0
5, 34560, Note_on_c, 3, 35, 112
5, 34720, Note_on_c, 3, 35, 0
5, 34752, Note_on_c, 3, 42, 112
5, 34920, Note_on_c, 3, 42, 0
5, 34944, Note_on_c, 3, 35, 112
5, 35096, Note_on_c, 3, 35, 0
5, 35136, Note_on_c, 3, 35, 112
5, 35180, Note_on_c, 3, 35, 0
5, 35232, Note_on_c, 3, 42, 112
5, 35284, Note_on_c, 3, 42, 0
5, 35328, Note_on_c, 3, 43, 112
5, 35488, Note_on_c, 3, 43, 0
5, 35520, Note_on_c, 3, 38, 112
5, 35700, Note_on_c, 3, 38, 0
5, 35712, Note_on_c, 3, 43, 112
5, 35836, Note_on_c, 3, 43, 0
5, 35904, Note_on_c, 3, 43, 112
5, 35948, Note_on_c, 3, 43, 0
5, 36000, Note_on_c, 3, 40, 112
5, 36072, Note_on_c, 3, 40, 0
5, 36096, Note_on_c, 3, 38, 112
5, 36256, Note_on_c, 3, 38, 0
5, 36288, Note_on_c, 3, 33, 112
5, 36460, Note_on_c, 3, 33, 0
5, 36480, Note_on_c, 3, 38, 112
5, 36644, Note_on_c, 3, 38, 0
5, 36672, Note_on_c, 3, 42, 112
5, 36724, Note_on_c, 3, 42, 0
5, 36772, Note_on_c, 3, 43, 112
5, 36828, Note_on_c, 3, 43, 0
5, 36864, Note_on_c, 3, 45, 112
5, 37024, Note_on_c, 3, 45, 0
5, 37056, Note_on_c, 3, 40, 112
5, 37236, Note_on_c, 3, 40, 0
5, 37248, Note_on_c, 3, 45, 112
5, 37400, Note_on_c, 3, 45, 0
5, 37440, Note_on_c, 3, 40, 112
5, 37492, Note_on_c, 3, 40, 0
5, 37536, Note_on_c, 3, 42, 112
5, 37592, Note_on_c, 3, 42, 0
5, 37636, Note_on_c, 3, 43, 112
5, 37788, Note_on_c, 3, 43, 0
5, 37824, Note_on_c, 3, 38, 112
5, 37984, Note_on_c, 3, 38, 0
5, 38016, Note_on_c, 3, 43, 112
5, 38196, Note_on_c, 3, 43, 0
5, 38208, Note_on_c, 3, 42, 112
5, 38260, Note_on_c, 3, 42, 0
5, 38304, Note_on_c, 3, 40, 112
5, 38376, Note_on_c, 3, 40, 0
5, 38400, Note_on_c, 3, 38, 112
5, 38540, Note_on_c, 3, 38, 0
5, 38592, Note_on_c, 3, 33, 112
5, 38760, Note_on_c, 3, 33, 0
5, 38780, Note_on_c, 3, 38, 112
5, 38952, Note_on_c, 3, 38, 0
5, 38976, Note_on_c, 3, 33, 112
5, 39128, Note_on_c, 3, 33, 0
5, 39168, Note_on_c, 3, 38, 112
5, 39320, Note_on_c, 3, 38, 0
5, 39360, Note_on_c, 3, 33, 112
5, 39540, Note_on_c, 3, 33, 0
5, 39552, Note_on_c, 3, 38, 112
5, 39700, Note_on_c, 3, 38, 0
5, 39744, Note_on_c, 3, 42, 112
5, 39808, Note_on_c, 3, 42, 0
5, 39840, Note_on_c, 3, 45, 112
5, 39888, Note_on_c, 3, 45, 0
5, 39936, Note_on_c, 3, 33, 112
5, 40088, Note_on_c, 3, 33, 0
5, 40128, Note_on_c, 3, 40, 112
5, 40280, Note_on_c, 3, 40, 0
5, 40320, Note_on_c, 3, 33, 112
5, 40500, Note_on_c, 3, 33, 0
5, 40508, Note_on_c, 3, 40, 112
5, 40664, Note_on_c, 3, 40, 0
5, 40704, Note_on_c, 3, 35, 112
5, 40864, Note_on_c, 3, 35, 0
5, 40896, Note_on_c, 3, 42, 112
5, 41064, Note_on_c, 3, 42, 0
5, 41088, Note_on_c, 3, 35, 112
5, 41240, Note_on_c, 3, 35, 0
5, 41280, Note_on_c, 3, 35, 112
5, 41324, Note_on_c, 3, 35, 0
5, 41376, Note_on_c, 3, 42, 112
5, 41428, Note_on_c, 3, 42, 0
5, 41472, Note_on_c, 3, 43, 112
5, 41632, Note_on_c, 3, 43, 0
5, 41664, Note_on_c, 3, 38, 112
5, 41844, Note_on_c, 3, 38, 0
5, 41856, Note_on_c, 3, 43, 112
5, 41980, Note_on_c, 3, 43, 0
5, 42044, Note_on_c, 3, 43, 112
5, 42092, Note_on_c, 3, 43, 0
5, 42144, Note_on_c, 3, 40, 112
5, 42216, Note_on_c, 3, 40, 0
5, 42240, Note_on_c, 3, 38, 112
5, 42400, Note_on_c, 3, 38, 0
5, 42432, Note_on_c, 3, 33, 112
5, 42600, Note_on_c, 3, 33, 0
5, 42620, Note_on_c, 3, 38, 112
5, 42788, Note_on_c, 3, 38, 0
5, 42816, Note_on_c, 3, 42, 112
5, 42868, Note_on_c, 3, 42, 0
5, 42912, Note_on_c, 3, 43, 112
5, 42972, Note_on_c, 3, 43, 0
5, 43008, Note_on_c, 3, 45, 112
5, 43172, Note_on_c, 3, 45, 0
5, 43200, Note_on_c, 3, 40, 112
5, 43376, Note_on_c, 3, 40, 0
5, 43392, Note_on_c, 3, 45, 112
5, 43544, Note_on_c, 3, 45, 0
5, 43584, Note_on_c, 3, 40, 112
5, 43636, Note_on_c, 3, 40, 0
5, 43684, Note_on_c, 3, 42, 112
5, 43736, Note_on_c, 3, 42, 0
5, 43776, Note_on_c, 3, 43, 112
5, 43932, Note_on_c, 3, 43, 0
5, 43968, Note_on_c, 3, 38, 112
5, 44132, Note_on_c, 3, 38, 0
5, 44160, Note_on_c, 3, 43, 112
5, 44340, Note_on_c, 3, 43, 0
5, 44352, Note_on_c, 3, 42, 112
5, 44404, Note_on_c, 3, 42, 0
5, 44448, Note_on_c, 3, 40, 112
5, 44520, Note_on_c, 3, 40, 0
5, 44540, Note_on_c, 3, 38, 112
5, 44684, Note_on_c, 3, 38, 0
5, 44736, Note_on_c, 3, 33, 112
5, 44904, Note_on_c, 3, 33, 0
5, 44928, Note_on_c, 3, 38, 112
5, 44972, Note_on_c, 3, 38, 0
5, 45024, Note_on_c, 3, 38, 112
5, 45068, Note_on_c, 3, 38, 0
5, 45120, Note_on_c, 3, 37, 112
5, 45164, Note_on_c, 3, 37, 0
5, 45220, Note_on_c, 3, 35, 112
5, 45256, Note_on_c, 3, 35, 0
5, 45312, Note_on_c, 3, 33, 112
5, 45468, Note_on_c, 3, 33, 0
5, 45504, Note_on_c, 3, 40, 112
5, 45672, Note_on_c, 3, 40, 0
5, 45696, Note_on_c, 3, 45, 112
5, 45740, Note_on_c, 3, 45, 0
5, 45792, Note_on_c, 3, 33, 112
5, 45824, Note_on_c, 3, 33, 0
5, 45888, Note_on_c, 3, 35, 112
5, 45940, Note_on_c, 3, 35, 0
5, 45984, Note_on_c, 3, 37, 112
5, 46028, Note_on_c, 3, 37, 0
5, 46080, Note_on_c, 3, 38, 112
5, 46260, Note_on_c, 3, 38, 0
5, 46272, Note_on_c, 3, 45, 112
5, 46424, Note_on_c, 3, 45, 0
5, 46464, Note_on_c, 3, 38, 112
5, 46488, Note_on_c, 3, 38, 0
5, 46560, Note_on_c, 3, 38, 112
5, 46584, Note_on_c, 3, 38, 0
5, 46656, Note_on_c, 3, 37, 112
5, 46696, Note_on_c, 3, 37, 0
5, 46752, Note_on_c, 3, 35, 112
5, 46800, Note_on_c, 3, 35, 0
5, 46848, Note_on_c, 3, 33, 112
5, 47000, Note_on_c, 3, 33, 0
5, 47040, Note_on_c, 3, 40, 112
5, 47200, Note_on_c, 3, 40, 0
5, 47232, Note_on_c, 3, 33, 112
5, 47244, Note_on_c, 3, 33, 0
5, 47328, Note_on_c, 3, 33, 112
5, 47360, Note_on_c, 3, 33, 0
5, 47424, Note_on_c, 3, 35, 112
5, 47468, Note_on_c, 3, 35, 0
5, 47520, Note_on_c, 3, 37, 112
5, 47552, Note_on_c, 3, 37, 0
5, 47616, Note_on_c, 3, 38, 112
5, 47780, Note_on_c, 3, 38, 0
5, 47808, Note_on_c, 3, 33, 112
5, 47976, Note_on_c, 3, 33, 0
5, 48000, Note_on_c, 3, 38, 112
5, 48044, Note_on_c, 3, 38, 0
5, 48096, Note_on_c, 3, 33, 112
5, 48116, Note_on_c, 3, 33, 0
5, 48192, Note_on_c, 3, 38, 109
5, 48320, Note_on_c, 3, 38, 0
5, 48320, End_track
6, 0, Start_track
6, 0, MIDI_port, 0
6, 0, Title_t, "Guitar              "
6, 0, Program_c, 4, 26
6, 0, Control_c, 4, 7, 71
6, 0, Control_c, 4, 10, 104
6, 0, Control_c, 4, 0, 0
6, 4, Control_c, 4, 1, 0
6, 8, Control_c, 4, 91, 100
6, 14784, Note_on_c, 4, 81, 127
6, 14912, Pitch_bend_c, 4, 7549
6, 14912, Pitch_bend_c, 4, 7067
6, 14916, Pitch_bend_c, 4, 6457
6, 14920, Pitch_bend_c, 4, 5878
6, 14920, Pitch_bend_c, 4, 5397
6, 14920, Pitch_bend_c, 4, 4722
6, 14928, Pitch_bend_c, 4, 4176
6, 14928, Pitch_bend_c, 4, 3533
6, 14928, Pitch_bend_c, 4, 2891
6, 14928, Pitch_bend_c, 4, 1702
6, 14932, Pitch_bend_c, 4, 481
6, 14936, Pitch_bend_c, 4, 0
6, 14960, Note_on_c, 4, 81, 0
6, 14976, Note_on_c, 4, 78, 127
6, 14980, Pitch_bend_c, 4, 867
6, 14980, Pitch_bend_c, 4, 3084
6, 14980, Pitch_bend_c, 4, 4818
6, 14980, Pitch_bend_c, 4, 7613
6, 14984, Pitch_bend_c, 4, 8192
6, 15508, Note_on_c, 4, 78, 0
6, 15552, Note_on_c, 4, 78, 127
6, 15744, Pitch_bend_c, 4, 7774
6, 15748, Pitch_bend_c, 4, 7517
6, 15748, Pitch_bend_c, 4, 7228
6, 15748, Pitch_bend_c, 4, 6874
6, 15752, Pitch_bend_c, 4, 6457
6, 15756, Pitch_bend_c, 4, 6103
6, 15760, Pitch_bend_c, 4, 5621
6, 15760, Pitch_bend_c, 4, 5268
6, 15760, Pitch_bend_c, 4, 4786
6, 15768, Pitch_bend_c, 4, 4497
6, 15768, Pitch_bend_c, 4, 3983
6, 15768, Pitch_bend_c, 4, 3598
6, 15768, Pitch_bend_c, 4, 3244
6, 15772, Pitch_bend_c, 4, 2891
6, 15772, Pitch_bend_c, 4, 2473
6, 15772, Pitch_bend_c, 4, 1574
6, 15780, Pitch_bend_c, 4, 867
6, 15784, Pitch_bend_c, 4, 0
6, 16200, Note_on_c, 4, 78, 0
6, 16228, Pitch_bend_c, 4, 1638
6, 16232, Pitch_bend_c, 4, 3051
6, 16236, Pitch_bend_c, 4, 3919
6, 16240, Pitch_bend_c, 4, 5011
6, 16240, Pitch_bend_c, 4, 5975
6, 16240, Pitch_bend_c, 4, 7196
6, 16244, Pitch_bend_c, 4, 8192
6, 16272, Note_on_c, 4, 74, 127
6, 16272, Note_on_c, 4, 78, 127
6, 16320, Note_on_c, 4, 78, 0
6, 16320, Note_on_c, 4, 74, 0
6, 16320, Note_on_c, 4, 73, 127
6, 16320, Note_on_c, 4, 76, 127
6, 16416, Note_on_c, 4, 76, 0
6, 16416, Note_on_c, 4, 73, 0
6, 16416, Note_on_c, 4, 72, 127
6, 16416, Note_on_c, 4, 75, 127
6, 16512, Note_on_c, 4, 75, 0
6, 16512, Note_on_c, 4, 72, 0
6, 16512, Note_on_c, 4, 71, 127
6, 16512, Note_on_c, 4, 74, 127
6, 16872, Note_on_c, 4, 74, 0
6, 16872, Note_on_c, 4, 71, 0
6, 16896, Note_on_c, 4, 74, 127
6, 17664, Note_on_c, 4, 74, 0
6, 17664, Note_on_c, 4, 69, 127
6, 18232, Note_on_c, 4, 69, 0
6, 18240, Note_on_c, 4, 74, 127
6, 18336, Note_on_c, 4, 69, 127
6, 18348, Note_on_c, 4, 74, 0
6, 18464, Pitch_bend_c, 4, 8545
6, 18464, Pitch_bend_c, 4, 8738
6, 18464, Pitch_bend_c, 4, 8995
6, 18464, Pitch_bend_c, 4, 9316
6, 18472, Pitch_bend_c, 4, 9637
6, 18472, Pitch_bend_c, 4, 9958
6, 18472, Pitch_bend_c, 4, 10248
6, 18476, Pitch_bend_c, 4, 10569
6, 18480, Pitch_bend_c, 4, 10890
6, 18480, Pitch_bend_c, 4, 11243
6, 18480, Pitch_bend_c, 4, 11629
6, 18484, Pitch_bend_c, 4, 12014
6, 18488, Pitch_bend_c, 4, 12400
6, 18488, Pitch_bend_c, 4, 12753
6, 18492, Pitch_bend_c, 4, 13010
6, 18496, Pitch_bend_c, 4, 13235
6, 18496, Pitch_bend_c, 4, 13428
6, 18496, Pitch_bend_c, 4, 13653
6, 18504, Pitch_bend_c, 4, 13846
6, 18504, Pitch_bend_c, 4, 14167
6, 18504, Pitch_bend_c, 4, 14745
6, 18508, Pitch_bend_c, 4, 15002
6, 18512, Pitch_bend_c, 4, 15259
6, 18512, Pitch_bend_c, 4, 15516
6, 18512, Pitch_bend_c, 4, 15837
6, 18516, Pitch_bend_c, 4, 16159
6, 18520, Pitch_bend_c, 4, 16383
6, 18884, Note_on_c, 4, 69, 0
6, 18904, Pitch_bend_c, 4, 15388
6, 18904, Pitch_bend_c, 4, 13235
6, 18904, Pitch_bend_c, 4, 11725
6, 18904, Pitch_bend_c, 4, 10023
6, 18908, Pitch_bend_c, 4, 8192
6, 19008, Note_on_c, 4, 74, 127
6, 19188, Pitch_bend_c, 4, 7870
6, 19192, Pitch_bend_c, 4, 7806
6, 19192, Pitch_bend_c, 4, 7742
6, 19192, Pitch_bend_c, 4, 7677
6, 19200, Pitch_bend_c, 4, 7581
6, 19200, Pitch_bend_c, 4, 7549
6, 19200, Pitch_bend_c, 4, 7517
6, 19204, Pitch_bend_c, 4, 7485
6, 19204, Pitch_bend_c, 4, 7453
6, 19204, Pitch_bend_c, 4, 7292
6, 19208, Pitch_bend_c, 4, 7228
6, 19208, Pitch_bend_c, 4, 7163
6, 19212, Pitch_bend_c, 4, 6971
6, 19216, Pitch_bend_c, 4, 6842
6, 19216, Pitch_bend_c, 4, 6714
6, 19220, Pitch_bend_c, 4, 6553
6, 19224, Pitch_bend_c, 4, 6457
6, 19228, Pitch_bend_c, 4, 6360
6, 19232, Pitch_bend_c, 4, 6296
6, 19232, Pitch_bend_c, 4, 6200
6, 19232, Pitch_bend_c, 4, 6135
6, 19232, Pitch_bend_c, 4, 6103
6, 19240, Pitch_bend_c, 4, 6039
6, 19240, Pitch_bend_c, 4, 6007
6, 19244, Pitch_bend_c, 4, 5943
6, 19248, Pitch_bend_c, 4, 5846
6, 19248, Pitch_bend_c, 4, 5782
6, 19248, Pitch_bend_c, 4, 5718
6, 19252, Pitch_bend_c, 4, 5686
6, 19256, Pitch_bend_c, 4, 5654
6, 19256, Pitch_bend_c, 4, 5621
6, 19260, Pitch_bend_c, 4, 5557
6, 19264, Pitch_bend_c, 4, 5525
6, 19264, Pitch_bend_c, 4, 5493
6, 19264, Pitch_bend_c, 4, 5461
6, 19268, Pitch_bend_c, 4, 5397
6, 19272, Pitch_bend_c, 4, 5332
6, 19272, Pitch_bend_c, 4, 5236
6, 19272, Pitch_bend_c, 4, 5172
6, 19280, Pitch_bend_c, 4, 5140
6, 19280, Pitch_bend_c, 4, 5107
6, 19304, Pitch_bend_c, 4, 5075
6, 19308, Pitch_bend_c, 4, 5107
6, 19312, Pitch_bend_c, 4, 5075
6, 19320, Pitch_bend_c, 4, 5043
6, 19320, Pitch_bend_c, 4, 5075
6, 19324, Pitch_bend_c, 4, 5043
6, 19328, Pitch_bend_c, 4, 5075
6, 19328, Pitch_bend_c, 4, 5043
6, 19336, Pitch_bend_c, 4, 5075
6, 19348, Pitch_bend_c, 4, 5043
6, 19348, Pitch_bend_c, 4, 5075
6, 19360, Pitch_bend_c, 4, 5043
6, 19360, Pitch_bend_c, 4, 5075
6, 19408, Pitch_bend_c, 4, 5107
6, 19432, Pitch_bend_c, 4, 5140
6, 19432, Pitch_bend_c, 4, 5107
6, 19440, Pitch_bend_c, 4, 5140
6, 19440, Pitch_bend_c, 4, 5107
6, 19440, Pitch_bend_c, 4, 5140
6, 19456, Pitch_bend_c, 4, 5107
6, 19464, Pitch_bend_c, 4, 5140
6, 19512, Pitch_bend_c, 4, 5107
6, 19516, Pitch_bend_c, 4, 5140
6, 19520, Pitch_bend_c, 4, 5172
6, 19524, Pitch_bend_c, 4, 5140
6, 19536, Pitch_bend_c, 4, 5172
6, 19540, Pitch_bend_c, 4, 5140
6, 19540, Pitch_bend_c, 4, 5172
6, 19584, Pitch_bend_c, 4, 5204
6, 19624, Pitch_bend_c, 4, 5236
6, 19628, Pitch_bend_c, 4, 5204
6, 19628, Pitch_bend_c, 4, 5236
6, 19632, Pitch_bend_c, 4, 5204
6, 19648, Pitch_bend_c, 4, 5236
6, 19648, Pitch_bend_c, 4, 5204
6, 19652, Pitch_bend_c, 4, 5236
6, 19656, Pitch_bend_c, 4, 5204
6, 19680, Pitch_bend_c, 4, 5236
6, 19696, Pitch_bend_c, 4, 5268
6, 19708, Pitch_bend_c, 4, 5300
6, 19712, Note_on_c, 4, 74, 0
6, 19712, Pitch_bend_c, 4, 5332
6, 19712, Pitch_bend_c, 4, 5364
6, 19716, Pitch_bend_c, 4, 5397
6, 19716, Pitch_bend_c, 4, 5461
6, 19720, Pitch_bend_c, 4, 5525
6, 19724, Pitch_bend_c, 4, 5589
6, 19728, Pitch_bend_c, 4, 5718
6, 19728, Pitch_bend_c, 4, 6103
6, 19728, Pitch_bend_c, 4, 6425
6, 19728, Pitch_bend_c, 4, 6810
6, 19732, Pitch_bend_c, 4, 7260
6, 19732, Pitch_bend_c, 4, 7710
6, 19736, Pitch_bend_c, 4, 8192
6, 19776, Note_on_c, 4, 73, 127
6, 19944, Pitch_bend_c, 4, 7838
6, 19944, Pitch_bend_c, 4, 7774
6, 19944, Pitch_bend_c, 4, 7549
6, 19948, Pitch_bend_c, 4, 7324
6, 19952, Pitch_bend_c, 4, 7131
6, 19952, Pitch_bend_c, 4, 6810
6, 19956, Pitch_bend_c, 4, 6489
6, 19956, Pitch_bend_c, 4, 6200
6, 19960, Pitch_bend_c, 4, 5911
6, 19964, Pitch_bend_c, 4, 5621
6, 19968, Pitch_bend_c, 4, 5493
6, 19968, Pitch_bend_c, 4, 5204
6, 19972, Pitch_bend_c, 4, 4658
6, 19972, Pitch_bend_c, 4, 4465
6, 19972, Pitch_bend_c, 4, 4144
6, 19980, Pitch_bend_c, 4, 3790
6, 19984, Pitch_bend_c, 4, 3533
6, 19984, Pitch_bend_c, 4, 3244
6, 19984, Pitch_bend_c, 4, 2955
6, 19992, Pitch_bend_c, 4, 2762
6, 19992, Pitch_bend_c, 4, 2280
6, 19992, Pitch_bend_c, 4, 1638
6, 19992, Pitch_bend_c, 4, 1252
6, 20000, Pitch_bend_c, 4, 546
6, 20000, Pitch_bend_c, 4, 0
6, 20444, Note_on_c, 4, 73, 0
6, 20452, Pitch_bend_c, 4, 3501
6, 20456, Pitch_bend_c, 4, 4947
6, 20456, Pitch_bend_c, 4, 6521
6, 20464, Pitch_bend_c, 4, 8192
6, 20544, Note_on_c, 4, 74, 127
6, 20632, Note_on_c, 4, 74, 0
6, 20636, Note_on_c, 4, 76, 127
6, 20736, Note_on_c, 4, 78, 127
6, 20740, Note_on_c, 4, 76, 0
6, 21268, Note_on_c, 4, 78, 0
6, 21312, Note_on_c, 4, 78, 127
6, 21384, Pitch_bend_c, 4, 7870
6, 21388, Pitch_bend_c, 4, 7613
6, 21388, Pitch_bend_c, 4, 7292
6, 21392, Pitch_bend_c, 4, 6971
6, 21392, Pitch_bend_c, 4, 6682
6, 21400, Pitch_bend_c, 4, 6392
6, 21400, Pitch_bend_c, 4, 6103
6, 21400, Pitch_bend_c, 4, 5654
6, 21404, Pitch_bend_c, 4, 5429
6, 21408, Pitch_bend_c, 4, 4947
6, 21408, Pitch_bend_c, 4, 4561
6, 21412, Pitch_bend_c, 4, 3919
6, 21416, Pitch_bend_c, 4, 2955
6, 21416, Pitch_bend_c, 4, 2216
6, 21420, Pitch_bend_c, 4, 995
6, 21420, Pitch_bend_c, 4, 0
6, 21456, Note_on_c, 4, 74, 127
6, 21460, Note_on_c, 4, 78, 0
6, 21472, Pitch_bend_c, 4, 1317
6, 21472, Pitch_bend_c, 4, 3244
6, 21476, Pitch_bend_c, 4, 4818
6, 21476, Pitch_bend_c, 4, 7163
6, 21476, Pitch_bend_c, 4, 8192
6, 21504, Note_on_c, 4, 76, 127
6, 21520, Note_on_c, 4, 74, 0
6, 22016, Note_on_c, 4, 76, 0
6, 22080, Note_on_c, 4, 78, 127
6, 22172, Pitch_bend_c, 4, 7870
6, 22172, Pitch_bend_c, 4, 7710
6, 22176, Pitch_bend_c, 4, 7485
6, 22180, Pitch_bend_c, 4, 7196
6, 22184, Pitch_bend_c, 4, 6328
6, 22188, Pitch_bend_c, 4, 6039
6, 22192, Pitch_bend_c, 4, 5654
6, 22192, Pitch_bend_c, 4, 5429
6, 22192, Pitch_bend_c, 4, 5075
6, 22200, Pitch_bend_c, 4, 4690
6, 22200, Pitch_bend_c, 4, 4433
6, 22200, Pitch_bend_c, 4, 3919
6, 22200, Pitch_bend_c, 4, 3598
6, 22204, Pitch_bend_c, 4, 3244
6, 22208, Pitch_bend_c, 4, 2891
6, 22208, Pitch_bend_c, 4, 2473
6, 22212, Pitch_bend_c, 4, 1702
6, 22212, Pitch_bend_c, 4, 1060
6, 22216, Pitch_bend_c, 4, 289
6, 22216, Pitch_bend_c, 4, 0
6, 22272, Note_on_c, 4, 78, 0
6, 22272, Note_on_c, 4, 74, 127
6, 22276, Pitch_bend_c, 4, 160
6, 22280, Pitch_bend_c, 4, 2762
6, 22280, Pitch_bend_c, 4, 4786
6, 22284, Pitch_bend_c, 4, 7645
6, 22288, Pitch_bend_c, 4, 8192
6, 22776, Note_on_c, 4, 74, 0
6, 22848, Note_on_c, 4, 76, 127
6, 22872, Pitch_bend_c, 4, 8738
6, 22876, Pitch_bend_c, 4, 9380
6, 22876, Pitch_bend_c, 4, 10087
6, 22880, Pitch_bend_c, 4, 10794
6, 22880, Pitch_bend_c, 4, 11661
6, 22888, Pitch_bend_c, 4, 12625
6, 22888, Pitch_bend_c, 4, 13364
6, 22888, Pitch_bend_c, 4, 14231
6, 22888, Pitch_bend_c, 4, 15452
6, 22896, Pitch_bend_c, 4, 16383
6, 22944, Pitch_bend_c, 4, 14360
6, 22948, Pitch_bend_c, 4, 11243
6, 22952, Note_on_c, 4, 76, 0
6, 22952, Pitch_bend_c, 4, 7838
6, 22952, Pitch_bend_c, 4, 8192
6, 22952, Note_on_c, 4, 81, 127
6, 23016, Note_on_c, 4, 81, 0
6, 23040, Note_on_c, 4, 81, 127
6, 23088, Pitch_bend_c, 4, 8577
6, 23092, Pitch_bend_c, 4, 8802
6, 23096, Pitch_bend_c, 4, 9027
6, 23096, Pitch_bend_c, 4, 9187
6, 23100, Pitch_bend_c, 4, 9380
6, 23104, Pitch_bend_c, 4, 9605
6, 23104, Pitch_bend_c, 4, 9862
6, 23104, Pitch_bend_c, 4, 10151
6, 23112, Pitch_bend_c, 4, 10569
6, 23112, Pitch_bend_c, 4, 11083
6, 23112, Pitch_bend_c, 4, 11693
6, 23116, Pitch_bend_c, 4, 12336
6, 23116, Pitch_bend_c, 4, 12850
6, 23120, Pitch_bend_c, 4, 13171
6, 23120, Pitch_bend_c, 4, 13460
6, 23124, Pitch_bend_c, 4, 13781
6, 23124, Pitch_bend_c, 4, 14360
6, 23128, Pitch_bend_c, 4, 14938
6, 23132, Pitch_bend_c, 4, 15195
6, 23132, Pitch_bend_c, 4, 15388
6, 23136, Pitch_bend_c, 4, 15773
6, 23140, Pitch_bend_c, 4, 16030
6, 23140, Pitch_bend_c, 4, 16383
6, 23556, Pitch_bend_c, 4, 13010
6, 23556, Pitch_bend_c, 4, 10183
6, 23560, Note_on_c, 4, 81, 0
6, 23560, Pitch_bend_c, 4, 8192
6, 23616, Note_on_c, 4, 83, 127
6, 23664, Pitch_bend_c, 4, 8352
6, 23668, Pitch_bend_c, 4, 8609
6, 23668, Pitch_bend_c, 4, 8995
6, 23668, Pitch_bend_c, 4, 9541
6, 23672, Pitch_bend_c, 4, 10119
6, 23680, Pitch_bend_c, 4, 10665
6, 23680, Pitch_bend_c, 4, 11276
6, 23680, Pitch_bend_c, 4, 12047
6, 23684, Pitch_bend_c, 4, 12818
6, 23688, Pitch_bend_c, 4, 13267
6, 23688, Pitch_bend_c, 4, 13846
6, 23688, Pitch_bend_c, 4, 15131
6, 23692, Pitch_bend_c, 4, 16223
6, 23696, Pitch_bend_c, 4, 16383
6, 23808, Note_on_c, 4, 86, 127
6, 23812, Note_on_c, 4, 83, 0
6, 23812, Pitch_bend_c, 4, 15388
6, 23816, Pitch_bend_c, 4, 11533
6, 23824, Pitch_bend_c, 4, 8192
6, 24280, Note_on_c, 4, 86, 0
6, 24384, Note_on_c, 4, 78, 127
6, 24432, Pitch_bend_c, 4, 7388
6, 24432, Pitch_bend_c, 4, 6392
6, 24432, Pitch_bend_c, 4, 5525
6, 24436, Pitch_bend_c, 4, 4626
6, 24440, Pitch_bend_c, 4, 3694
6, 24440, Pitch_bend_c, 4, 2891
6, 24444, Pitch_bend_c, 4, 1509
6, 24448, Pitch_bend_c, 4, 0
6, 24476, Note_on_c, 4, 74, 127
6, 24480, Note_on_c, 4, 78, 0
6, 24484, Pitch_bend_c, 4, 2859
6, 24488, Pitch_bend_c, 4, 4304
6, 24488, Pitch_bend_c, 4, 5846
6, 24496, Pitch_bend_c, 4, 7774
6, 24496, Pitch_bend_c, 4, 8192
6, 24528, Note_on_c, 4, 76, 127
6, 24536, Note_on_c, 4, 74, 0
6, 24672, Pitch_bend_c, 4, 8545
6, 24676, Pitch_bend_c, 4, 8930
6, 24680, Pitch_bend_c, 4, 10472
6, 24684, Pitch_bend_c, 4, 10826
6, 24688, Pitch_bend_c, 4, 11179
6, 24688, Pitch_bend_c, 4, 11565
6, 24688, Pitch_bend_c, 4, 12047
6, 24692, Pitch_bend_c, 4, 12496
6, 24696, Pitch_bend_c, 4, 12850
6, 24696, Pitch_bend_c, 4, 13107
6, 24700, Pitch_bend_c, 4, 13364
6, 24704, Pitch_bend_c, 4, 13653
6, 24704, Pitch_bend_c, 4, 13974
6, 24704, Pitch_bend_c, 4, 14552
6, 24712, Pitch_bend_c, 4, 15002
6, 24712, Pitch_bend_c, 4, 15259
6, 24712, Pitch_bend_c, 4, 15645
6, 24716, Pitch_bend_c, 4, 16030
6, 24716, Pitch_bend_c, 4, 16351
6, 24720, Pitch_bend_c, 4, 16383
6, 25080, Note_on_c, 4, 76, 0
6, 25088, Pitch_bend_c, 4, 13075
6, 25096, Pitch_bend_c, 4, 10633
6, 25096, Pitch_bend_c, 4, 7999
6, 25096, Pitch_bend_c, 4, 8192
6, 25152, Note_on_c, 4, 78, 127
6, 25236, Pitch_bend_c, 4, 7774
6, 25240, Pitch_bend_c, 4, 7228
6, 25240, Pitch_bend_c, 4, 6714
6, 25248, Pitch_bend_c, 4, 6200
6, 25248, Pitch_bend_c, 4, 5654
6, 25252, Pitch_bend_c, 4, 5204
6, 25256, Pitch_bend_c, 4, 4690
6, 25256, Pitch_bend_c, 4, 3244
6, 25256, Pitch_bend_c, 4, 3694
6, 25260, Pitch_bend_c, 4, 2794
6, 25264, Pitch_bend_c, 4, 2152
6, 25264, Pitch_bend_c, 4, 1252
6, 25268, Pitch_bend_c, 4, 224
6, 25272, Pitch_bend_c, 4, 0
6, 25328, Note_on_c, 4, 78, 0
6, 25344, Pitch_bend_c, 4, 1381
6, 25344, Pitch_bend_c, 4, 3598
6, 25344, Note_on_c, 4, 74, 127
6, 25348, Pitch_bend_c, 4, 5589
6, 25348, Pitch_bend_c, 4, 8192
6, 25856, Note_on_c, 4, 74, 0
6, 25920, Note_on_c, 4, 74, 127
6, 26016, Note_on_c, 4, 74, 0
6, 26016, Note_on_c, 4, 76, 127
6, 26064, Note_on_c, 4, 74, 127
6, 26080, Note_on_c, 4, 76, 0
6, 26792, Note_on_c, 4, 74, 0
6, 28224, Note_on_c, 4, 86, 127
6, 28328, Pitch_bend_c, 4, 7870
6, 28328, Pitch_bend_c, 4, 7710
6, 28332, Pitch_bend_c, 4, 7485
6, 28336, Pitch_bend_c, 4, 7163
6, 28336, Pitch_bend_c, 4, 6810
6, 28340, Pitch_bend_c, 4, 6425
6, 28340, Pitch_bend_c, 4, 6103
6, 28344, Pitch_bend_c, 4, 5654
6, 28344, Pitch_bend_c, 4, 5429
6, 28348, Pitch_bend_c, 4, 4947
6, 28348, Pitch_bend_c, 4, 4561
6, 28352, Pitch_bend_c, 4, 4015
6, 28352, Pitch_bend_c, 4, 3630
6, 28356, Pitch_bend_c, 4, 3212
6, 28360, Pitch_bend_c, 4, 2827
6, 28360, Pitch_bend_c, 4, 2023
6, 28360, Pitch_bend_c, 4, 1124
6, 28368, Pitch_bend_c, 4, 0
6, 28408, Note_on_c, 4, 86, 0
6, 28416, Pitch_bend_c, 4, 1895
6, 28416, Note_on_c, 4, 83, 127
6, 28420, Pitch_bend_c, 4, 3758
6, 28420, Pitch_bend_c, 4, 5589
6, 28420, Pitch_bend_c, 4, 7645
6, 28424, Pitch_bend_c, 4, 8192
6, 29036, Note_on_c, 4, 83, 0
6, 29184, Note_on_c, 4, 81, 127
6, 29352, Note_on_c, 4, 81, 0
6, 29376, Note_on_c, 4, 81, 127
6, 29696, Note_on_c, 4, 81, 0
6, 29760, Note_on_c, 4, 81, 127
6, 29864, Pitch_bend_c, 4, 7838
6, 29864, Pitch_bend_c, 4, 7517
6, 29872, Pitch_bend_c, 4, 7131
6, 29872, Pitch_bend_c, 4, 6746
6, 29872, Pitch_bend_c, 4, 6360
6, 29872, Pitch_bend_c, 4, 5975
6, 29880, Pitch_bend_c, 4, 5557
6, 29880, Pitch_bend_c, 4, 5236
6, 29880, Pitch_bend_c, 4, 4754
6, 29884, Pitch_bend_c, 4, 4433
6, 29888, Pitch_bend_c, 4, 3822
6, 29888, Pitch_bend_c, 4, 3501
6, 29892, Pitch_bend_c, 4, 3019
6, 29892, Pitch_bend_c, 4, 2537
6, 29896, Pitch_bend_c, 4, 1445
6, 29896, Pitch_bend_c, 4, 417
6, 29904, Pitch_bend_c, 4, 0
6, 29928, Note_on_c, 4, 81, 0
6, 29952, Pitch_bend_c, 4, 1252
6, 29952, Pitch_bend_c, 4, 3533
6, 29952, Note_on_c, 4, 78, 127
6, 29956, Pitch_bend_c, 4, 5525
6, 29956, Pitch_bend_c, 4, 8192
6, 30384, Note_on_c, 4, 78, 0
6, 30528, Note_on_c, 4, 83, 127
6, 30592, Pitch_bend_c, 4, 8481
6, 30592, Pitch_bend_c, 4, 8802
6, 30596, Pitch_bend_c, 4, 9220
6, 30600, Pitch_bend_c, 4, 9701
6, 30600, Pitch_bend_c, 4, 10215
6, 30604, Pitch_bend_c, 4, 10729
6, 30604, Pitch_bend_c, 4, 11243
6, 30608, Pitch_bend_c, 4, 11854
6, 30608, Pitch_bend_c, 4, 12464
6, 30616, Pitch_bend_c, 4, 12946
6, 30616, Pitch_bend_c, 4, 13267
6, 30616, Pitch_bend_c, 4, 13653
6, 30624, Pitch_bend_c, 4, 14295
6, 30624, Pitch_bend_c, 4, 14938
6, 30624, Pitch_bend_c, 4, 15323
6, 30628, Pitch_bend_c, 4, 15773
6, 30628, Pitch_bend_c, 4, 16383
6, 30692, Note_on_c, 4, 83, 0
6, 30696, Pitch_bend_c, 4, 15323
6, 30696, Pitch_bend_c, 4, 11629
6, 30704, Pitch_bend_c, 4, 8192
6, 30720, Note_on_c, 4, 86, 127
6, 31488, Note_on_c, 4, 85, 127
6, 31496, Note_on_c, 4, 86, 0
6, 32752, Note_on_c, 4, 85, 0
6, 33024, Note_on_c, 4, 78, 127
6, 33556, Note_on_c, 4, 78, 0
6, 33600, Note_on_c, 4, 78, 127
6, 33672, Pitch_bend_c, 4, 7870
6, 33676, Pitch_bend_c, 4, 7613
6, 33680, Pitch_bend_c, 4, 7292
6, 33680, Pitch_bend_c, 4, 6971
6, 33684, Pitch_bend_c, 4, 6682
6, 33684, Pitch_bend_c, 4, 6392
6, 33688, Pitch_bend_c, 4, 6103
6, 33688, Pitch_bend_c, 4, 5654
6, 33692, Pitch_bend_c, 4, 5429
6, 33696, Pitch_bend_c, 4, 4947
6, 33696, Pitch_bend_c, 4, 4561
6, 33704, Pitch_bend_c, 4, 3919
6, 33704, Pitch_bend_c, 4, 2955
6, 33704, Pitch_bend_c, 4, 2216
6, 33704, Pitch_bend_c, 4, 995
6, 33708, Pitch_bend_c, 4, 0
6, 33744, Note_on_c, 4, 74, 127
6, 33748, Note_on_c, 4, 78, 0
6, 33760, Pitch_bend_c, 4, 1317
6, 33760, Pitch_bend_c, 4, 3244
6, 33764, Pitch_bend_c, 4, 4818
6, 33764, Pitch_bend_c, 4, 7163
6, 33768, Pitch_bend_c, 4, 8192
6, 33792, Note_on_c, 4, 76, 127
6, 33808, Note_on_c, 4, 74, 0
6, 34304, Note_on_c, 4, 76, 0
6, 34368, Note_on_c, 4, 78, 127
6, 34460, Pitch_bend_c, 4, 7870
6, 34460, Pitch_bend_c, 4, 7710
6, 34464, Pitch_bend_c, 4, 7485
6, 34468, Pitch_bend_c, 4, 7196
6, 34468, Pitch_bend_c, 4, 6328
6, 34476, Pitch_bend_c, 4, 6039
6, 34476, Pitch_bend_c, 4, 5654
6, 34480, Pitch_bend_c, 4, 5429
6, 34480, Pitch_bend_c, 4, 5075
6, 34488, Pitch_bend_c, 4, 4690
6, 34488, Pitch_bend_c, 4, 4433
6, 34488, Pitch_bend_c, 4, 3919
6, 34488, Pitch_bend_c, 4, 3598
6, 34488, Pitch_bend_c, 4, 3244
6, 34492, Pitch_bend_c, 4, 2891
6, 34496, Pitch_bend_c, 4, 2473
6, 34500, Pitch_bend_c, 4, 1702
6, 34504, Pitch_bend_c, 4, 1060
6, 34504, Pitch_bend_c, 4, 289
6, 34504, Pitch_bend_c, 4, 0
6, 34560, Note_on_c, 4, 78, 0
6, 34560, Note_on_c, 4, 74, 127
6, 34564, Pitch_bend_c, 4, 160
6, 34568, Pitch_bend_c, 4, 2762
6, 34568, Pitch_bend_c, 4, 4786
6, 34572, Pitch_bend_c, 4, 7645
6, 34576, Pitch_bend_c, 4, 8192
6, 35064, Note_on_c, 4, 74, 0
6, 35136, Note_on_c, 4, 76, 127
6, 35160, Pitch_bend_c, 4, 8738
6, 35160, Pitch_bend_c, 4, 9380
6, 35168, Pitch_bend_c, 4, 10087
6, 35168, Pitch_bend_c, 4, 10794
6, 35168, Pitch_bend_c, 4, 11661
6, 35176, Pitch_bend_c, 4, 12625
6, 35176, Pitch_bend_c, 4, 13364
6, 35176, Pitch_bend_c, 4, 14231
6, 35180, Pitch_bend_c, 4, 15452
6, 35184, Pitch_bend_c, 4, 16383
6, 35228, Pitch_bend_c, 4, 14360
6, 35232, Note_on_c, 4, 81, 127
6, 35236, Pitch_bend_c, 4, 11243
6, 35240, Note_on_c, 4, 76, 0
6, 35240, Pitch_bend_c, 4, 7838
6, 35240, Pitch_bend_c, 4, 8192
6, 35296, Note_on_c, 4, 81, 0
6, 35328, Note_on_c, 4, 81, 127
6, 35380, Pitch_bend_c, 4, 8577
6, 35380, Pitch_bend_c, 4, 8802
6, 35384, Pitch_bend_c, 4, 9027
6, 35384, Pitch_bend_c, 4, 9187
6, 35392, Pitch_bend_c, 4, 9380
6, 35392, Pitch_bend_c, 4, 9605
6, 35392, Pitch_bend_c, 4, 9862
6, 35392, Pitch_bend_c, 4, 10151
6, 35396, Pitch_bend_c, 4, 10569
6, 35400, Pitch_bend_c, 4, 11083
6, 35400, Pitch_bend_c, 4, 11693
6, 35400, Pitch_bend_c, 4, 12336
6, 35404, Pitch_bend_c, 4, 12850
6, 35408, Pitch_bend_c, 4, 13171
6, 35408, Pitch_bend_c, 4, 13460
6, 35412, Pitch_bend_c, 4, 13781
6, 35412, Pitch_bend_c, 4, 14360
6, 35416, Pitch_bend_c, 4, 14938
6, 35420, Pitch_bend_c, 4, 15195
6, 35424, Pitch_bend_c, 4, 15388
6, 35424, Pitch_bend_c, 4, 15773
6, 35428, Pitch_bend_c, 4, 16030
6, 35428, Pitch_bend_c, 4, 16383
6, 35844, Pitch_bend_c, 4, 13010
6, 35844, Pitch_bend_c, 4, 10183
6, 35848, Note_on_c, 4, 81, 0
6, 35848, Pitch_bend_c, 4, 8192
6, 35904, Note_on_c, 4, 83, 127
6, 35956, Pitch_bend_c, 4, 8352
6, 35956, Pitch_bend_c, 4, 8609
6, 35956, Pitch_bend_c, 4, 8995
6, 35960, Pitch_bend_c, 4, 9541
6, 35964, Pitch_bend_c, 4, 10119
6, 35968, Pitch_bend_c, 4, 10665
6, 35968, Pitch_bend_c, 4, 11276
6, 35968, Pitch_bend_c, 4, 12047
6, 35972, Pitch_bend_c, 4, 12818
6, 35976, Pitch_bend_c, 4, 13267
6, 35976, Pitch_bend_c, 4, 13846
6, 35976, Pitch_bend_c, 4, 15131
6, 35980, Pitch_bend_c, 4, 16223
6, 35984, Pitch_bend_c, 4, 16383
6, 36096, Note_on_c, 4, 86, 127
6, 36100, Note_on_c, 4, 83, 0
6, 36100, Pitch_bend_c, 4, 15388
6, 36104, Pitch_bend_c, 4, 11533
6, 36108, Pitch_bend_c, 4, 8192
6, 36568, Note_on_c, 4, 86, 0
6, 36672, Note_on_c, 4, 78, 127
6, 36716, Pitch_bend_c, 4, 7388
6, 36720, Pitch_bend_c, 4, 6392
6, 36720, Pitch_bend_c, 4, 5525
6, 36724, Pitch_bend_c, 4, 4626
6, 36724, Pitch_bend_c, 4, 3694
6, 36724, Pitch_bend_c, 4, 2891
6, 36732, Pitch_bend_c, 4, 1509
6, 36736, Pitch_bend_c, 4, 0
6, 36768, Note_on_c, 4, 78, 0
6, 36768, Note_on_c, 4, 74, 127
6, 36772, Pitch_bend_c, 4, 2859
6, 36776, Pitch_bend_c, 4, 4304
6, 36784, Pitch_bend_c, 4, 5846
6, 36784, Pitch_bend_c, 4, 7774
6, 36784, Pitch_bend_c, 4, 8192
6, 36816, Note_on_c, 4, 76, 127
6, 36824, Note_on_c, 4, 74, 0
6, 36960, Pitch_bend_c, 4, 8545
6, 36964, Pitch_bend_c, 4, 8930
6, 36968, Pitch_bend_c, 4, 10472
6, 36968, Pitch_bend_c, 4, 10826
6, 36976, Pitch_bend_c, 4, 11179
6, 36976, Pitch_bend_c, 4, 11565
6, 36976, Pitch_bend_c, 4, 12047
6, 36980, Pitch_bend_c, 4, 12496
6, 36984, Pitch_bend_c, 4, 12850
6, 36984, Pitch_bend_c, 4, 13107
6, 36988, Pitch_bend_c, 4, 13364
6, 36992, Pitch_bend_c, 4, 13653
6, 36992, Pitch_bend_c, 4, 13974
6, 36992, Pitch_bend_c, 4, 14552
6, 37000, Pitch_bend_c, 4, 15002
6, 37000, Pitch_bend_c, 4, 15259
6, 37000, Pitch_bend_c, 4, 15645
6, 37000, Pitch_bend_c, 4, 16030
6, 37004, Pitch_bend_c, 4, 16351
6, 37008, Pitch_bend_c, 4, 16383
6, 37368, Note_on_c, 4, 76, 0
6, 37376, Pitch_bend_c, 4, 13075
6, 37384, Pitch_bend_c, 4, 10633
6, 37384, Pitch_bend_c, 4, 7999
6, 37384, Pitch_bend_c, 4, 8192
6, 37440, Note_on_c, 4, 78, 127
6, 37528, Pitch_bend_c, 4, 7774
6, 37528, Pitch_bend_c, 4, 7228
6, 37528, Pitch_bend_c, 4, 6714
6, 37532, Pitch_bend_c, 4, 6200
6, 37536, Pitch_bend_c, 4, 5654
6, 37540, Pitch_bend_c, 4, 5204
6, 37544, Pitch_bend_c, 4, 4690
6, 37544, Pitch_bend_c, 4, 3244
6, 37544, Pitch_bend_c, 4, 3694
6, 37552, Pitch_bend_c, 4, 2794
6, 37552, Pitch_bend_c, 4, 2152
6, 37552, Pitch_bend_c, 4, 1252
6, 37556, Pitch_bend_c, 4, 224
6, 37556, Pitch_bend_c, 4, 0
6, 37616, Note_on_c, 4, 78, 0
6, 37632, Pitch_bend_c, 4, 1381
6, 37632, Pitch_bend_c, 4, 3598
6, 37632, Note_on_c, 4, 74, 127
6, 37636, Pitch_bend_c, 4, 5589
6, 37636, Pitch_bend_c, 4, 8192
6, 38144, Note_on_c, 4, 74, 0
6, 38208, Note_on_c, 4, 74, 127
6, 38304, Note_on_c, 4, 74, 0
6, 38304, Note_on_c, 4, 76, 127
6, 38348, Note_on_c, 4, 74, 127
6, 38368, Note_on_c, 4, 76, 0
6, 39076, Note_on_c, 4, 74, 0
6, 39360, Note_on_c, 4, 78, 127
6, 39452, Pitch_bend_c, 4, 7742
6, 39452, Pitch_bend_c, 4, 7388
6, 39456, Pitch_bend_c, 4, 6939
6, 39460, Pitch_bend_c, 4, 6425
6, 39460, Pitch_bend_c, 4, 5429
6, 39464, Pitch_bend_c, 4, 4722
6, 39468, Pitch_bend_c, 4, 4240
6, 39472, Pitch_bend_c, 4, 3630
6, 39472, Pitch_bend_c, 4, 3116
6, 39472, Pitch_bend_c, 4, 2762
6, 39480, Pitch_bend_c, 4, 1831
6, 39480, Pitch_bend_c, 4, 1252
6, 39480, Pitch_bend_c, 4, 481
6, 39484, Pitch_bend_c, 4, 0
6, 39576, Pitch_bend_c, 4, 96
6, 39576, Pitch_bend_c, 4, 867
6, 39576, Pitch_bend_c, 4, 1509
6, 39576, Pitch_bend_c, 4, 2280
6, 39580, Pitch_bend_c, 4, 2794
6, 39584, Pitch_bend_c, 4, 3019
6, 39584, Pitch_bend_c, 4, 3341
6, 39588, Pitch_bend_c, 4, 3565
6, 39592, Pitch_bend_c, 4, 3758
6, 39592, Pitch_bend_c, 4, 4112
6, 39596, Pitch_bend_c, 4, 4497
6, 39596, Pitch_bend_c, 4, 4722
6, 39600, Pitch_bend_c, 4, 5107
6, 39600, Pitch_bend_c, 4, 5461
6, 39604, Pitch_bend_c, 4, 5686
6, 39604, Pitch_bend_c, 4, 6039
6, 39608, Pitch_bend_c, 4, 6296
6, 39612, Pitch_bend_c, 4, 6521
6, 39616, Pitch_bend_c, 4, 6842
6, 39616, Pitch_bend_c, 4, 7131
6, 39616, Pitch_bend_c, 4, 7420
6, 39624, Pitch_bend_c, 4, 7613
6, 39624, Pitch_bend_c, 4, 7838
6, 39624, Pitch_bend_c, 4, 8192
6, 39856, Note_on_c, 4, 78, 0
6, 40128, Note_on_c, 4, 78, 127
6, 40160, Pitch_bend_c, 4, 7710
6, 40160, Pitch_bend_c, 4, 7196
6, 40168, Pitch_bend_c, 4, 6521
6, 40168, Pitch_bend_c, 4, 5814
6, 40168, Pitch_bend_c, 4, 5204
6, 40168, Pitch_bend_c, 4, 4529
6, 40172, Pitch_bend_c, 4, 3758
6, 40176, Pitch_bend_c, 4, 3116
6, 40176, Pitch_bend_c, 4, 2345
6, 40176, Pitch_bend_c, 4, 1124
6, 40180, Pitch_bend_c, 4, 0
6, 40256, Pitch_bend_c, 4, 1509
6, 40256, Pitch_bend_c, 4, 3437
6, 40256, Pitch_bend_c, 4, 4850
6, 40256, Pitch_bend_c, 4, 6553
6, 40264, Note_on_c, 4, 78, 0
6, 40264, Pitch_bend_c, 4, 8192
6, 40264, Note_on_c, 4, 74, 127
6, 40352, Pitch_bend_c, 4, 8545
6, 40352, Pitch_bend_c, 4, 9252
6, 40352, Pitch_bend_c, 4, 10151
6, 40356, Pitch_bend_c, 4, 11083
6, 40356, Pitch_bend_c, 4, 11982
6, 40360, Pitch_bend_c, 4, 12785
6, 40360, Pitch_bend_c, 4, 13267
6, 40368, Pitch_bend_c, 4, 13846
6, 40368, Pitch_bend_c, 4, 15131
6, 40368, Pitch_bend_c, 4, 16030
6, 40368, Pitch_bend_c, 4, 16383
6, 40640, Note_on_c, 4, 74, 0
6, 40656, Pitch_bend_c, 4, 15837
6, 40660, Pitch_bend_c, 4, 12818
6, 40660, Pitch_bend_c, 4, 10440
6, 40660, Pitch_bend_c, 4, 7934
6, 40660, Pitch_bend_c, 4, 8192
6, 40896, Note_on_c, 4, 78, 127
6, 40976, Pitch_bend_c, 4, 7742
6, 40976, Pitch_bend_c, 4, 7356
6, 40980, Pitch_bend_c, 4, 6906
6, 40984, Pitch_bend_c, 4, 6521
6, 40984, Pitch_bend_c, 4, 6135
6, 40984, Pitch_bend_c, 4, 5654
6, 40992, Pitch_bend_c, 4, 5364
6, 40992, Pitch_bend_c, 4, 4786
6, 40996, Pitch_bend_c, 4, 4433
6, 41000, Pitch_bend_c, 4, 3437
6, 41004, Pitch_bend_c, 4, 2537
6, 41004, Pitch_bend_c, 4, 1509
6, 41008, Pitch_bend_c, 4, 803
6, 41008, Pitch_bend_c, 4, 0
6, 41080, Note_on_c, 4, 78, 0
6, 41084, Pitch_bend_c, 4, 417
6, 41088, Note_on_c, 4, 74, 127
6, 41092, Pitch_bend_c, 4, 2762
6, 41096, Pitch_bend_c, 4, 4112
6, 41096, Pitch_bend_c, 4, 5686
6, 41096, Pitch_bend_c, 4, 7677
6, 41096, Pitch_bend_c, 4, 8192
6, 41548, Note_on_c, 4, 74, 0
6, 41664, Note_on_c, 4, 83, 127
6, 41728, Pitch_bend_c, 4, 8352
6, 41736, Pitch_bend_c, 4, 8609
6, 41736, Pitch_bend_c, 4, 8866
6, 41736, Pitch_bend_c, 4, 9284
6, 41736, Pitch_bend_c, 4, 9830
6, 41744, Pitch_bend_c, 4, 10472
6, 41744, Pitch_bend_c, 4, 11179
6, 41744, Pitch_bend_c, 4, 12014
6, 41752, Pitch_bend_c, 4, 12785
6, 41752, Pitch_bend_c, 4, 13267
6, 41752, Pitch_bend_c, 4, 13910
6, 41752, Pitch_bend_c, 4, 15002
6, 41756, Pitch_bend_c, 4, 15645
6, 41760, Pitch_bend_c, 4, 16351
6, 41764, Pitch_bend_c, 4, 16383
6, 41836, Note_on_c, 4, 83, 0
6, 41844, Pitch_bend_c, 4, 14424
6, 41848, Pitch_bend_c, 4, 10055
6, 41848, Pitch_bend_c, 4, 8192
6, 41856, Note_on_c, 4, 86, 127
6, 42344, Note_on_c, 4, 86, 0
6, 43200, Note_on_c, 4, 78, 127
6, 43280, Pitch_bend_c, 4, 7742
6, 43280, Pitch_bend_c, 4, 7131
6, 43280, Pitch_bend_c, 4, 6392
6, 43280, Pitch_bend_c, 4, 5621
6, 43288, Pitch_bend_c, 4, 4850
6, 43288, Pitch_bend_c, 4, 4112
6, 43288, Pitch_bend_c, 4, 3373
6, 43288, Pitch_bend_c, 4, 2730
6, 43296, Pitch_bend_c, 4, 1317
6, 43296, Pitch_bend_c, 4, 0
6, 43384, Pitch_bend_c, 4, 803
6, 43392, Pitch_bend_c, 4, 1702
6, 43392, Pitch_bend_c, 4, 2762
6, 43396, Pitch_bend_c, 4, 3180
6, 43396, Pitch_bend_c, 4, 3598
6, 43396, Pitch_bend_c, 4, 3951
6, 43400, Pitch_bend_c, 4, 4433
6, 43400, Pitch_bend_c, 4, 4690
6, 43408, Pitch_bend_c, 4, 4947
6, 43408, Pitch_bend_c, 4, 5236
6, 43408, Pitch_bend_c, 4, 5493
6, 43408, Pitch_bend_c, 4, 5621
6, 43412, Pitch_bend_c, 4, 5911
6, 43416, Pitch_bend_c, 4, 6103
6, 43416, Pitch_bend_c, 4, 6392
6, 43420, Pitch_bend_c, 4, 6649
6, 43420, Pitch_bend_c, 4, 6971
6, 43420, Pitch_bend_c, 4, 7324
6, 43424, Pitch_bend_c, 4, 7645
6, 43432, Pitch_bend_c, 4, 7967
6, 43432, Pitch_bend_c, 4, 8192
6, 43712, Note_on_c, 4, 78, 0
6, 43968, Note_on_c, 4, 83, 127
6, 44056, Pitch_bend_c, 4, 7774
6, 44056, Pitch_bend_c, 4, 7517
6, 44056, Pitch_bend_c, 4, 7163
6, 44060, Pitch_bend_c, 4, 6842
6, 44064, Pitch_bend_c, 4, 6521
6, 44068, Pitch_bend_c, 4, 6168
6, 44072, Pitch_bend_c, 4, 5172
6, 44076, Pitch_bend_c, 4, 4754
6, 44076, Pitch_bend_c, 4, 4497
6, 44080, Pitch_bend_c, 4, 3951
6, 44080, Pitch_bend_c, 4, 3565
6, 44084, Pitch_bend_c, 4, 3148
6, 44088, Pitch_bend_c, 4, 2794
6, 44088, Pitch_bend_c, 4, 2023
6, 44088, Pitch_bend_c, 4, 1252
6, 44092, Pitch_bend_c, 4, 417
6, 44092, Pitch_bend_c, 4, 0
6, 44160, Note_on_c, 4, 79, 127
6, 44164, Pitch_bend_c, 4, 1702
6, 44164, Pitch_bend_c, 4, 3501
6, 44168, Note_on_c, 4, 83, 0
6, 44168, Pitch_bend_c, 4, 5043
6, 44168, Pitch_bend_c, 4, 7099
6, 44172, Pitch_bend_c, 4, 8192
6, 44632, Note_on_c, 4, 79, 0
6, 45504, Note_on_c, 4, 78, 127
6, 45576, Pitch_bend_c, 4, 7806
6, 45576, Pitch_bend_c, 4, 7453
6, 45576, Pitch_bend_c, 4, 7003
6, 45580, Pitch_bend_c, 4, 6585
6, 45584, Pitch_bend_c, 4, 6200
6, 45584, Pitch_bend_c, 4, 5654
6, 45588, Pitch_bend_c, 4, 5268
6, 45592, Pitch_bend_c, 4, 4658
6, 45592, Pitch_bend_c, 4, 3983
6, 45592, Pitch_bend_c, 4, 3373
6, 45596, Pitch_bend_c, 4, 2730
6, 45600, Pitch_bend_c, 4, 1252
6, 45604, Pitch_bend_c, 4, 0
6, 45640, Note_on_c, 4, 78, 0
6, 45644, Pitch_bend_c, 4, 1124
6, 45648, Pitch_bend_c, 4, 3180
6, 45648, Note_on_c, 4, 74, 127
6, 45652, Pitch_bend_c, 4, 4690
6, 45652, Pitch_bend_c, 4, 6489
6, 45652, Pitch_bend_c, 4, 8192
6, 45692, Note_on_c, 4, 74, 0
6, 45696, Note_on_c, 4, 76, 127
6, 46160, Note_on_c, 4, 76, 0
6, 46272, Note_on_c, 4, 78, 127
6, 46360, Pitch_bend_c, 4, 7774
6, 46364, Pitch_bend_c, 4, 7517
6, 46368, Pitch_bend_c, 4, 7196
6, 46368, Pitch_bend_c, 4, 6810
6, 46372, Pitch_bend_c, 4, 6457
6, 46372, Pitch_bend_c, 4, 5654
6, 46376, Pitch_bend_c, 4, 5364
6, 46376, Pitch_bend_c, 4, 4818
6, 46384, Pitch_bend_c, 4, 4497
6, 46384, Pitch_bend_c, 4, 3919
6, 46384, Pitch_bend_c, 4, 3501
6, 46392, Pitch_bend_c, 4, 3051
6, 46392, Pitch_bend_c, 4, 2730
6, 46392, Pitch_bend_c, 4, 1895
6, 46396, Pitch_bend_c, 4, 1188
6, 46396, Pitch_bend_c, 4, 289
6, 46400, Pitch_bend_c, 4, 0
6, 46464, Note_on_c, 4, 78, 0
6, 46464, Pitch_bend_c, 4, 2666
6, 46464, Note_on_c, 4, 74, 127
6, 46468, Pitch_bend_c, 4, 4240
6, 46468, Pitch_bend_c, 4, 5943
6, 46468, Pitch_bend_c, 4, 7838
6, 46468, Pitch_bend_c, 4, 8192
6, 46904, Note_on_c, 4, 74, 0
6, 47040, Note_on_c, 4, 78, 127
6, 47104, Pitch_bend_c, 4, 7742
6, 47112, Pitch_bend_c, 4, 7163
6, 47112, Pitch_bend_c, 4, 6489
6, 47112, Pitch_bend_c, 4, 5718
6, 47116, Pitch_bend_c, 4, 5107
6, 47116, Pitch_bend_c, 4, 4304
6, 47120, Pitch_bend_c, 4, 3276
6, 47120, Pitch_bend_c, 4, 2345
6, 47128, Pitch_bend_c, 4, 738
6, 47128, Pitch_bend_c, 4, 0
6, 47168, Note_on_c, 4, 78, 0
6, 47172, Pitch_bend_c, 4, 2473
6, 47176, Pitch_bend_c, 4, 4047
6, 47176, Pitch_bend_c, 4, 5718
6, 47184, Pitch_bend_c, 4, 7549
6, 47184, Pitch_bend_c, 4, 8192
6, 47184, Note_on_c, 4, 74, 127
6, 47224, Note_on_c, 4, 74, 0
6, 47232, Note_on_c, 4, 74, 127
6, 47296, Pitch_bend_c, 4, 8449
6, 47296, Pitch_bend_c, 4, 8577
6, 47300, Pitch_bend_c, 4, 8802
6, 47304, Pitch_bend_c, 4, 9091
6, 47304, Pitch_bend_c, 4, 9412
6, 47304, Pitch_bend_c, 4, 9701
6, 47308, Pitch_bend_c, 4, 10055
6, 47308, Pitch_bend_c, 4, 10505
6, 47312, Pitch_bend_c, 4, 11051
6, 47312, Pitch_bend_c, 4, 11629
6, 47320, Pitch_bend_c, 4, 12271
6, 47320, Pitch_bend_c, 4, 12785
6, 47320, Pitch_bend_c, 4, 13139
6, 47324, Pitch_bend_c, 4, 13364
6, 47328, Pitch_bend_c, 4, 13556
6, 47328, Pitch_bend_c, 4, 13781
6, 47332, Pitch_bend_c, 4, 14038
6, 47332, Pitch_bend_c, 4, 14938
6, 47336, Pitch_bend_c, 4, 15323
6, 47340, Pitch_bend_c, 4, 15966
6, 47344, Pitch_bend_c, 4, 16383
6, 47656, Note_on_c, 4, 74, 0
6, 47680, Pitch_bend_c, 4, 13139
6, 47680, Pitch_bend_c, 4, 10729
6, 47684, Pitch_bend_c, 4, 7934
6, 47688, Pitch_bend_c, 4, 8192
6, 47808, Note_on_c, 4, 78, 127
6, 47884, Pitch_bend_c, 4, 7774
6, 47884, Pitch_bend_c, 4, 7099
6, 47888, Pitch_bend_c, 4, 6264
6, 47892, Pitch_bend_c, 4, 5397
6, 47896, Pitch_bend_c, 4, 4433
6, 47896, Pitch_bend_c, 4, 3437
6, 47896, Pitch_bend_c, 4, 2666
6, 47904, Pitch_bend_c, 4, 1060
6, 47904, Pitch_bend_c, 4, 0
6, 47976, Pitch_bend_c, 4, 481
6, 47976, Pitch_bend_c, 4, 2762
6, 47976, Pitch_bend_c, 4, 4369
6, 47984, Note_on_c, 4, 78, 0
6, 47984, Pitch_bend_c, 4, 6200
6, 47984, Pitch_bend_c, 4, 8192
6, 47984, End_track
7, 0, Start_track
7, 0, MIDI_port, 0
7, 0, Title_t, "Guitar              "
7, 0, Control_c, 5, 0, 0
7, 0, Control_c, 5, 32, 0
7, 0, Program_c, 5, 25
7, 0, Control_c, 5, 7, 100
7, 0, Control_c, 5, 10, 40
7, 12, Control_c, 5, 1, 0
7, 12, Control_c, 5, 91, 80
7, 12, Control_c, 5, 93, 0
7, 1632, Note_on_c, 5, 62, 82
7, 1632, Note_on_c, 5, 57, 70
7, 1632, Note_on_c, 5, 66, 71
7, 1764, Note_on_c, 5, 66, 0
7, 1768, Note_on_c, 5, 57, 0
7, 1768, Note_on_c, 5, 62, 0
7, 1824, Note_on_c, 5, 57, 73
7, 1824, Note_on_c, 5, 62, 82
7, 1824, Note_on_c, 5, 66, 74
7, 1960, Note_on_c, 5, 66, 0
7, 1964, Note_on_c, 5, 62, 0
7, 1968, Note_on_c, 5, 57, 0
7, 2012, Note_on_c, 5, 66, 68
7, 2016, Note_on_c, 5, 57, 69
7, 2016, Note_on_c, 5, 62, 75
7, 2160, Note_on_c, 5, 62, 0
7, 2160, Note_on_c, 5, 57, 0
7, 2160, Note_on_c, 5, 66, 0
7, 2208, Note_on_c, 5, 57, 67
7, 2208, Note_on_c, 5, 62, 77
7, 2208, Note_on_c, 5, 66, 71
7, 2336, Note_on_c, 5, 66, 0
7, 2344, Note_on_c, 5, 62, 0
7, 2344, Note_on_c, 5, 57, 0
7, 2400, Note_on_c, 5, 62, 78
7, 2400, Note_on_c, 5, 59, 67
7, 2400, Note_on_c, 5, 66, 65
7, 2544, Note_on_c, 5, 62, 0
7, 2552, Note_on_c, 5, 66, 0
7, 2552, Note_on_c, 5, 59, 0
7, 2592, Note_on_c, 5, 62, 76
7, 2592, Note_on_c, 5, 59, 63
7, 2592, Note_on_c, 5, 66, 67
7, 2748, Note_on_c, 5, 62, 0
7, 2752, Note_on_c, 5, 66, 0
7, 2752, Note_on_c, 5, 59, 0
7, 2784, Note_on_c, 5, 59, 61
7, 2784, Note_on_c, 5, 62, 74
7, 2784, Note_on_c, 5, 66, 66
7, 2932, Note_on_c, 5, 62, 0
7, 2936, Note_on_c, 5, 66, 0
7, 2936, Note_on_c, 5, 59, 0
7, 2976, Note_on_c, 5, 59, 63
7, 2976, Note_on_c, 5, 62, 74
7, 2976, Note_on_c, 5, 66, 66
7, 3112, Note_on_c, 5, 66, 0
7, 3112, Note_on_c, 5, 62, 0
7, 3116, Note_on_c, 5, 59, 0
7, 3168, Note_on_c, 5, 61, 75
7, 3168, Note_on_c, 5, 57, 71
7, 3168, Note_on_c, 5, 64, 77
7, 3320, Note_on_c, 5, 64, 0
7, 3324, Note_on_c, 5, 61, 0
7, 3328, Note_on_c, 5, 57, 0
7, 3360, Note_on_c, 5, 61, 79
7, 3360, Note_on_c, 5, 57, 77
7, 3360, Note_on_c, 5, 64, 81
7, 3512, Note_on_c, 5, 57, 0
7, 3520, Note_on_c, 5, 64, 0
7, 3520, Note_on_c, 5, 61, 0
7, 3552, Note_on_c, 5, 57, 75
7, 3552, Note_on_c, 5, 61, 78
7, 3552, Note_on_c, 5, 64, 81
7, 3696, Note_on_c, 5, 64, 0
7, 3696, Note_on_c, 5, 57, 0
7, 3700, Note_on_c, 5, 61, 0
7, 3744, Note_on_c, 5, 57, 72
7, 3744, Note_on_c, 5, 61, 77
7, 3744, Note_on_c, 5, 64, 73
7, 3872, Note_on_c, 5, 64, 0
7, 3872, Note_on_c, 5, 57, 0
7, 3880, Note_on_c, 5, 61, 0
7, 3936, Note_on_c, 5, 59, 65
7, 3936, Note_on_c, 5, 62, 80
7, 3936, Note_on_c, 5, 67, 80
7, 4080, Note_on_c, 5, 67, 0
7, 4080, Note_on_c, 5, 62, 0
7, 4084, Note_on_c, 5, 59, 0
7, 4128, Note_on_c, 5, 62, 77
7, 4128, Note_on_c, 5, 59, 69
7, 4128, Note_on_c, 5, 67, 79
7, 4272, Note_on_c, 5, 59, 0
7, 4272, Note_on_c, 5, 62, 0
7, 4280, Note_on_c, 5, 67, 0
7, 4316, Note_on_c, 5, 57, 70
7, 4320, Note_on_c, 5, 62, 74
7, 4320, Note_on_c, 5, 66, 72
7, 4464, Note_on_c, 5, 66, 0
7, 4464, Note_on_c, 5, 57, 0
7, 4468, Note_on_c, 5, 62, 0
7, 4512, Note_on_c, 5, 57, 70
7, 4512, Note_on_c, 5, 62, 74
7, 4512, Note_on_c, 5, 66, 71
7, 4672, Note_on_c, 5, 66, 0
7, 4680, Note_on_c, 5, 62, 0
7, 4680, Note_on_c, 5, 57, 0
7, 4704, Note_on_c, 5, 62, 82
7, 4704, Note_on_c, 5, 57, 73
7, 4704, Note_on_c, 5, 66, 76
7, 4856, Note_on_c, 5, 66, 0
7, 4856, Note_on_c, 5, 62, 0
7, 4864, Note_on_c, 5, 57, 0
7, 4896, Note_on_c, 5, 57, 70
7, 4896, Note_on_c, 5, 62, 74
7, 4896, Note_on_c, 5, 66, 71
7, 5056, Note_on_c, 5, 66, 0
7, 5060, Note_on_c, 5, 57, 0
7, 5064, Note_on_c, 5, 62, 0
7, 5088, Note_on_c, 5, 57, 73
7, 5088, Note_on_c, 5, 62, 74
7, 5088, Note_on_c, 5, 66, 76
7, 5240, Note_on_c, 5, 66, 0
7, 5248, Note_on_c, 5, 62, 0
7, 5248, Note_on_c, 5, 57, 0
7, 5280, Note_on_c, 5, 57, 72
7, 5280, Note_on_c, 5, 62, 79
7, 5280, Note_on_c, 5, 66, 74
7, 5444, Note_on_c, 5, 66, 0
7, 5444, Note_on_c, 5, 62, 0
7, 5448, Note_on_c, 5, 57, 0
7, 5472, Note_on_c, 5, 62, 77
7, 5472, Note_on_c, 5, 57, 74
7, 5472, Note_on_c, 5, 66, 74
7, 5624, Note_on_c, 5, 66, 0
7, 5628, Note_on_c, 5, 62, 0
7, 5632, Note_on_c, 5, 57, 0
7, 5664, Note_on_c, 5, 62, 80
7, 5664, Note_on_c, 5, 57, 74
7, 5664, Note_on_c, 5, 66, 77
7, 5824, Note_on_c, 5, 66, 0
7, 5824, Note_on_c, 5, 57, 0
7, 5824, Note_on_c, 5, 62, 0
7, 5856, Note_on_c, 5, 59, 75
7, 5856, Note_on_c, 5, 62, 79
7, 5856, Note_on_c, 5, 66, 71
7, 6016, Note_on_c, 5, 66, 0
7, 6016, Note_on_c, 5, 62, 0
7, 6016, Note_on_c, 5, 59, 0
7, 6044, Note_on_c, 5, 66, 71
7, 6048, Note_on_c, 5, 59, 66
7, 6048, Note_on_c, 5, 62, 76
7, 6204, Note_on_c, 5, 66, 0
7, 6208, Note_on_c, 5, 62, 0
7, 6208, Note_on_c, 5, 59, 0
7, 6236, Note_on_c, 5, 62, 82
7, 6240, Note_on_c, 5, 59, 71
7, 6240, Note_on_c, 5, 66, 72
7, 6400, Note_on_c, 5, 66, 0
7, 6400, Note_on_c, 5, 59, 0
7, 6400, Note_on_c, 5, 62, 0
7, 6428, Note_on_c, 5, 62, 78
7, 6432, Note_on_c, 5, 59, 71
7, 6432, Note_on_c, 5, 66, 74
7, 6568, Note_on_c, 5, 66, 0
7, 6568, Note_on_c, 5, 59, 0
7, 6568, Note_on_c, 5, 62, 0
7, 6624, Note_on_c, 5, 61, 70
7, 6624, Note_on_c, 5, 57, 69
7, 6624, Note_on_c, 5, 64, 74
7, 6792, Note_on_c, 5, 64, 0
7, 6796, Note_on_c, 5, 57, 0
7, 6800, Note_on_c, 5, 61, 0
7, 6812, Note_on_c, 5, 61, 77
7, 6816, Note_on_c, 5, 57, 71
7, 6816, Note_on_c, 5, 64, 77
7, 6968, Note_on_c, 5, 64, 0
7, 6972, Note_on_c, 5, 61, 0
7, 6976, Note_on_c, 5, 57, 0
7, 7008, Note_on_c, 5, 61, 73
7, 7008, Note_on_c, 5, 57, 71
7, 7008, Note_on_c, 5, 64, 73
7, 7160, Note_on_c, 5, 64, 0
7, 7160, Note_on_c, 5, 61, 0
7, 7168, Note_on_c, 5, 57, 0
7, 7196, Note_on_c, 5, 57, 71
7, 7200, Note_on_c, 5, 61, 78
7, 7200, Note_on_c, 5, 64, 76
7, 7312, Note_on_c, 5, 57, 0
7, 7320, Note_on_c, 5, 64, 0
7, 7320, Note_on_c, 5, 61, 0
7, 7392, Note_on_c, 5, 59, 65
7, 7392, Note_on_c, 5, 62, 75
7, 7392, Note_on_c, 5, 67, 78
7, 7544, Note_on_c, 5, 67, 0
7, 7544, Note_on_c, 5, 62, 0
7, 7544, Note_on_c, 5, 59, 0
7, 7584, Note_on_c, 5, 59, 68
7, 7584, Note_on_c, 5, 62, 75
7, 7584, Note_on_c, 5, 67, 73
7, 7712, Note_on_c, 5, 59, 0
7, 7720, Note_on_c, 5, 62, 0
7, 7724, Note_on_c, 5, 67, 0
7, 7772, Note_on_c, 5, 62, 73
7, 7776, Note_on_c, 5, 57, 71
7, 7776, Note_on_c, 5, 66, 73
7, 7936, Note_on_c, 5, 66, 0
7, 7936, Note_on_c, 5, 57, 0
7, 7936, Note_on_c, 5, 62, 0
7, 7968, Note_on_c, 5, 57, 72
7, 7968, Note_on_c, 5, 62, 81
7, 7968, Note_on_c, 5, 66, 75
7, 8128, Note_on_c, 5, 66, 0
7, 8128, Note_on_c, 5, 62, 0
7, 8128, Note_on_c, 5, 57, 0
7, 8156, Note_on_c, 5, 62, 78
7, 8160, Note_on_c, 5, 57, 73
7, 8160, Note_on_c, 5, 66, 73
7, 8312, Note_on_c, 5, 57, 0
7, 8316, Note_on_c, 5, 66, 0
7, 8320, Note_on_c, 5, 62, 0
7, 8352, Note_on_c, 5, 62, 82
7, 8352, Note_on_c, 5, 57, 81
7, 8352, Note_on_c, 5, 66, 79
7, 8504, Note_on_c, 5, 66, 0
7, 8504, Note_on_c, 5, 57, 0
7, 8504, Note_on_c, 5, 62, 0
7, 8544, Note_on_c, 5, 57, 76
7, 8544, Note_on_c, 5, 62, 78
7, 8544, Note_on_c, 5, 66, 77
7, 8696, Note_on_c, 5, 66, 0
7, 8696, Note_on_c, 5, 62, 0
7, 8696, Note_on_c, 5, 57, 0
7, 8732, Note_on_c, 5, 66, 75
7, 8736, Note_on_c, 5, 57, 71
7, 8736, Note_on_c, 5, 62, 79
7, 8880, Note_on_c, 5, 66, 0
7, 8888, Note_on_c, 5, 62, 0
7, 8888, Note_on_c, 5, 57, 0
7, 8928, Note_on_c, 5, 61, 79
7, 8928, Note_on_c, 5, 57, 72
7, 8928, Note_on_c, 5, 64, 75
7, 9080, Note_on_c, 5, 64, 0
7, 9084, Note_on_c, 5, 57, 0
7, 9084, Note_on_c, 5, 61, 0
7, 9120, Note_on_c, 5, 57, 74
7, 9120, Note_on_c, 5, 61, 74
7, 9120, Note_on_c, 5, 64, 80
7, 9264, Note_on_c, 5, 64, 0
7, 9264, Note_on_c, 5, 61, 0
7, 9264, Note_on_c, 5, 57, 0
7, 9308, Note_on_c, 5, 64, 78
7, 9312, Note_on_c, 5, 57, 76
7, 9312, Note_on_c, 5, 61, 82
7, 9456, Note_on_c, 5, 61, 0
7, 9456, Note_on_c, 5, 57, 0
7, 9456, Note_on_c, 5, 64, 0
7, 9500, Note_on_c, 5, 64, 77
7, 9504, Note_on_c, 5, 57, 77
7, 9504, Note_on_c, 5, 61, 77
7, 9632, Note_on_c, 5, 61, 0
7, 9632, Note_on_c, 5, 57, 0
7, 9632, Note_on_c, 5, 64, 0
7, 9696, Note_on_c, 5, 59, 71
7, 9696, Note_on_c, 5, 62, 81
7, 9696, Note_on_c, 5, 66, 79
7, 9848, Note_on_c, 5, 66, 0
7, 9848, Note_on_c, 5, 62, 0
7, 9852, Note_on_c, 5, 59, 0
7, 9888, Note_on_c, 5, 59, 72
7, 9888, Note_on_c, 5, 62, 82
7, 9888, Note_on_c, 5, 66, 79
7, 10052, Note_on_c, 5, 62, 0
7, 10056, Note_on_c, 5, 66, 0
7, 10056, Note_on_c, 5, 59, 0
7, 10076, Note_on_c, 5, 66, 78
7, 10080, Note_on_c, 5, 59, 73
7, 10080, Note_on_c, 5, 62, 82
7, 10240, Note_on_c, 5, 62, 0
7, 10240, Note_on_c, 5, 59, 0
7, 10240, Note_on_c, 5, 66, 0
7, 10268, Note_on_c, 5, 59, 72
7, 10272, Note_on_c, 5, 62, 79
7, 10272, Note_on_c, 5, 66, 75
7, 10400, Note_on_c, 5, 66, 0
7, 10400, Note_on_c, 5, 62, 0
7, 10400, Note_on_c, 5, 59, 0
7, 10464, Note_on_c, 5, 59, 67
7, 10464, Note_on_c, 5, 62, 80
7, 10464, Note_on_c, 5, 67, 79
7, 10608, Note_on_c, 5, 67, 0
7, 10616, Note_on_c, 5, 62, 0
7, 10616, Note_on_c, 5, 59, 0
7, 10652, Note_on_c, 5, 62, 82
7, 10656, Note_on_c, 5, 59, 71
7, 10656, Note_on_c, 5, 67, 77
7, 10812, Note_on_c, 5, 62, 0
7, 10816, Note_on_c, 5, 67, 0
7, 10816, Note_on_c, 5, 59, 0
7, 10848, Note_on_c, 5, 59, 73
7, 10848, Note_on_c, 5, 62, 81
7, 10848, Note_on_c, 5, 67, 78
7, 11000, Note_on_c, 5, 67, 0
7, 11000, Note_on_c, 5, 62, 0
7, 11000, Note_on_c, 5, 59, 0
7, 11036, Note_on_c, 5, 59, 68
7, 11040, Note_on_c, 5, 62, 80
7, 11040, Note_on_c, 5, 67, 77
7, 11168, Note_on_c, 5, 62, 0
7, 11168, Note_on_c, 5, 59, 0
7, 11176, Note_on_c, 5, 67, 0
7, 11232, Note_on_c, 5, 57, 71
7, 11232, Note_on_c, 5, 62, 74
7, 11232, Note_on_c, 5, 66, 73
7, 11360, Note_on_c, 5, 66, 0
7, 11368, Note_on_c, 5, 57, 0
7, 11376, Note_on_c, 5, 62, 0
7, 11424, Note_on_c, 5, 62, 76
7, 11424, Note_on_c, 5, 57, 73
7, 11424, Note_on_c, 5, 66, 67
7, 11560, Note_on_c, 5, 66, 0
7, 11560, Note_on_c, 5, 62, 0
7, 11568, Note_on_c, 5, 57, 0
7, 11612, Note_on_c, 5, 57, 74
7, 11616, Note_on_c, 5, 62, 78
7, 11616, Note_on_c, 5, 66, 74
7, 11752, Note_on_c, 5, 66, 0
7, 11760, Note_on_c, 5, 62, 0
7, 11760, Note_on_c, 5, 57, 0
7, 11804, Note_on_c, 5, 66, 73
7, 11808, Note_on_c, 5, 57, 71
7, 11808, Note_on_c, 5, 62, 81
7, 11936, Note_on_c, 5, 62, 0
7, 11936, Note_on_c, 5, 57, 0
7, 11936, Note_on_c, 5, 66, 0
7, 12000, Note_on_c, 5, 57, 73
7, 12000, Note_on_c, 5, 61, 79
7, 12000, Note_on_c, 5, 64, 75
7, 12140, Note_on_c, 5, 64, 0
7, 12144, Note_on_c, 5, 57, 0
7, 12148, Note_on_c, 5, 61, 0
7, 12192, Note_on_c, 5, 61, 81
7, 12192, Note_on_c, 5, 57, 77
7, 12192, Note_on_c, 5, 64, 78
7, 12336, Note_on_c, 5, 61, 0
7, 12340, Note_on_c, 5, 64, 0
7, 12344, Note_on_c, 5, 57, 0
7, 12384, Note_on_c, 5, 61, 75
7, 12384, Note_on_c, 5, 64, 78
7, 12388, Note_on_c, 5, 57, 74
7, 12504, Note_on_c, 5, 64, 0
7, 12512, Note_on_c, 5, 61, 0
7, 12520, Note_on_c, 5, 57, 0
7, 12576, Note_on_c, 5, 57, 75
7, 12576, Note_on_c, 5, 61, 75
7, 12576, Note_on_c, 5, 64, 74
7, 12692, Note_on_c, 5, 57, 0
7, 12696, Note_on_c, 5, 64, 0
7, 12696, Note_on_c, 5, 61, 0
7, 12768, Note_on_c, 5, 62, 78
7, 12768, Note_on_c, 5, 59, 66
7, 12768, Note_on_c, 5, 67, 71
7, 12904, Note_on_c, 5, 67, 0
7, 12912, Note_on_c, 5, 59, 0
7, 12912, Note_on_c, 5, 62, 0
7, 12960, Note_on_c, 5, 59, 71
7, 12960, Note_on_c, 5, 62, 77
7, 12960, Note_on_c, 5, 67, 81
7, 13104, Note_on_c, 5, 62, 0
7, 13104, Note_on_c, 5, 59, 0
7, 13108, Note_on_c, 5, 67, 0
7, 13148, Note_on_c, 5, 59, 71
7, 13152, Note_on_c, 5, 62, 79
7, 13152, Note_on_c, 5, 67, 80
7, 13288, Note_on_c, 5, 67, 0
7, 13288, Note_on_c, 5, 62, 0
7, 13288, Note_on_c, 5, 59, 0
7, 13344, Note_on_c, 5, 59, 74
7, 13344, Note_on_c, 5, 62, 81
7, 13344, Note_on_c, 5, 67, 79
7, 13460, Note_on_c, 5, 59, 0
7, 13464, Note_on_c, 5, 67, 0
7, 13464, Note_on_c, 5, 62, 0
7, 13536, Note_on_c, 5, 57, 77
7, 13536, Note_on_c, 5, 62, 79
7, 13536, Note_on_c, 5, 66, 74
7, 13672, Note_on_c, 5, 66, 0
7, 13672, Note_on_c, 5, 62, 0
7, 13672, Note_on_c, 5, 57, 0
7, 13728, Note_on_c, 5, 57, 68
7, 13728, Note_on_c, 5, 62, 75
7, 13728, Note_on_c, 5, 66, 76
7, 13880, Note_on_c, 5, 66, 0
7, 13880, Note_on_c, 5, 62, 0
7, 13880, Note_on_c, 5, 57, 0
7, 13920, Note_on_c, 5, 57, 79
7, 13920, Note_on_c, 5, 62, 82
7, 13920, Note_on_c, 5, 66, 75
7, 14048, Note_on_c, 5, 66, 0
7, 14048, Note_on_c, 5, 57, 0
7, 14056, Note_on_c, 5, 62, 0
7, 14112, Note_on_c, 5, 57, 76
7, 14112, Note_on_c, 5, 62, 82
7, 14112, Note_on_c, 5, 66, 75
7, 14248, Note_on_c, 5, 66, 0
7, 14248, Note_on_c, 5, 62, 0
7, 14248, Note_on_c, 5, 57, 0
7, 14304, Note_on_c, 5, 57, 71
7, 14304, Note_on_c, 5, 62, 81
7, 14304, Note_on_c, 5, 66, 68
7, 14432, Note_on_c, 5, 62, 0
7, 14432, Note_on_c, 5, 57, 0
7, 14436, Note_on_c, 5, 66, 0
7, 14496, Note_on_c, 5, 57, 64
7, 14496, Note_on_c, 5, 62, 80
7, 14496, Note_on_c, 5, 66, 77
7, 14632, Note_on_c, 5, 62, 0
7, 14640, Note_on_c, 5, 66, 0
7, 14640, Note_on_c, 5, 57, 0
7, 14688, Note_on_c, 5, 57, 70
7, 14688, Note_on_c, 5, 62, 74
7, 14688, Note_on_c, 5, 66, 66
7, 14824, Note_on_c, 5, 62, 0
7, 14832, Note_on_c, 5, 66, 0
7, 14832, Note_on_c, 5, 57, 0
7, 14880, Note_on_c, 5, 57, 71
7, 14880, Note_on_c, 5, 62, 79
7, 14880, Note_on_c, 5, 66, 71
7, 15000, Note_on_c, 5, 66, 0
7, 15000, Note_on_c, 5, 62, 0
7, 15004, Note_on_c, 5, 57, 0
7, 15072, Note_on_c, 5, 62, 80
7, 15072, Note_on_c, 5, 59, 69
7, 15072, Note_on_c, 5, 66, 69
7, 15216, Note_on_c, 5, 66, 0
7, 15216, Note_on_c, 5, 59, 0
7, 15216, Note_on_c, 5, 62, 0
7, 15264, Note_on_c, 5, 59, 63
7, 15264, Note_on_c, 5, 62, 74
7, 15264, Note_on_c, 5, 66, 67
7, 15408, Note_on_c, 5, 62, 0
7, 15408, Note_on_c, 5, 59, 0
7, 15416, Note_on_c, 5, 66, 0
7, 15452, Note_on_c, 5, 59, 71
7, 15456, Note_on_c, 5, 62, 77
7, 15456, Note_on_c, 5, 66, 73
7, 15592, Note_on_c, 5, 66, 0
7, 15596, Note_on_c, 5, 62, 0
7, 15596, Note_on_c, 5, 59, 0
7, 15648, Note_on_c, 5, 59, 71
7, 15648, Note_on_c, 5, 62, 75
7, 15648, Note_on_c, 5, 66, 72
7, 15768, Note_on_c, 5, 66, 0
7, 15768, Note_on_c, 5, 62, 0
7, 15768, Note_on_c, 5, 59, 0
7, 15840, Note_on_c, 5, 57, 65
7, 15840, Note_on_c, 5, 61, 64
7, 15840, Note_on_c, 5, 64, 74
7, 15984, Note_on_c, 5, 64, 0
7, 15988, Note_on_c, 5, 57, 0
7, 15996, Note_on_c, 5, 61, 0
7, 16032, Note_on_c, 5, 57, 72
7, 16032, Note_on_c, 5, 61, 75
7, 16032, Note_on_c, 5, 64, 73
7, 16176, Note_on_c, 5, 64, 0
7, 16176, Note_on_c, 5, 57, 0
7, 16184, Note_on_c, 5, 61, 0
7, 16224, Note_on_c, 5, 61, 66
7, 16224, Note_on_c, 5, 57, 73
7, 16224, Note_on_c, 5, 64, 77
7, 16360, Note_on_c, 5, 64, 0
7, 16360, Note_on_c, 5, 57, 0
7, 16364, Note_on_c, 5, 61, 0
7, 16416, Note_on_c, 5, 57, 69
7, 16416, Note_on_c, 5, 64, 72
7, 16420, Note_on_c, 5, 61, 75
7, 16528, Note_on_c, 5, 57, 0
7, 16536, Note_on_c, 5, 61, 0
7, 16536, Note_on_c, 5, 64, 0
7, 16604, Note_on_c, 5, 59, 67
7, 16608, Note_on_c, 5, 62, 74
7, 16608, Note_on_c, 5, 67, 76
7, 16752, Note_on_c, 5, 62, 0
7, 16760, Note_on_c, 5, 67, 0
7, 16760, Note_on_c, 5, 59, 0
7, 16800, Note_on_c, 5, 62, 79
7, 16800, Note_on_c, 5, 59, 66
7, 16800, Note_on_c, 5, 67, 77
7, 16928, Note_on_c, 5, 67, 0
7, 16936, Note_on_c, 5, 59, 0
7, 16936, Note_on_c, 5, 62, 0
7, 16992, Note_on_c, 5, 62, 76
7, 16992, Note_on_c, 5, 57, 67
7, 16992, Note_on_c, 5, 66, 72
7, 17148, Note_on_c, 5, 57, 0
7, 17152, Note_on_c, 5, 66, 0
7, 17152, Note_on_c, 5, 62, 0
7, 17184, Note_on_c, 5, 57, 71
7, 17184, Note_on_c, 5, 62, 75
7, 17184, Note_on_c, 5, 66, 73
7, 17336, Note_on_c, 5, 66, 0
7, 17336, Note_on_c, 5, 62, 0
7, 17336, Note_on_c, 5, 57, 0
7, 17376, Note_on_c, 5, 57, 67
7, 17376, Note_on_c, 5, 62, 76
7, 17376, Note_on_c, 5, 66, 71
7, 17528, Note_on_c, 5, 66, 0
7, 17532, Note_on_c, 5, 57, 0
7, 17536, Note_on_c, 5, 62, 0
7, 17568, Note_on_c, 5, 62, 73
7, 17568, Note_on_c, 5, 57, 63
7, 17568, Note_on_c, 5, 66, 71
7, 17720, Note_on_c, 5, 66, 0
7, 17720, Note_on_c, 5, 62, 0
7, 17724, Note_on_c, 5, 57, 0
7, 17756, Note_on_c, 5, 62, 77
7, 17760, Note_on_c, 5, 57, 71
7, 17760, Note_on_c, 5, 66, 72
7, 17912, Note_on_c, 5, 66, 0
7, 17912, Note_on_c, 5, 57, 0
7, 17912, Note_on_c, 5, 62, 0
7, 17952, Note_on_c, 5, 57, 67
7, 17952, Note_on_c, 5, 62, 71
7, 17952, Note_on_c, 5, 66, 63
7, 18096, Note_on_c, 5, 66, 0
7, 18096, Note_on_c, 5, 62, 0
7, 18096, Note_on_c, 5, 57, 0
7, 18140, Note_on_c, 5, 57, 67
7, 18144, Note_on_c, 5, 62, 75
7, 18144, Note_on_c, 5, 66, 73
7, 18288, Note_on_c, 5, 66, 0
7, 18288, Note_on_c, 5, 62, 0
7, 18288, Note_on_c, 5, 57, 0
7, 18336, Note_on_c, 5, 57, 71
7, 18336, Note_on_c, 5, 62, 78
7, 18336, Note_on_c, 5, 66, 69
7, 18448, Note_on_c, 5, 57, 0
7, 18456, Note_on_c, 5, 66, 0
7, 18464, Note_on_c, 5, 62, 0
7, 18524, Note_on_c, 5, 62, 79
7, 18528, Note_on_c, 5, 59, 67
7, 18528, Note_on_c, 5, 66, 73
7, 18672, Note_on_c, 5, 66, 0
7, 18672, Note_on_c, 5, 59, 0
7, 18672, Note_on_c, 5, 62, 0
7, 18720, Note_on_c, 5, 59, 72
7, 18720, Note_on_c, 5, 62, 75
7, 18720, Note_on_c, 5, 66, 75
7, 18876, Note_on_c, 5, 66, 0
7, 18876, Note_on_c, 5, 62, 0
7, 18876, Note_on_c, 5, 59, 0
7, 18912, Note_on_c, 5, 59, 69
7, 18912, Note_on_c, 5, 62, 79
7, 18912, Note_on_c, 5, 66, 72
7, 19048, Note_on_c, 5, 66, 0
7, 19048, Note_on_c, 5, 59, 0
7, 19052, Note_on_c, 5, 62, 0
7, 19104, Note_on_c, 5, 59, 66
7, 19104, Note_on_c, 5, 62, 74
7, 19104, Note_on_c, 5, 66, 72
7, 19224, Note_on_c, 5, 66, 0
7, 19228, Note_on_c, 5, 59, 0
7, 19232, Note_on_c, 5, 62, 0
7, 19296, Note_on_c, 5, 57, 71
7, 19296, Note_on_c, 5, 61, 78
7, 19296, Note_on_c, 5, 64, 77
7, 19444, Note_on_c, 5, 64, 0
7, 19444, Note_on_c, 5, 57, 0
7, 19448, Note_on_c, 5, 61, 0
7, 19488, Note_on_c, 5, 57, 72
7, 19488, Note_on_c, 5, 61, 75
7, 19488, Note_on_c, 5, 64, 77
7, 19624, Note_on_c, 5, 64, 0
7, 19632, Note_on_c, 5, 61, 0
7, 19632, Note_on_c, 5, 57, 0
7, 19680, Note_on_c, 5, 57, 71
7, 19680, Note_on_c, 5, 61, 72
7, 19680, Note_on_c, 5, 64, 74
7, 19816, Note_on_c, 5, 64, 0
7, 19820, Note_on_c, 5, 61, 0
7, 19820, Note_on_c, 5, 57, 0
7, 19872, Note_on_c, 5, 57, 76
7, 19872, Note_on_c, 5, 61, 82
7, 19872, Note_on_c, 5, 64, 76
7, 19996, Note_on_c, 5, 57, 0
7, 20000, Note_on_c, 5, 61, 0
7, 20008, Note_on_c, 5, 64, 0
7, 20064, Note_on_c, 5, 59, 73
7, 20064, Note_on_c, 5, 62, 81
7, 20064, Note_on_c, 5, 67, 82
7, 20208, Note_on_c, 5, 67, 0
7, 20208, Note_on_c, 5, 62, 0
7, 20208, Note_on_c, 5, 59, 0
7, 20256, Note_on_c, 5, 59, 75
7, 20256, Note_on_c, 5, 62, 81
7, 20256, Note_on_c, 5, 67, 81
7, 20392, Note_on_c, 5, 67, 0
7, 20392, Note_on_c, 5, 59, 0
7, 20400, Note_on_c, 5, 62, 0
7, 20448, Note_on_c, 5, 57, 78
7, 20448, Note_on_c, 5, 62, 82
7, 20448, Note_on_c, 5, 66, 74
7, 20588, Note_on_c, 5, 66, 0
7, 20592, Note_on_c, 5, 62, 0
7, 20592, Note_on_c, 5, 57, 0
7, 20640, Note_on_c, 5, 57, 75
7, 20640, Note_on_c, 5, 62, 76
7, 20640, Note_on_c, 5, 66, 73
7, 20780, Note_on_c, 5, 66, 0
7, 20780, Note_on_c, 5, 57, 0
7, 20784, Note_on_c, 5, 62, 0
7, 20832, Note_on_c, 5, 57, 73
7, 20832, Note_on_c, 5, 62, 75
7, 20832, Note_on_c, 5, 66, 71
7, 20968, Note_on_c, 5, 57, 0
7, 20972, Note_on_c, 5, 66, 0
7, 20976, Note_on_c, 5, 62, 0
7, 21024, Note_on_c, 5, 57, 78
7, 21024, Note_on_c, 5, 62, 81
7, 21024, Note_on_c, 5, 66, 77
7, 21168, Note_on_c, 5, 57, 0
7, 21172, Note_on_c, 5, 66, 0
7, 21176, Note_on_c, 5, 62, 0
7, 21216, Note_on_c, 5, 57, 79
7, 21216, Note_on_c, 5, 62, 78
7, 21216, Note_on_c, 5, 66, 71
7, 21356, Note_on_c, 5, 66, 0
7, 21356, Note_on_c, 5, 57, 0
7, 21360, Note_on_c, 5, 62, 0
7, 21408, Note_on_c, 5, 57, 79
7, 21408, Note_on_c, 5, 62, 82
7, 21408, Note_on_c, 5, 66, 78
7, 21524, Note_on_c, 5, 57, 0
7, 21528, Note_on_c, 5, 66, 0
7, 21528, Note_on_c, 5, 62, 0
7, 21600, Note_on_c, 5, 61, 82
7, 21600, Note_on_c, 5, 57, 74
7, 21600, Note_on_c, 5, 64, 79
7, 21736, Note_on_c, 5, 64, 0
7, 21736, Note_on_c, 5, 57, 0
7, 21744, Note_on_c, 5, 61, 0
7, 21792, Note_on_c, 5, 57, 82
7, 21792, Note_on_c, 5, 61, 82
7, 21792, Note_on_c, 5, 64, 78
7, 21920, Note_on_c, 5, 64, 0
7, 21928, Note_on_c, 5, 61, 0
7, 21928, Note_on_c, 5, 57, 0
7, 21984, Note_on_c, 5, 57, 81
7, 21984, Note_on_c, 5, 61, 82
7, 21984, Note_on_c, 5, 64, 81
7, 22124, Note_on_c, 5, 64, 0
7, 22128, Note_on_c, 5, 57, 0
7, 22136, Note_on_c, 5, 61, 0
7, 22176, Note_on_c, 5, 57, 81
7, 22176, Note_on_c, 5, 61, 82
7, 22176, Note_on_c, 5, 64, 79
7, 22288, Note_on_c, 5, 64, 0
7, 22296, Note_on_c, 5, 61, 0
7, 22296, Note_on_c, 5, 57, 0
7, 22368, Note_on_c, 5, 59, 71
7, 22368, Note_on_c, 5, 62, 79
7, 22368, Note_on_c, 5, 66, 75
7, 22500, Note_on_c, 5, 66, 0
7, 22500, Note_on_c, 5, 62, 0
7, 22504, Note_on_c, 5, 59, 0
7, 22560, Note_on_c, 5, 59, 79
7, 22560, Note_on_c, 5, 62, 82
7, 22560, Note_on_c, 5, 66, 79
7, 22704, Note_on_c, 5, 66, 0
7, 22704, Note_on_c, 5, 62, 0
7, 22704, Note_on_c, 5, 59, 0
7, 22752, Note_on_c, 5, 59, 73
7, 22752, Note_on_c, 5, 62, 82
7, 22752, Note_on_c, 5, 66, 80
7, 22896, Note_on_c, 5, 66, 0
7, 22896, Note_on_c, 5, 62, 0
7, 22896, Note_on_c, 5, 59, 0
7, 22944, Note_on_c, 5, 62, 82
7, 22944, Note_on_c, 5, 59, 71
7, 22944, Note_on_c, 5, 66, 74
7, 23068, Note_on_c, 5, 66, 0
7, 23072, Note_on_c, 5, 59, 0
7, 23080, Note_on_c, 5, 62, 0
7, 23136, Note_on_c, 5, 59, 66
7, 23136, Note_on_c, 5, 62, 75
7, 23136, Note_on_c, 5, 67, 78
7, 23272, Note_on_c, 5, 67, 0
7, 23280, Note_on_c, 5, 62, 0
7, 23284, Note_on_c, 5, 59, 0
7, 23324, Note_on_c, 5, 62, 77
7, 23328, Note_on_c, 5, 59, 66
7, 23328, Note_on_c, 5, 67, 79
7, 23472, Note_on_c, 5, 67, 0
7, 23472, Note_on_c, 5, 59, 0
7, 23472, Note_on_c, 5, 62, 0
7, 23520, Note_on_c, 5, 62, 76
7, 23520, Note_on_c, 5, 59, 70
7, 23520, Note_on_c, 5, 67, 81
7, 23664, Note_on_c, 5, 67, 0
7, 23664, Note_on_c, 5, 59, 0
7, 23664, Note_on_c, 5, 62, 0
7, 23712, Note_on_c, 5, 59, 69
7, 23712, Note_on_c, 5, 62, 78
7, 23712, Note_on_c, 5, 67, 81
7, 23832, Note_on_c, 5, 67, 0
7, 23840, Note_on_c, 5, 62, 0
7, 23840, Note_on_c, 5, 59, 0
7, 23904, Note_on_c, 5, 57, 74
7, 23904, Note_on_c, 5, 62, 77
7, 23904, Note_on_c, 5, 66, 73
7, 24040, Note_on_c, 5, 66, 0
7, 24040, Note_on_c, 5, 62, 0
7, 24044, Note_on_c, 5, 57, 0
7, 24096, Note_on_c, 5, 57, 74
7, 24096, Note_on_c, 5, 62, 78
7, 24096, Note_on_c, 5, 66, 74
7, 24224, Note_on_c, 5, 66, 0
7, 24232, Note_on_c, 5, 62, 0
7, 24232, Note_on_c, 5, 57, 0
7, 24284, Note_on_c, 5, 57, 81
7, 24288, Note_on_c, 5, 62, 80
7, 24288, Note_on_c, 5, 66, 73
7, 24408, Note_on_c, 5, 66, 0
7, 24416, Note_on_c, 5, 62, 0
7, 24416, Note_on_c, 5, 57, 0
7, 24480, Note_on_c, 5, 57, 73
7, 24480, Note_on_c, 5, 62, 74
7, 24480, Note_on_c, 5, 66, 72
7, 24584, Note_on_c, 5, 66, 0
7, 24592, Note_on_c, 5, 62, 0
7, 24592, Note_on_c, 5, 57, 0
7, 24672, Note_on_c, 5, 61, 74
7, 24672, Note_on_c, 5, 57, 71
7, 24672, Note_on_c, 5, 64, 75
7, 24800, Note_on_c, 5, 64, 0
7, 24800, Note_on_c, 5, 57, 0
7, 24808, Note_on_c, 5, 61, 0
7, 24864, Note_on_c, 5, 57, 82
7, 24864, Note_on_c, 5, 61, 82
7, 24864, Note_on_c, 5, 64, 80
7, 25008, Note_on_c, 5, 64, 0
7, 25008, Note_on_c, 5, 57, 0
7, 25012, Note_on_c, 5, 61, 0
7, 25052, Note_on_c, 5, 57, 73
7, 25056, Note_on_c, 5, 61, 79
7, 25056, Note_on_c, 5, 64, 77
7, 25184, Note_on_c, 5, 64, 0
7, 25192, Note_on_c, 5, 57, 0
7, 25200, Note_on_c, 5, 61, 0
7, 25248, Note_on_c, 5, 61, 82
7, 25248, Note_on_c, 5, 57, 78
7, 25248, Note_on_c, 5, 64, 80
7, 25368, Note_on_c, 5, 57, 0
7, 25368, Note_on_c, 5, 61, 0
7, 25376, Note_on_c, 5, 64, 0
7, 25440, Note_on_c, 5, 59, 65
7, 25440, Note_on_c, 5, 62, 79
7, 25440, Note_on_c, 5, 67, 75
7, 25568, Note_on_c, 5, 67, 0
7, 25568, Note_on_c, 5, 62, 0
7, 25568, Note_on_c, 5, 59, 0
7, 25632, Note_on_c, 5, 59, 72
7, 25632, Note_on_c, 5, 62, 82
7, 25632, Note_on_c, 5, 67, 82
7, 25764, Note_on_c, 5, 67, 0
7, 25768, Note_on_c, 5, 62, 0
7, 25768, Note_on_c, 5, 59, 0
7, 25820, Note_on_c, 5, 59, 73
7, 25824, Note_on_c, 5, 62, 82
7, 25824, Note_on_c, 5, 67, 82
7, 25960, Note_on_c, 5, 67, 0
7, 25960, Note_on_c, 5, 62, 0
7, 25960, Note_on_c, 5, 59, 0
7, 26016, Note_on_c, 5, 59, 71
7, 26016, Note_on_c, 5, 62, 81
7, 26016, Note_on_c, 5, 67, 81
7, 26128, Note_on_c, 5, 59, 0
7, 26136, Note_on_c, 5, 67, 0
7, 26136, Note_on_c, 5, 62, 0
7, 26204, Note_on_c, 5, 62, 80
7, 26208, Note_on_c, 5, 57, 70
7, 26208, Note_on_c, 5, 66, 72
7, 26320, Note_on_c, 5, 66, 0
7, 26332, Note_on_c, 5, 57, 0
7, 26332, Note_on_c, 5, 62, 0
7, 26400, Note_on_c, 5, 57, 74
7, 26400, Note_on_c, 5, 62, 82
7, 26400, Note_on_c, 5, 66, 69
7, 26528, Note_on_c, 5, 66, 0
7, 26536, Note_on_c, 5, 57, 0
7, 26544, Note_on_c, 5, 62, 0
7, 26592, Note_on_c, 5, 57, 76
7, 26592, Note_on_c, 5, 62, 82
7, 26592, Note_on_c, 5, 66, 77
7, 26728, Note_on_c, 5, 66, 0
7, 26736, Note_on_c, 5, 62, 0
7, 26736, Note_on_c, 5, 57, 0
7, 26780, Note_on_c, 5, 66, 82
7, 26784, Note_on_c, 5, 57, 82
7, 26784, Note_on_c, 5, 62, 82
7, 26892, Note_on_c, 5, 66, 0
7, 26896, Note_on_c, 5, 62, 0
7, 26896, Note_on_c, 5, 57, 0
7, 26976, Note_on_c, 5, 59, 67
7, 26976, Note_on_c, 5, 62, 72
7, 26976, Note_on_c, 5, 66, 72
7, 27104, Note_on_c, 5, 62, 0
7, 27108, Note_on_c, 5, 66, 0
7, 27108, Note_on_c, 5, 59, 0
7, 27168, Note_on_c, 5, 59, 82
7, 27168, Note_on_c, 5, 62, 82
7, 27168, Note_on_c, 5, 66, 82
7, 27280, Note_on_c, 5, 66, 0
7, 27288, Note_on_c, 5, 62, 0
7, 27288, Note_on_c, 5, 59, 0
7, 27360, Note_on_c, 5, 57, 69
7, 27360, Note_on_c, 5, 61, 79
7, 27360, Note_on_c, 5, 64, 80
7, 27496, Note_on_c, 5, 64, 0
7, 27504, Note_on_c, 5, 57, 0
7, 27508, Note_on_c, 5, 61, 0
7, 27552, Note_on_c, 5, 57, 77
7, 27552, Note_on_c, 5, 61, 81
7, 27552, Note_on_c, 5, 64, 78
7, 27680, Note_on_c, 5, 64, 0
7, 27680, Note_on_c, 5, 57, 0
7, 27688, Note_on_c, 5, 61, 0
7, 27744, Note_on_c, 5, 57, 77
7, 27744, Note_on_c, 5, 62, 80
7, 27744, Note_on_c, 5, 66, 73
7, 27888, Note_on_c, 5, 66, 0
7, 27888, Note_on_c, 5, 62, 0
7, 27888, Note_on_c, 5, 57, 0
7, 27936, Note_on_c, 5, 57, 79
7, 27936, Note_on_c, 5, 62, 82
7, 27936, Note_on_c, 5, 66, 79
7, 28072, Note_on_c, 5, 66, 0
7, 28072, Note_on_c, 5, 62, 0
7, 28072, Note_on_c, 5, 57, 0
7, 28124, Note_on_c, 5, 66, 79
7, 28128, Note_on_c, 5, 57, 81
7, 28128, Note_on_c, 5, 62, 82
7, 28256, Note_on_c, 5, 57, 0
7, 28256, Note_on_c, 5, 66, 0
7, 28260, Note_on_c, 5, 62, 0
7, 28320, Note_on_c, 5, 57, 77
7, 28320, Note_on_c, 5, 62, 80
7, 28320, Note_on_c, 5, 66, 79
7, 28448, Note_on_c, 5, 66, 0
7, 28448, Note_on_c, 5, 57, 0
7, 28456, Note_on_c, 5, 62, 0
7, 28512, Note_on_c, 5, 62, 80
7, 28512, Note_on_c, 5, 59, 71
7, 28512, Note_on_c, 5, 67, 80
7, 28648, Note_on_c, 5, 67, 0
7, 28648, Note_on_c, 5, 62, 0
7, 28656, Note_on_c, 5, 59, 0
7, 28700, Note_on_c, 5, 59, 71
7, 28704, Note_on_c, 5, 62, 78
7, 28704, Note_on_c, 5, 67, 81
7, 28832, Note_on_c, 5, 62, 0
7, 28832, Note_on_c, 5, 59, 0
7, 28840, Note_on_c, 5, 67, 0
7, 28892, Note_on_c, 5, 66, 78
7, 28896, Note_on_c, 5, 57, 75
7, 28896, Note_on_c, 5, 62, 82
7, 29032, Note_on_c, 5, 62, 0
7, 29032, Note_on_c, 5, 57, 0
7, 29032, Note_on_c, 5, 66, 0
7, 29088, Note_on_c, 5, 57, 77
7, 29088, Note_on_c, 5, 62, 82
7, 29088, Note_on_c, 5, 66, 73
7, 29216, Note_on_c, 5, 66, 0
7, 29216, Note_on_c, 5, 62, 0
7, 29216, Note_on_c, 5, 57, 0
7, 29280, Note_on_c, 5, 57, 74
7, 29280, Note_on_c, 5, 61, 75
7, 29280, Note_on_c, 5, 64, 72
7, 29420, Note_on_c, 5, 64, 0
7, 29424, Note_on_c, 5, 57, 0
7, 29436, Note_on_c, 5, 61, 0
7, 29468, Note_on_c, 5, 61, 78
7, 29472, Note_on_c, 5, 57, 71
7, 29472, Note_on_c, 5, 64, 73
7, 29624, Note_on_c, 5, 64, 0
7, 29624, Note_on_c, 5, 57, 0
7, 29628, Note_on_c, 5, 61, 0
7, 29660, Note_on_c, 5, 61, 79
7, 29664, Note_on_c, 5, 57, 75
7, 29664, Note_on_c, 5, 64, 77
7, 29800, Note_on_c, 5, 64, 0
7, 29800, Note_on_c, 5, 57, 0
7, 29808, Note_on_c, 5, 61, 0
7, 29856, Note_on_c, 5, 57, 78
7, 29856, Note_on_c, 5, 61, 82
7, 29856, Note_on_c, 5, 64, 81
7, 29968, Note_on_c, 5, 64, 0
7, 29968, Note_on_c, 5, 57, 0
7, 29976, Note_on_c, 5, 61, 0
7, 30048, Note_on_c, 5, 59, 74
7, 30048, Note_on_c, 5, 62, 81
7, 30048, Note_on_c, 5, 66, 74
7, 30192, Note_on_c, 5, 66, 0
7, 30192, Note_on_c, 5, 62, 0
7, 30192, Note_on_c, 5, 59, 0
7, 30240, Note_on_c, 5, 59, 71
7, 30240, Note_on_c, 5, 62, 82
7, 30240, Note_on_c, 5, 66, 77
7, 30372, Note_on_c, 5, 66, 0
7, 30372, Note_on_c, 5, 59, 0
7, 30376, Note_on_c, 5, 62, 0
7, 30432, Note_on_c, 5, 55, 76
7, 30432, Note_on_c, 5, 60, 75
7, 30432, Note_on_c, 5, 64, 76
7, 30576, Note_on_c, 5, 64, 0
7, 30576, Note_on_c, 5, 60, 0
7, 30580, Note_on_c, 5, 55, 0
7, 30624, Note_on_c, 5, 55, 70
7, 30624, Note_on_c, 5, 60, 75
7, 30624, Note_on_c, 5, 64, 76
7, 30752, Note_on_c, 5, 64, 0
7, 30756, Note_on_c, 5, 60, 0
7, 30756, Note_on_c, 5, 55, 0
7, 30812, Note_on_c, 5, 55, 72
7, 30816, Note_on_c, 5, 59, 73
7, 30816, Note_on_c, 5, 62, 76
7, 30960, Note_on_c, 5, 62, 0
7, 30960, Note_on_c, 5, 59, 0
7, 30960, Note_on_c, 5, 55, 0
7, 31004, Note_on_c, 5, 55, 73
7, 31008, Note_on_c, 5, 59, 79
7, 31008, Note_on_c, 5, 62, 81
7, 31136, Note_on_c, 5, 62, 0
7, 31136, Note_on_c, 5, 59, 0
7, 31136, Note_on_c, 5, 55, 0
7, 31200, Note_on_c, 5, 62, 80
7, 31200, Note_on_c, 5, 57, 76
7, 31200, Note_on_c, 5, 66, 74
7, 31336, Note_on_c, 5, 66, 0
7, 31336, Note_on_c, 5, 62, 0
7, 31344, Note_on_c, 5, 57, 0
7, 31392, Note_on_c, 5, 62, 82
7, 31392, Note_on_c, 5, 57, 79
7, 31392, Note_on_c, 5, 66, 79
7, 31528, Note_on_c, 5, 66, 0
7, 31528, Note_on_c, 5, 57, 0
7, 31528, Note_on_c, 5, 62, 0
7, 31580, Note_on_c, 5, 64, 80
7, 31584, Note_on_c, 5, 57, 73
7, 31584, Note_on_c, 5, 61, 82
7, 31728, Note_on_c, 5, 57, 0
7, 31728, Note_on_c, 5, 64, 0
7, 31740, Note_on_c, 5, 61, 0
7, 31776, Note_on_c, 5, 61, 73
7, 31776, Note_on_c, 5, 57, 75
7, 31776, Note_on_c, 5, 64, 76
7, 31920, Note_on_c, 5, 64, 0
7, 31920, Note_on_c, 5, 61, 0
7, 31924, Note_on_c, 5, 57, 0
7, 31968, Note_on_c, 5, 57, 82
7, 31968, Note_on_c, 5, 61, 82
7, 31968, Note_on_c, 5, 64, 80
7, 32104, Note_on_c, 5, 64, 0
7, 32112, Note_on_c, 5, 61, 0
7, 32112, Note_on_c, 5, 57, 0
7, 32156, Note_on_c, 5, 61, 82
7, 32160, Note_on_c, 5, 57, 78
7, 32160, Note_on_c, 5, 64, 82
7, 32300, Note_on_c, 5, 61, 0
7, 32304, Note_on_c, 5, 64, 0
7, 32304, Note_on_c, 5, 57, 0
7, 32352, Note_on_c, 5, 57, 82
7, 32352, Note_on_c, 5, 61, 82
7, 32352, Note_on_c, 5, 64, 82
7, 32480, Note_on_c, 5, 64, 0
7, 32480, Note_on_c, 5, 57, 0
7, 32488, Note_on_c, 5, 61, 0
7, 32544, Note_on_c, 5, 57, 82
7, 32544, Note_on_c, 5, 61, 82
7, 32544, Note_on_c, 5, 64, 82
7, 32696, Note_on_c, 5, 64, 0
7, 32696, Note_on_c, 5, 57, 0
7, 32704, Note_on_c, 5, 61, 0
7, 32736, Note_on_c, 5, 57, 82
7, 32736, Note_on_c, 5, 61, 82
7, 32736, Note_on_c, 5, 64, 82
7, 33064, Note_on_c, 5, 57, 0
7, 33068, Note_on_c, 5, 64, 0
7, 33068, Note_on_c, 5, 61, 0
7, 33120, Note_on_c, 5, 57, 73
7, 33120, Note_on_c, 5, 62, 82
7, 33120, Note_on_c, 5, 66, 73
7, 33260, Note_on_c, 5, 62, 0
7, 33264, Note_on_c, 5, 66, 0
7, 33264, Note_on_c, 5, 57, 0
7, 33312, Note_on_c, 5, 57, 71
7, 33312, Note_on_c, 5, 62, 82
7, 33312, Note_on_c, 5, 66, 72
7, 33464, Note_on_c, 5, 66, 0
7, 33464, Note_on_c, 5, 62, 0
7, 33472, Note_on_c, 5, 57, 0
7, 33504, Note_on_c, 5, 62, 82
7, 33504, Note_on_c, 5, 57, 73
7, 33504, Note_on_c, 5, 66, 78
7, 33632, Note_on_c, 5, 66, 0
7, 33632, Note_on_c, 5, 62, 0
7, 33640, Note_on_c, 5, 57, 0
7, 33696, Note_on_c, 5, 57, 72
7, 33696, Note_on_c, 5, 62, 76
7, 33696, Note_on_c, 5, 66, 72
7, 33816, Note_on_c, 5, 66, 0
7, 33816, Note_on_c, 5, 62, 0
7, 33816, Note_on_c, 5, 57, 0
7, 33888, Note_on_c, 5, 57, 76
7, 33888, Note_on_c, 5, 61, 73
7, 33888, Note_on_c, 5, 64, 77
7, 34016, Note_on_c, 5, 64, 0
7, 34016, Note_on_c, 5, 61, 0
7, 34016, Note_on_c, 5, 57, 0
7, 34080, Note_on_c, 5, 57, 79
7, 34080, Note_on_c, 5, 61, 82
7, 34080, Note_on_c, 5, 64, 81
7, 34208, Note_on_c, 5, 64, 0
7, 34208, Note_on_c, 5, 61, 0
7, 34208, Note_on_c, 5, 57, 0
7, 34272, Note_on_c, 5, 61, 82
7, 34272, Note_on_c, 5, 57, 77
7, 34272, Note_on_c, 5, 64, 82
7, 34408, Note_on_c, 5, 64, 0
7, 34408, Note_on_c, 5, 61, 0
7, 34412, Note_on_c, 5, 57, 0
7, 34464, Note_on_c, 5, 57, 74
7, 34464, Note_on_c, 5, 61, 79
7, 34464, Note_on_c, 5, 64, 74
7, 34576, Note_on_c, 5, 64, 0
7, 34584, Note_on_c, 5, 61, 0
7, 34584, Note_on_c, 5, 57, 0
7, 34656, Note_on_c, 5, 59, 71
7, 34656, Note_on_c, 5, 62, 82
7, 34656, Note_on_c, 5, 66, 82
7, 34792, Note_on_c, 5, 66, 0
7, 34792, Note_on_c, 5, 62, 0
7, 34792, Note_on_c, 5, 59, 0
7, 34848, Note_on_c, 5, 59, 77
7, 34848, Note_on_c, 5, 62, 82
7, 34848, Note_on_c, 5, 66, 81
7, 34992, Note_on_c, 5, 62, 0
7, 34996, Note_on_c, 5, 66, 0
7, 34996, Note_on_c, 5, 59, 0
7, 35040, Note_on_c, 5, 59, 77
7, 35040, Note_on_c, 5, 62, 82
7, 35040, Note_on_c, 5, 66, 82
7, 35184, Note_on_c, 5, 66, 0
7, 35184, Note_on_c, 5, 62, 0
7, 35184, Note_on_c, 5, 59, 0
7, 35232, Note_on_c, 5, 59, 73
7, 35232, Note_on_c, 5, 62, 82
7, 35232, Note_on_c, 5, 66, 78
7, 35360, Note_on_c, 5, 59, 0
7, 35364, Note_on_c, 5, 66, 0
7, 35368, Note_on_c, 5, 62, 0
7, 35424, Note_on_c, 5, 62, 80
7, 35424, Note_on_c, 5, 59, 71
7, 35424, Note_on_c, 5, 67, 82
7, 35560, Note_on_c, 5, 67, 0
7, 35564, Note_on_c, 5, 62, 0
7, 35568, Note_on_c, 5, 59, 0
7, 35612, Note_on_c, 5, 67, 79
7, 35616, Note_on_c, 5, 59, 70
7, 35616, Note_on_c, 5, 62, 81
7, 35768, Note_on_c, 5, 62, 0
7, 35768, Note_on_c, 5, 59, 0
7, 35768, Note_on_c, 5, 67, 0
7, 35808, Note_on_c, 5, 59, 71
7, 35808, Note_on_c, 5, 62, 82
7, 35808, Note_on_c, 5, 67, 80
7, 35952, Note_on_c, 5, 62, 0
7, 35956, Note_on_c, 5, 67, 0
7, 35960, Note_on_c, 5, 59, 0
7, 36000, Note_on_c, 5, 62, 79
7, 36000, Note_on_c, 5, 59, 67
7, 36000, Note_on_c, 5, 67, 71
7, 36128, Note_on_c, 5, 59, 0
7, 36136, Note_on_c, 5, 67, 0
7, 36136, Note_on_c, 5, 62, 0
7, 36192, Note_on_c, 5, 57, 71
7, 36192, Note_on_c, 5, 62, 82
7, 36192, Note_on_c, 5, 66, 72
7, 36328, Note_on_c, 5, 66, 0
7, 36336, Note_on_c, 5, 62, 0
7, 36336, Note_on_c, 5, 57, 0
7, 36384, Note_on_c, 5, 57, 68
7, 36384, Note_on_c, 5, 62, 71
7, 36384, Note_on_c, 5, 66, 67
7, 36528, Note_on_c, 5, 62, 0
7, 36528, Note_on_c, 5, 57, 0
7, 36536, Note_on_c, 5, 66, 0
7, 36572, Note_on_c, 5, 57, 75
7, 36576, Note_on_c, 5, 62, 81
7, 36576, Note_on_c, 5, 66, 71
7, 36712, Note_on_c, 5, 57, 0
7, 36720, Note_on_c, 5, 66, 0
7, 36720, Note_on_c, 5, 62, 0
7, 36768, Note_on_c, 5, 57, 74
7, 36768, Note_on_c, 5, 62, 78
7, 36768, Note_on_c, 5, 66, 77
7, 36888, Note_on_c, 5, 66, 0
7, 36888, Note_on_c, 5, 62, 0
7, 36888, Note_on_c, 5, 57, 0
7, 36960, Note_on_c, 5, 61, 71
7, 36960, Note_on_c, 5, 57, 70
7, 36960, Note_on_c, 5, 64, 77
7, 37104, Note_on_c, 5, 64, 0
7, 37104, Note_on_c, 5, 57, 0
7, 37104, Note_on_c, 5, 61, 0
7, 37152, Note_on_c, 5, 57, 73
7, 37152, Note_on_c, 5, 61, 81
7, 37152, Note_on_c, 5, 64, 79
7, 37296, Note_on_c, 5, 64, 0
7, 37296, Note_on_c, 5, 57, 0
7, 37300, Note_on_c, 5, 61, 0
7, 37344, Note_on_c, 5, 57, 70
7, 37344, Note_on_c, 5, 61, 73
7, 37344, Note_on_c, 5, 64, 76
7, 37488, Note_on_c, 5, 64, 0
7, 37488, Note_on_c, 5, 57, 0
7, 37492, Note_on_c, 5, 61, 0
7, 37536, Note_on_c, 5, 57, 71
7, 37536, Note_on_c, 5, 61, 69
7, 37536, Note_on_c, 5, 64, 78
7, 37664, Note_on_c, 5, 57, 0
7, 37672, Note_on_c, 5, 64, 0
7, 37672, Note_on_c, 5, 61, 0
7, 37728, Note_on_c, 5, 59, 67
7, 37728, Note_on_c, 5, 62, 76
7, 37728, Note_on_c, 5, 67, 81
7, 37880, Note_on_c, 5, 67, 0
7, 37880, Note_on_c, 5, 62, 0
7, 37880, Note_on_c, 5, 59, 0
7, 37920, Note_on_c, 5, 62, 78
7, 37920, Note_on_c, 5, 59, 68
7, 37920, Note_on_c, 5, 67, 79
7, 38088, Note_on_c, 5, 67, 0
7, 38088, Note_on_c, 5, 62, 0
7, 38096, Note_on_c, 5, 59, 0
7, 38108, Note_on_c, 5, 59, 74
7, 38112, Note_on_c, 5, 62, 81
7, 38112, Note_on_c, 5, 67, 82
7, 38264, Note_on_c, 5, 67, 0
7, 38264, Note_on_c, 5, 62, 0
7, 38268, Note_on_c, 5, 59, 0
7, 38304, Note_on_c, 5, 62, 81
7, 38304, Note_on_c, 5, 59, 66
7, 38304, Note_on_c, 5, 67, 76
7, 38452, Note_on_c, 5, 67, 0
7, 38456, Note_on_c, 5, 62, 0
7, 38464, Note_on_c, 5, 59, 0
7, 38496, Note_on_c, 5, 57, 71
7, 38496, Note_on_c, 5, 62, 72
7, 38496, Note_on_c, 5, 66, 71
7, 38632, Note_on_c, 5, 66, 0
7, 38640, Note_on_c, 5, 62, 0
7, 38640, Note_on_c, 5, 57, 0
7, 38688, Note_on_c, 5, 57, 73
7, 38688, Note_on_c, 5, 62, 80
7, 38688, Note_on_c, 5, 66, 73
7, 38832, Note_on_c, 5, 66, 0
7, 38840, Note_on_c, 5, 62, 0
7, 38840, Note_on_c, 5, 57, 0
7, 38880, Note_on_c, 5, 62, 82
7, 38880, Note_on_c, 5, 57, 78
7, 38880, Note_on_c, 5, 66, 78
7, 39016, Note_on_c, 5, 66, 0
7, 39024, Note_on_c, 5, 57, 0
7, 39024, Note_on_c, 5, 62, 0
7, 39072, Note_on_c, 5, 57, 78
7, 39072, Note_on_c, 5, 62, 82
7, 39072, Note_on_c, 5, 66, 77
7, 39212, Note_on_c, 5, 66, 0
7, 39216, Note_on_c, 5, 62, 0
7, 39216, Note_on_c, 5, 57, 0
7, 39264, Note_on_c, 5, 57, 73
7, 39264, Note_on_c, 5, 62, 82
7, 39264, Note_on_c, 5, 66, 76
7, 39392, Note_on_c, 5, 66, 0
7, 39392, Note_on_c, 5, 62, 0
7, 39392, Note_on_c, 5, 57, 0
7, 39456, Note_on_c, 5, 57, 76
7, 39456, Note_on_c, 5, 62, 82
7, 39456, Note_on_c, 5, 66, 77
7, 39592, Note_on_c, 5, 66, 0
7, 39592, Note_on_c, 5, 57, 0
7, 39596, Note_on_c, 5, 62, 0
7, 39648, Note_on_c, 5, 62, 80
7, 39648, Note_on_c, 5, 57, 73
7, 39648, Note_on_c, 5, 66, 78
7, 39776, Note_on_c, 5, 66, 0
7, 39784, Note_on_c, 5, 57, 0
7, 39784, Note_on_c, 5, 62, 0
7, 39840, Note_on_c, 5, 57, 77
7, 39840, Note_on_c, 5, 62, 82
7, 39840, Note_on_c, 5, 66, 79
7, 39960, Note_on_c, 5, 66, 0
7, 39960, Note_on_c, 5, 62, 0
7, 39960, Note_on_c, 5, 57, 0
7, 40032, Note_on_c, 5, 57, 82
7, 40032, Note_on_c, 5, 61, 82
7, 40032, Note_on_c, 5, 64, 82
7, 40160, Note_on_c, 5, 64, 0
7, 40160, Note_on_c, 5, 57, 0
7, 40164, Note_on_c, 5, 61, 0
7, 40220, Note_on_c, 5, 61, 82
7, 40224, Note_on_c, 5, 57, 82
7, 40224, Note_on_c, 5, 64, 82
7, 40344, Note_on_c, 5, 64, 0
7, 40352, Note_on_c, 5, 57, 0
7, 40356, Note_on_c, 5, 61, 0
7, 40416, Note_on_c, 5, 57, 77
7, 40416, Note_on_c, 5, 61, 82
7, 40416, Note_on_c, 5, 64, 72
7, 40536, Note_on_c, 5, 64, 0
7, 40536, Note_on_c, 5, 61, 0
7, 40536, Note_on_c, 5, 57, 0
7, 40604, Note_on_c, 5, 57, 82
7, 40608, Note_on_c, 5, 61, 82
7, 40608, Note_on_c, 5, 64, 79
7, 40720, Note_on_c, 5, 57, 0
7, 40724, Note_on_c, 5, 64, 0
7, 40728, Note_on_c, 5, 61, 0
7, 40800, Note_on_c, 5, 59, 77
7, 40800, Note_on_c, 5, 62, 82
7, 40800, Note_on_c, 5, 66, 81
7, 40928, Note_on_c, 5, 62, 0
7, 40928, Note_on_c, 5, 59, 0
7, 40936, Note_on_c, 5, 66, 0
7, 40992, Note_on_c, 5, 59, 67
7, 40992, Note_on_c, 5, 62, 78
7, 40992, Note_on_c, 5, 66, 80
7, 41124, Note_on_c, 5, 59, 0
7, 41128, Note_on_c, 5, 62, 0
7, 41136, Note_on_c, 5, 66, 0
7, 41184, Note_on_c, 5, 59, 74
7, 41184, Note_on_c, 5, 62, 82
7, 41184, Note_on_c, 5, 66, 71
7, 41312, Note_on_c, 5, 62, 0
7, 41312, Note_on_c, 5, 59, 0
7, 41316, Note_on_c, 5, 66, 0
7, 41376, Note_on_c, 5, 59, 67
7, 41376, Note_on_c, 5, 62, 78
7, 41376, Note_on_c, 5, 66, 75
7, 41496, Note_on_c, 5, 59, 0
7, 41504, Note_on_c, 5, 66, 0
7, 41504, Note_on_c, 5, 62, 0
7, 41568, Note_on_c, 5, 59, 75
7, 41568, Note_on_c, 5, 62, 81
7, 41568, Note_on_c, 5, 67, 79
7, 41700, Note_on_c, 5, 67, 0
7, 41712, Note_on_c, 5, 62, 0
7, 41712, Note_on_c, 5, 59, 0
7, 41760, Note_on_c, 5, 62, 77
7, 41760, Note_on_c, 5, 59, 71
7, 41760, Note_on_c, 5, 67, 81
7, 41904, Note_on_c, 5, 67, 0
7, 41904, Note_on_c, 5, 62, 0
7, 41912, Note_on_c, 5, 59, 0
7, 41952, Note_on_c, 5, 62, 80
7, 41952, Note_on_c, 5, 59, 71
7, 41952, Note_on_c, 5, 67, 82
7, 42104, Note_on_c, 5, 67, 0
7, 42104, Note_on_c, 5, 62, 0
7, 42108, Note_on_c, 5, 59, 0
7, 42144, Note_on_c, 5, 59, 68
7, 42144, Note_on_c, 5, 62, 74
7, 42144, Note_on_c, 5, 67, 77
7, 42272, Note_on_c, 5, 59, 0
7, 42280, Note_on_c, 5, 67, 0
7, 42280, Note_on_c, 5, 62, 0
7, 42336, Note_on_c, 5, 57, 75
7, 42336, Note_on_c, 5, 62, 78
7, 42336, Note_on_c, 5, 66, 75
7, 42472, Note_on_c, 5, 66, 0
7, 42480, Note_on_c, 5, 62, 0
7, 42480, Note_on_c, 5, 57, 0
7, 42528, Note_on_c, 5, 57, 67
7, 42528, Note_on_c, 5, 62, 74
7, 42528, Note_on_c, 5, 66, 74
7, 42668, Note_on_c, 5, 66, 0
7, 42672, Note_on_c, 5, 62, 0
7, 42672, Note_on_c, 5, 57, 0
7, 42720, Note_on_c, 5, 62, 75
7, 42720, Note_on_c, 5, 57, 72
7, 42720, Note_on_c, 5, 66, 74
7, 42860, Note_on_c, 5, 66, 0
7, 42860, Note_on_c, 5, 62, 0
7, 42864, Note_on_c, 5, 57, 0
7, 42908, Note_on_c, 5, 66, 79
7, 42912, Note_on_c, 5, 57, 74
7, 42912, Note_on_c, 5, 62, 82
7, 43028, Note_on_c, 5, 66, 0
7, 43036, Note_on_c, 5, 62, 0
7, 43036, Note_on_c, 5, 57, 0
7, 43104, Note_on_c, 5, 57, 73
7, 43104, Note_on_c, 5, 61, 82
7, 43104, Note_on_c, 5, 64, 77
7, 43240, Note_on_c, 5, 64, 0
7, 43240, Note_on_c, 5, 61, 0
7, 43240, Note_on_c, 5, 57, 0
7, 43296, Note_on_c, 5, 61, 82
7, 43296, Note_on_c, 5, 57, 80
7, 43296, Note_on_c, 5, 64, 76
7, 43416, Note_on_c, 5, 64, 0
7, 43424, Note_on_c, 5, 57, 0
7, 43424, Note_on_c, 5, 61, 0
7, 43488, Note_on_c, 5, 57, 82
7, 43488, Note_on_c, 5, 61, 82
7, 43488, Note_on_c, 5, 64, 82
7, 43616, Note_on_c, 5, 64, 0
7, 43616, Note_on_c, 5, 61, 0
7, 43616, Note_on_c, 5, 57, 0
7, 43680, Note_on_c, 5, 61, 82
7, 43680, Note_on_c, 5, 57, 81
7, 43680, Note_on_c, 5, 64, 82
7, 43796, Note_on_c, 5, 57, 0
7, 43796, Note_on_c, 5, 61, 0
7, 43808, Note_on_c, 5, 64, 0
7, 43872, Note_on_c, 5, 59, 74
7, 43872, Note_on_c, 5, 62, 82
7, 43872, Note_on_c, 5, 67, 82
7, 44008, Note_on_c, 5, 67, 0
7, 44008, Note_on_c, 5, 62, 0
7, 44012, Note_on_c, 5, 59, 0
7, 44064, Note_on_c, 5, 59, 74
7, 44064, Note_on_c, 5, 62, 82
7, 44064, Note_on_c, 5, 67, 82
7, 44200, Note_on_c, 5, 62, 0
7, 44208, Note_on_c, 5, 67, 0
7, 44208, Note_on_c, 5, 59, 0
7, 44252, Note_on_c, 5, 67, 82
7, 44256, Note_on_c, 5, 59, 77
7, 44256, Note_on_c, 5, 62, 82
7, 44396, Note_on_c, 5, 62, 0
7, 44400, Note_on_c, 5, 59, 0
7, 44400, Note_on_c, 5, 67, 0
7, 44448, Note_on_c, 5, 62, 82
7, 44448, Note_on_c, 5, 59, 78
7, 44448, Note_on_c, 5, 67, 82
7, 44576, Note_on_c, 5, 59, 0
7, 44576, Note_on_c, 5, 62, 0
7, 44580, Note_on_c, 5, 67, 0
7, 44636, Note_on_c, 5, 57, 82
7, 44640, Note_on_c, 5, 62, 82
7, 44640, Note_on_c, 5, 66, 79
7, 44776, Note_on_c, 5, 66, 0
7, 44776, Note_on_c, 5, 57, 0
7, 44784, Note_on_c, 5, 62, 0
7, 44832, Note_on_c, 5, 57, 79
7, 44832, Note_on_c, 5, 62, 82
7, 44832, Note_on_c, 5, 66, 79
7, 44980, Note_on_c, 5, 66, 0
7, 44984, Note_on_c, 5, 62, 0
7, 44984, Note_on_c, 5, 57, 0
7, 45020, Note_on_c, 5, 57, 80
7, 45024, Note_on_c, 5, 62, 82
7, 45024, Note_on_c, 5, 66, 77
7, 45164, Note_on_c, 5, 66, 0
7, 45168, Note_on_c, 5, 62, 0
7, 45168, Note_on_c, 5, 57, 0
7, 45216, Note_on_c, 5, 62, 82
7, 45216, Note_on_c, 5, 66, 78
7, 45220, Note_on_c, 5, 57, 82
7, 45344, Note_on_c, 5, 66, 0
7, 45344, Note_on_c, 5, 62, 0
7, 45348, Note_on_c, 5, 57, 0
7, 45408, Note_on_c, 5, 61, 82
7, 45408, Note_on_c, 5, 57, 80
7, 45408, Note_on_c, 5, 64, 77
7, 45544, Note_on_c, 5, 64, 0
7, 45548, Note_on_c, 5, 57, 0
7, 45552, Note_on_c, 5, 61, 0
7, 45600, Note_on_c, 5, 61, 78
7, 45600, Note_on_c, 5, 57, 78
7, 45600, Note_on_c, 5, 64, 78
7, 45736, Note_on_c, 5, 64, 0
7, 45744, Note_on_c, 5, 57, 0
7, 45744, Note_on_c, 5, 61, 0
7, 45788, Note_on_c, 5, 61, 82
7, 45792, Note_on_c, 5, 57, 79
7, 45792, Note_on_c, 5, 64, 82
7, 45928, Note_on_c, 5, 64, 0
7, 45932, Note_on_c, 5, 57, 0
7, 45936, Note_on_c, 5, 61, 0
7, 45984, Note_on_c, 5, 61, 82
7, 45984, Note_on_c, 5, 57, 81
7, 45984, Note_on_c, 5, 64, 80
7, 46104, Note_on_c, 5, 64, 0
7, 46104, Note_on_c, 5, 57, 0
7, 46112, Note_on_c, 5, 61, 0
7, 46176, Note_on_c, 5, 62, 80
7, 46176, Note_on_c, 5, 57, 74
7, 46176, Note_on_c, 5, 66, 70
7, 46304, Note_on_c, 5, 66, 0
7, 46312, Note_on_c, 5, 57, 0
7, 46312, Note_on_c, 5, 62, 0
7, 46368, Note_on_c, 5, 57, 78
7, 46368, Note_on_c, 5, 62, 82
7, 46368, Note_on_c, 5, 66, 76
7, 46504, Note_on_c, 5, 66, 0
7, 46508, Note_on_c, 5, 57, 0
7, 46512, Note_on_c, 5, 62, 0
7, 46560, Note_on_c, 5, 57, 74
7, 46560, Note_on_c, 5, 62, 79
7, 46560, Note_on_c, 5, 66, 77
7, 46696, Note_on_c, 5, 66, 0
7, 46696, Note_on_c, 5, 62, 0
7, 46696, Note_on_c, 5, 57, 0
7, 46752, Note_on_c, 5, 57, 79
7, 46752, Note_on_c, 5, 62, 82
7, 46752, Note_on_c, 5, 66, 76
7, 46880, Note_on_c, 5, 66, 0
7, 46880, Note_on_c, 5, 62, 0
7, 46880, Note_on_c, 5, 57, 0
7, 46944, Note_on_c, 5, 57, 75
7, 46944, Note_on_c, 5, 61, 81
7, 46944, Note_on_c, 5, 64, 76
7, 47072, Note_on_c, 5, 64, 0
7, 47080, Note_on_c, 5, 61, 0
7, 47080, Note_on_c, 5, 57, 0
7, 47136, Note_on_c, 5, 57, 82
7, 47136, Note_on_c, 5, 61, 82
7, 47136, Note_on_c, 5, 64, 78
7, 47280, Note_on_c, 5, 64, 0
7, 47280, Note_on_c, 5, 57, 0
7, 47288, Note_on_c, 5, 61, 0
7, 47328, Note_on_c, 5, 57, 82
7, 47328, Note_on_c, 5, 61, 82
7, 47328, Note_on_c, 5, 64, 79
7, 47456, Note_on_c, 5, 64, 0
7, 47464, Note_on_c, 5, 61, 0
7, 47464, Note_on_c, 5, 57, 0
7, 47520, Note_on_c, 5, 61, 82
7, 47520, Note_on_c, 5, 57, 81
7, 47520, Note_on_c, 5, 64, 80
7, 47656, Note_on_c, 5, 64, 0
7, 47660, Note_on_c, 5, 57, 0
7, 47660, Note_on_c, 5, 61, 0
7, 47712, Note_on_c, 5, 57, 75
7, 47712, Note_on_c, 5, 62, 82
7, 47712, Note_on_c, 5, 66, 79
7, 47844, Note_on_c, 5, 66, 0
7, 47848, Note_on_c, 5, 62, 0
7, 47848, Note_on_c, 5, 57, 0
7, 47904, Note_on_c, 5, 57, 80
7, 47904, Note_on_c, 5, 62, 82
7, 47904, Note_on_c, 5, 66, 77
7, 48048, Note_on_c, 5, 66, 0
7, 48056, Note_on_c, 5, 62, 0
7, 48056, Note_on_c, 5, 57, 0
7, 48092, Note_on_c, 5, 57, 82
7, 48096, Note_on_c, 5, 61, 82
7, 48096, Note_on_c, 5, 64, 78
7, 48144, Note_on_c, 5, 64, 0
7, 48144, Note_on_c, 5, 61, 0
7, 48144, Note_on_c, 5, 57, 0
7, 48192, Note_on_c, 5, 57, 79
7, 48192, Note_on_c, 5, 62, 79
7, 48192, Note_on_c, 5, 66, 81
7, 48368, Note_on_c, 5, 66, 0
7, 48368, Note_on_c, 5, 57, 0
7, 48376, Note_on_c, 5, 62, 0
7, 48376, End_track
8, 0, Start_track
8, 0, MIDI_port, 0
8, 0, Title_t, "***                 "
8, 0, Program_c, 6, 3
8, 0, Control_c, 6, 10, 64
8, 0, Pitch_bend_c, 6, 8192
8, 0, Control_c, 6, 1, 0
8, 0, Control_c, 6, 64, 0
8, 0, End_track
9, 0, Start_track
9, 0, MIDI_port, 0
9, 0, Title_t, "Violin              "
9, 0, Program_c, 7, 40
9, 0, Control_c, 7, 7, 77
9, 0, Control_c, 7, 10, 80
9, 0, Control_c, 7, 0, 0
9, 4, Control_c, 7, 1, 0
9, 4, Control_c, 7, 91, 127
9, 624, Note_on_c, 7, 77, 90
9, 672, Note_on_c, 7, 78, 88
9, 676, Note_on_c, 7, 77, 0
9, 720, Note_on_c, 7, 81, 89
9, 732, Note_on_c, 7, 78, 0
9, 1200, Note_on_c, 7, 77, 82
9, 1216, Note_on_c, 7, 81, 0
9, 1244, Note_on_c, 7, 78, 90
9, 1252, Note_on_c, 7, 77, 0
9, 1292, Note_on_c, 7, 81, 90
9, 1308, Note_on_c, 7, 78, 0
9, 1380, Note_on_c, 7, 81, 0
9, 1388, Note_on_c, 7, 81, 90
9, 1420, Pitch_bend_c, 7, 8513
9, 1424, Pitch_bend_c, 7, 9252
9, 1424, Pitch_bend_c, 7, 9862
9, 1428, Pitch_bend_c, 7, 10376
9, 1428, Pitch_bend_c, 7, 10890
9, 1432, Pitch_bend_c, 7, 11629
9, 1436, Pitch_bend_c, 7, 12432
9, 1436, Pitch_bend_c, 7, 13171
9, 1444, Pitch_bend_c, 7, 14103
9, 1444, Pitch_bend_c, 7, 15388
9, 1444, Pitch_bend_c, 7, 16383
9, 1524, Pitch_bend_c, 7, 16223
9, 1524, Pitch_bend_c, 7, 12047
9, 1528, Note_on_c, 7, 81, 0
9, 1528, Pitch_bend_c, 7, 7742
9, 1528, Pitch_bend_c, 7, 8192
9, 1536, Note_on_c, 7, 78, 97
9, 1584, Note_on_c, 7, 74, 97
9, 1608, Note_on_c, 7, 78, 0
9, 2192, Note_on_c, 7, 74, 0
9, 2256, Note_on_c, 7, 66, 94
9, 2304, Note_on_c, 7, 69, 97
9, 2308, Note_on_c, 7, 66, 0
9, 2364, Pitch_bend_c, 7, 8352
9, 2368, Pitch_bend_c, 7, 8513
9, 2368, Pitch_bend_c, 7, 8706
9, 2372, Pitch_bend_c, 7, 8963
9, 2376, Pitch_bend_c, 7, 9284
9, 2380, Pitch_bend_c, 7, 9605
9, 2380, Pitch_bend_c, 7, 9926
9, 2380, Pitch_bend_c, 7, 10215
9, 2384, Pitch_bend_c, 7, 10505
9, 2388, Pitch_bend_c, 7, 10762
9, 2388, Pitch_bend_c, 7, 10954
9, 2388, Pitch_bend_c, 7, 11083
9, 2392, Pitch_bend_c, 7, 11211
9, 2392, Pitch_bend_c, 7, 11308
9, 2396, Pitch_bend_c, 7, 11500
9, 2404, Pitch_bend_c, 7, 11854
9, 2404, Pitch_bend_c, 7, 12111
9, 2404, Pitch_bend_c, 7, 12400
9, 2404, Pitch_bend_c, 7, 12689
9, 2408, Pitch_bend_c, 7, 12978
9, 2408, Pitch_bend_c, 7, 13267
9, 2412, Pitch_bend_c, 7, 13524
9, 2416, Pitch_bend_c, 7, 13781
9, 2420, Pitch_bend_c, 7, 14167
9, 2420, Pitch_bend_c, 7, 14552
9, 2420, Pitch_bend_c, 7, 14874
9, 2428, Pitch_bend_c, 7, 15066
9, 2428, Pitch_bend_c, 7, 15259
9, 2428, Pitch_bend_c, 7, 15645
9, 2432, Pitch_bend_c, 7, 15966
9, 2436, Pitch_bend_c, 7, 16287
9, 2436, Pitch_bend_c, 7, 16383
9, 2960, Note_on_c, 7, 69, 0
9, 2964, Pitch_bend_c, 7, 15323
9, 2964, Pitch_bend_c, 7, 11822
9, 2964, Pitch_bend_c, 7, 7934
9, 2968, Pitch_bend_c, 7, 8192
9, 3020, Note_on_c, 7, 69, 97
9, 3072, Note_on_c, 7, 69, 0
9, 3072, Note_on_c, 7, 71, 94
9, 3124, Pitch_bend_c, 7, 8577
9, 3124, Pitch_bend_c, 7, 8834
9, 3132, Pitch_bend_c, 7, 9091
9, 3132, Pitch_bend_c, 7, 9348
9, 3132, Pitch_bend_c, 7, 9605
9, 3136, Pitch_bend_c, 7, 9894
9, 3140, Pitch_bend_c, 7, 10280
9, 3140, Pitch_bend_c, 7, 10665
9, 3140, Pitch_bend_c, 7, 11115
9, 3144, Pitch_bend_c, 7, 11533
9, 3148, Pitch_bend_c, 7, 11982
9, 3148, Pitch_bend_c, 7, 12368
9, 3152, Pitch_bend_c, 7, 12625
9, 3156, Pitch_bend_c, 7, 12882
9, 3156, Pitch_bend_c, 7, 13107
9, 3156, Pitch_bend_c, 7, 13299
9, 3160, Pitch_bend_c, 7, 13492
9, 3160, Pitch_bend_c, 7, 13653
9, 3164, Pitch_bend_c, 7, 13846
9, 3164, Pitch_bend_c, 7, 14424
9, 3172, Pitch_bend_c, 7, 15002
9, 3172, Pitch_bend_c, 7, 15323
9, 3172, Pitch_bend_c, 7, 15709
9, 3180, Pitch_bend_c, 7, 16159
9, 3180, Pitch_bend_c, 7, 16383
9, 3700, Pitch_bend_c, 7, 13524
9, 3700, Pitch_bend_c, 7, 11404
9, 3704, Note_on_c, 7, 71, 0
9, 3708, Pitch_bend_c, 7, 9155
9, 3708, Pitch_bend_c, 7, 8192
9, 3840, Note_on_c, 7, 76, 84
9, 3888, Note_on_c, 7, 76, 0
9, 3888, Note_on_c, 7, 74, 79
9, 3928, Pitch_bend_c, 7, 8834
9, 3932, Pitch_bend_c, 7, 10697
9, 3932, Pitch_bend_c, 7, 12721
9, 3932, Pitch_bend_c, 7, 15259
9, 3936, Note_on_c, 7, 74, 0
9, 3936, Note_on_c, 7, 69, 96
9, 3940, Pitch_bend_c, 7, 16383
9, 4012, Pitch_bend_c, 7, 13492
9, 4016, Pitch_bend_c, 7, 10087
9, 4020, Pitch_bend_c, 7, 8192
9, 4028, Note_on_c, 7, 69, 0
9, 4032, Note_on_c, 7, 69, 93
9, 4056, Note_on_c, 7, 69, 0
9, 4080, Note_on_c, 7, 69, 97
9, 4128, Note_on_c, 7, 66, 97
9, 4136, Note_on_c, 7, 69, 0
9, 4216, Note_on_c, 7, 66, 0
9, 4224, Note_on_c, 7, 62, 97
9, 4368, Note_on_c, 7, 62, 0
9, 4416, Note_on_c, 7, 76, 96
9, 4464, Note_on_c, 7, 76, 0
9, 4464, Note_on_c, 7, 74, 81
9, 4508, Pitch_bend_c, 7, 9091
9, 4508, Pitch_bend_c, 7, 11404
9, 4512, Note_on_c, 7, 69, 96
9, 4516, Note_on_c, 7, 74, 0
9, 4516, Pitch_bend_c, 7, 13910
9, 4516, Pitch_bend_c, 7, 16383
9, 4600, Pitch_bend_c, 7, 15195
9, 4604, Pitch_bend_c, 7, 11179
9, 4604, Pitch_bend_c, 7, 8192
9, 4608, Note_on_c, 7, 74, 97
9, 4616, Note_on_c, 7, 69, 0
9, 4640, Note_on_c, 7, 74, 0
9, 4656, Note_on_c, 7, 69, 97
9, 4688, Note_on_c, 7, 69, 0
9, 4704, Note_on_c, 7, 78, 97
9, 4728, Note_on_c, 7, 78, 0
9, 4848, Note_on_c, 7, 64, 90
9, 4888, Note_on_c, 7, 64, 0
9, 4896, Note_on_c, 7, 66, 94
9, 4984, Note_on_c, 7, 66, 0
9, 4992, Note_on_c, 7, 62, 97
9, 5416, Note_on_c, 7, 62, 0
9, 7296, Note_on_c, 7, 76, 85
9, 7344, Note_on_c, 7, 76, 0
9, 7344, Note_on_c, 7, 74, 86
9, 7392, Note_on_c, 7, 74, 0
9, 7396, Pitch_bend_c, 7, 8481
9, 7396, Pitch_bend_c, 7, 8995
9, 7396, Pitch_bend_c, 7, 9862
9, 7396, Note_on_c, 7, 69, 94
9, 7400, Pitch_bend_c, 7, 10794
9, 7404, Pitch_bend_c, 7, 11918
9, 7404, Pitch_bend_c, 7, 13042
9, 7408, Pitch_bend_c, 7, 14745
9, 7412, Pitch_bend_c, 7, 16383
9, 7468, Pitch_bend_c, 7, 15709
9, 7476, Pitch_bend_c, 7, 11661
9, 7476, Pitch_bend_c, 7, 7870
9, 7480, Pitch_bend_c, 7, 8192
9, 7584, Note_on_c, 7, 66, 93
9, 7600, Note_on_c, 7, 69, 0
9, 7680, Note_on_c, 7, 66, 0
9, 7680, Note_on_c, 7, 62, 97
9, 8004, Note_on_c, 7, 62, 0
9, 8160, Note_on_c, 7, 67, 90
9, 8180, Pitch_bend_c, 7, 9155
9, 8180, Pitch_bend_c, 7, 10537
9, 8180, Pitch_bend_c, 7, 12464
9, 8188, Pitch_bend_c, 7, 15259
9, 8188, Pitch_bend_c, 7, 16383
9, 8236, Pitch_bend_c, 7, 15516
9, 8240, Note_on_c, 7, 67, 0
9, 8244, Pitch_bend_c, 7, 12175
9, 8244, Pitch_bend_c, 7, 9444
9, 8248, Pitch_bend_c, 7, 8192
9, 8256, Note_on_c, 7, 74, 93
9, 8316, Note_on_c, 7, 74, 0
9, 8400, Note_on_c, 7, 76, 97
9, 8468, Note_on_c, 7, 76, 0
9, 8544, Note_on_c, 7, 76, 96
9, 8556, Pitch_bend_c, 7, 8481
9, 8556, Pitch_bend_c, 7, 8673
9, 8560, Pitch_bend_c, 7, 8834
9, 8564, Pitch_bend_c, 7, 9027
9, 8564, Pitch_bend_c, 7, 9252
9, 8564, Pitch_bend_c, 7, 9605
9, 8568, Pitch_bend_c, 7, 9991
9, 8572, Pitch_bend_c, 7, 10376
9, 8572, Pitch_bend_c, 7, 10697
9, 8572, Pitch_bend_c, 7, 11083
9, 8580, Pitch_bend_c, 7, 11404
9, 8580, Pitch_bend_c, 7, 11790
9, 8580, Pitch_bend_c, 7, 12239
9, 8584, Pitch_bend_c, 7, 12561
9, 8588, Pitch_bend_c, 7, 12946
9, 8588, Pitch_bend_c, 7, 13171
9, 8592, Pitch_bend_c, 7, 13428
9, 8596, Pitch_bend_c, 7, 13653
9, 8596, Pitch_bend_c, 7, 14231
9, 8596, Pitch_bend_c, 7, 14938
9, 8604, Pitch_bend_c, 7, 15323
9, 8604, Pitch_bend_c, 7, 15709
9, 8604, Pitch_bend_c, 7, 16159
9, 8604, Pitch_bend_c, 7, 16383
9, 8776, Pitch_bend_c, 7, 14745
9, 8780, Pitch_bend_c, 7, 12336
9, 8788, Pitch_bend_c, 7, 10215
9, 8788, Pitch_bend_c, 7, 8545
9, 8788, Pitch_bend_c, 7, 8192
9, 8816, Note_on_c, 7, 76, 0
9, 8928, Note_on_c, 7, 76, 93
9, 8968, Note_on_c, 7, 76, 0
9, 8972, Note_on_c, 7, 69, 96
9, 9016, Note_on_c, 7, 69, 0
9, 9024, Note_on_c, 7, 73, 87
9, 9064, Note_on_c, 7, 73, 0
9, 9068, Note_on_c, 7, 76, 83
9, 9120, Note_on_c, 7, 76, 0
9, 9120, Note_on_c, 7, 69, 97
9, 9160, Note_on_c, 7, 69, 0
9, 9164, Note_on_c, 7, 73, 93
9, 9216, Note_on_c, 7, 73, 0
9, 9216, Note_on_c, 7, 76, 80
9, 9264, Note_on_c, 7, 73, 88
9, 9272, Note_on_c, 7, 76, 0
9, 9312, Note_on_c, 7, 73, 0
9, 9312, Note_on_c, 7, 69, 97
9, 9508, Note_on_c, 7, 69, 0
9, 9744, Note_on_c, 7, 66, 93
9, 9792, Note_on_c, 7, 66, 0
9, 9792, Note_on_c, 7, 69, 90
9, 9812, Pitch_bend_c, 7, 8449
9, 9812, Pitch_bend_c, 7, 8930
9, 9812, Pitch_bend_c, 7, 9573
9, 9816, Pitch_bend_c, 7, 10280
9, 9820, Pitch_bend_c, 7, 11276
9, 9820, Pitch_bend_c, 7, 12785
9, 9820, Pitch_bend_c, 7, 14938
9, 9824, Pitch_bend_c, 7, 16383
9, 9880, Pitch_bend_c, 7, 13332
9, 9884, Pitch_bend_c, 7, 7999
9, 9884, Pitch_bend_c, 7, 8192
9, 9888, Note_on_c, 7, 69, 0
9, 9892, Note_on_c, 7, 74, 88
9, 9936, Note_on_c, 7, 74, 0
9, 9936, Note_on_c, 7, 71, 76
9, 9984, Note_on_c, 7, 69, 82
9, 9992, Note_on_c, 7, 71, 0
9, 10032, Note_on_c, 7, 66, 94
9, 10036, Note_on_c, 7, 69, 0
9, 10072, Note_on_c, 7, 66, 0
9, 10080, Note_on_c, 7, 69, 94
9, 10100, Pitch_bend_c, 7, 8449
9, 10100, Pitch_bend_c, 7, 8963
9, 10104, Pitch_bend_c, 7, 9605
9, 10104, Pitch_bend_c, 7, 10215
9, 10108, Pitch_bend_c, 7, 10729
9, 10108, Pitch_bend_c, 7, 11179
9, 10116, Pitch_bend_c, 7, 11533
9, 10116, Pitch_bend_c, 7, 11982
9, 10116, Pitch_bend_c, 7, 12432
9, 10116, Pitch_bend_c, 7, 12850
9, 10120, Pitch_bend_c, 7, 13139
9, 10120, Pitch_bend_c, 7, 13524
9, 10124, Pitch_bend_c, 7, 13910
9, 10132, Pitch_bend_c, 7, 14681
9, 10132, Pitch_bend_c, 7, 15259
9, 10132, Pitch_bend_c, 7, 15837
9, 10132, Pitch_bend_c, 7, 16383
9, 10276, Pitch_bend_c, 7, 14617
9, 10276, Pitch_bend_c, 7, 11757
9, 10276, Pitch_bend_c, 7, 9059
9, 10276, Pitch_bend_c, 7, 8192
9, 10284, Note_on_c, 7, 69, 0
9, 10464, Note_on_c, 7, 69, 79
9, 10468, Pitch_bend_c, 7, 8834
9, 10468, Pitch_bend_c, 7, 10055
9, 10468, Pitch_bend_c, 7, 11404
9, 10472, Pitch_bend_c, 7, 13107
9, 10472, Pitch_bend_c, 7, 15580
9, 10476, Pitch_bend_c, 7, 16383
9, 10548, Pitch_bend_c, 7, 12978
9, 10548, Pitch_bend_c, 7, 9894
9, 10552, Pitch_bend_c, 7, 8192
9, 10560, Note_on_c, 7, 79, 85
9, 10572, Note_on_c, 7, 69, 0
9, 10604, Note_on_c, 7, 74, 89
9, 10616, Note_on_c, 7, 79, 0
9, 10648, Note_on_c, 7, 74, 0
9, 10656, Note_on_c, 7, 76, 86
9, 10688, Note_on_c, 7, 76, 0
9, 10704, Note_on_c, 7, 76, 94
9, 10736, Note_on_c, 7, 76, 0
9, 10752, Note_on_c, 7, 76, 90
9, 10800, Pitch_bend_c, 7, 7838
9, 10804, Pitch_bend_c, 7, 7742
9, 10804, Pitch_bend_c, 7, 7581
9, 10804, Pitch_bend_c, 7, 7517
9, 10808, Pitch_bend_c, 7, 7356
9, 10808, Pitch_bend_c, 7, 7228
9, 10808, Pitch_bend_c, 7, 7099
9, 10812, Pitch_bend_c, 7, 6874
9, 10820, Pitch_bend_c, 7, 6617
9, 10820, Pitch_bend_c, 7, 6360
9, 10820, Pitch_bend_c, 7, 6135
9, 10820, Pitch_bend_c, 7, 5782
9, 10828, Pitch_bend_c, 7, 5557
9, 10828, Pitch_bend_c, 7, 5332
9, 10828, Pitch_bend_c, 7, 5011
9, 10832, Pitch_bend_c, 7, 4722
9, 10836, Pitch_bend_c, 7, 4529
9, 10840, Pitch_bend_c, 7, 4336
9, 10840, Pitch_bend_c, 7, 3951
9, 10840, Pitch_bend_c, 7, 3758
9, 10844, Pitch_bend_c, 7, 3598
9, 10844, Pitch_bend_c, 7, 3405
9, 10848, Pitch_bend_c, 7, 3180
9, 10852, Pitch_bend_c, 7, 2987
9, 10852, Pitch_bend_c, 7, 2762
9, 10852, Pitch_bend_c, 7, 2409
9, 10856, Pitch_bend_c, 7, 1895
9, 10860, Pitch_bend_c, 7, 1445
9, 10860, Pitch_bend_c, 7, 1188
9, 10868, Pitch_bend_c, 7, 803
9, 10868, Pitch_bend_c, 7, 417
9, 10868, Pitch_bend_c, 7, 32
9, 10868, Pitch_bend_c, 7, 0
9, 10972, Pitch_bend_c, 7, 160
9, 10972, Pitch_bend_c, 7, 1317
9, 10976, Pitch_bend_c, 7, 2409
9, 10980, Note_on_c, 7, 76, 0
9, 10980, Pitch_bend_c, 7, 3051
9, 10980, Pitch_bend_c, 7, 3565
9, 10980, Pitch_bend_c, 7, 4208
9, 10984, Pitch_bend_c, 7, 4754
9, 10988, Pitch_bend_c, 7, 5557
9, 10988, Pitch_bend_c, 7, 6489
9, 10992, Pitch_bend_c, 7, 7581
9, 10992, Pitch_bend_c, 7, 8192
9, 11236, Note_on_c, 7, 74, 83
9, 11272, Note_on_c, 7, 74, 0
9, 11276, Note_on_c, 7, 76, 83
9, 11376, Note_on_c, 7, 74, 82
9, 11388, Note_on_c, 7, 76, 0
9, 11424, Note_on_c, 7, 76, 88
9, 11428, Note_on_c, 7, 74, 0
9, 11520, Note_on_c, 7, 74, 91
9, 11524, Note_on_c, 7, 76, 0
9, 11556, Note_on_c, 7, 74, 0
9, 11568, Note_on_c, 7, 76, 88
9, 11636, Pitch_bend_c, 7, 8513
9, 11636, Pitch_bend_c, 7, 8641
9, 11640, Pitch_bend_c, 7, 8898
9, 11644, Pitch_bend_c, 7, 9155
9, 11644, Pitch_bend_c, 7, 9477
9, 11644, Pitch_bend_c, 7, 9766
9, 11644, Pitch_bend_c, 7, 10055
9, 11648, Pitch_bend_c, 7, 10280
9, 11652, Pitch_bend_c, 7, 10537
9, 11656, Pitch_bend_c, 7, 10826
9, 11656, Pitch_bend_c, 7, 11115
9, 11656, Pitch_bend_c, 7, 11468
9, 11660, Pitch_bend_c, 7, 11950
9, 11668, Pitch_bend_c, 7, 12464
9, 11668, Pitch_bend_c, 7, 12946
9, 11668, Pitch_bend_c, 7, 13364
9, 11668, Pitch_bend_c, 7, 13781
9, 11676, Pitch_bend_c, 7, 14295
9, 11676, Pitch_bend_c, 7, 15002
9, 11676, Pitch_bend_c, 7, 15580
9, 11680, Pitch_bend_c, 7, 16159
9, 11684, Pitch_bend_c, 7, 16383
9, 11892, Pitch_bend_c, 7, 14874
9, 11896, Pitch_bend_c, 7, 11565
9, 11896, Pitch_bend_c, 7, 7806
9, 11896, Pitch_bend_c, 7, 8192
9, 11908, Note_on_c, 7, 76, 0
9, 12000, Note_on_c, 7, 71, 74
9, 12004, Pitch_bend_c, 7, 9027
9, 12004, Pitch_bend_c, 7, 10697
9, 12008, Pitch_bend_c, 7, 12496
9, 12012, Pitch_bend_c, 7, 14295
9, 12012, Pitch_bend_c, 7, 16383
9, 12084, Pitch_bend_c, 7, 15259
9, 12084, Pitch_bend_c, 7, 12239
9, 12088, Pitch_bend_c, 7, 9798
9, 12088, Pitch_bend_c, 7, 8192
9, 12096, Note_on_c, 7, 71, 0
9, 12096, Note_on_c, 7, 81, 88
9, 12144, Note_on_c, 7, 76, 72
9, 12152, Note_on_c, 7, 81, 0
9, 12192, Note_on_c, 7, 78, 77
9, 12200, Note_on_c, 7, 76, 0
9, 12236, Note_on_c, 7, 81, 82
9, 12256, Note_on_c, 7, 78, 0
9, 12288, Note_on_c, 7, 76, 72
9, 12308, Note_on_c, 7, 81, 0
9, 12336, Note_on_c, 7, 76, 0
9, 12336, Note_on_c, 7, 69, 80
9, 12384, Note_on_c, 7, 69, 0
9, 12388, Note_on_c, 7, 69, 91
9, 12672, Note_on_c, 7, 69, 0
9, 12812, Note_on_c, 7, 74, 82
9, 12860, Note_on_c, 7, 74, 0
9, 12864, Note_on_c, 7, 83, 84
9, 12912, Note_on_c, 7, 74, 81
9, 12928, Note_on_c, 7, 83, 0
9, 12960, Note_on_c, 7, 71, 83
9, 12968, Note_on_c, 7, 74, 0
9, 13000, Note_on_c, 7, 71, 0
9, 13004, Note_on_c, 7, 81, 88
9, 13040, Note_on_c, 7, 81, 0
9, 13056, Note_on_c, 7, 81, 90
9, 13108, Pitch_bend_c, 7, 7228
9, 13108, Pitch_bend_c, 7, 6039
9, 13108, Pitch_bend_c, 7, 4754
9, 13108, Pitch_bend_c, 7, 3501
9, 13116, Pitch_bend_c, 7, 1638
9, 13116, Pitch_bend_c, 7, 0
9, 13144, Note_on_c, 7, 81, 0
9, 13148, Pitch_bend_c, 7, 2794
9, 13148, Pitch_bend_c, 7, 4529
9, 13152, Note_on_c, 7, 79, 97
9, 13156, Pitch_bend_c, 7, 7035
9, 13156, Pitch_bend_c, 7, 8192
9, 13432, Note_on_c, 7, 79, 0
9, 13584, Note_on_c, 7, 67, 76
9, 13584, Note_on_c, 7, 76, 89
9, 13600, Pitch_bend_c, 7, 8481
9, 13604, Pitch_bend_c, 7, 9123
9, 13604, Pitch_bend_c, 7, 10151
9, 13608, Pitch_bend_c, 7, 11436
9, 13612, Pitch_bend_c, 7, 13107
9, 13612, Pitch_bend_c, 7, 15452
9, 13612, Pitch_bend_c, 7, 16383
9, 13664, Note_on_c, 7, 76, 0
9, 13664, Note_on_c, 7, 67, 0
9, 13676, Note_on_c, 7, 76, 90
9, 13680, Note_on_c, 7, 67, 83
9, 13708, Note_on_c, 7, 67, 0
9, 13712, Note_on_c, 7, 76, 0
9, 13720, Pitch_bend_c, 7, 13717
9, 13724, Pitch_bend_c, 7, 10569
9, 13728, Note_on_c, 7, 67, 82
9, 13728, Note_on_c, 7, 76, 91
9, 13732, Pitch_bend_c, 7, 8738
9, 13732, Pitch_bend_c, 7, 8192
9, 13760, Note_on_c, 7, 76, 0
9, 13760, Note_on_c, 7, 67, 0
9, 13824, Note_on_c, 7, 66, 91
9, 13824, Note_on_c, 7, 74, 93
9, 14152, Note_on_c, 7, 66, 0
9, 14160, Note_on_c, 7, 74, 0
9, 20832, Note_on_c, 7, 67, 90
9, 20852, Pitch_bend_c, 7, 9155
9, 20852, Pitch_bend_c, 7, 10537
9, 20852, Pitch_bend_c, 7, 12464
9, 20860, Pitch_bend_c, 7, 15259
9, 20860, Pitch_bend_c, 7, 16383
9, 20912, Note_on_c, 7, 67, 0
9, 20912, Pitch_bend_c, 7, 15516
9, 20916, Pitch_bend_c, 7, 12175
9, 20916, Pitch_bend_c, 7, 9444
9, 20920, Pitch_bend_c, 7, 8192
9, 20928, Note_on_c, 7, 74, 93
9, 20988, Note_on_c, 7, 74, 0
9, 21072, Note_on_c, 7, 76, 97
9, 21140, Note_on_c, 7, 76, 0
9, 21216, Note_on_c, 7, 76, 96
9, 21228, Pitch_bend_c, 7, 8481
9, 21228, Pitch_bend_c, 7, 8673
9, 21228, Pitch_bend_c, 7, 8834
9, 21236, Pitch_bend_c, 7, 9027
9, 21236, Pitch_bend_c, 7, 9252
9, 21236, Pitch_bend_c, 7, 9605
9, 21244, Pitch_bend_c, 7, 9991
9, 21244, Pitch_bend_c, 7, 10376
9, 21244, Pitch_bend_c, 7, 10697
9, 21248, Pitch_bend_c, 7, 11083
9, 21248, Pitch_bend_c, 7, 11404
9, 21252, Pitch_bend_c, 7, 11790
9, 21252, Pitch_bend_c, 7, 12239
9, 21256, Pitch_bend_c, 7, 12561
9, 21260, Pitch_bend_c, 7, 12946
9, 21260, Pitch_bend_c, 7, 13171
9, 21264, Pitch_bend_c, 7, 13428
9, 21268, Pitch_bend_c, 7, 13653
9, 21268, Pitch_bend_c, 7, 14231
9, 21268, Pitch_bend_c, 7, 14938
9, 21272, Pitch_bend_c, 7, 15323
9, 21276, Pitch_bend_c, 7, 15709
9, 21276, Pitch_bend_c, 7, 16159
9, 21276, Pitch_bend_c, 7, 16383
9, 21448, Pitch_bend_c, 7, 14745
9, 21452, Pitch_bend_c, 7, 12336
9, 21460, Pitch_bend_c, 7, 10215
9, 21460, Pitch_bend_c, 7, 8545
9, 21460, Pitch_bend_c, 7, 8192
9, 21488, Note_on_c, 7, 76, 0
9, 21600, Note_on_c, 7, 76, 93
9, 21640, Note_on_c, 7, 76, 0
9, 21644, Note_on_c, 7, 69, 96
9, 21688, Note_on_c, 7, 69, 0
9, 21696, Note_on_c, 7, 73, 87
9, 21736, Note_on_c, 7, 73, 0
9, 21740, Note_on_c, 7, 76, 83
9, 21792, Note_on_c, 7, 76, 0
9, 21792, Note_on_c, 7, 69, 97
9, 21832, Note_on_c, 7, 69, 0
9, 21836, Note_on_c, 7, 73, 93
9, 21888, Note_on_c, 7, 73, 0
9, 21888, Note_on_c, 7, 76, 80
9, 21932, Note_on_c, 7, 73, 88
9, 21944, Note_on_c, 7, 76, 0
9, 21984, Note_on_c, 7, 73, 0
9, 21984, Note_on_c, 7, 69, 97
9, 22184, Note_on_c, 7, 69, 0
9, 22416, Note_on_c, 7, 66, 93
9, 22464, Note_on_c, 7, 66, 0
9, 22464, Note_on_c, 7, 69, 90
9, 22484, Pitch_bend_c, 7, 8449
9, 22484, Pitch_bend_c, 7, 8930
9, 22484, Pitch_bend_c, 7, 9573
9, 22488, Pitch_bend_c, 7, 10280
9, 22492, Pitch_bend_c, 7, 11276
9, 22492, Pitch_bend_c, 7, 12785
9, 22492, Pitch_bend_c, 7, 14938
9, 22496, Pitch_bend_c, 7, 16383
9, 22552, Pitch_bend_c, 7, 13332
9, 22556, Pitch_bend_c, 7, 7999
9, 22556, Pitch_bend_c, 7, 8192
9, 22560, Note_on_c, 7, 69, 0
9, 22564, Note_on_c, 7, 74, 88
9, 22608, Note_on_c, 7, 74, 0
9, 22608, Note_on_c, 7, 71, 76
9, 22656, Note_on_c, 7, 69, 82
9, 22664, Note_on_c, 7, 71, 0
9, 22700, Note_on_c, 7, 66, 94
9, 22712, Note_on_c, 7, 69, 0
9, 22744, Note_on_c, 7, 66, 0
9, 22752, Note_on_c, 7, 69, 94
9, 22772, Pitch_bend_c, 7, 8449
9, 22772, Pitch_bend_c, 7, 8963
9, 22772, Pitch_bend_c, 7, 9605
9, 22780, Pitch_bend_c, 7, 10215
9, 22780, Pitch_bend_c, 7, 10729
9, 22780, Pitch_bend_c, 7, 11179
9, 22784, Pitch_bend_c, 7, 11533
9, 22788, Pitch_bend_c, 7, 11982
9, 22788, Pitch_bend_c, 7, 12432
9, 22788, Pitch_bend_c, 7, 12850
9, 22792, Pitch_bend_c, 7, 13139
9, 22792, Pitch_bend_c, 7, 13524
9, 22796, Pitch_bend_c, 7, 13910
9, 22804, Pitch_bend_c, 7, 14681
9, 22804, Pitch_bend_c, 7, 15259
9, 22804, Pitch_bend_c, 7, 15837
9, 22804, Pitch_bend_c, 7, 16383
9, 22944, Pitch_bend_c, 7, 14617
9, 22944, Pitch_bend_c, 7, 11757
9, 22948, Pitch_bend_c, 7, 9059
9, 22948, Pitch_bend_c, 7, 8192
9, 22952, Note_on_c, 7, 69, 0
9, 23136, Note_on_c, 7, 69, 79
9, 23140, Pitch_bend_c, 7, 8834
9, 23140, Pitch_bend_c, 7, 10055
9, 23140, Pitch_bend_c, 7, 11404
9, 23144, Pitch_bend_c, 7, 13107
9, 23144, Pitch_bend_c, 7, 15580
9, 23148, Pitch_bend_c, 7, 16383
9, 23216, Pitch_bend_c, 7, 12978
9, 23220, Pitch_bend_c, 7, 9894
9, 23224, Pitch_bend_c, 7, 8192
9, 23232, Note_on_c, 7, 79, 85
9, 23244, Note_on_c, 7, 69, 0
9, 23276, Note_on_c, 7, 74, 89
9, 23288, Note_on_c, 7, 79, 0
9, 23320, Note_on_c, 7, 74, 0
9, 23328, Note_on_c, 7, 76, 86
9, 23360, Note_on_c, 7, 76, 0
9, 23376, Note_on_c, 7, 76, 94
9, 23408, Note_on_c, 7, 76, 0
9, 23424, Note_on_c, 7, 76, 90
9, 23472, Pitch_bend_c, 7, 7838
9, 23476, Pitch_bend_c, 7, 7742
9, 23476, Pitch_bend_c, 7, 7581
9, 23476, Pitch_bend_c, 7, 7517
9, 23476, Pitch_bend_c, 7, 7356
9, 23480, Pitch_bend_c, 7, 7228
9, 23484, Pitch_bend_c, 7, 7099
9, 23484, Pitch_bend_c, 7, 6874
9, 23492, Pitch_bend_c, 7, 6617
9, 23492, Pitch_bend_c, 7, 6360
9, 23492, Pitch_bend_c, 7, 6135
9, 23496, Pitch_bend_c, 7, 5782
9, 23500, Pitch_bend_c, 7, 5557
9, 23500, Pitch_bend_c, 7, 5332
9, 23500, Pitch_bend_c, 7, 5011
9, 23504, Pitch_bend_c, 7, 4722
9, 23508, Pitch_bend_c, 7, 4529
9, 23508, Pitch_bend_c, 7, 4336
9, 23512, Pitch_bend_c, 7, 3951
9, 23512, Pitch_bend_c, 7, 3758
9, 23516, Pitch_bend_c, 7, 3598
9, 23516, Pitch_bend_c, 7, 3405
9, 23520, Pitch_bend_c, 7, 3180
9, 23524, Pitch_bend_c, 7, 2987
9, 23524, Pitch_bend_c, 7, 2762
9, 23524, Pitch_bend_c, 7, 2409
9, 23532, Pitch_bend_c, 7, 1895
9, 23532, Pitch_bend_c, 7, 1445
9, 23532, Pitch_bend_c, 7, 1188
9, 23540, Pitch_bend_c, 7, 803
9, 23540, Pitch_bend_c, 7, 417
9, 23540, Pitch_bend_c, 7, 32
9, 23544, Pitch_bend_c, 7, 0
9, 23644, Pitch_bend_c, 7, 160
9, 23644, Pitch_bend_c, 7, 1317
9, 23644, Pitch_bend_c, 7, 2409
9, 23652, Note_on_c, 7, 76, 0
9, 23652, Pitch_bend_c, 7, 3051
9, 23652, Pitch_bend_c, 7, 3565
9, 23652, Pitch_bend_c, 7, 4208
9, 23656, Pitch_bend_c, 7, 4754
9, 23656, Pitch_bend_c, 7, 5557
9, 23656, Pitch_bend_c, 7, 6489
9, 23664, Pitch_bend_c, 7, 7581
9, 23668, Pitch_bend_c, 7, 8192
9, 23904, Note_on_c, 7, 74, 83
9, 23936, Note_on_c, 7, 74, 0
9, 23944, Note_on_c, 7, 76, 83
9, 24044, Note_on_c, 7, 74, 82
9, 24056, Note_on_c, 7, 76, 0
9, 24096, Note_on_c, 7, 76, 88
9, 24100, Note_on_c, 7, 74, 0
9, 24192, Note_on_c, 7, 76, 0
9, 24192, Note_on_c, 7, 74, 91
9, 24228, Note_on_c, 7, 74, 0
9, 24236, Note_on_c, 7, 76, 88
9, 24308, Pitch_bend_c, 7, 8513
9, 24308, Pitch_bend_c, 7, 8641
9, 24308, Pitch_bend_c, 7, 8898
9, 24312, Pitch_bend_c, 7, 9155
9, 24316, Pitch_bend_c, 7, 9477
9, 24316, Pitch_bend_c, 7, 9766
9, 24324, Pitch_bend_c, 7, 10055
9, 24324, Pitch_bend_c, 7, 10280
9, 24324, Pitch_bend_c, 7, 10537
9, 24324, Pitch_bend_c, 7, 10826
9, 24328, Pitch_bend_c, 7, 11115
9, 24328, Pitch_bend_c, 7, 11468
9, 24332, Pitch_bend_c, 7, 11950
9, 24340, Pitch_bend_c, 7, 12464
9, 24340, Pitch_bend_c, 7, 12946
9, 24340, Pitch_bend_c, 7, 13364
9, 24340, Pitch_bend_c, 7, 13781
9, 24344, Pitch_bend_c, 7, 14295
9, 24348, Pitch_bend_c, 7, 15002
9, 24348, Pitch_bend_c, 7, 15580
9, 24352, Pitch_bend_c, 7, 16159
9, 24352, Pitch_bend_c, 7, 16383
9, 24564, Pitch_bend_c, 7, 14874
9, 24568, Pitch_bend_c, 7, 11565
9, 24568, Pitch_bend_c, 7, 7806
9, 24568, Pitch_bend_c, 7, 8192
9, 24576, Note_on_c, 7, 76, 0
9, 24672, Note_on_c, 7, 71, 74
9, 24676, Pitch_bend_c, 7, 9027
9, 24676, Pitch_bend_c, 7, 10697
9, 24680, Pitch_bend_c, 7, 12496
9, 24684, Pitch_bend_c, 7, 14295
9, 24684, Pitch_bend_c, 7, 16383
9, 24756, Pitch_bend_c, 7, 15259
9, 24756, Pitch_bend_c, 7, 12239
9, 24760, Pitch_bend_c, 7, 9798
9, 24760, Pitch_bend_c, 7, 8192
9, 24768, Note_on_c, 7, 71, 0
9, 24768, Note_on_c, 7, 81, 88
9, 24812, Note_on_c, 7, 76, 72
9, 24824, Note_on_c, 7, 81, 0
9, 24864, Note_on_c, 7, 78, 77
9, 24872, Note_on_c, 7, 76, 0
9, 24912, Note_on_c, 7, 81, 82
9, 24928, Note_on_c, 7, 78, 0
9, 24956, Note_on_c, 7, 76, 72
9, 24984, Note_on_c, 7, 81, 0
9, 25008, Note_on_c, 7, 76, 0
9, 25008, Note_on_c, 7, 69, 80
9, 25056, Note_on_c, 7, 69, 0
9, 25056, Note_on_c, 7, 69, 91
9, 25344, Note_on_c, 7, 69, 0
9, 25488, Note_on_c, 7, 74, 82
9, 25532, Note_on_c, 7, 74, 0
9, 25536, Note_on_c, 7, 83, 84
9, 25584, Note_on_c, 7, 74, 81
9, 25600, Note_on_c, 7, 83, 0
9, 25632, Note_on_c, 7, 71, 83
9, 25640, Note_on_c, 7, 74, 0
9, 25672, Note_on_c, 7, 71, 0
9, 25676, Note_on_c, 7, 81, 88
9, 25712, Note_on_c, 7, 81, 0
9, 25728, Note_on_c, 7, 81, 90
9, 25780, Pitch_bend_c, 7, 7228
9, 25780, Pitch_bend_c, 7, 6039
9, 25780, Pitch_bend_c, 7, 4754
9, 25784, Pitch_bend_c, 7, 3501
9, 25788, Pitch_bend_c, 7, 1638
9, 25788, Pitch_bend_c, 7, 0
9, 25816, Note_on_c, 7, 81, 0
9, 25816, Pitch_bend_c, 7, 2794
9, 25820, Pitch_bend_c, 7, 4529
9, 25824, Note_on_c, 7, 79, 97
9, 25828, Pitch_bend_c, 7, 7035
9, 25828, Pitch_bend_c, 7, 8192
9, 26104, Note_on_c, 7, 79, 0
9, 26256, Note_on_c, 7, 67, 76
9, 26256, Note_on_c, 7, 76, 89
9, 26272, Pitch_bend_c, 7, 8481
9, 26276, Pitch_bend_c, 7, 9123
9, 26276, Pitch_bend_c, 7, 10151
9, 26280, Pitch_bend_c, 7, 11436
9, 26284, Pitch_bend_c, 7, 13107
9, 26284, Pitch_bend_c, 7, 15452
9, 26284, Pitch_bend_c, 7, 16383
9, 26336, Note_on_c, 7, 76, 0
9, 26336, Note_on_c, 7, 67, 0
9, 26352, Note_on_c, 7, 67, 83
9, 26352, Note_on_c, 7, 76, 90
9, 26380, Note_on_c, 7, 67, 0
9, 26384, Note_on_c, 7, 76, 0
9, 26396, Pitch_bend_c, 7, 13717
9, 26396, Pitch_bend_c, 7, 10569
9, 26400, Note_on_c, 7, 67, 82
9, 26400, Note_on_c, 7, 76, 91
9, 26404, Pitch_bend_c, 7, 8738
9, 26404, Pitch_bend_c, 7, 8192
9, 26432, Note_on_c, 7, 76, 0
9, 26432, Note_on_c, 7, 67, 0
9, 26496, Note_on_c, 7, 66, 91
9, 26496, Note_on_c, 7, 74, 93
9, 26824, Note_on_c, 7, 66, 0
9, 26832, Note_on_c, 7, 74, 0
9, 33120, Note_on_c, 7, 67, 90
9, 33140, Pitch_bend_c, 7, 9155
9, 33140, Pitch_bend_c, 7, 10537
9, 33140, Pitch_bend_c, 7, 12464
9, 33144, Pitch_bend_c, 7, 15259
9, 33148, Pitch_bend_c, 7, 16383
9, 33196, Pitch_bend_c, 7, 15516
9, 33200, Note_on_c, 7, 67, 0
9, 33204, Pitch_bend_c, 7, 12175
9, 33204, Pitch_bend_c, 7, 9444
9, 33208, Pitch_bend_c, 7, 8192
9, 33216, Note_on_c, 7, 74, 93
9, 33276, Note_on_c, 7, 74, 0
9, 33356, Note_on_c, 7, 76, 97
9, 33428, Note_on_c, 7, 76, 0
9, 33504, Note_on_c, 7, 76, 96
9, 33516, Pitch_bend_c, 7, 8481
9, 33516, Pitch_bend_c, 7, 8673
9, 33520, Pitch_bend_c, 7, 8834
9, 33520, Pitch_bend_c, 7, 9027
9, 33524, Pitch_bend_c, 7, 9252
9, 33524, Pitch_bend_c, 7, 9605
9, 33524, Pitch_bend_c, 7, 9991
9, 33528, Pitch_bend_c, 7, 10376
9, 33532, Pitch_bend_c, 7, 10697
9, 33536, Pitch_bend_c, 7, 11083
9, 33540, Pitch_bend_c, 7, 11404
9, 33540, Pitch_bend_c, 7, 11790
9, 33540, Pitch_bend_c, 7, 12239
9, 33544, Pitch_bend_c, 7, 12561
9, 33548, Pitch_bend_c, 7, 12946
9, 33548, Pitch_bend_c, 7, 13171
9, 33552, Pitch_bend_c, 7, 13428
9, 33556, Pitch_bend_c, 7, 13653
9, 33556, Pitch_bend_c, 7, 14231
9, 33556, Pitch_bend_c, 7, 14938
9, 33564, Pitch_bend_c, 7, 15323
9, 33564, Pitch_bend_c, 7, 15709
9, 33564, Pitch_bend_c, 7, 16159
9, 33564, Pitch_bend_c, 7, 16383
9, 33736, Pitch_bend_c, 7, 14745
9, 33744, Pitch_bend_c, 7, 12336
9, 33748, Pitch_bend_c, 7, 10215
9, 33748, Pitch_bend_c, 7, 8545
9, 33748, Pitch_bend_c, 7, 8192
9, 33776, Note_on_c, 7, 76, 0
9, 33888, Note_on_c, 7, 76, 93
9, 33928, Note_on_c, 7, 76, 0
9, 33936, Note_on_c, 7, 69, 96
9, 33976, Note_on_c, 7, 69, 0
9, 33984, Note_on_c, 7, 73, 87
9, 34024, Note_on_c, 7, 73, 0
9, 34032, Note_on_c, 7, 76, 83
9, 34080, Note_on_c, 7, 76, 0
9, 34080, Note_on_c, 7, 69, 97
9, 34120, Note_on_c, 7, 69, 0
9, 34124, Note_on_c, 7, 73, 93
9, 34176, Note_on_c, 7, 73, 0
9, 34176, Note_on_c, 7, 76, 80
9, 34224, Note_on_c, 7, 73, 88
9, 34232, Note_on_c, 7, 76, 0
9, 34272, Note_on_c, 7, 73, 0
9, 34272, Note_on_c, 7, 69, 97
9, 34472, Note_on_c, 7, 69, 0
9, 34704, Note_on_c, 7, 66, 93
9, 34752, Note_on_c, 7, 66, 0
9, 34752, Note_on_c, 7, 69, 90
9, 34772, Pitch_bend_c, 7, 8449
9, 34772, Pitch_bend_c, 7, 8930
9, 34772, Pitch_bend_c, 7, 9573
9, 34780, Pitch_bend_c, 7, 10280
9, 34780, Pitch_bend_c, 7, 11276
9, 34780, Pitch_bend_c, 7, 12785
9, 34780, Pitch_bend_c, 7, 14938
9, 34784, Pitch_bend_c, 7, 16383
9, 34840, Pitch_bend_c, 7, 13332
9, 34844, Pitch_bend_c, 7, 7999
9, 34844, Pitch_bend_c, 7, 8192
9, 34848, Note_on_c, 7, 69, 0
9, 34852, Note_on_c, 7, 74, 88
9, 34896, Note_on_c, 7, 74, 0
9, 34896, Note_on_c, 7, 71, 76
9, 34944, Note_on_c, 7, 69, 82
9, 34952, Note_on_c, 7, 71, 0
9, 34992, Note_on_c, 7, 66, 94
9, 34996, Note_on_c, 7, 69, 0
9, 35032, Note_on_c, 7, 66, 0
9, 35040, Note_on_c, 7, 69, 94
9, 35060, Pitch_bend_c, 7, 8449
9, 35060, Pitch_bend_c, 7, 8963
9, 35060, Pitch_bend_c, 7, 9605
9, 35068, Pitch_bend_c, 7, 10215
9, 35068, Pitch_bend_c, 7, 10729
9, 35068, Pitch_bend_c, 7, 11179
9, 35076, Pitch_bend_c, 7, 11533
9, 35076, Pitch_bend_c, 7, 11982
9, 35076, Pitch_bend_c, 7, 12432
9, 35076, Pitch_bend_c, 7, 12850
9, 35076, Pitch_bend_c, 7, 13139
9, 35080, Pitch_bend_c, 7, 13524
9, 35084, Pitch_bend_c, 7, 13910
9, 35092, Pitch_bend_c, 7, 14681
9, 35092, Pitch_bend_c, 7, 15259
9, 35092, Pitch_bend_c, 7, 15837
9, 35092, Pitch_bend_c, 7, 16383
9, 35236, Pitch_bend_c, 7, 14617
9, 35236, Pitch_bend_c, 7, 11757
9, 35236, Pitch_bend_c, 7, 9059
9, 35236, Pitch_bend_c, 7, 8192
9, 35244, Note_on_c, 7, 69, 0
9, 35424, Note_on_c, 7, 69, 79
9, 35428, Pitch_bend_c, 7, 8834
9, 35428, Pitch_bend_c, 7, 10055
9, 35428, Pitch_bend_c, 7, 11404
9, 35432, Pitch_bend_c, 7, 13107
9, 35432, Pitch_bend_c, 7, 15580
9, 35436, Pitch_bend_c, 7, 16383
9, 35508, Pitch_bend_c, 7, 12978
9, 35508, Pitch_bend_c, 7, 9894
9, 35512, Pitch_bend_c, 7, 8192
9, 35520, Note_on_c, 7, 79, 85
9, 35532, Note_on_c, 7, 69, 0
9, 35564, Note_on_c, 7, 74, 89
9, 35576, Note_on_c, 7, 79, 0
9, 35608, Note_on_c, 7, 74, 0
9, 35616, Note_on_c, 7, 76, 86
9, 35648, Note_on_c, 7, 76, 0
9, 35664, Note_on_c, 7, 76, 94
9, 35688, Note_on_c, 7, 76, 0
9, 35712, Note_on_c, 7, 76, 90
9, 35756, Pitch_bend_c, 7, 7838
9, 35760, Pitch_bend_c, 7, 7742
9, 35764, Pitch_bend_c, 7, 7581
9, 35764, Pitch_bend_c, 7, 7517
9, 35768, Pitch_bend_c, 7, 7356
9, 35772, Pitch_bend_c, 7, 7228
9, 35772, Pitch_bend_c, 7, 7099
9, 35772, Pitch_bend_c, 7, 6874
9, 35776, Pitch_bend_c, 7, 6617
9, 35780, Pitch_bend_c, 7, 6360
9, 35780, Pitch_bend_c, 7, 6135
9, 35780, Pitch_bend_c, 7, 5782
9, 35788, Pitch_bend_c, 7, 5557
9, 35788, Pitch_bend_c, 7, 5332
9, 35788, Pitch_bend_c, 7, 5011
9, 35792, Pitch_bend_c, 7, 4722
9, 35796, Pitch_bend_c, 7, 4529
9, 35800, Pitch_bend_c, 7, 4336
9, 35800, Pitch_bend_c, 7, 3951
9, 35800, Pitch_bend_c, 7, 3758
9, 35804, Pitch_bend_c, 7, 3598
9, 35804, Pitch_bend_c, 7, 3405
9, 35812, Pitch_bend_c, 7, 3180
9, 35812, Pitch_bend_c, 7, 2987
9, 35812, Pitch_bend_c, 7, 2762
9, 35812, Pitch_bend_c, 7, 2409
9, 35820, Pitch_bend_c, 7, 1895
9, 35820, Pitch_bend_c, 7, 1445
9, 35820, Pitch_bend_c, 7, 1188
9, 35828, Pitch_bend_c, 7, 803
9, 35828, Pitch_bend_c, 7, 417
9, 35828, Pitch_bend_c, 7, 32
9, 35832, Pitch_bend_c, 7, 0
9, 35932, Pitch_bend_c, 7, 160
9, 35932, Pitch_bend_c, 7, 1317
9, 35932, Pitch_bend_c, 7, 2409
9, 35940, Note_on_c, 7, 76, 0
9, 35940, Pitch_bend_c, 7, 3051
9, 35940, Pitch_bend_c, 7, 3565
9, 35948, Pitch_bend_c, 7, 4208
9, 35948, Pitch_bend_c, 7, 4754
9, 35948, Pitch_bend_c, 7, 5557
9, 35948, Pitch_bend_c, 7, 6489
9, 35952, Pitch_bend_c, 7, 7581
9, 35956, Pitch_bend_c, 7, 8192
9, 36192, Note_on_c, 7, 74, 83
9, 36232, Note_on_c, 7, 74, 0
9, 36236, Note_on_c, 7, 76, 83
9, 36332, Note_on_c, 7, 74, 82
9, 36344, Note_on_c, 7, 76, 0
9, 36384, Note_on_c, 7, 76, 88
9, 36388, Note_on_c, 7, 74, 0
9, 36480, Note_on_c, 7, 74, 91
9, 36484, Note_on_c, 7, 76, 0
9, 36516, Note_on_c, 7, 74, 0
9, 36528, Note_on_c, 7, 76, 88
9, 36596, Pitch_bend_c, 7, 8513
9, 36596, Pitch_bend_c, 7, 8641
9, 36600, Pitch_bend_c, 7, 8898
9, 36600, Pitch_bend_c, 7, 9155
9, 36604, Pitch_bend_c, 7, 9477
9, 36604, Pitch_bend_c, 7, 9766
9, 36612, Pitch_bend_c, 7, 10055
9, 36612, Pitch_bend_c, 7, 10280
9, 36612, Pitch_bend_c, 7, 10537
9, 36612, Pitch_bend_c, 7, 10826
9, 36616, Pitch_bend_c, 7, 11115
9, 36620, Pitch_bend_c, 7, 11468
9, 36620, Pitch_bend_c, 7, 11950
9, 36628, Pitch_bend_c, 7, 12464
9, 36628, Pitch_bend_c, 7, 12946
9, 36628, Pitch_bend_c, 7, 13364
9, 36632, Pitch_bend_c, 7, 13781
9, 36632, Pitch_bend_c, 7, 14295
9, 36636, Pitch_bend_c, 7, 15002
9, 36636, Pitch_bend_c, 7, 15580
9, 36640, Pitch_bend_c, 7, 16159
9, 36644, Pitch_bend_c, 7, 16383
9, 36852, Pitch_bend_c, 7, 14874
9, 36856, Pitch_bend_c, 7, 11565
9, 36856, Pitch_bend_c, 7, 7806
9, 36856, Pitch_bend_c, 7, 8192
9, 36868, Note_on_c, 7, 76, 0
9, 36960, Note_on_c, 7, 71, 74
9, 36964, Pitch_bend_c, 7, 9027
9, 36964, Pitch_bend_c, 7, 10697
9, 36968, Pitch_bend_c, 7, 12496
9, 36972, Pitch_bend_c, 7, 14295
9, 36972, Pitch_bend_c, 7, 16383
9, 37044, Pitch_bend_c, 7, 15259
9, 37044, Pitch_bend_c, 7, 12239
9, 37048, Pitch_bend_c, 7, 9798
9, 37048, Pitch_bend_c, 7, 8192
9, 37056, Note_on_c, 7, 71, 0
9, 37056, Note_on_c, 7, 81, 88
9, 37104, Note_on_c, 7, 76, 72
9, 37112, Note_on_c, 7, 81, 0
9, 37152, Note_on_c, 7, 78, 77
9, 37160, Note_on_c, 7, 76, 0
9, 37200, Note_on_c, 7, 81, 82
9, 37216, Note_on_c, 7, 78, 0
9, 37248, Note_on_c, 7, 76, 72
9, 37272, Note_on_c, 7, 81, 0
9, 37292, Note_on_c, 7, 69, 80
9, 37296, Note_on_c, 7, 76, 0
9, 37344, Note_on_c, 7, 69, 0
9, 37344, Note_on_c, 7, 69, 91
9, 37632, Note_on_c, 7, 69, 0
9, 37776, Note_on_c, 7, 74, 82
9, 37820, Note_on_c, 7, 74, 0
9, 37824, Note_on_c, 7, 83, 84
9, 37872, Note_on_c, 7, 74, 81
9, 37888, Note_on_c, 7, 83, 0
9, 37920, Note_on_c, 7, 71, 83
9, 37928, Note_on_c, 7, 74, 0
9, 37960, Note_on_c, 7, 71, 0
9, 37964, Note_on_c, 7, 81, 88
9, 38000, Note_on_c, 7, 81, 0
9, 38016, Note_on_c, 7, 81, 90
9, 38068, Pitch_bend_c, 7, 7228
9, 38068, Pitch_bend_c, 7, 6039
9, 38068, Pitch_bend_c, 7, 4754
9, 38068, Pitch_bend_c, 7, 3501
9, 38076, Pitch_bend_c, 7, 1638
9, 38076, Pitch_bend_c, 7, 0
9, 38104, Note_on_c, 7, 81, 0
9, 38104, Pitch_bend_c, 7, 2794
9, 38108, Pitch_bend_c, 7, 4529
9, 38108, Pitch_bend_c, 7, 7035
9, 38108, Pitch_bend_c, 7, 8192
9, 38112, Note_on_c, 7, 79, 97
9, 38392, Note_on_c, 7, 79, 0
9, 38544, Note_on_c, 7, 67, 76
9, 38544, Note_on_c, 7, 76, 89
9, 38564, Pitch_bend_c, 7, 8481
9, 38564, Pitch_bend_c, 7, 9123
9, 38564, Pitch_bend_c, 7, 10151
9, 38572, Pitch_bend_c, 7, 11436
9, 38572, Pitch_bend_c, 7, 13107
9, 38572, Pitch_bend_c, 7, 15452
9, 38572, Pitch_bend_c, 7, 16383
9, 38624, Note_on_c, 7, 76, 0
9, 38624, Note_on_c, 7, 67, 0
9, 38640, Note_on_c, 7, 67, 83
9, 38640, Note_on_c, 7, 76, 90
9, 38668, Note_on_c, 7, 67, 0
9, 38672, Note_on_c, 7, 76, 0
9, 38684, Pitch_bend_c, 7, 13717
9, 38684, Pitch_bend_c, 7, 10569
9, 38688, Note_on_c, 7, 76, 91
9, 38692, Pitch_bend_c, 7, 8738
9, 38692, Pitch_bend_c, 7, 8192
9, 38692, Note_on_c, 7, 67, 82
9, 38720, Note_on_c, 7, 67, 0
9, 38720, Note_on_c, 7, 76, 0
9, 38784, Note_on_c, 7, 66, 91
9, 38784, Note_on_c, 7, 74, 93
9, 39112, Note_on_c, 7, 66, 0
9, 39120, Note_on_c, 7, 74, 0
9, 39264, Note_on_c, 7, 67, 90
9, 39284, Pitch_bend_c, 7, 9155
9, 39284, Pitch_bend_c, 7, 10537
9, 39284, Pitch_bend_c, 7, 12464
9, 39292, Pitch_bend_c, 7, 15259
9, 39292, Pitch_bend_c, 7, 16383
9, 39344, Note_on_c, 7, 67, 0
9, 39344, Pitch_bend_c, 7, 15516
9, 39348, Pitch_bend_c, 7, 12175
9, 39348, Pitch_bend_c, 7, 9444
9, 39352, Pitch_bend_c, 7, 8192
9, 39360, Note_on_c, 7, 74, 93
9, 39420, Note_on_c, 7, 74, 0
9, 39504, Note_on_c, 7, 76, 97
9, 39572, Note_on_c, 7, 76, 0
9, 39648, Note_on_c, 7, 76, 96
9, 39660, Pitch_bend_c, 7, 8481
9, 39660, Pitch_bend_c, 7, 8673
9, 39664, Pitch_bend_c, 7, 8834
9, 39664, Pitch_bend_c, 7, 9027
9, 39668, Pitch_bend_c, 7, 9252
9, 39668, Pitch_bend_c, 7, 9605
9, 39676, Pitch_bend_c, 7, 9991
9, 39676, Pitch_bend_c, 7, 10376
9, 39676, Pitch_bend_c, 7, 10697
9, 39676, Pitch_bend_c, 7, 11083
9, 39680, Pitch_bend_c, 7, 11404
9, 39684, Pitch_bend_c, 7, 11790
9, 39684, Pitch_bend_c, 7, 12239
9, 39688, Pitch_bend_c, 7, 12561
9, 39688, Pitch_bend_c, 7, 12946
9, 39692, Pitch_bend_c, 7, 13171
9, 39696, Pitch_bend_c, 7, 13428
9, 39700, Pitch_bend_c, 7, 13653
9, 39700, Pitch_bend_c, 7, 14231
9, 39700, Pitch_bend_c, 7, 14938
9, 39708, Pitch_bend_c, 7, 15323
9, 39708, Pitch_bend_c, 7, 15709
9, 39708, Pitch_bend_c, 7, 16159
9, 39708, Pitch_bend_c, 7, 16383
9, 39880, Pitch_bend_c, 7, 14745
9, 39888, Pitch_bend_c, 7, 12336
9, 39892, Pitch_bend_c, 7, 10215
9, 39892, Pitch_bend_c, 7, 8545
9, 39892, Pitch_bend_c, 7, 8192
9, 39920, Note_on_c, 7, 76, 0
9, 40032, Note_on_c, 7, 76, 93
9, 40072, Note_on_c, 7, 76, 0
9, 40076, Note_on_c, 7, 69, 96
9, 40120, Note_on_c, 7, 69, 0
9, 40128, Note_on_c, 7, 73, 87
9, 40168, Note_on_c, 7, 73, 0
9, 40176, Note_on_c, 7, 76, 83
9, 40224, Note_on_c, 7, 76, 0
9, 40224, Note_on_c, 7, 69, 97
9, 40264, Note_on_c, 7, 69, 0
9, 40268, Note_on_c, 7, 73, 93
9, 40320, Note_on_c, 7, 73, 0
9, 40320, Note_on_c, 7, 76, 80
9, 40368, Note_on_c, 7, 73, 88
9, 40376, Note_on_c, 7, 76, 0
9, 40416, Note_on_c, 7, 73, 0
9, 40416, Note_on_c, 7, 69, 97
9, 40612, Note_on_c, 7, 69, 0
9, 40848, Note_on_c, 7, 66, 93
9, 40896, Note_on_c, 7, 66, 0
9, 40896, Note_on_c, 7, 69, 90
9, 40916, Pitch_bend_c, 7, 8449
9, 40916, Pitch_bend_c, 7, 8930
9, 40916, Pitch_bend_c, 7, 9573
9, 40920, Pitch_bend_c, 7, 10280
9, 40924, Pitch_bend_c, 7, 11276
9, 40924, Pitch_bend_c, 7, 12785
9, 40924, Pitch_bend_c, 7, 14938
9, 40928, Pitch_bend_c, 7, 16383
9, 40988, Pitch_bend_c, 7, 13332
9, 40988, Pitch_bend_c, 7, 7999
9, 40988, Pitch_bend_c, 7, 8192
9, 40992, Note_on_c, 7, 69, 0
9, 40996, Note_on_c, 7, 74, 88
9, 41040, Note_on_c, 7, 74, 0
9, 41040, Note_on_c, 7, 71, 76
9, 41088, Note_on_c, 7, 69, 82
9, 41096, Note_on_c, 7, 71, 0
9, 41136, Note_on_c, 7, 66, 94
9, 41144, Note_on_c, 7, 69, 0
9, 41176, Note_on_c, 7, 66, 0
9, 41184, Note_on_c, 7, 69, 94
9, 41204, Pitch_bend_c, 7, 8449
9, 41204, Pitch_bend_c, 7, 8963
9, 41208, Pitch_bend_c, 7, 9605
9, 41212, Pitch_bend_c, 7, 10215
9, 41212, Pitch_bend_c, 7, 10729
9, 41212, Pitch_bend_c, 7, 11179
9, 41216, Pitch_bend_c, 7, 11533
9, 41220, Pitch_bend_c, 7, 11982
9, 41220, Pitch_bend_c, 7, 12432
9, 41220, Pitch_bend_c, 7, 12850
9, 41224, Pitch_bend_c, 7, 13139
9, 41224, Pitch_bend_c, 7, 13524
9, 41228, Pitch_bend_c, 7, 13910
9, 41236, Pitch_bend_c, 7, 14681
9, 41236, Pitch_bend_c, 7, 15259
9, 41236, Pitch_bend_c, 7, 15837
9, 41240, Pitch_bend_c, 7, 16383
9, 41380, Pitch_bend_c, 7, 14617
9, 41380, Pitch_bend_c, 7, 11757
9, 41380, Pitch_bend_c, 7, 9059
9, 41380, Pitch_bend_c, 7, 8192
9, 41388, Note_on_c, 7, 69, 0
9, 41568, Note_on_c, 7, 69, 79
9, 41572, Pitch_bend_c, 7, 8834
9, 41572, Pitch_bend_c, 7, 10055
9, 41572, Pitch_bend_c, 7, 11404
9, 41572, Pitch_bend_c, 7, 13107
9, 41580, Pitch_bend_c, 7, 15580
9, 41580, Pitch_bend_c, 7, 16383
9, 41652, Pitch_bend_c, 7, 12978
9, 41652, Pitch_bend_c, 7, 9894
9, 41656, Pitch_bend_c, 7, 8192
9, 41664, Note_on_c, 7, 79, 85
9, 41676, Note_on_c, 7, 69, 0
9, 41712, Note_on_c, 7, 74, 89
9, 41720, Note_on_c, 7, 79, 0
9, 41752, Note_on_c, 7, 74, 0
9, 41760, Note_on_c, 7, 76, 86
9, 41792, Note_on_c, 7, 76, 0
9, 41808, Note_on_c, 7, 76, 94
9, 41840, Note_on_c, 7, 76, 0
9, 41856, Note_on_c, 7, 76, 90
9, 41904, Pitch_bend_c, 7, 7838
9, 41908, Pitch_bend_c, 7, 7742
9, 41908, Pitch_bend_c, 7, 7581
9, 41908, Pitch_bend_c, 7, 7517
9, 41908, Pitch_bend_c, 7, 7356
9, 41916, Pitch_bend_c, 7, 7228
9, 41916, Pitch_bend_c, 7, 7099
9, 41916, Pitch_bend_c, 7, 6874
9, 41920, Pitch_bend_c, 7, 6617
9, 41924, Pitch_bend_c, 7, 6360
9, 41924, Pitch_bend_c, 7, 6135
9, 41924, Pitch_bend_c, 7, 5782
9, 41928, Pitch_bend_c, 7, 5557
9, 41932, Pitch_bend_c, 7, 5332
9, 41932, Pitch_bend_c, 7, 5011
9, 41932, Pitch_bend_c, 7, 4722
9, 41940, Pitch_bend_c, 7, 4529
9, 41948, Pitch_bend_c, 7, 4336
9, 41948, Pitch_bend_c, 7, 3951
9, 41948, Pitch_bend_c, 7, 3758
9, 41948, Pitch_bend_c, 7, 3598
9, 41948, Pitch_bend_c, 7, 3405
9, 41956, Pitch_bend_c, 7, 3180
9, 41956, Pitch_bend_c, 7, 2987
9, 41956, Pitch_bend_c, 7, 2762
9, 41960, Pitch_bend_c, 7, 2409
9, 41964, Pitch_bend_c, 7, 1895
9, 41964, Pitch_bend_c, 7, 1445
9, 41964, Pitch_bend_c, 7, 1188
9, 41972, Pitch_bend_c, 7, 803
9, 41972, Pitch_bend_c, 7, 417
9, 41972, Pitch_bend_c, 7, 32
9, 41976, Pitch_bend_c, 7, 0
9, 42076, Pitch_bend_c, 7, 160
9, 42076, Pitch_bend_c, 7, 1317
9, 42080, Pitch_bend_c, 7, 2409
9, 42084, Note_on_c, 7, 76, 0
9, 42084, Pitch_bend_c, 7, 3051
9, 42084, Pitch_bend_c, 7, 3565
9, 42084, Pitch_bend_c, 7, 4208
9, 42088, Pitch_bend_c, 7, 4754
9, 42092, Pitch_bend_c, 7, 5557
9, 42092, Pitch_bend_c, 7, 6489
9, 42096, Pitch_bend_c, 7, 7581
9, 42100, Pitch_bend_c, 7, 8192
9, 42336, Note_on_c, 7, 74, 83
9, 42376, Note_on_c, 7, 74, 0
9, 42380, Note_on_c, 7, 76, 83
9, 42476, Note_on_c, 7, 74, 82
9, 42492, Note_on_c, 7, 76, 0
9, 42528, Note_on_c, 7, 76, 88
9, 42532, Note_on_c, 7, 74, 0
9, 42624, Note_on_c, 7, 76, 0
9, 42624, Note_on_c, 7, 74, 91
9, 42660, Note_on_c, 7, 74, 0
9, 42672, Note_on_c, 7, 76, 88
9, 42740, Pitch_bend_c, 7, 8513
9, 42740, Pitch_bend_c, 7, 8641
9, 42744, Pitch_bend_c, 7, 8898
9, 42744, Pitch_bend_c, 7, 9155
9, 42748, Pitch_bend_c, 7, 9477
9, 42748, Pitch_bend_c, 7, 9766
9, 42756, Pitch_bend_c, 7, 10055
9, 42756, Pitch_bend_c, 7, 10280
9, 42756, Pitch_bend_c, 7, 10537
9, 42756, Pitch_bend_c, 7, 10826
9, 42760, Pitch_bend_c, 7, 11115
9, 42760, Pitch_bend_c, 7, 11468
9, 42764, Pitch_bend_c, 7, 11950
9, 42772, Pitch_bend_c, 7, 12464
9, 42772, Pitch_bend_c, 7, 12946
9, 42772, Pitch_bend_c, 7, 13364
9, 42776, Pitch_bend_c, 7, 13781
9, 42780, Pitch_bend_c, 7, 14295
9, 42780, Pitch_bend_c, 7, 15002
9, 42780, Pitch_bend_c, 7, 15580
9, 42784, Pitch_bend_c, 7, 16159
9, 42784, Pitch_bend_c, 7, 16383
9, 42996, Pitch_bend_c, 7, 14874
9, 43000, Pitch_bend_c, 7, 11565
9, 43004, Pitch_bend_c, 7, 7806
9, 43004, Pitch_bend_c, 7, 8192
9, 43012, Note_on_c, 7, 76, 0
9, 43104, Note_on_c, 7, 71, 74
9, 43108, Pitch_bend_c, 7, 9027
9, 43108, Pitch_bend_c, 7, 10697
9, 43108, Pitch_bend_c, 7, 12496
9, 43112, Pitch_bend_c, 7, 14295
9, 43116, Pitch_bend_c, 7, 16383
9, 43188, Pitch_bend_c, 7, 15259
9, 43188, Pitch_bend_c, 7, 12239
9, 43192, Pitch_bend_c, 7, 9798
9, 43192, Pitch_bend_c, 7, 8192
9, 43200, Note_on_c, 7, 71, 0
9, 43200, Note_on_c, 7, 81, 88
9, 43244, Note_on_c, 7, 76, 72
9, 43256, Note_on_c, 7, 81, 0
9, 43296, Note_on_c, 7, 78, 77
9, 43304, Note_on_c, 7, 76, 0
9, 43344, Note_on_c, 7, 81, 82
9, 43360, Note_on_c, 7, 78, 0
9, 43392, Note_on_c, 7, 76, 72
9, 43416, Note_on_c, 7, 81, 0
9, 43440, Note_on_c, 7, 76, 0
9, 43440, Note_on_c, 7, 69, 80
9, 43488, Note_on_c, 7, 69, 0
9, 43488, Note_on_c, 7, 69, 91
9, 43776, Note_on_c, 7, 69, 0
9, 43920, Note_on_c, 7, 74, 82
9, 43964, Note_on_c, 7, 74, 0
9, 43968, Note_on_c, 7, 83, 84
9, 44012, Note_on_c, 7, 74, 81
9, 44032, Note_on_c, 7, 83, 0
9, 44064, Note_on_c, 7, 71, 83
9, 44072, Note_on_c, 7, 74, 0
9, 44104, Note_on_c, 7, 71, 0
9, 44108, Note_on_c, 7, 81, 88
9, 44144, Note_on_c, 7, 81, 0
9, 44160, Note_on_c, 7, 81, 90
9, 44212, Pitch_bend_c, 7, 7228
9, 44212, Pitch_bend_c, 7, 6039
9, 44212, Pitch_bend_c, 7, 4754
9, 44216, Pitch_bend_c, 7, 3501
9, 44216, Pitch_bend_c, 7, 1638
9, 44220, Pitch_bend_c, 7, 0
9, 44248, Note_on_c, 7, 81, 0
9, 44248, Pitch_bend_c, 7, 2794
9, 44252, Pitch_bend_c, 7, 4529
9, 44256, Note_on_c, 7, 79, 97
9, 44260, Pitch_bend_c, 7, 7035
9, 44260, Pitch_bend_c, 7, 8192
9, 44536, Note_on_c, 7, 79, 0
9, 44688, Note_on_c, 7, 67, 76
9, 44688, Note_on_c, 7, 76, 89
9, 44708, Pitch_bend_c, 7, 8481
9, 44708, Pitch_bend_c, 7, 9123
9, 44708, Pitch_bend_c, 7, 10151
9, 44716, Pitch_bend_c, 7, 11436
9, 44716, Pitch_bend_c, 7, 13107
9, 44716, Pitch_bend_c, 7, 15452
9, 44716, Pitch_bend_c, 7, 16383
9, 44768, Note_on_c, 7, 76, 0
9, 44768, Note_on_c, 7, 67, 0
9, 44784, Note_on_c, 7, 67, 83
9, 44784, Note_on_c, 7, 76, 90
9, 44812, Note_on_c, 7, 67, 0
9, 44816, Note_on_c, 7, 76, 0
9, 44824, Pitch_bend_c, 7, 13717
9, 44828, Pitch_bend_c, 7, 10569
9, 44832, Pitch_bend_c, 7, 8738
9, 44832, Note_on_c, 7, 76, 91
9, 44836, Pitch_bend_c, 7, 8192
9, 44836, Note_on_c, 7, 67, 82
9, 44864, Note_on_c, 7, 67, 0
9, 44864, Note_on_c, 7, 76, 0
9, 44928, Note_on_c, 7, 66, 91
9, 44928, Note_on_c, 7, 74, 93
9, 45256, Note_on_c, 7, 66, 0
9, 45264, Note_on_c, 7, 74, 0
9, 45264, End_track
10, 0, Start_track
10, 0, MIDI_port, 0
10, 0, Title_t, "Melody              "
10, 0, Program_c, 8, 21
10, 0, Control_c, 8, 7, 102
10, 0, Control_c, 8, 10, 44
10, 0, Control_c, 8, 1, 0
10, 0, Control_c, 8, 2, 85
10, 4, Control_c, 8, 91, 100
10, 1728, Note_on_c, 8, 57, 92
10, 1784, Note_on_c, 8, 57, 0
10, 1824, Note_on_c, 8, 57, 87
10, 1900, Note_on_c, 8, 57, 0
10, 1920, Note_on_c, 8, 59, 92
10, 2064, Note_on_c, 8, 57, 90
10, 2072, Note_on_c, 8, 59, 0
10, 2476, Note_on_c, 8, 57, 0
10, 2496, Note_on_c, 8, 59, 92
10, 2592, Note_on_c, 8, 57, 80
10, 2596, Note_on_c, 8, 59, 0
10, 2640, Note_on_c, 8, 59, 89
10, 2664, Note_on_c, 8, 57, 0
10, 2736, Note_on_c, 8, 59, 0
10, 2736, Note_on_c, 8, 62, 89
10, 3172, Note_on_c, 8, 62, 0
10, 3264, Note_on_c, 8, 64, 92
10, 3336, Note_on_c, 8, 64, 0
10, 3360, Note_on_c, 8, 64, 88
10, 3456, Note_on_c, 8, 66, 92
10, 3472, Note_on_c, 8, 64, 0
10, 3596, Note_on_c, 8, 66, 0
10, 3600, Note_on_c, 8, 64, 86
10, 3792, Note_on_c, 8, 59, 83
10, 3816, Note_on_c, 8, 59, 0
10, 3832, Note_on_c, 8, 64, 0
10, 3840, Note_on_c, 8, 59, 92
10, 3924, Note_on_c, 8, 59, 0
10, 3936, Note_on_c, 8, 57, 86
10, 4032, Note_on_c, 8, 57, 0
10, 4032, Note_on_c, 8, 59, 88
10, 4132, Note_on_c, 8, 57, 88
10, 4144, Note_on_c, 8, 59, 0
10, 4224, Note_on_c, 8, 57, 0
10, 4224, Note_on_c, 8, 62, 92
10, 4344, Note_on_c, 8, 62, 0
10, 4368, Note_on_c, 8, 62, 92
10, 4992, Note_on_c, 8, 62, 0
10, 5184, Note_on_c, 8, 57, 92
10, 5248, Note_on_c, 8, 57, 0
10, 5280, Note_on_c, 8, 57, 89
10, 5328, Note_on_c, 8, 59, 92
10, 5352, Note_on_c, 8, 57, 0
10, 5472, Note_on_c, 8, 57, 89
10, 5496, Note_on_c, 8, 59, 0
10, 5760, Note_on_c, 8, 57, 0
10, 5760, Note_on_c, 8, 59, 92
10, 5856, Note_on_c, 8, 59, 0
10, 5856, Note_on_c, 8, 62, 92
10, 5920, Note_on_c, 8, 62, 0
10, 5952, Note_on_c, 8, 62, 92
10, 6048, Note_on_c, 8, 64, 90
10, 6068, Note_on_c, 8, 62, 0
10, 6144, Note_on_c, 8, 66, 92
10, 6148, Note_on_c, 8, 64, 0
10, 6512, Note_on_c, 8, 66, 0
10, 6528, Note_on_c, 8, 64, 92
10, 6600, Note_on_c, 8, 64, 0
10, 6624, Note_on_c, 8, 64, 92
10, 6696, Note_on_c, 8, 64, 0
10, 6720, Note_on_c, 8, 64, 92
10, 6808, Note_on_c, 8, 64, 0
10, 6816, Note_on_c, 8, 64, 85
10, 6912, Note_on_c, 8, 66, 90
10, 6916, Note_on_c, 8, 64, 0
10, 7056, Note_on_c, 8, 64, 91
10, 7064, Note_on_c, 8, 66, 0
10, 7296, Note_on_c, 8, 59, 92
10, 7304, Note_on_c, 8, 64, 0
10, 7396, Note_on_c, 8, 59, 0
10, 7396, Note_on_c, 8, 62, 92
10, 7456, Note_on_c, 8, 62, 0
10, 7488, Note_on_c, 8, 62, 92
10, 7588, Note_on_c, 8, 64, 86
10, 7592, Note_on_c, 8, 62, 0
10, 7632, Note_on_c, 8, 62, 92
10, 7648, Note_on_c, 8, 64, 0
10, 7824, Note_on_c, 8, 62, 0
10, 7872, Note_on_c, 8, 62, 92
10, 7968, Note_on_c, 8, 62, 0
10, 7968, Note_on_c, 8, 64, 92
10, 8016, Note_on_c, 8, 64, 0
10, 8016, Note_on_c, 8, 66, 92
10, 8596, Note_on_c, 8, 66, 0
10, 8640, Note_on_c, 8, 64, 88
10, 8736, Note_on_c, 8, 62, 84
10, 8744, Note_on_c, 8, 64, 0
10, 8780, Note_on_c, 8, 64, 87
10, 8784, Note_on_c, 8, 62, 0
10, 9356, Note_on_c, 8, 64, 0
10, 9408, Note_on_c, 8, 66, 84
10, 9496, Note_on_c, 8, 66, 0
10, 9504, Note_on_c, 8, 64, 75
10, 9552, Note_on_c, 8, 64, 0
10, 9552, Note_on_c, 8, 62, 91
10, 10144, Note_on_c, 8, 62, 0
10, 10176, Note_on_c, 8, 66, 92
10, 10272, Note_on_c, 8, 69, 91
10, 10284, Note_on_c, 8, 66, 0
10, 10320, Note_on_c, 8, 71, 91
10, 10332, Note_on_c, 8, 69, 0
10, 10920, Note_on_c, 8, 71, 0
10, 10944, Note_on_c, 8, 71, 90
10, 11044, Note_on_c, 8, 71, 0
10, 11048, Note_on_c, 8, 66, 88
10, 11088, Note_on_c, 8, 69, 88
10, 11096, Note_on_c, 8, 66, 0
10, 11236, Note_on_c, 8, 66, 92
10, 11240, Note_on_c, 8, 69, 0
10, 11712, Note_on_c, 8, 64, 82
10, 11732, Note_on_c, 8, 66, 0
10, 11800, Note_on_c, 8, 64, 0
10, 11812, Note_on_c, 8, 62, 79
10, 11856, Note_on_c, 8, 64, 78
10, 11864, Note_on_c, 8, 62, 0
10, 12000, Note_on_c, 8, 64, 0
10, 12000, Note_on_c, 8, 66, 89
10, 12480, Note_on_c, 8, 64, 86
10, 12488, Note_on_c, 8, 66, 0
10, 12560, Note_on_c, 8, 64, 0
10, 12576, Note_on_c, 8, 62, 87
10, 12616, Note_on_c, 8, 62, 0
10, 12620, Note_on_c, 8, 62, 71
10, 13220, Note_on_c, 8, 62, 0
10, 13248, Note_on_c, 8, 62, 86
10, 13348, Note_on_c, 8, 62, 0
10, 13348, Note_on_c, 8, 64, 79
10, 13384, Note_on_c, 8, 64, 0
10, 13388, Note_on_c, 8, 62, 78
10, 14212, Note_on_c, 8, 62, 0
10, 14400, Note_on_c, 8, 57, 84
10, 14464, Note_on_c, 8, 57, 0
10, 14496, Note_on_c, 8, 57, 80
10, 14576, Note_on_c, 8, 57, 0
10, 14592, Note_on_c, 8, 59, 92
10, 14736, Note_on_c, 8, 57, 90
10, 14760, Note_on_c, 8, 59, 0
10, 15000, Note_on_c, 8, 57, 0
10, 15168, Note_on_c, 8, 59, 89
10, 15264, Note_on_c, 8, 57, 84
10, 15268, Note_on_c, 8, 59, 0
10, 15312, Note_on_c, 8, 59, 86
10, 15328, Note_on_c, 8, 57, 0
10, 15456, Note_on_c, 8, 62, 91
10, 15460, Note_on_c, 8, 59, 0
10, 15768, Note_on_c, 8, 62, 0
10, 15936, Note_on_c, 8, 64, 92
10, 15992, Note_on_c, 8, 64, 0
10, 16032, Note_on_c, 8, 64, 91
10, 16128, Note_on_c, 8, 66, 92
10, 16144, Note_on_c, 8, 64, 0
10, 16272, Note_on_c, 8, 66, 0
10, 16272, Note_on_c, 8, 64, 91
10, 16464, Note_on_c, 8, 59, 81
10, 16472, Note_on_c, 8, 64, 0
10, 16488, Note_on_c, 8, 59, 0
10, 16516, Note_on_c, 8, 59, 89
10, 16600, Note_on_c, 8, 59, 0
10, 16608, Note_on_c, 8, 57, 84
10, 16704, Note_on_c, 8, 57, 0
10, 16704, Note_on_c, 8, 59, 84
10, 16800, Note_on_c, 8, 59, 0
10, 16800, Note_on_c, 8, 57, 89
10, 16896, Note_on_c, 8, 62, 92
10, 16900, Note_on_c, 8, 57, 0
10, 17024, Note_on_c, 8, 62, 0
10, 17040, Note_on_c, 8, 62, 92
10, 17836, Note_on_c, 8, 62, 0
10, 17856, Note_on_c, 8, 57, 92
10, 17912, Note_on_c, 8, 57, 0
10, 17952, Note_on_c, 8, 57, 78
10, 18040, Note_on_c, 8, 57, 0
10, 18048, Note_on_c, 8, 59, 88
10, 18192, Note_on_c, 8, 57, 86
10, 18216, Note_on_c, 8, 59, 0
10, 18432, Note_on_c, 8, 59, 92
10, 18440, Note_on_c, 8, 57, 0
10, 18528, Note_on_c, 8, 62, 87
10, 18532, Note_on_c, 8, 59, 0
10, 18600, Note_on_c, 8, 62, 0
10, 18624, Note_on_c, 8, 62, 76
10, 18720, Note_on_c, 8, 64, 90
10, 18736, Note_on_c, 8, 62, 0
10, 18816, Note_on_c, 8, 64, 0
10, 18816, Note_on_c, 8, 66, 92
10, 19200, Note_on_c, 8, 64, 92
10, 19208, Note_on_c, 8, 66, 0
10, 19276, Note_on_c, 8, 64, 0
10, 19296, Note_on_c, 8, 64, 92
10, 19360, Note_on_c, 8, 64, 0
10, 19392, Note_on_c, 8, 64, 92
10, 19464, Note_on_c, 8, 64, 0
10, 19488, Note_on_c, 8, 64, 92
10, 19584, Note_on_c, 8, 66, 92
10, 19600, Note_on_c, 8, 64, 0
10, 19728, Note_on_c, 8, 64, 91
10, 19744, Note_on_c, 8, 66, 0
10, 19968, Note_on_c, 8, 64, 0
10, 19968, Note_on_c, 8, 59, 84
10, 20064, Note_on_c, 8, 59, 0
10, 20064, Note_on_c, 8, 62, 92
10, 20136, Note_on_c, 8, 62, 0
10, 20160, Note_on_c, 8, 62, 92
10, 20256, Note_on_c, 8, 64, 85
10, 20264, Note_on_c, 8, 62, 0
10, 20304, Note_on_c, 8, 62, 85
10, 20320, Note_on_c, 8, 64, 0
10, 20520, Note_on_c, 8, 62, 0
10, 20544, Note_on_c, 8, 62, 92
10, 20632, Note_on_c, 8, 62, 0
10, 20640, Note_on_c, 8, 64, 92
10, 20688, Note_on_c, 8, 64, 0
10, 20688, Note_on_c, 8, 66, 92
10, 21268, Note_on_c, 8, 66, 0
10, 21312, Note_on_c, 8, 64, 88
10, 21412, Note_on_c, 8, 62, 84
10, 21416, Note_on_c, 8, 64, 0
10, 21456, Note_on_c, 8, 62, 0
10, 21456, Note_on_c, 8, 64, 87
10, 22032, Note_on_c, 8, 64, 0
10, 22080, Note_on_c, 8, 66, 84
10, 22168, Note_on_c, 8, 66, 0
10, 22180, Note_on_c, 8, 64, 75
10, 22272, Note_on_c, 8, 62, 91
10, 22292, Note_on_c, 8, 64, 0
10, 22848, Note_on_c, 8, 66, 92
10, 22864, Note_on_c, 8, 62, 0
10, 22948, Note_on_c, 8, 69, 91
10, 22956, Note_on_c, 8, 66, 0
10, 22992, Note_on_c, 8, 71, 91
10, 23004, Note_on_c, 8, 69, 0
10, 23592, Note_on_c, 8, 71, 0
10, 23616, Note_on_c, 8, 71, 90
10, 23716, Note_on_c, 8, 71, 0
10, 23716, Note_on_c, 8, 66, 88
10, 23760, Note_on_c, 8, 69, 88
10, 23768, Note_on_c, 8, 66, 0
10, 23904, Note_on_c, 8, 66, 92
10, 23912, Note_on_c, 8, 69, 0
10, 24384, Note_on_c, 8, 64, 82
10, 24400, Note_on_c, 8, 66, 0
10, 24472, Note_on_c, 8, 64, 0
10, 24484, Note_on_c, 8, 62, 79
10, 24528, Note_on_c, 8, 64, 78
10, 24536, Note_on_c, 8, 62, 0
10, 24672, Note_on_c, 8, 64, 0
10, 24676, Note_on_c, 8, 66, 89
10, 25152, Note_on_c, 8, 64, 86
10, 25160, Note_on_c, 8, 66, 0
10, 25232, Note_on_c, 8, 64, 0
10, 25252, Note_on_c, 8, 62, 87
10, 25288, Note_on_c, 8, 62, 0
10, 25292, Note_on_c, 8, 62, 71
10, 25892, Note_on_c, 8, 62, 0
10, 25920, Note_on_c, 8, 62, 86
10, 26020, Note_on_c, 8, 62, 0
10, 26020, Note_on_c, 8, 64, 79
10, 26056, Note_on_c, 8, 64, 0
10, 26064, Note_on_c, 8, 62, 78
10, 26888, Note_on_c, 8, 62, 0
10, 26976, Note_on_c, 8, 62, 92
10, 27040, Note_on_c, 8, 62, 0
10, 27072, Note_on_c, 8, 62, 92
10, 27144, Note_on_c, 8, 62, 0
10, 27172, Note_on_c, 8, 62, 92
10, 27264, Note_on_c, 8, 61, 91
10, 27272, Note_on_c, 8, 62, 0
10, 27456, Note_on_c, 8, 61, 0
10, 27456, Note_on_c, 8, 62, 91
10, 27552, Note_on_c, 8, 64, 92
10, 27556, Note_on_c, 8, 62, 0
10, 27648, Note_on_c, 8, 64, 0
10, 27648, Note_on_c, 8, 66, 92
10, 27776, Note_on_c, 8, 66, 0
10, 27792, Note_on_c, 8, 66, 91
10, 27816, Note_on_c, 8, 66, 0
10, 27840, Note_on_c, 8, 66, 91
10, 27968, Note_on_c, 8, 66, 0
10, 27984, Note_on_c, 8, 66, 92
10, 28008, Note_on_c, 8, 66, 0
10, 28032, Note_on_c, 8, 66, 86
10, 28120, Note_on_c, 8, 66, 0
10, 28128, Note_on_c, 8, 62, 90
10, 28352, Note_on_c, 8, 62, 0
10, 28368, Note_on_c, 8, 62, 92
10, 28408, Note_on_c, 8, 62, 0
10, 28416, Note_on_c, 8, 67, 90
10, 28488, Note_on_c, 8, 67, 0
10, 28512, Note_on_c, 8, 67, 92
10, 28552, Note_on_c, 8, 67, 0
10, 28556, Note_on_c, 8, 67, 92
10, 28676, Note_on_c, 8, 67, 0
10, 28704, Note_on_c, 8, 67, 92
10, 28744, Note_on_c, 8, 67, 0
10, 28748, Note_on_c, 8, 67, 92
10, 28868, Note_on_c, 8, 67, 0
10, 28896, Note_on_c, 8, 66, 88
10, 28992, Note_on_c, 8, 64, 92
10, 29000, Note_on_c, 8, 66, 0
10, 29092, Note_on_c, 8, 64, 0
10, 29092, Note_on_c, 8, 62, 85
10, 29184, Note_on_c, 8, 62, 0
10, 29184, Note_on_c, 8, 64, 88
10, 29376, Note_on_c, 8, 66, 89
10, 29384, Note_on_c, 8, 64, 0
10, 29448, Note_on_c, 8, 66, 0
10, 29472, Note_on_c, 8, 66, 92
10, 29508, Note_on_c, 8, 66, 0
10, 29520, Note_on_c, 8, 64, 76
10, 29944, Note_on_c, 8, 64, 0
10, 29956, Note_on_c, 8, 66, 91
10, 30032, Note_on_c, 8, 66, 0
10, 30048, Note_on_c, 8, 66, 92
10, 30132, Note_on_c, 8, 66, 0
10, 30144, Note_on_c, 8, 66, 92
10, 30176, Note_on_c, 8, 66, 0
10, 30192, Note_on_c, 8, 66, 92
10, 30320, Note_on_c, 8, 66, 0
10, 30336, Note_on_c, 8, 64, 92
10, 30428, Note_on_c, 8, 64, 0
10, 30432, Note_on_c, 8, 64, 92
10, 30512, Note_on_c, 8, 64, 0
10, 30528, Note_on_c, 8, 64, 92
10, 30552, Note_on_c, 8, 64, 0
10, 30576, Note_on_c, 8, 64, 92
10, 30704, Note_on_c, 8, 64, 0
10, 30720, Note_on_c, 8, 62, 92
10, 30808, Note_on_c, 8, 62, 0
10, 30816, Note_on_c, 8, 62, 92
10, 30888, Note_on_c, 8, 62, 0
10, 30912, Note_on_c, 8, 62, 92
10, 30936, Note_on_c, 8, 62, 0
10, 30960, Note_on_c, 8, 62, 92
10, 31072, Note_on_c, 8, 62, 0
10, 31104, Note_on_c, 8, 62, 92
10, 31196, Note_on_c, 8, 62, 0
10, 31200, Note_on_c, 8, 62, 92
10, 31280, Note_on_c, 8, 62, 0
10, 31296, Note_on_c, 8, 62, 92
10, 31320, Note_on_c, 8, 62, 0
10, 31340, Note_on_c, 8, 62, 92
10, 31480, Note_on_c, 8, 62, 0
10, 31488, Note_on_c, 8, 64, 92
10, 31560, Note_on_c, 8, 64, 0
10, 31584, Note_on_c, 8, 66, 81
10, 31632, Note_on_c, 8, 64, 91
10, 31648, Note_on_c, 8, 66, 0
10, 32032, Note_on_c, 8, 64, 0
10, 32064, Note_on_c, 8, 64, 92
10, 32156, Note_on_c, 8, 64, 0
10, 32164, Note_on_c, 8, 66, 92
10, 32256, Note_on_c, 8, 66, 0
10, 32256, Note_on_c, 8, 67, 92
10, 32784, Note_on_c, 8, 67, 0
10, 32832, Note_on_c, 8, 62, 92
10, 32928, Note_on_c, 8, 62, 0
10, 32928, Note_on_c, 8, 64, 86
10, 32976, Note_on_c, 8, 64, 0
10, 32976, Note_on_c, 8, 66, 92
10, 33556, Note_on_c, 8, 66, 0
10, 33600, Note_on_c, 8, 64, 88
10, 33700, Note_on_c, 8, 62, 84
10, 33704, Note_on_c, 8, 64, 0
10, 33744, Note_on_c, 8, 62, 0
10, 33744, Note_on_c, 8, 64, 87
10, 34320, Note_on_c, 8, 64, 0
10, 34368, Note_on_c, 8, 66, 84
10, 34456, Note_on_c, 8, 66, 0
10, 34464, Note_on_c, 8, 64, 75
10, 34512, Note_on_c, 8, 64, 0
10, 34512, Note_on_c, 8, 62, 91
10, 35104, Note_on_c, 8, 62, 0
10, 35136, Note_on_c, 8, 66, 92
10, 35236, Note_on_c, 8, 69, 91
10, 35244, Note_on_c, 8, 66, 0
10, 35280, Note_on_c, 8, 71, 91
10, 35292, Note_on_c, 8, 69, 0
10, 35880, Note_on_c, 8, 71, 0
10, 35904, Note_on_c, 8, 71, 90
10, 36004, Note_on_c, 8, 71, 0
10, 36004, Note_on_c, 8, 66, 88
10, 36048, Note_on_c, 8, 69, 88
10, 36056, Note_on_c, 8, 66, 0
10, 36192, Note_on_c, 8, 66, 92
10, 36200, Note_on_c, 8, 69, 0
10, 36672, Note_on_c, 8, 64, 82
10, 36688, Note_on_c, 8, 66, 0
10, 36760, Note_on_c, 8, 64, 0
10, 36772, Note_on_c, 8, 62, 79
10, 36816, Note_on_c, 8, 64, 78
10, 36824, Note_on_c, 8, 62, 0
10, 36960, Note_on_c, 8, 64, 0
10, 36964, Note_on_c, 8, 66, 89
10, 37440, Note_on_c, 8, 64, 86
10, 37448, Note_on_c, 8, 66, 0
10, 37520, Note_on_c, 8, 64, 0
10, 37540, Note_on_c, 8, 62, 87
10, 37576, Note_on_c, 8, 62, 0
10, 37580, Note_on_c, 8, 62, 71
10, 38180, Note_on_c, 8, 62, 0
10, 38208, Note_on_c, 8, 62, 86
10, 38308, Note_on_c, 8, 62, 0
10, 38308, Note_on_c, 8, 64, 79
10, 38344, Note_on_c, 8, 64, 0
10, 38352, Note_on_c, 8, 62, 78
10, 38976, Note_on_c, 8, 62, 0
10, 38976, Note_on_c, 8, 62, 83
10, 39072, Note_on_c, 8, 62, 0
10, 39072, Note_on_c, 8, 64, 83
10, 39120, Note_on_c, 8, 64, 0
10, 39120, Note_on_c, 8, 66, 92
10, 39704, Note_on_c, 8, 66, 0
10, 39744, Note_on_c, 8, 64, 88
10, 39840, Note_on_c, 8, 62, 84
10, 39848, Note_on_c, 8, 64, 0
10, 39888, Note_on_c, 8, 62, 0
10, 39888, Note_on_c, 8, 64, 87
10, 40464, Note_on_c, 8, 64, 0
10, 40512, Note_on_c, 8, 66, 84
10, 40600, Note_on_c, 8, 66, 0
10, 40608, Note_on_c, 8, 64, 75
10, 40656, Note_on_c, 8, 64, 0
10, 40656, Note_on_c, 8, 62, 91
10, 41248, Note_on_c, 8, 62, 0
10, 41280, Note_on_c, 8, 66, 92
10, 41380, Note_on_c, 8, 69, 91
10, 41388, Note_on_c, 8, 66, 0
10, 41424, Note_on_c, 8, 71, 91
10, 41432, Note_on_c, 8, 69, 0
10, 42024, Note_on_c, 8, 71, 0
10, 42048, Note_on_c, 8, 71, 90
10, 42148, Note_on_c, 8, 71, 0
10, 42148, Note_on_c, 8, 66, 88
10, 42192, Note_on_c, 8, 69, 88
10, 42200, Note_on_c, 8, 66, 0
10, 42340, Note_on_c, 8, 66, 92
10, 42344, Note_on_c, 8, 69, 0
10, 42816, Note_on_c, 8, 64, 82
10, 42832, Note_on_c, 8, 66, 0
10, 42904, Note_on_c, 8, 64, 0
10, 42916, Note_on_c, 8, 62, 79
10, 42960, Note_on_c, 8, 64, 78
10, 42968, Note_on_c, 8, 62, 0
10, 43104, Note_on_c, 8, 64, 0
10, 43104, Note_on_c, 8, 66, 89
10, 43584, Note_on_c, 8, 64, 86
10, 43592, Note_on_c, 8, 66, 0
10, 43664, Note_on_c, 8, 64, 0
10, 43684, Note_on_c, 8, 62, 87
10, 43720, Note_on_c, 8, 62, 0
10, 43724, Note_on_c, 8, 62, 71
10, 44324, Note_on_c, 8, 62, 0
10, 44352, Note_on_c, 8, 62, 86
10, 44448, Note_on_c, 8, 64, 79
10, 44452, Note_on_c, 8, 62, 0
10, 44488, Note_on_c, 8, 64, 0
10, 44492, Note_on_c, 8, 62, 78
10, 45116, Note_on_c, 8, 62, 0
10, 45120, Note_on_c, 8, 64, 80
10, 45216, Note_on_c, 8, 64, 0
10, 45220, Note_on_c, 8, 62, 80
10, 45260, Note_on_c, 8, 64, 92
10, 45268, Note_on_c, 8, 62, 0
10, 45828, Note_on_c, 8, 64, 0
10, 45888, Note_on_c, 8, 62, 89
10, 45984, Note_on_c, 8, 62, 0
10, 45984, Note_on_c, 8, 64, 92
10, 46028, Note_on_c, 8, 62, 92
10, 46040, Note_on_c, 8, 64, 0
10, 46652, Note_on_c, 8, 62, 0
10, 46656, Note_on_c, 8, 64, 86
10, 46752, Note_on_c, 8, 64, 0
10, 46752, Note_on_c, 8, 62, 73
10, 46800, Note_on_c, 8, 64, 91
10, 46816, Note_on_c, 8, 62, 0
10, 47424, Note_on_c, 8, 62, 89
10, 47432, Note_on_c, 8, 64, 0
10, 47520, Note_on_c, 8, 62, 0
10, 47520, Note_on_c, 8, 64, 84
10, 47568, Note_on_c, 8, 62, 81
10, 47584, Note_on_c, 8, 64, 0
10, 48240, Note_on_c, 8, 62, 0
10, 48240, End_track
11, 0, Start_track
11, 0, MIDI_port, 0
11, 0, Title_t, "Drums.....          "
11, 0, Program_c, 9, 32
11, 0, Control_c, 9, 7, 85
11, 0, Control_c, 9, 0, 0
11, 0, Control_c, 9, 1, 0
11, 0, Control_c, 9, 91, 100
11, 0, Control_c, 9, 93, 0
11, 20, Note_on_c, 9, 35, 87
11, 48, Note_on_c, 9, 35, 0
11, 188, Note_on_c, 9, 35, 87
11, 240, Note_on_c, 9, 35, 0
11, 384, Note_on_c, 9, 35, 87
11, 432, Note_on_c, 9, 35, 0
11, 576, Note_on_c, 9, 35, 87
11, 624, Note_on_c, 9, 35, 0
11, 768, Note_on_c, 9, 35, 87
11, 768, Note_on_c, 9, 69, 77
11, 816, Note_on_c, 9, 69, 0
11, 816, Note_on_c, 9, 35, 0
11, 816, Note_on_c, 9, 69, 59
11, 864, Note_on_c, 9, 69, 0
11, 864, Note_on_c, 9, 69, 75
11, 912, Note_on_c, 9, 69, 0
11, 912, Note_on_c, 9, 69, 62
11, 956, Note_on_c, 9, 35, 87
11, 960, Note_on_c, 9, 69, 0
11, 960, Note_on_c, 9, 69, 73
11, 1008, Note_on_c, 9, 69, 0
11, 1008, Note_on_c, 9, 35, 0
11, 1008, Note_on_c, 9, 69, 66
11, 1056, Note_on_c, 9, 69, 0
11, 1056, Note_on_c, 9, 69, 75
11, 1104, Note_on_c, 9, 69, 0
11, 1104, Note_on_c, 9, 69, 66
11, 1148, Note_on_c, 9, 35, 87
11, 1152, Note_on_c, 9, 69, 0
11, 1152, Note_on_c, 9, 69, 77
11, 1200, Note_on_c, 9, 69, 0
11, 1200, Note_on_c, 9, 35, 0
11, 1200, Note_on_c, 9, 69, 64
11, 1248, Note_on_c, 9, 69, 0
11, 1248, Note_on_c, 9, 69, 81
11, 1296, Note_on_c, 9, 69, 0
11, 1296, Note_on_c, 9, 69, 70
11, 1344, Note_on_c, 9, 69, 0
11, 1344, Note_on_c, 9, 35, 87
11, 1344, Note_on_c, 9, 69, 83
11, 1392, Note_on_c, 9, 69, 0
11, 1392, Note_on_c, 9, 35, 0
11, 1392, Note_on_c, 9, 69, 71
11, 1440, Note_on_c, 9, 69, 0
11, 1440, Note_on_c, 9, 69, 88
11, 1488, Note_on_c, 9, 69, 0
11, 1488, Note_on_c, 9, 69, 72
11, 1536, Note_on_c, 9, 69, 0
11, 1536, Note_on_c, 9, 35, 87
11, 1540, Note_on_c, 9, 54, 95
11, 1540, Note_on_c, 9, 69, 77
11, 1584, Note_on_c, 9, 69, 0
11, 1584, Note_on_c, 9, 35, 0
11, 1584, Note_on_c, 9, 69, 59
11, 1632, Note_on_c, 9, 69, 0
11, 1632, Note_on_c, 9, 69, 75
11, 1680, Note_on_c, 9, 69, 0
11, 1680, Note_on_c, 9, 69, 62
11, 1728, Note_on_c, 9, 69, 0
11, 1728, Note_on_c, 9, 54, 0
11, 1728, Note_on_c, 9, 35, 87
11, 1728, Note_on_c, 9, 69, 73
11, 1728, Note_on_c, 9, 54, 95
11, 1776, Note_on_c, 9, 69, 0
11, 1776, Note_on_c, 9, 35, 0
11, 1776, Note_on_c, 9, 69, 66
11, 1824, Note_on_c, 9, 69, 0
11, 1824, Note_on_c, 9, 69, 75
11, 1872, Note_on_c, 9, 69, 0
11, 1872, Note_on_c, 9, 69, 66
11, 1920, Note_on_c, 9, 69, 0
11, 1920, Note_on_c, 9, 54, 0
11, 1920, Note_on_c, 9, 35, 87
11, 1920, Note_on_c, 9, 69, 77
11, 1920, Note_on_c, 9, 54, 95
11, 1968, Note_on_c, 9, 69, 0
11, 1968, Note_on_c, 9, 35, 0
11, 1968, Note_on_c, 9, 69, 64
11, 2016, Note_on_c, 9, 69, 0
11, 2016, Note_on_c, 9, 69, 81
11, 2064, Note_on_c, 9, 69, 0
11, 2064, Note_on_c, 9, 69, 70
11, 2112, Note_on_c, 9, 69, 0
11, 2112, Note_on_c, 9, 54, 0
11, 2112, Note_on_c, 9, 35, 87
11, 2112, Note_on_c, 9, 69, 83
11, 2112, Note_on_c, 9, 54, 95
11, 2160, Note_on_c, 9, 69, 0
11, 2160, Note_on_c, 9, 35, 0
11, 2160, Note_on_c, 9, 69, 71
11, 2208, Note_on_c, 9, 69, 0
11, 2208, Note_on_c, 9, 69, 88
11, 2256, Note_on_c, 9, 69, 0
11, 2256, Note_on_c, 9, 69, 72
11, 2304, Note_on_c, 9, 69, 0
11, 2304, Note_on_c, 9, 35, 87
11, 2304, Note_on_c, 9, 69, 77
11, 2308, Note_on_c, 9, 54, 0
11, 2308, Note_on_c, 9, 54, 95
11, 2352, Note_on_c, 9, 69, 0
11, 2352, Note_on_c, 9, 35, 0
11, 2352, Note_on_c, 9, 69, 59
11, 2400, Note_on_c, 9, 69, 0
11, 2404, Note_on_c, 9, 69, 75
11, 2448, Note_on_c, 9, 69, 0
11, 2448, Note_on_c, 9, 69, 62
11, 2496, Note_on_c, 9, 69, 0
11, 2496, Note_on_c, 9, 54, 0
11, 2496, Note_on_c, 9, 35, 87
11, 2496, Note_on_c, 9, 69, 73
11, 2496, Note_on_c, 9, 54, 95
11, 2544, Note_on_c, 9, 69, 0
11, 2544, Note_on_c, 9, 35, 0
11, 2544, Note_on_c, 9, 69, 66
11, 2592, Note_on_c, 9, 69, 0
11, 2592, Note_on_c, 9, 69, 75
11, 2640, Note_on_c, 9, 69, 0
11, 2640, Note_on_c, 9, 69, 66
11, 2688, Note_on_c, 9, 69, 0
11, 2688, Note_on_c, 9, 54, 0
11, 2688, Note_on_c, 9, 35, 87
11, 2688, Note_on_c, 9, 69, 77
11, 2688, Note_on_c, 9, 54, 95
11, 2736, Note_on_c, 9, 69, 0
11, 2736, Note_on_c, 9, 35, 0
11, 2736, Note_on_c, 9, 69, 64
11, 2784, Note_on_c, 9, 69, 0
11, 2784, Note_on_c, 9, 69, 81
11, 2832, Note_on_c, 9, 69, 0
11, 2832, Note_on_c, 9, 69, 70
11, 2880, Note_on_c, 9, 69, 0
11, 2880, Note_on_c, 9, 54, 0
11, 2880, Note_on_c, 9, 35, 87
11, 2880, Note_on_c, 9, 69, 83
11, 2880, Note_on_c, 9, 54, 95
11, 2928, Note_on_c, 9, 69, 0
11, 2928, Note_on_c, 9, 35, 0
11, 2928, Note_on_c, 9, 69, 71
11, 2976, Note_on_c, 9, 69, 0
11, 2976, Note_on_c, 9, 69, 88
11, 3024, Note_on_c, 9, 69, 0
11, 3024, Note_on_c, 9, 69, 72
11, 3072, Note_on_c, 9, 69, 0
11, 3072, Note_on_c, 9, 35, 87
11, 3072, Note_on_c, 9, 69, 77
11, 3076, Note_on_c, 9, 54, 0
11, 3076, Note_on_c, 9, 54, 95
11, 3120, Note_on_c, 9, 69, 0
11, 3120, Note_on_c, 9, 35, 0
11, 3120, Note_on_c, 9, 69, 59
11, 3168, Note_on_c, 9, 69, 0
11, 3168, Note_on_c, 9, 69, 75
11, 3216, Note_on_c, 9, 69, 0
11, 3216, Note_on_c, 9, 69, 62
11, 3264, Note_on_c, 9, 69, 0
11, 3264, Note_on_c, 9, 54, 0
11, 3264, Note_on_c, 9, 35, 87
11, 3264, Note_on_c, 9, 69, 73
11, 3264, Note_on_c, 9, 54, 95
11, 3312, Note_on_c, 9, 69, 0
11, 3312, Note_on_c, 9, 35, 0
11, 3316, Note_on_c, 9, 69, 66
11, 3360, Note_on_c, 9, 69, 0
11, 3360, Note_on_c, 9, 69, 75
11, 3408, Note_on_c, 9, 69, 0
11, 3408, Note_on_c, 9, 69, 66
11, 3456, Note_on_c, 9, 69, 0
11, 3456, Note_on_c, 9, 54, 0
11, 3456, Note_on_c, 9, 35, 87
11, 3456, Note_on_c, 9, 69, 77
11, 3456, Note_on_c, 9, 54, 95
11, 3504, Note_on_c, 9, 69, 0
11, 3504, Note_on_c, 9, 35, 0
11, 3504, Note_on_c, 9, 69, 64
11, 3552, Note_on_c, 9, 69, 0
11, 3552, Note_on_c, 9, 69, 81
11, 3600, Note_on_c, 9, 69, 0
11, 3600, Note_on_c, 9, 69, 70
11, 3648, Note_on_c, 9, 69, 0
11, 3648, Note_on_c, 9, 54, 0
11, 3648, Note_on_c, 9, 35, 87
11, 3648, Note_on_c, 9, 69, 83
11, 3648, Note_on_c, 9, 54, 95
11, 3696, Note_on_c, 9, 69, 0
11, 3696, Note_on_c, 9, 35, 0
11, 3696, Note_on_c, 9, 69, 71
11, 3744, Note_on_c, 9, 69, 0
11, 3744, Note_on_c, 9, 69, 88
11, 3792, Note_on_c, 9, 69, 0
11, 3792, Note_on_c, 9, 69, 72
11, 3840, Note_on_c, 9, 69, 0
11, 3840, Note_on_c, 9, 35, 87
11, 3840, Note_on_c, 9, 69, 77
11, 3844, Note_on_c, 9, 54, 0
11, 3844, Note_on_c, 9, 54, 95
11, 3888, Note_on_c, 9, 69, 0
11, 3888, Note_on_c, 9, 35, 0
11, 3888, Note_on_c, 9, 69, 59
11, 3936, Note_on_c, 9, 69, 0
11, 3936, Note_on_c, 9, 69, 75
11, 3984, Note_on_c, 9, 69, 0
11, 3984, Note_on_c, 9, 69, 62
11, 4032, Note_on_c, 9, 69, 0
11, 4032, Note_on_c, 9, 35, 87
11, 4032, Note_on_c, 9, 69, 73
11, 4036, Note_on_c, 9, 54, 0
11, 4036, Note_on_c, 9, 54, 95
11, 4080, Note_on_c, 9, 69, 0
11, 4080, Note_on_c, 9, 35, 0
11, 4080, Note_on_c, 9, 69, 66
11, 4128, Note_on_c, 9, 69, 0
11, 4128, Note_on_c, 9, 69, 75
11, 4176, Note_on_c, 9, 69, 0
11, 4176, Note_on_c, 9, 69, 66
11, 4224, Note_on_c, 9, 69, 0
11, 4224, Note_on_c, 9, 54, 0
11, 4224, Note_on_c, 9, 35, 87
11, 4224, Note_on_c, 9, 69, 77
11, 4224, Note_on_c, 9, 54, 95
11, 4272, Note_on_c, 9, 69, 0
11, 4272, Note_on_c, 9, 35, 0
11, 4272, Note_on_c, 9, 69, 64
11, 4320, Note_on_c, 9, 69, 0
11, 4320, Note_on_c, 9, 69, 81
11, 4368, Note_on_c, 9, 69, 0
11, 4368, Note_on_c, 9, 69, 70
11, 4416, Note_on_c, 9, 69, 0
11, 4416, Note_on_c, 9, 54, 0
11, 4416, Note_on_c, 9, 35, 87
11, 4416, Note_on_c, 9, 69, 83
11, 4416, Note_on_c, 9, 54, 95
11, 4464, Note_on_c, 9, 69, 0
11, 4464, Note_on_c, 9, 35, 0
11, 4464, Note_on_c, 9, 69, 71
11, 4512, Note_on_c, 9, 69, 0
11, 4512, Note_on_c, 9, 69, 88
11, 4560, Note_on_c, 9, 69, 0
11, 4560, Note_on_c, 9, 69, 72
11, 4608, Note_on_c, 9, 69, 0
11, 4608, Note_on_c, 9, 35, 87
11, 4612, Note_on_c, 9, 54, 0
11, 4612, Note_on_c, 9, 54, 95
11, 4612, Note_on_c, 9, 69, 77
11, 4656, Note_on_c, 9, 69, 0
11, 4656, Note_on_c, 9, 35, 0
11, 4656, Note_on_c, 9, 69, 59
11, 4704, Note_on_c, 9, 69, 0
11, 4704, Note_on_c, 9, 69, 75
11, 4752, Note_on_c, 9, 69, 0
11, 4752, Note_on_c, 9, 69, 62
11, 4800, Note_on_c, 9, 69, 0
11, 4800, Note_on_c, 9, 54, 0
11, 4800, Note_on_c, 9, 35, 87
11, 4800, Note_on_c, 9, 69, 73
11, 4800, Note_on_c, 9, 54, 95
11, 4848, Note_on_c, 9, 69, 0
11, 4848, Note_on_c, 9, 35, 0
11, 4848, Note_on_c, 9, 69, 66
11, 4896, Note_on_c, 9, 69, 0
11, 4896, Note_on_c, 9, 69, 75
11, 4944, Note_on_c, 9, 69, 0
11, 4944, Note_on_c, 9, 69, 66
11, 4992, Note_on_c, 9, 69, 0
11, 4992, Note_on_c, 9, 54, 0
11, 4992, Note_on_c, 9, 35, 87
11, 4992, Note_on_c, 9, 69, 77
11, 4992, Note_on_c, 9, 54, 95
11, 5040, Note_on_c, 9, 69, 0
11, 5040, Note_on_c, 9, 35, 0
11, 5040, Note_on_c, 9, 69, 64
11, 5088, Note_on_c, 9, 69, 0
11, 5088, Note_on_c, 9, 69, 81
11, 5136, Note_on_c, 9, 69, 0
11, 5136, Note_on_c, 9, 69, 70
11, 5184, Note_on_c, 9, 69, 0
11, 5184, Note_on_c, 9, 54, 0
11, 5184, Note_on_c, 9, 35, 87
11, 5184, Note_on_c, 9, 69, 83
11, 5184, Note_on_c, 9, 54, 95
11, 5232, Note_on_c, 9, 69, 0
11, 5232, Note_on_c, 9, 35, 0
11, 5232, Note_on_c, 9, 69, 71
11, 5280, Note_on_c, 9, 69, 0
11, 5280, Note_on_c, 9, 69, 88
11, 5328, Note_on_c, 9, 69, 0
11, 5328, Note_on_c, 9, 69, 72
11, 5376, Note_on_c, 9, 69, 0
11, 5376, Note_on_c, 9, 54, 0
11, 5376, Note_on_c, 9, 35, 87
11, 5376, Note_on_c, 9, 69, 77
11, 5376, Note_on_c, 9, 54, 95
11, 5424, Note_on_c, 9, 69, 0
11, 5424, Note_on_c, 9, 35, 0
11, 5424, Note_on_c, 9, 69, 59
11, 5472, Note_on_c, 9, 69, 0
11, 5472, Note_on_c, 9, 69, 75
11, 5520, Note_on_c, 9, 69, 0
11, 5520, Note_on_c, 9, 69, 62
11, 5568, Note_on_c, 9, 69, 0
11, 5568, Note_on_c, 9, 54, 0
11, 5568, Note_on_c, 9, 35, 87
11, 5568, Note_on_c, 9, 69, 73
11, 5568, Note_on_c, 9, 54, 95
11, 5616, Note_on_c, 9, 69, 0
11, 5616, Note_on_c, 9, 35, 0
11, 5616, Note_on_c, 9, 69, 66
11, 5664, Note_on_c, 9, 69, 0
11, 5664, Note_on_c, 9, 69, 75
11, 5712, Note_on_c, 9, 69, 0
11, 5712, Note_on_c, 9, 69, 66
11, 5760, Note_on_c, 9, 69, 0
11, 5760, Note_on_c, 9, 54, 0
11, 5760, Note_on_c, 9, 35, 87
11, 5760, Note_on_c, 9, 69, 77
11, 5760, Note_on_c, 9, 54, 95
11, 5808, Note_on_c, 9, 69, 0
11, 5808, Note_on_c, 9, 35, 0
11, 5808, Note_on_c, 9, 69, 64
11, 5856, Note_on_c, 9, 69, 0
11, 5856, Note_on_c, 9, 69, 81
11, 5904, Note_on_c, 9, 69, 0
11, 5904, Note_on_c, 9, 69, 70
11, 5952, Note_on_c, 9, 69, 0
11, 5952, Note_on_c, 9, 54, 0
11, 5952, Note_on_c, 9, 35, 87
11, 5952, Note_on_c, 9, 69, 83
11, 5952, Note_on_c, 9, 54, 95
11, 6000, Note_on_c, 9, 69, 0
11, 6000, Note_on_c, 9, 35, 0
11, 6000, Note_on_c, 9, 69, 71
11, 6048, Note_on_c, 9, 69, 0
11, 6048, Note_on_c, 9, 69, 88
11, 6096, Note_on_c, 9, 69, 0
11, 6096, Note_on_c, 9, 69, 72
11, 6144, Note_on_c, 9, 69, 0
11, 6144, Note_on_c, 9, 35, 87
11, 6144, Note_on_c, 9, 69, 77
11, 6148, Note_on_c, 9, 54, 0
11, 6148, Note_on_c, 9, 54, 95
11, 6192, Note_on_c, 9, 69, 0
11, 6192, Note_on_c, 9, 35, 0
11, 6192, Note_on_c, 9, 69, 59
11, 6240, Note_on_c, 9, 69, 0
11, 6240, Note_on_c, 9, 69, 75
11, 6288, Note_on_c, 9, 69, 0
11, 6288, Note_on_c, 9, 69, 62
11, 6336, Note_on_c, 9, 69, 0
11, 6336, Note_on_c, 9, 54, 0
11, 6336, Note_on_c, 9, 35, 87
11, 6336, Note_on_c, 9, 69, 73
11, 6336, Note_on_c, 9, 54, 95
11, 6384, Note_on_c, 9, 69, 0
11, 6384, Note_on_c, 9, 35, 0
11, 6384, Note_on_c, 9, 69, 66
11, 6432, Note_on_c, 9, 69, 0
11, 6432, Note_on_c, 9, 69, 75
11, 6480, Note_on_c, 9, 69, 0
11, 6480, Note_on_c, 9, 69, 66
11, 6528, Note_on_c, 9, 69, 0
11, 6528, Note_on_c, 9, 54, 0
11, 6528, Note_on_c, 9, 35, 87
11, 6528, Note_on_c, 9, 69, 77
11, 6528, Note_on_c, 9, 54, 95
11, 6576, Note_on_c, 9, 69, 0
11, 6576, Note_on_c, 9, 35, 0
11, 6576, Note_on_c, 9, 69, 64
11, 6624, Note_on_c, 9, 69, 0
11, 6624, Note_on_c, 9, 69, 81
11, 6672, Note_on_c, 9, 69, 0
11, 6672, Note_on_c, 9, 69, 70
11, 6720, Note_on_c, 9, 69, 0
11, 6720, Note_on_c, 9, 54, 0
11, 6720, Note_on_c, 9, 35, 87
11, 6720, Note_on_c, 9, 69, 83
11, 6720, Note_on_c, 9, 54, 95
11, 6768, Note_on_c, 9, 69, 0
11, 6768, Note_on_c, 9, 35, 0
11, 6768, Note_on_c, 9, 69, 71
11, 6816, Note_on_c, 9, 69, 0
11, 6816, Note_on_c, 9, 69, 88
11, 6864, Note_on_c, 9, 69, 0
11, 6864, Note_on_c, 9, 69, 72
11, 6912, Note_on_c, 9, 69, 0
11, 6912, Note_on_c, 9, 35, 87
11, 6912, Note_on_c, 9, 69, 77
11, 6916, Note_on_c, 9, 54, 0
11, 6916, Note_on_c, 9, 54, 95
11, 6960, Note_on_c, 9, 69, 0
11, 6960, Note_on_c, 9, 35, 0
11, 6960, Note_on_c, 9, 69, 59
11, 7008, Note_on_c, 9, 69, 0
11, 7008, Note_on_c, 9, 69, 75
11, 7056, Note_on_c, 9, 69, 0
11, 7056, Note_on_c, 9, 69, 62
11, 7104, Note_on_c, 9, 69, 0
11, 7104, Note_on_c, 9, 54, 0
11, 7104, Note_on_c, 9, 35, 87
11, 7104, Note_on_c, 9, 69, 73
11, 7104, Note_on_c, 9, 54, 95
11, 7152, Note_on_c, 9, 69, 0
11, 7152, Note_on_c, 9, 35, 0
11, 7152, Note_on_c, 9, 69, 66
11, 7200, Note_on_c, 9, 69, 0
11, 7200, Note_on_c, 9, 69, 75
11, 7248, Note_on_c, 9, 69, 0
11, 7248, Note_on_c, 9, 69, 66
11, 7296, Note_on_c, 9, 69, 0
11, 7296, Note_on_c, 9, 54, 0
11, 7296, Note_on_c, 9, 69, 77
11, 7296, Note_on_c, 9, 54, 95
11, 7300, Note_on_c, 9, 35, 87
11, 7344, Note_on_c, 9, 35, 0
11, 7344, Note_on_c, 9, 69, 0
11, 7344, Note_on_c, 9, 69, 64
11, 7392, Note_on_c, 9, 69, 0
11, 7392, Note_on_c, 9, 69, 81
11, 7440, Note_on_c, 9, 69, 0
11, 7440, Note_on_c, 9, 69, 70
11, 7488, Note_on_c, 9, 69, 0
11, 7488, Note_on_c, 9, 35, 87
11, 7488, Note_on_c, 9, 69, 83
11, 7492, Note_on_c, 9, 54, 0
11, 7492, Note_on_c, 9, 54, 95
11, 7536, Note_on_c, 9, 69, 0
11, 7536, Note_on_c, 9, 35, 0
11, 7536, Note_on_c, 9, 69, 71
11, 7584, Note_on_c, 9, 69, 0
11, 7584, Note_on_c, 9, 69, 88
11, 7632, Note_on_c, 9, 69, 0
11, 7632, Note_on_c, 9, 69, 72
11, 7680, Note_on_c, 9, 69, 0
11, 7684, Note_on_c, 9, 54, 0
11, 7684, Note_on_c, 9, 35, 87
11, 7684, Note_on_c, 9, 54, 95
11, 7684, Note_on_c, 9, 69, 77
11, 7728, Note_on_c, 9, 69, 0
11, 7728, Note_on_c, 9, 35, 0
11, 7728, Note_on_c, 9, 69, 59
11, 7776, Note_on_c, 9, 69, 0
11, 7776, Note_on_c, 9, 69, 75
11, 7824, Note_on_c, 9, 69, 0
11, 7824, Note_on_c, 9, 69, 62
11, 7872, Note_on_c, 9, 69, 0
11, 7872, Note_on_c, 9, 54, 0
11, 7872, Note_on_c, 9, 35, 87
11, 7872, Note_on_c, 9, 69, 73
11, 7872, Note_on_c, 9, 54, 95
11, 7920, Note_on_c, 9, 69, 0
11, 7920, Note_on_c, 9, 35, 0
11, 7920, Note_on_c, 9, 69, 66
11, 7968, Note_on_c, 9, 69, 0
11, 7968, Note_on_c, 9, 69, 75
11, 8016, Note_on_c, 9, 69, 0
11, 8016, Note_on_c, 9, 69, 66
11, 8064, Note_on_c, 9, 69, 0
11, 8064, Note_on_c, 9, 54, 0
11, 8064, Note_on_c, 9, 49, 77
11, 8064, Note_on_c, 9, 35, 87
11, 8064, Note_on_c, 9, 69, 77
11, 8064, Note_on_c, 9, 54, 95
11, 8112, Note_on_c, 9, 69, 0
11, 8112, Note_on_c, 9, 49, 0
11, 8112, Note_on_c, 9, 35, 0
11, 8112, Note_on_c, 9, 69, 64
11, 8160, Note_on_c, 9, 69, 0
11, 8160, Note_on_c, 9, 69, 81
11, 8164, Note_on_c, 9, 54, 0
11, 8164, Note_on_c, 9, 38, 87
11, 8164, Note_on_c, 9, 54, 97
11, 8208, Note_on_c, 9, 38, 0
11, 8208, Note_on_c, 9, 69, 0
11, 8208, Note_on_c, 9, 69, 70
11, 8256, Note_on_c, 9, 69, 0
11, 8256, Note_on_c, 9, 35, 87
11, 8256, Note_on_c, 9, 69, 83
11, 8260, Note_on_c, 9, 54, 0
11, 8260, Note_on_c, 9, 54, 95
11, 8304, Note_on_c, 9, 69, 0
11, 8304, Note_on_c, 9, 35, 0
11, 8304, Note_on_c, 9, 69, 71
11, 8352, Note_on_c, 9, 69, 0
11, 8352, Note_on_c, 9, 54, 0
11, 8352, Note_on_c, 9, 54, 97
11, 8352, Note_on_c, 9, 69, 88
11, 8352, Note_on_c, 9, 38, 87
11, 8400, Note_on_c, 9, 38, 0
11, 8400, Note_on_c, 9, 69, 0
11, 8400, Note_on_c, 9, 69, 72
11, 8448, Note_on_c, 9, 69, 0
11, 8448, Note_on_c, 9, 35, 87
11, 8448, Note_on_c, 9, 69, 77
11, 8449, Note_on_c, 9, 54, 0
11, 8496, Note_on_c, 9, 69, 0
11, 8496, Note_on_c, 9, 35, 0
11, 8496, Note_on_c, 9, 69, 59
11, 8544, Note_on_c, 9, 69, 0
11, 8544, Note_on_c, 9, 69, 75
11, 8544, Note_on_c, 9, 54, 97
11, 8548, Note_on_c, 9, 38, 87
11, 8592, Note_on_c, 9, 38, 0
11, 8592, Note_on_c, 9, 69, 0
11, 8592, Note_on_c, 9, 69, 62
11, 8640, Note_on_c, 9, 69, 0
11, 8640, Note_on_c, 9, 54, 0
11, 8640, Note_on_c, 9, 35, 87
11, 8640, Note_on_c, 9, 69, 73
11, 8640, Note_on_c, 9, 54, 95
11, 8688, Note_on_c, 9, 69, 0
11, 8688, Note_on_c, 9, 35, 0
11, 8688, Note_on_c, 9, 69, 66
11, 8736, Note_on_c, 9, 69, 0
11, 8736, Note_on_c, 9, 69, 75
11, 8740, Note_on_c, 9, 54, 0
11, 8740, Note_on_c, 9, 38, 87
11, 8740, Note_on_c, 9, 54, 97
11, 8784, Note_on_c, 9, 38, 0
11, 8784, Note_on_c, 9, 69, 0
11, 8784, Note_on_c, 9, 69, 66
11, 8832, Note_on_c, 9, 69, 0
11, 8832, Note_on_c, 9, 54, 0
11, 8832, Note_on_c, 9, 35, 87
11, 8832, Note_on_c, 9, 69, 77
11, 8832, Note_on_c, 9, 54, 95
11, 8880, Note_on_c, 9, 69, 0
11, 8880, Note_on_c, 9, 35, 0
11, 8880, Note_on_c, 9, 69, 64
11, 8928, Note_on_c, 9, 69, 0
11, 8928, Note_on_c, 9, 54, 0
11, 8928, Note_on_c, 9, 69, 81
11, 8928, Note_on_c, 9, 54, 97
11, 8932, Note_on_c, 9, 38, 87
11, 8976, Note_on_c, 9, 38, 0
11, 8976, Note_on_c, 9, 69, 0
11, 8976, Note_on_c, 9, 69, 70
11, 9024, Note_on_c, 9, 69, 0
11, 9024, Note_on_c, 9, 54, 0
11, 9024, Note_on_c, 9, 35, 87
11, 9024, Note_on_c, 9, 69, 83
11, 9024, Note_on_c, 9, 54, 95
11, 9072, Note_on_c, 9, 69, 0
11, 9072, Note_on_c, 9, 35, 0
11, 9072, Note_on_c, 9, 69, 71
11, 9120, Note_on_c, 9, 69, 0
11, 9120, Note_on_c, 9, 69, 88
11, 9124, Note_on_c, 9, 54, 0
11, 9124, Note_on_c, 9, 38, 87
11, 9124, Note_on_c, 9, 54, 97
11, 9168, Note_on_c, 9, 38, 0
11, 9168, Note_on_c, 9, 69, 0
11, 9168, Note_on_c, 9, 69, 72
11, 9216, Note_on_c, 9, 69, 0
11, 9216, Note_on_c, 9, 35, 87
11, 9216, Note_on_c, 9, 69, 77
11, 9220, Note_on_c, 9, 54, 0
11, 9220, Note_on_c, 9, 54, 95
11, 9264, Note_on_c, 9, 69, 0
11, 9264, Note_on_c, 9, 35, 0
11, 9264, Note_on_c, 9, 69, 59
11, 9312, Note_on_c, 9, 69, 0
11, 9312, Note_on_c, 9, 54, 0
11, 9312, Note_on_c, 9, 69, 75
11, 9312, Note_on_c, 9, 54, 97
11, 9316, Note_on_c, 9, 38, 87
11, 9360, Note_on_c, 9, 38, 0
11, 9360, Note_on_c, 9, 69, 0
11, 9360, Note_on_c, 9, 69, 62
11, 9408, Note_on_c, 9, 69, 0
11, 9408, Note_on_c, 9, 54, 0
11, 9408, Note_on_c, 9, 35, 87
11, 9408, Note_on_c, 9, 69, 73
11, 9408, Note_on_c, 9, 54, 95
11, 9456, Note_on_c, 9, 69, 0
11, 9456, Note_on_c, 9, 35, 0
11, 9456, Note_on_c, 9, 69, 66
11, 9504, Note_on_c, 9, 69, 0
11, 9504, Note_on_c, 9, 54, 0
11, 9504, Note_on_c, 9, 69, 75
11, 9504, Note_on_c, 9, 54, 97
11, 9508, Note_on_c, 9, 38, 87
11, 9552, Note_on_c, 9, 38, 0
11, 9552, Note_on_c, 9, 69, 0
11, 9552, Note_on_c, 9, 69, 66
11, 9600, Note_on_c, 9, 69, 0
11, 9600, Note_on_c, 9, 54, 0
11, 9600, Note_on_c, 9, 35, 87
11, 9600, Note_on_c, 9, 69, 77
11, 9600, Note_on_c, 9, 54, 95
11, 9648, Note_on_c, 9, 69, 0
11, 9648, Note_on_c, 9, 35, 0
11, 9648, Note_on_c, 9, 69, 64
11, 9696, Note_on_c, 9, 69, 0
11, 9696, Note_on_c, 9, 54, 0
11, 9696, Note_on_c, 9, 54, 97
11, 9696, Note_on_c, 9, 38, 87
11, 9696, Note_on_c, 9, 69, 81
11, 9744, Note_on_c, 9, 69, 0
11, 9744, Note_on_c, 9, 38, 0
11, 9744, Note_on_c, 9, 69, 70
11, 9792, Note_on_c, 9, 69, 0
11, 9792, Note_on_c, 9, 54, 0
11, 9792, Note_on_c, 9, 35, 87
11, 9792, Note_on_c, 9, 69, 83
11, 9792, Note_on_c, 9, 54, 95
11, 9840, Note_on_c, 9, 69, 0
11, 9840, Note_on_c, 9, 35, 0
11, 9840, Note_on_c, 9, 69, 71
11, 9888, Note_on_c, 9, 69, 0
11, 9888, Note_on_c, 9, 69, 88
11, 9892, Note_on_c, 9, 54, 0
11, 9892, Note_on_c, 9, 38, 87
11, 9892, Note_on_c, 9, 54, 97
11, 9936, Note_on_c, 9, 38, 0
11, 9936, Note_on_c, 9, 69, 0
11, 9936, Note_on_c, 9, 69, 72
11, 9984, Note_on_c, 9, 69, 0
11, 9984, Note_on_c, 9, 35, 87
11, 9984, Note_on_c, 9, 69, 77
11, 9988, Note_on_c, 9, 54, 0
11, 9988, Note_on_c, 9, 54, 95
11, 10032, Note_on_c, 9, 69, 0
11, 10032, Note_on_c, 9, 35, 0
11, 10032, Note_on_c, 9, 69, 59
11, 10080, Note_on_c, 9, 69, 0
11, 10080, Note_on_c, 9, 54, 0
11, 10080, Note_on_c, 9, 69, 75
11, 10080, Note_on_c, 9, 54, 97
11, 10084, Note_on_c, 9, 38, 87
11, 10128, Note_on_c, 9, 38, 0
11, 10128, Note_on_c, 9, 69, 0
11, 10128, Note_on_c, 9, 69, 62
11, 10176, Note_on_c, 9, 69, 0
11, 10176, Note_on_c, 9, 54, 0
11, 10176, Note_on_c, 9, 35, 87
11, 10176, Note_on_c, 9, 69, 73
11, 10176, Note_on_c, 9, 54, 95
11, 10224, Note_on_c, 9, 69, 0
11, 10224, Note_on_c, 9, 35, 0
11, 10224, Note_on_c, 9, 69, 66
11, 10272, Note_on_c, 9, 69, 0
11, 10272, Note_on_c, 9, 69, 75
11, 10276, Note_on_c, 9, 54, 0
11, 10276, Note_on_c, 9, 38, 87
11, 10276, Note_on_c, 9, 54, 97
11, 10320, Note_on_c, 9, 38, 0
11, 10320, Note_on_c, 9, 69, 0
11, 10320, Note_on_c, 9, 69, 66
11, 10368, Note_on_c, 9, 69, 0
11, 10368, Note_on_c, 9, 54, 0
11, 10368, Note_on_c, 9, 35, 87
11, 10368, Note_on_c, 9, 69, 77
11, 10368, Note_on_c, 9, 54, 95
11, 10416, Note_on_c, 9, 69, 0
11, 10416, Note_on_c, 9, 35, 0
11, 10416, Note_on_c, 9, 69, 64
11, 10464, Note_on_c, 9, 69, 0
11, 10464, Note_on_c, 9, 69, 81
11, 10468, Note_on_c, 9, 54, 0
11, 10468, Note_on_c, 9, 38, 87
11, 10468, Note_on_c, 9, 54, 97
11, 10512, Note_on_c, 9, 38, 0
11, 10512, Note_on_c, 9, 69, 0
11, 10512, Note_on_c, 9, 69, 70
11, 10560, Note_on_c, 9, 69, 0
11, 10560, Note_on_c, 9, 35, 87
11, 10560, Note_on_c, 9, 69, 83
11, 10564, Note_on_c, 9, 54, 0
11, 10564, Note_on_c, 9, 54, 95
11, 10608, Note_on_c, 9, 69, 0
11, 10608, Note_on_c, 9, 35, 0
11, 10608, Note_on_c, 9, 69, 71
11, 10656, Note_on_c, 9, 69, 0
11, 10660, Note_on_c, 9, 54, 0
11, 10660, Note_on_c, 9, 38, 87
11, 10660, Note_on_c, 9, 54, 97
11, 10660, Note_on_c, 9, 69, 88
11, 10704, Note_on_c, 9, 69, 0
11, 10704, Note_on_c, 9, 38, 0
11, 10704, Note_on_c, 9, 69, 72
11, 10752, Note_on_c, 9, 69, 0
11, 10752, Note_on_c, 9, 35, 87
11, 10752, Note_on_c, 9, 69, 77
11, 10756, Note_on_c, 9, 54, 0
11, 10756, Note_on_c, 9, 54, 95
11, 10800, Note_on_c, 9, 69, 0
11, 10800, Note_on_c, 9, 35, 0
11, 10800, Note_on_c, 9, 69, 59
11, 10848, Note_on_c, 9, 69, 0
11, 10848, Note_on_c, 9, 54, 0
11, 10848, Note_on_c, 9, 54, 97
11, 10848, Note_on_c, 9, 38, 87
11, 10848, Note_on_c, 9, 69, 75
11, 10896, Note_on_c, 9, 69, 0
11, 10896, Note_on_c, 9, 38, 0
11, 10896, Note_on_c, 9, 69, 62
11, 10944, Note_on_c, 9, 69, 0
11, 10944, Note_on_c, 9, 54, 0
11, 10944, Note_on_c, 9, 35, 87
11, 10944, Note_on_c, 9, 69, 73
11, 10944, Note_on_c, 9, 54, 95
11, 10992, Note_on_c, 9, 69, 0
11, 10992, Note_on_c, 9, 35, 0
11, 10992, Note_on_c, 9, 69, 66
11, 11040, Note_on_c, 9, 69, 0
11, 11040, Note_on_c, 9, 69, 75
11, 11048, Note_on_c, 9, 54, 0
11, 11048, Note_on_c, 9, 38, 87
11, 11048, Note_on_c, 9, 54, 97
11, 11088, Note_on_c, 9, 38, 0
11, 11088, Note_on_c, 9, 69, 0
11, 11088, Note_on_c, 9, 69, 66
11, 11136, Note_on_c, 9, 69, 0
11, 11136, Note_on_c, 9, 54, 0
11, 11136, Note_on_c, 9, 35, 87
11, 11136, Note_on_c, 9, 69, 77
11, 11136, Note_on_c, 9, 54, 95
11, 11184, Note_on_c, 9, 69, 0
11, 11184, Note_on_c, 9, 35, 0
11, 11184, Note_on_c, 9, 69, 64
11, 11232, Note_on_c, 9, 69, 0
11, 11232, Note_on_c, 9, 69, 81
11, 11236, Note_on_c, 9, 54, 0
11, 11236, Note_on_c, 9, 54, 97
11, 11240, Note_on_c, 9, 38, 87
11, 11280, Note_on_c, 9, 38, 0
11, 11280, Note_on_c, 9, 69, 0
11, 11280, Note_on_c, 9, 69, 70
11, 11328, Note_on_c, 9, 69, 0
11, 11328, Note_on_c, 9, 54, 0
11, 11328, Note_on_c, 9, 35, 87
11, 11328, Note_on_c, 9, 69, 83
11, 11328, Note_on_c, 9, 54, 95
11, 11376, Note_on_c, 9, 69, 0
11, 11376, Note_on_c, 9, 35, 0
11, 11376, Note_on_c, 9, 69, 71
11, 11424, Note_on_c, 9, 69, 0
11, 11424, Note_on_c, 9, 69, 88
11, 11428, Note_on_c, 9, 54, 0
11, 11428, Note_on_c, 9, 38, 87
11, 11428, Note_on_c, 9, 54, 97
11, 11472, Note_on_c, 9, 38, 0
11, 11472, Note_on_c, 9, 69, 0
11, 11472, Note_on_c, 9, 69, 72
11, 11520, Note_on_c, 9, 69, 0
11, 11520, Note_on_c, 9, 35, 87
11, 11520, Note_on_c, 9, 69, 77
11, 11524, Note_on_c, 9, 54, 0
11, 11524, Note_on_c, 9, 54, 95
11, 11568, Note_on_c, 9, 69, 0
11, 11568, Note_on_c, 9, 35, 0
11, 11568, Note_on_c, 9, 69, 59
11, 11616, Note_on_c, 9, 69, 0
11, 11616, Note_on_c, 9, 54, 0
11, 11616, Note_on_c, 9, 54, 97
11, 11616, Note_on_c, 9, 69, 75
11, 11620, Note_on_c, 9, 38, 87
11, 11664, Note_on_c, 9, 38, 0
11, 11664, Note_on_c, 9, 69, 0
11, 11664, Note_on_c, 9, 69, 62
11, 11712, Note_on_c, 9, 69, 0
11, 11712, Note_on_c, 9, 54, 0
11, 11712, Note_on_c, 9, 69, 73
11, 11712, Note_on_c, 9, 54, 95
11, 11716, Note_on_c, 9, 35, 87
11, 11760, Note_on_c, 9, 35, 0
11, 11760, Note_on_c, 9, 69, 0
11, 11760, Note_on_c, 9, 69, 66
11, 11808, Note_on_c, 9, 69, 0
11, 11808, Note_on_c, 9, 69, 75
11, 11812, Note_on_c, 9, 54, 0
11, 11812, Note_on_c, 9, 38, 87
11, 11812, Note_on_c, 9, 54, 97
11, 11856, Note_on_c, 9, 38, 0
11, 11856, Note_on_c, 9, 69, 0
11, 11856, Note_on_c, 9, 69, 66
11, 11904, Note_on_c, 9, 69, 0
11, 11904, Note_on_c, 9, 54, 0
11, 11904, Note_on_c, 9, 35, 87
11, 11904, Note_on_c, 9, 69, 77
11, 11904, Note_on_c, 9, 54, 95
11, 11952, Note_on_c, 9, 69, 0
11, 11952, Note_on_c, 9, 35, 0
11, 11952, Note_on_c, 9, 69, 64
11, 12000, Note_on_c, 9, 69, 0
11, 12000, Note_on_c, 9, 69, 81
11, 12004, Note_on_c, 9, 54, 0
11, 12004, Note_on_c, 9, 38, 87
11, 12004, Note_on_c, 9, 54, 97
11, 12048, Note_on_c, 9, 38, 0
11, 12048, Note_on_c, 9, 69, 0
11, 12048, Note_on_c, 9, 69, 70
11, 12096, Note_on_c, 9, 69, 0
11, 12096, Note_on_c, 9, 35, 87
11, 12096, Note_on_c, 9, 69, 83
11, 12100, Note_on_c, 9, 54, 0
11, 12100, Note_on_c, 9, 54, 95
11, 12144, Note_on_c, 9, 69, 0
11, 12144, Note_on_c, 9, 35, 0
11, 12144, Note_on_c, 9, 69, 71
11, 12192, Note_on_c, 9, 69, 0
11, 12192, Note_on_c, 9, 54, 0
11, 12192, Note_on_c, 9, 69, 88
11, 12192, Note_on_c, 9, 54, 97
11, 12196, Note_on_c, 9, 38, 87
11, 12240, Note_on_c, 9, 38, 0
11, 12240, Note_on_c, 9, 69, 0
11, 12240, Note_on_c, 9, 69, 72
11, 12288, Note_on_c, 9, 69, 0
11, 12288, Note_on_c, 9, 35, 87
11, 12288, Note_on_c, 9, 69, 77
11, 12289, Note_on_c, 9, 54, 0
11, 12336, Note_on_c, 9, 69, 0
11, 12336, Note_on_c, 9, 35, 0
11, 12336, Note_on_c, 9, 69, 59
11, 12384, Note_on_c, 9, 69, 0
11, 12384, Note_on_c, 9, 69, 75
11, 12388, Note_on_c, 9, 54, 97
11, 12392, Note_on_c, 9, 38, 87
11, 12432, Note_on_c, 9, 38, 0
11, 12432, Note_on_c, 9, 69, 0
11, 12432, Note_on_c, 9, 69, 62
11, 12480, Note_on_c, 9, 69, 0
11, 12480, Note_on_c, 9, 54, 0
11, 12480, Note_on_c, 9, 35, 87
11, 12480, Note_on_c, 9, 69, 73
11, 12480, Note_on_c, 9, 54, 95
11, 12528, Note_on_c, 9, 69, 0
11, 12528, Note_on_c, 9, 35, 0
11, 12528, Note_on_c, 9, 69, 66
11, 12576, Note_on_c, 9, 69, 0
11, 12576, Note_on_c, 9, 69, 75
11, 12580, Note_on_c, 9, 54, 0
11, 12580, Note_on_c, 9, 38, 87
11, 12580, Note_on_c, 9, 54, 97
11, 12624, Note_on_c, 9, 38, 0
11, 12624, Note_on_c, 9, 69, 0
11, 12624, Note_on_c, 9, 69, 66
11, 12672, Note_on_c, 9, 69, 0
11, 12672, Note_on_c, 9, 54, 0
11, 12672, Note_on_c, 9, 35, 87
11, 12672, Note_on_c, 9, 69, 77
11, 12672, Note_on_c, 9, 54, 95
11, 12720, Note_on_c, 9, 69, 0
11, 12720, Note_on_c, 9, 35, 0
11, 12720, Note_on_c, 9, 69, 64
11, 12768, Note_on_c, 9, 69, 0
11, 12768, Note_on_c, 9, 54, 0
11, 12768, Note_on_c, 9, 54, 97
11, 12768, Note_on_c, 9, 69, 81
11, 12768, Note_on_c, 9, 38, 87
11, 12816, Note_on_c, 9, 38, 0
11, 12816, Note_on_c, 9, 69, 0
11, 12816, Note_on_c, 9, 69, 70
11, 12864, Note_on_c, 9, 69, 0
11, 12864, Note_on_c, 9, 54, 0
11, 12864, Note_on_c, 9, 35, 87
11, 12864, Note_on_c, 9, 69, 83
11, 12864, Note_on_c, 9, 54, 95
11, 12912, Note_on_c, 9, 69, 0
11, 12912, Note_on_c, 9, 35, 0
11, 12912, Note_on_c, 9, 69, 71
11, 12960, Note_on_c, 9, 69, 0
11, 12960, Note_on_c, 9, 54, 0
11, 12960, Note_on_c, 9, 69, 88
11, 12960, Note_on_c, 9, 54, 97
11, 12964, Note_on_c, 9, 38, 87
11, 13008, Note_on_c, 9, 38, 0
11, 13008, Note_on_c, 9, 69, 0
11, 13008, Note_on_c, 9, 69, 72
11, 13056, Note_on_c, 9, 69, 0
11, 13056, Note_on_c, 9, 35, 87
11, 13056, Note_on_c, 9, 69, 77
11, 13060, Note_on_c, 9, 54, 0
11, 13060, Note_on_c, 9, 54, 95
11, 13104, Note_on_c, 9, 69, 0
11, 13104, Note_on_c, 9, 35, 0
11, 13104, Note_on_c, 9, 69, 59
11, 13152, Note_on_c, 9, 69, 0
11, 13152, Note_on_c, 9, 54, 0
11, 13152, Note_on_c, 9, 69, 75
11, 13152, Note_on_c, 9, 54, 97
11, 13156, Note_on_c, 9, 38, 87
11, 13200, Note_on_c, 9, 38, 0
11, 13200, Note_on_c, 9, 69, 0
11, 13200, Note_on_c, 9, 69, 62
11, 13248, Note_on_c, 9, 69, 0
11, 13248, Note_on_c, 9, 54, 0
11, 13248, Note_on_c, 9, 35, 87
11, 13248, Note_on_c, 9, 69, 73
11, 13248, Note_on_c, 9, 54, 95
11, 13296, Note_on_c, 9, 69, 0
11, 13296, Note_on_c, 9, 35, 0
11, 13296, Note_on_c, 9, 69, 66
11, 13344, Note_on_c, 9, 69, 0
11, 13344, Note_on_c, 9, 69, 75
11, 13348, Note_on_c, 9, 54, 0
11, 13348, Note_on_c, 9, 38, 87
11, 13348, Note_on_c, 9, 54, 97
11, 13392, Note_on_c, 9, 38, 0
11, 13392, Note_on_c, 9, 69, 0
11, 13392, Note_on_c, 9, 69, 66
11, 13440, Note_on_c, 9, 69, 0
11, 13440, Note_on_c, 9, 54, 0
11, 13440, Note_on_c, 9, 35, 87
11, 13440, Note_on_c, 9, 69, 77
11, 13440, Note_on_c, 9, 54, 95
11, 13488, Note_on_c, 9, 69, 0
11, 13488, Note_on_c, 9, 35, 0
11, 13488, Note_on_c, 9, 69, 64
11, 13536, Note_on_c, 9, 69, 0
11, 13536, Note_on_c, 9, 54, 0
11, 13536, Note_on_c, 9, 54, 97
11, 13536, Note_on_c, 9, 38, 87
11, 13536, Note_on_c, 9, 69, 81
11, 13584, Note_on_c, 9, 69, 0
11, 13584, Note_on_c, 9, 38, 0
11, 13584, Note_on_c, 9, 69, 70
11, 13632, Note_on_c, 9, 69, 0
11, 13632, Note_on_c, 9, 54, 0
11, 13632, Note_on_c, 9, 35, 87
11, 13632, Note_on_c, 9, 69, 83
11, 13632, Note_on_c, 9, 54, 95
11, 13680, Note_on_c, 9, 69, 0
11, 13680, Note_on_c, 9, 35, 0
11, 13680, Note_on_c, 9, 69, 71
11, 13728, Note_on_c, 9, 69, 0
11, 13728, Note_on_c, 9, 69, 88
11, 13732, Note_on_c, 9, 54, 0
11, 13732, Note_on_c, 9, 38, 87
11, 13732, Note_on_c, 9, 54, 97
11, 13776, Note_on_c, 9, 38, 0
11, 13776, Note_on_c, 9, 69, 0
11, 13776, Note_on_c, 9, 69, 72
11, 13824, Note_on_c, 9, 69, 0
11, 13824, Note_on_c, 9, 35, 87
11, 13828, Note_on_c, 9, 54, 0
11, 13828, Note_on_c, 9, 54, 95
11, 13828, Note_on_c, 9, 69, 77
11, 13872, Note_on_c, 9, 69, 0
11, 13872, Note_on_c, 9, 35, 0
11, 13872, Note_on_c, 9, 69, 59
11, 13920, Note_on_c, 9, 69, 0
11, 13920, Note_on_c, 9, 54, 0
11, 13920, Note_on_c, 9, 54, 97
11, 13920, Note_on_c, 9, 38, 87
11, 13920, Note_on_c, 9, 69, 75
11, 13968, Note_on_c, 9, 69, 0
11, 13968, Note_on_c, 9, 38, 0
11, 13968, Note_on_c, 9, 69, 62
11, 14016, Note_on_c, 9, 69, 0
11, 14016, Note_on_c, 9, 54, 0
11, 14016, Note_on_c, 9, 35, 87
11, 14016, Note_on_c, 9, 69, 73
11, 14016, Note_on_c, 9, 54, 95
11, 14064, Note_on_c, 9, 69, 0
11, 14064, Note_on_c, 9, 35, 0
11, 14064, Note_on_c, 9, 69, 66
11, 14112, Note_on_c, 9, 69, 0
11, 14112, Note_on_c, 9, 54, 0
11, 14112, Note_on_c, 9, 54, 97
11, 14112, Note_on_c, 9, 38, 87
11, 14112, Note_on_c, 9, 69, 75
11, 14160, Note_on_c, 9, 69, 0
11, 14160, Note_on_c, 9, 38, 0
11, 14160, Note_on_c, 9, 69, 66
11, 14208, Note_on_c, 9, 69, 0
11, 14208, Note_on_c, 9, 54, 0
11, 14208, Note_on_c, 9, 49, 77
11, 14208, Note_on_c, 9, 35, 87
11, 14208, Note_on_c, 9, 69, 77
11, 14208, Note_on_c, 9, 54, 95
11, 14256, Note_on_c, 9, 69, 0
11, 14256, Note_on_c, 9, 49, 0
11, 14260, Note_on_c, 9, 35, 0
11, 14260, Note_on_c, 9, 69, 64
11, 14304, Note_on_c, 9, 69, 0
11, 14304, Note_on_c, 9, 54, 0
11, 14304, Note_on_c, 9, 54, 97
11, 14304, Note_on_c, 9, 38, 87
11, 14304, Note_on_c, 9, 69, 81
11, 14352, Note_on_c, 9, 69, 0
11, 14352, Note_on_c, 9, 38, 0
11, 14352, Note_on_c, 9, 69, 70
11, 14400, Note_on_c, 9, 69, 0
11, 14400, Note_on_c, 9, 54, 0
11, 14400, Note_on_c, 9, 35, 87
11, 14400, Note_on_c, 9, 69, 83
11, 14400, Note_on_c, 9, 54, 95
11, 14448, Note_on_c, 9, 69, 0
11, 14448, Note_on_c, 9, 35, 0
11, 14448, Note_on_c, 9, 69, 71
11, 14496, Note_on_c, 9, 69, 0
11, 14496, Note_on_c, 9, 54, 0
11, 14496, Note_on_c, 9, 69, 88
11, 14496, Note_on_c, 9, 54, 97
11, 14500, Note_on_c, 9, 38, 87
11, 14544, Note_on_c, 9, 38, 0
11, 14544, Note_on_c, 9, 69, 0
11, 14544, Note_on_c, 9, 69, 72
11, 14592, Note_on_c, 9, 69, 0
11, 14592, Note_on_c, 9, 35, 87
11, 14592, Note_on_c, 9, 69, 77
11, 14596, Note_on_c, 9, 54, 0
11, 14596, Note_on_c, 9, 54, 95
11, 14640, Note_on_c, 9, 69, 0
11, 14640, Note_on_c, 9, 35, 0
11, 14640, Note_on_c, 9, 69, 59
11, 14688, Note_on_c, 9, 69, 0
11, 14688, Note_on_c, 9, 54, 0
11, 14688, Note_on_c, 9, 54, 97
11, 14688, Note_on_c, 9, 69, 75
11, 14692, Note_on_c, 9, 38, 87
11, 14736, Note_on_c, 9, 38, 0
11, 14736, Note_on_c, 9, 69, 0
11, 14736, Note_on_c, 9, 69, 62
11, 14784, Note_on_c, 9, 69, 0
11, 14784, Note_on_c, 9, 35, 87
11, 14784, Note_on_c, 9, 69, 73
11, 14788, Note_on_c, 9, 54, 0
11, 14788, Note_on_c, 9, 54, 95
11, 14832, Note_on_c, 9, 69, 0
11, 14832, Note_on_c, 9, 35, 0
11, 14832, Note_on_c, 9, 69, 66
11, 14880, Note_on_c, 9, 69, 0
11, 14880, Note_on_c, 9, 54, 0
11, 14880, Note_on_c, 9, 54, 97
11, 14880, Note_on_c, 9, 69, 75
11, 14884, Note_on_c, 9, 38, 87
11, 14928, Note_on_c, 9, 38, 0
11, 14928, Note_on_c, 9, 69, 0
11, 14928, Note_on_c, 9, 69, 66
11, 14976, Note_on_c, 9, 69, 0
11, 14976, Note_on_c, 9, 54, 0
11, 14976, Note_on_c, 9, 35, 87
11, 14976, Note_on_c, 9, 69, 77
11, 14976, Note_on_c, 9, 54, 95
11, 15024, Note_on_c, 9, 69, 0
11, 15024, Note_on_c, 9, 35, 0
11, 15024, Note_on_c, 9, 69, 64
11, 15072, Note_on_c, 9, 69, 0
11, 15072, Note_on_c, 9, 54, 0
11, 15072, Note_on_c, 9, 54, 97
11, 15072, Note_on_c, 9, 69, 81
11, 15076, Note_on_c, 9, 38, 87
11, 15120, Note_on_c, 9, 38, 0
11, 15120, Note_on_c, 9, 69, 0
11, 15120, Note_on_c, 9, 69, 70
11, 15168, Note_on_c, 9, 69, 0
11, 15168, Note_on_c, 9, 54, 0
11, 15168, Note_on_c, 9, 35, 87
11, 15168, Note_on_c, 9, 69, 83
11, 15168, Note_on_c, 9, 54, 95
11, 15216, Note_on_c, 9, 69, 0
11, 15216, Note_on_c, 9, 35, 0
11, 15216, Note_on_c, 9, 69, 71
11, 15264, Note_on_c, 9, 69, 0
11, 15264, Note_on_c, 9, 54, 0
11, 15264, Note_on_c, 9, 69, 88
11, 15264, Note_on_c, 9, 54, 97
11, 15268, Note_on_c, 9, 38, 87
11, 15312, Note_on_c, 9, 38, 0
11, 15312, Note_on_c, 9, 69, 0
11, 15312, Note_on_c, 9, 69, 72
11, 15360, Note_on_c, 9, 69, 0
11, 15360, Note_on_c, 9, 35, 87
11, 15360, Note_on_c, 9, 69, 77
11, 15361, Note_on_c, 9, 54, 0
11, 15408, Note_on_c, 9, 69, 0
11, 15408, Note_on_c, 9, 35, 0
11, 15408, Note_on_c, 9, 69, 59
11, 15456, Note_on_c, 9, 69, 0
11, 15456, Note_on_c, 9, 69, 75
11, 15456, Note_on_c, 9, 54, 97
11, 15460, Note_on_c, 9, 38, 87
11, 15504, Note_on_c, 9, 38, 0
11, 15504, Note_on_c, 9, 69, 0
11, 15504, Note_on_c, 9, 69, 62
11, 15552, Note_on_c, 9, 69, 0
11, 15552, Note_on_c, 9, 54, 0
11, 15552, Note_on_c, 9, 35, 87
11, 15552, Note_on_c, 9, 69, 73
11, 15552, Note_on_c, 9, 54, 95
11, 15600, Note_on_c, 9, 69, 0
11, 15600, Note_on_c, 9, 35, 0
11, 15600, Note_on_c, 9, 69, 66
11, 15648, Note_on_c, 9, 69, 0
11, 15648, Note_on_c, 9, 54, 0
11, 15648, Note_on_c, 9, 69, 75
11, 15648, Note_on_c, 9, 54, 97
11, 15652, Note_on_c, 9, 38, 87
11, 15696, Note_on_c, 9, 38, 0
11, 15696, Note_on_c, 9, 69, 0
11, 15696, Note_on_c, 9, 69, 66
11, 15744, Note_on_c, 9, 69, 0
11, 15744, Note_on_c, 9, 54, 0
11, 15744, Note_on_c, 9, 35, 87
11, 15744, Note_on_c, 9, 69, 77
11, 15744, Note_on_c, 9, 54, 95
11, 15792, Note_on_c, 9, 69, 0
11, 15792, Note_on_c, 9, 35, 0
11, 15792, Note_on_c, 9, 69, 64
11, 15840, Note_on_c, 9, 69, 0
11, 15840, Note_on_c, 9, 54, 0
11, 15840, Note_on_c, 9, 54, 97
11, 15840, Note_on_c, 9, 38, 87
11, 15840, Note_on_c, 9, 69, 81
11, 15888, Note_on_c, 9, 69, 0
11, 15888, Note_on_c, 9, 38, 0
11, 15888, Note_on_c, 9, 69, 70
11, 15936, Note_on_c, 9, 69, 0
11, 15936, Note_on_c, 9, 54, 0
11, 15936, Note_on_c, 9, 35, 87
11, 15936, Note_on_c, 9, 69, 83
11, 15936, Note_on_c, 9, 54, 95
11, 15984, Note_on_c, 9, 69, 0
11, 15984, Note_on_c, 9, 35, 0
11, 15984, Note_on_c, 9, 69, 71
11, 16032, Note_on_c, 9, 69, 0
11, 16032, Note_on_c, 9, 54, 0
11, 16032, Note_on_c, 9, 69, 88
11, 16032, Note_on_c, 9, 54, 97
11, 16036, Note_on_c, 9, 38, 87
11, 16080, Note_on_c, 9, 38, 0
11, 16080, Note_on_c, 9, 69, 0
11, 16080, Note_on_c, 9, 69, 72
11, 16128, Note_on_c, 9, 69, 0
11, 16128, Note_on_c, 9, 35, 87
11, 16128, Note_on_c, 9, 69, 77
11, 16129, Note_on_c, 9, 54, 0
11, 16176, Note_on_c, 9, 69, 0
11, 16176, Note_on_c, 9, 35, 0
11, 16176, Note_on_c, 9, 69, 59
11, 16224, Note_on_c, 9, 69, 0
11, 16224, Note_on_c, 9, 54, 97
11, 16224, Note_on_c, 9, 38, 87
11, 16224, Note_on_c, 9, 69, 75
11, 16272, Note_on_c, 9, 69, 0
11, 16272, Note_on_c, 9, 38, 0
11, 16272, Note_on_c, 9, 69, 62
11, 16320, Note_on_c, 9, 69, 0
11, 16320, Note_on_c, 9, 69, 73
11, 16324, Note_on_c, 9, 54, 0
11, 16324, Note_on_c, 9, 35, 87
11, 16324, Note_on_c, 9, 54, 95
11, 16368, Note_on_c, 9, 35, 0
11, 16368, Note_on_c, 9, 69, 0
11, 16368, Note_on_c, 9, 69, 66
11, 16416, Note_on_c, 9, 69, 0
11, 16420, Note_on_c, 9, 54, 0
11, 16420, Note_on_c, 9, 54, 97
11, 16420, Note_on_c, 9, 38, 87
11, 16420, Note_on_c, 9, 69, 75
11, 16464, Note_on_c, 9, 69, 0
11, 16464, Note_on_c, 9, 38, 0
11, 16464, Note_on_c, 9, 69, 66
11, 16512, Note_on_c, 9, 69, 0
11, 16512, Note_on_c, 9, 69, 77
11, 16516, Note_on_c, 9, 54, 0
11, 16516, Note_on_c, 9, 35, 87
11, 16516, Note_on_c, 9, 54, 95
11, 16560, Note_on_c, 9, 35, 0
11, 16560, Note_on_c, 9, 69, 0
11, 16560, Note_on_c, 9, 69, 64
11, 16608, Note_on_c, 9, 69, 0
11, 16608, Note_on_c, 9, 69, 81
11, 16612, Note_on_c, 9, 54, 0
11, 16612, Note_on_c, 9, 38, 87
11, 16612, Note_on_c, 9, 54, 97
11, 16656, Note_on_c, 9, 38, 0
11, 16656, Note_on_c, 9, 69, 0
11, 16656, Note_on_c, 9, 69, 70
11, 16704, Note_on_c, 9, 69, 0
11, 16704, Note_on_c, 9, 54, 0
11, 16704, Note_on_c, 9, 35, 87
11, 16704, Note_on_c, 9, 69, 83
11, 16704, Note_on_c, 9, 54, 95
11, 16752, Note_on_c, 9, 69, 0
11, 16752, Note_on_c, 9, 35, 0
11, 16752, Note_on_c, 9, 69, 71
11, 16800, Note_on_c, 9, 69, 0
11, 16800, Note_on_c, 9, 69, 88
11, 16804, Note_on_c, 9, 54, 0
11, 16804, Note_on_c, 9, 38, 87
11, 16804, Note_on_c, 9, 54, 97
11, 16848, Note_on_c, 9, 38, 0
11, 16848, Note_on_c, 9, 69, 0
11, 16848, Note_on_c, 9, 69, 72
11, 16896, Note_on_c, 9, 69, 0
11, 16896, Note_on_c, 9, 35, 87
11, 16900, Note_on_c, 9, 54, 0
11, 16900, Note_on_c, 9, 54, 95
11, 16900, Note_on_c, 9, 69, 77
11, 16944, Note_on_c, 9, 69, 0
11, 16944, Note_on_c, 9, 35, 0
11, 16944, Note_on_c, 9, 69, 59
11, 16992, Note_on_c, 9, 69, 0
11, 16992, Note_on_c, 9, 54, 0
11, 16992, Note_on_c, 9, 54, 97
11, 16992, Note_on_c, 9, 69, 75
11, 16992, Note_on_c, 9, 38, 87
11, 17040, Note_on_c, 9, 38, 0
11, 17040, Note_on_c, 9, 69, 0
11, 17040, Note_on_c, 9, 69, 62
11, 17088, Note_on_c, 9, 69, 0
11, 17088, Note_on_c, 9, 54, 0
11, 17088, Note_on_c, 9, 35, 87
11, 17088, Note_on_c, 9, 69, 73
11, 17088, Note_on_c, 9, 54, 95
11, 17136, Note_on_c, 9, 69, 0
11, 17136, Note_on_c, 9, 35, 0
11, 17136, Note_on_c, 9, 69, 66
11, 17184, Note_on_c, 9, 69, 0
11, 17184, Note_on_c, 9, 54, 0
11, 17184, Note_on_c, 9, 54, 97
11, 17184, Note_on_c, 9, 69, 75
11, 17184, Note_on_c, 9, 38, 87
11, 17232, Note_on_c, 9, 38, 0
11, 17232, Note_on_c, 9, 69, 0
11, 17232, Note_on_c, 9, 69, 66
11, 17280, Note_on_c, 9, 69, 0
11, 17280, Note_on_c, 9, 54, 0
11, 17280, Note_on_c, 9, 35, 87
11, 17280, Note_on_c, 9, 69, 77
11, 17280, Note_on_c, 9, 54, 95
11, 17328, Note_on_c, 9, 69, 0
11, 17328, Note_on_c, 9, 35, 0
11, 17328, Note_on_c, 9, 69, 64
11, 17376, Note_on_c, 9, 69, 0
11, 17376, Note_on_c, 9, 54, 0
11, 17376, Note_on_c, 9, 54, 97
11, 17376, Note_on_c, 9, 38, 87
11, 17376, Note_on_c, 9, 69, 81
11, 17424, Note_on_c, 9, 69, 0
11, 17424, Note_on_c, 9, 38, 0
11, 17424, Note_on_c, 9, 69, 70
11, 17472, Note_on_c, 9, 69, 0
11, 17472, Note_on_c, 9, 54, 0
11, 17472, Note_on_c, 9, 35, 87
11, 17472, Note_on_c, 9, 69, 83
11, 17472, Note_on_c, 9, 54, 95
11, 17520, Note_on_c, 9, 69, 0
11, 17520, Note_on_c, 9, 35, 0
11, 17520, Note_on_c, 9, 69, 71
11, 17568, Note_on_c, 9, 69, 0
11, 17568, Note_on_c, 9, 54, 0
11, 17568, Note_on_c, 9, 54, 97
11, 17568, Note_on_c, 9, 38, 87
11, 17568, Note_on_c, 9, 69, 88
11, 17616, Note_on_c, 9, 69, 0
11, 17616, Note_on_c, 9, 38, 0
11, 17616, Note_on_c, 9, 69, 72
11, 17664, Note_on_c, 9, 69, 0
11, 17664, Note_on_c, 9, 35, 87
11, 17668, Note_on_c, 9, 54, 0
11, 17668, Note_on_c, 9, 54, 95
11, 17668, Note_on_c, 9, 69, 77
11, 17712, Note_on_c, 9, 69, 0
11, 17712, Note_on_c, 9, 35, 0
11, 17712, Note_on_c, 9, 69, 59
11, 17760, Note_on_c, 9, 69, 0
11, 17760, Note_on_c, 9, 54, 0
11, 17760, Note_on_c, 9, 54, 97
11, 17760, Note_on_c, 9, 38, 87
11, 17760, Note_on_c, 9, 69, 75
11, 17808, Note_on_c, 9, 69, 0
11, 17808, Note_on_c, 9, 38, 0
11, 17808, Note_on_c, 9, 69, 62
11, 17856, Note_on_c, 9, 69, 0
11, 17856, Note_on_c, 9, 54, 0
11, 17856, Note_on_c, 9, 35, 87
11, 17856, Note_on_c, 9, 69, 73
11, 17856, Note_on_c, 9, 54, 95
11, 17904, Note_on_c, 9, 69, 0
11, 17904, Note_on_c, 9, 35, 0
11, 17904, Note_on_c, 9, 69, 66
11, 17952, Note_on_c, 9, 69, 0
11, 17952, Note_on_c, 9, 54, 0
11, 17952, Note_on_c, 9, 69, 75
11, 17952, Note_on_c, 9, 54, 97
11, 17956, Note_on_c, 9, 38, 87
11, 18000, Note_on_c, 9, 38, 0
11, 18000, Note_on_c, 9, 69, 0
11, 18000, Note_on_c, 9, 69, 66
11, 18048, Note_on_c, 9, 69, 0
11, 18048, Note_on_c, 9, 54, 0
11, 18048, Note_on_c, 9, 35, 87
11, 18048, Note_on_c, 9, 69, 77
11, 18048, Note_on_c, 9, 54, 95
11, 18096, Note_on_c, 9, 69, 0
11, 18096, Note_on_c, 9, 35, 0
11, 18096, Note_on_c, 9, 69, 64
11, 18144, Note_on_c, 9, 69, 0
11, 18144, Note_on_c, 9, 54, 0
11, 18144, Note_on_c, 9, 54, 97
11, 18144, Note_on_c, 9, 38, 87
11, 18144, Note_on_c, 9, 69, 81
11, 18192, Note_on_c, 9, 69, 0
11, 18192, Note_on_c, 9, 38, 0
11, 18192, Note_on_c, 9, 69, 70
11, 18240, Note_on_c, 9, 69, 0
11, 18240, Note_on_c, 9, 54, 0
11, 18240, Note_on_c, 9, 35, 87
11, 18240, Note_on_c, 9, 69, 83
11, 18240, Note_on_c, 9, 54, 95
11, 18288, Note_on_c, 9, 69, 0
11, 18288, Note_on_c, 9, 35, 0
11, 18288, Note_on_c, 9, 69, 71
11, 18336, Note_on_c, 9, 69, 0
11, 18336, Note_on_c, 9, 69, 88
11, 18340, Note_on_c, 9, 54, 0
11, 18340, Note_on_c, 9, 38, 87
11, 18340, Note_on_c, 9, 54, 97
11, 18384, Note_on_c, 9, 38, 0
11, 18384, Note_on_c, 9, 69, 0
11, 18384, Note_on_c, 9, 69, 72
11, 18432, Note_on_c, 9, 69, 0
11, 18432, Note_on_c, 9, 35, 87
11, 18432, Note_on_c, 9, 69, 77
11, 18436, Note_on_c, 9, 54, 0
11, 18436, Note_on_c, 9, 54, 95
11, 18480, Note_on_c, 9, 69, 0
11, 18480, Note_on_c, 9, 35, 0
11, 18480, Note_on_c, 9, 69, 59
11, 18528, Note_on_c, 9, 69, 0
11, 18528, Note_on_c, 9, 54, 0
11, 18528, Note_on_c, 9, 69, 75
11, 18528, Note_on_c, 9, 54, 97
11, 18532, Note_on_c, 9, 38, 87
11, 18576, Note_on_c, 9, 38, 0
11, 18576, Note_on_c, 9, 69, 0
11, 18576, Note_on_c, 9, 69, 62
11, 18624, Note_on_c, 9, 69, 0
11, 18624, Note_on_c, 9, 54, 0
11, 18624, Note_on_c, 9, 35, 87
11, 18624, Note_on_c, 9, 69, 73
11, 18624, Note_on_c, 9, 54, 95
11, 18672, Note_on_c, 9, 69, 0
11, 18672, Note_on_c, 9, 35, 0
11, 18672, Note_on_c, 9, 69, 66
11, 18720, Note_on_c, 9, 69, 0
11, 18720, Note_on_c, 9, 69, 75
11, 18724, Note_on_c, 9, 54, 0
11, 18724, Note_on_c, 9, 38, 87
11, 18724, Note_on_c, 9, 54, 97
11, 18768, Note_on_c, 9, 38, 0
11, 18768, Note_on_c, 9, 69, 0
11, 18768, Note_on_c, 9, 69, 66
11, 18816, Note_on_c, 9, 69, 0
11, 18816, Note_on_c, 9, 54, 0
11, 18816, Note_on_c, 9, 35, 87
11, 18816, Note_on_c, 9, 69, 77
11, 18816, Note_on_c, 9, 54, 95
11, 18864, Note_on_c, 9, 69, 0
11, 18864, Note_on_c, 9, 35, 0
11, 18864, Note_on_c, 9, 69, 64
11, 18912, Note_on_c, 9, 69, 0
11, 18912, Note_on_c, 9, 54, 0
11, 18912, Note_on_c, 9, 54, 97
11, 18912, Note_on_c, 9, 69, 81
11, 18916, Note_on_c, 9, 38, 87
11, 18960, Note_on_c, 9, 38, 0
11, 18960, Note_on_c, 9, 69, 0
11, 18960, Note_on_c, 9, 69, 70
11, 19008, Note_on_c, 9, 69, 0
11, 19008, Note_on_c, 9, 54, 0
11, 19008, Note_on_c, 9, 35, 87
11, 19008, Note_on_c, 9, 69, 83
11, 19008, Note_on_c, 9, 54, 95
11, 19056, Note_on_c, 9, 69, 0
11, 19056, Note_on_c, 9, 35, 0
11, 19056, Note_on_c, 9, 69, 71
11, 19104, Note_on_c, 9, 69, 0
11, 19104, Note_on_c, 9, 54, 0
11, 19104, Note_on_c, 9, 69, 88
11, 19104, Note_on_c, 9, 54, 97
11, 19108, Note_on_c, 9, 38, 87
11, 19152, Note_on_c, 9, 38, 0
11, 19152, Note_on_c, 9, 69, 0
11, 19152, Note_on_c, 9, 69, 72
11, 19204, Note_on_c, 9, 69, 0
11, 19204, Note_on_c, 9, 54, 0
11, 19204, Note_on_c, 9, 35, 87
11, 19204, Note_on_c, 9, 54, 95
11, 19204, Note_on_c, 9, 69, 77
11, 19248, Note_on_c, 9, 69, 0
11, 19248, Note_on_c, 9, 35, 0
11, 19248, Note_on_c, 9, 69, 59
11, 19296, Note_on_c, 9, 69, 0
11, 19296, Note_on_c, 9, 69, 75
11, 19300, Note_on_c, 9, 54, 0
11, 19300, Note_on_c, 9, 38, 87
11, 19300, Note_on_c, 9, 54, 97
11, 19344, Note_on_c, 9, 38, 0
11, 19344, Note_on_c, 9, 69, 0
11, 19344, Note_on_c, 9, 69, 62
11, 19392, Note_on_c, 9, 69, 0
11, 19392, Note_on_c, 9, 54, 0
11, 19392, Note_on_c, 9, 69, 73
11, 19392, Note_on_c, 9, 54, 95
11, 19396, Note_on_c, 9, 35, 87
11, 19440, Note_on_c, 9, 35, 0
11, 19440, Note_on_c, 9, 69, 0
11, 19440, Note_on_c, 9, 69, 66
11, 19488, Note_on_c, 9, 69, 0
11, 19488, Note_on_c, 9, 54, 0
11, 19488, Note_on_c, 9, 69, 75
11, 19488, Note_on_c, 9, 54, 97
11, 19492, Note_on_c, 9, 38, 87
11, 19536, Note_on_c, 9, 38, 0
11, 19536, Note_on_c, 9, 69, 0
11, 19536, Note_on_c, 9, 69, 66
11, 19584, Note_on_c, 9, 69, 0
11, 19584, Note_on_c, 9, 54, 0
11, 19584, Note_on_c, 9, 35, 87
11, 19584, Note_on_c, 9, 69, 77
11, 19584, Note_on_c, 9, 54, 95
11, 19632, Note_on_c, 9, 35, 0
11, 19636, Note_on_c, 9, 69, 0
11, 19636, Note_on_c, 9, 69, 64
11, 19680, Note_on_c, 9, 69, 0
11, 19680, Note_on_c, 9, 54, 0
11, 19680, Note_on_c, 9, 54, 97
11, 19680, Note_on_c, 9, 38, 87
11, 19680, Note_on_c, 9, 69, 81
11, 19728, Note_on_c, 9, 69, 0
11, 19728, Note_on_c, 9, 38, 0
11, 19728, Note_on_c, 9, 69, 70
11, 19776, Note_on_c, 9, 69, 0
11, 19776, Note_on_c, 9, 54, 0
11, 19776, Note_on_c, 9, 35, 87
11, 19776, Note_on_c, 9, 69, 83
11, 19776, Note_on_c, 9, 54, 95
11, 19824, Note_on_c, 9, 69, 0
11, 19824, Note_on_c, 9, 35, 0
11, 19824, Note_on_c, 9, 69, 71
11, 19872, Note_on_c, 9, 69, 0
11, 19872, Note_on_c, 9, 54, 0
11, 19872, Note_on_c, 9, 69, 88
11, 19872, Note_on_c, 9, 54, 97
11, 19876, Note_on_c, 9, 38, 87
11, 19920, Note_on_c, 9, 38, 0
11, 19920, Note_on_c, 9, 69, 0
11, 19920, Note_on_c, 9, 69, 72
11, 19968, Note_on_c, 9, 69, 0
11, 19968, Note_on_c, 9, 69, 77
11, 19972, Note_on_c, 9, 54, 0
11, 19972, Note_on_c, 9, 35, 87
11, 19972, Note_on_c, 9, 54, 95
11, 20016, Note_on_c, 9, 35, 0
11, 20016, Note_on_c, 9, 69, 0
11, 20016, Note_on_c, 9, 69, 59
11, 20064, Note_on_c, 9, 69, 0
11, 20064, Note_on_c, 9, 54, 0
11, 20064, Note_on_c, 9, 69, 75
11, 20064, Note_on_c, 9, 54, 97
11, 20068, Note_on_c, 9, 38, 87
11, 20112, Note_on_c, 9, 38, 0
11, 20112, Note_on_c, 9, 69, 0
11, 20112, Note_on_c, 9, 69, 62
11, 20160, Note_on_c, 9, 69, 0
11, 20160, Note_on_c, 9, 54, 0
11, 20160, Note_on_c, 9, 35, 87
11, 20160, Note_on_c, 9, 69, 73
11, 20160, Note_on_c, 9, 54, 95
11, 20208, Note_on_c, 9, 69, 0
11, 20208, Note_on_c, 9, 35, 0
11, 20208, Note_on_c, 9, 69, 66
11, 20256, Note_on_c, 9, 69, 0
11, 20256, Note_on_c, 9, 69, 75
11, 20260, Note_on_c, 9, 54, 0
11, 20260, Note_on_c, 9, 38, 87
11, 20260, Note_on_c, 9, 54, 97
11, 20304, Note_on_c, 9, 38, 0
11, 20304, Note_on_c, 9, 69, 0
11, 20304, Note_on_c, 9, 69, 66
11, 20352, Note_on_c, 9, 69, 0
11, 20352, Note_on_c, 9, 54, 0
11, 20352, Note_on_c, 9, 35, 87
11, 20352, Note_on_c, 9, 69, 77
11, 20352, Note_on_c, 9, 54, 95
11, 20400, Note_on_c, 9, 69, 0
11, 20400, Note_on_c, 9, 35, 0
11, 20400, Note_on_c, 9, 69, 64
11, 20448, Note_on_c, 9, 69, 0
11, 20448, Note_on_c, 9, 54, 0
11, 20448, Note_on_c, 9, 54, 97
11, 20448, Note_on_c, 9, 38, 87
11, 20448, Note_on_c, 9, 69, 81
11, 20496, Note_on_c, 9, 69, 0
11, 20496, Note_on_c, 9, 38, 0
11, 20496, Note_on_c, 9, 69, 70
11, 20544, Note_on_c, 9, 69, 0
11, 20544, Note_on_c, 9, 54, 0
11, 20544, Note_on_c, 9, 35, 87
11, 20544, Note_on_c, 9, 69, 83
11, 20544, Note_on_c, 9, 54, 95
11, 20592, Note_on_c, 9, 69, 0
11, 20592, Note_on_c, 9, 35, 0
11, 20592, Note_on_c, 9, 69, 71
11, 20640, Note_on_c, 9, 69, 0
11, 20640, Note_on_c, 9, 69, 88
11, 20644, Note_on_c, 9, 54, 0
11, 20644, Note_on_c, 9, 38, 87
11, 20644, Note_on_c, 9, 54, 97
11, 20688, Note_on_c, 9, 38, 0
11, 20688, Note_on_c, 9, 69, 0
11, 20688, Note_on_c, 9, 69, 72
11, 20736, Note_on_c, 9, 69, 0
11, 20736, Note_on_c, 9, 49, 77
11, 20736, Note_on_c, 9, 35, 87
11, 20736, Note_on_c, 9, 69, 77
11, 20740, Note_on_c, 9, 54, 0
11, 20740, Note_on_c, 9, 54, 95
11, 20784, Note_on_c, 9, 49, 0
11, 20784, Note_on_c, 9, 69, 0
11, 20784, Note_on_c, 9, 35, 0
11, 20784, Note_on_c, 9, 69, 59
11, 20832, Note_on_c, 9, 69, 0
11, 20832, Note_on_c, 9, 54, 0
11, 20832, Note_on_c, 9, 69, 75
11, 20832, Note_on_c, 9, 54, 97
11, 20836, Note_on_c, 9, 38, 87
11, 20880, Note_on_c, 9, 38, 0
11, 20880, Note_on_c, 9, 69, 0
11, 20880, Note_on_c, 9, 69, 62
11, 20928, Note_on_c, 9, 69, 0
11, 20928, Note_on_c, 9, 35, 87
11, 20932, Note_on_c, 9, 54, 0
11, 20932, Note_on_c, 9, 54, 95
11, 20932, Note_on_c, 9, 69, 73
11, 20976, Note_on_c, 9, 69, 0
11, 20976, Note_on_c, 9, 35, 0
11, 20976, Note_on_c, 9, 69, 66
11, 21024, Note_on_c, 9, 69, 0
11, 21024, Note_on_c, 9, 54, 0
11, 21024, Note_on_c, 9, 54, 97
11, 21024, Note_on_c, 9, 69, 75
11, 21024, Note_on_c, 9, 38, 87
11, 21072, Note_on_c, 9, 38, 0
11, 21072, Note_on_c, 9, 69, 0
11, 21072, Note_on_c, 9, 69, 66
11, 21120, Note_on_c, 9, 69, 0
11, 21120, Note_on_c, 9, 54, 0
11, 21120, Note_on_c, 9, 35, 87
11, 21120, Note_on_c, 9, 69, 77
11, 21120, Note_on_c, 9, 54, 95
11, 21168, Note_on_c, 9, 69, 0
11, 21168, Note_on_c, 9, 35, 0
11, 21168, Note_on_c, 9, 69, 64
11, 21216, Note_on_c, 9, 69, 0
11, 21216, Note_on_c, 9, 54, 0
11, 21216, Note_on_c, 9, 69, 81
11, 21216, Note_on_c, 9, 54, 97
11, 21220, Note_on_c, 9, 38, 87
11, 21264, Note_on_c, 9, 38, 0
11, 21264, Note_on_c, 9, 69, 0
11, 21264, Note_on_c, 9, 69, 70
11, 21312, Note_on_c, 9, 69, 0
11, 21312, Note_on_c, 9, 54, 0
11, 21312, Note_on_c, 9, 35, 87
11, 21312, Note_on_c, 9, 69, 83
11, 21312, Note_on_c, 9, 54, 95
11, 21360, Note_on_c, 9, 69, 0
11, 21360, Note_on_c, 9, 35, 0
11, 21360, Note_on_c, 9, 69, 71
11, 21408, Note_on_c, 9, 69, 0
11, 21412, Note_on_c, 9, 54, 0
11, 21412, Note_on_c, 9, 54, 97
11, 21412, Note_on_c, 9, 38, 87
11, 21412, Note_on_c, 9, 69, 88
11, 21456, Note_on_c, 9, 69, 0
11, 21456, Note_on_c, 9, 38, 0
11, 21456, Note_on_c, 9, 69, 72
11, 21504, Note_on_c, 9, 69, 0
11, 21504, Note_on_c, 9, 35, 87
11, 21504, Note_on_c, 9, 69, 77
11, 21508, Note_on_c, 9, 54, 0
11, 21508, Note_on_c, 9, 54, 95
11, 21552, Note_on_c, 9, 69, 0
11, 21552, Note_on_c, 9, 35, 0
11, 21552, Note_on_c, 9, 69, 59
11, 21600, Note_on_c, 9, 69, 0
11, 21600, Note_on_c, 9, 54, 0
11, 21600, Note_on_c, 9, 69, 75
11, 21600, Note_on_c, 9, 54, 97
11, 21604, Note_on_c, 9, 38, 87
11, 21648, Note_on_c, 9, 38, 0
11, 21648, Note_on_c, 9, 69, 0
11, 21648, Note_on_c, 9, 69, 62
11, 21696, Note_on_c, 9, 69, 0
11, 21696, Note_on_c, 9, 54, 0
11, 21696, Note_on_c, 9, 35, 87
11, 21696, Note_on_c, 9, 69, 73
11, 21696, Note_on_c, 9, 54, 95
11, 21744, Note_on_c, 9, 69, 0
11, 21744, Note_on_c, 9, 35, 0
11, 21744, Note_on_c, 9, 69, 66
11, 21792, Note_on_c, 9, 69, 0
11, 21792, Note_on_c, 9, 54, 0
11, 21792, Note_on_c, 9, 69, 75
11, 21792, Note_on_c, 9, 54, 97
11, 21796, Note_on_c, 9, 38, 87
11, 21840, Note_on_c, 9, 38, 0
11, 21840, Note_on_c, 9, 69, 0
11, 21840, Note_on_c, 9, 69, 66
11, 21888, Note_on_c, 9, 69, 0
11, 21888, Note_on_c, 9, 54, 0
11, 21888, Note_on_c, 9, 35, 87
11, 21888, Note_on_c, 9, 69, 77
11, 21888, Note_on_c, 9, 54, 95
11, 21936, Note_on_c, 9, 69, 0
11, 21936, Note_on_c, 9, 35, 0
11, 21936, Note_on_c, 9, 69, 64
11, 21984, Note_on_c, 9, 69, 0
11, 21984, Note_on_c, 9, 54, 0
11, 21984, Note_on_c, 9, 69, 81
11, 21984, Note_on_c, 9, 54, 97
11, 21988, Note_on_c, 9, 38, 87
11, 22032, Note_on_c, 9, 38, 0
11, 22032, Note_on_c, 9, 69, 0
11, 22032, Note_on_c, 9, 69, 70
11, 22080, Note_on_c, 9, 69, 0
11, 22080, Note_on_c, 9, 54, 0
11, 22080, Note_on_c, 9, 35, 87
11, 22080, Note_on_c, 9, 69, 83
11, 22080, Note_on_c, 9, 54, 95
11, 22128, Note_on_c, 9, 69, 0
11, 22128, Note_on_c, 9, 35, 0
11, 22128, Note_on_c, 9, 69, 71
11, 22176, Note_on_c, 9, 69, 0
11, 22176, Note_on_c, 9, 69, 88
11, 22180, Note_on_c, 9, 54, 0
11, 22180, Note_on_c, 9, 38, 87
11, 22180, Note_on_c, 9, 54, 97
11, 22224, Note_on_c, 9, 38, 0
11, 22224, Note_on_c, 9, 69, 0
11, 22224, Note_on_c, 9, 69, 72
11, 22272, Note_on_c, 9, 69, 0
11, 22276, Note_on_c, 9, 54, 0
11, 22276, Note_on_c, 9, 54, 95
11, 22276, Note_on_c, 9, 35, 87
11, 22276, Note_on_c, 9, 69, 77
11, 22320, Note_on_c, 9, 69, 0
11, 22320, Note_on_c, 9, 35, 0
11, 22320, Note_on_c, 9, 69, 59
11, 22368, Note_on_c, 9, 69, 0
11, 22368, Note_on_c, 9, 54, 0
11, 22368, Note_on_c, 9, 54, 97
11, 22368, Note_on_c, 9, 38, 87
11, 22368, Note_on_c, 9, 69, 75
11, 22416, Note_on_c, 9, 69, 0
11, 22416, Note_on_c, 9, 38, 0
11, 22416, Note_on_c, 9, 69, 62
11, 22464, Note_on_c, 9, 69, 0
11, 22464, Note_on_c, 9, 54, 0
11, 22464, Note_on_c, 9, 35, 87
11, 22464, Note_on_c, 9, 69, 73
11, 22464, Note_on_c, 9, 54, 95
11, 22512, Note_on_c, 9, 69, 0
11, 22512, Note_on_c, 9, 35, 0
11, 22512, Note_on_c, 9, 69, 66
11, 22560, Note_on_c, 9, 69, 0
11, 22560, Note_on_c, 9, 69, 75
11, 22564, Note_on_c, 9, 54, 0
11, 22564, Note_on_c, 9, 38, 87
11, 22564, Note_on_c, 9, 54, 97
11, 22608, Note_on_c, 9, 38, 0
11, 22608, Note_on_c, 9, 69, 0
11, 22608, Note_on_c, 9, 69, 66
11, 22656, Note_on_c, 9, 69, 0
11, 22656, Note_on_c, 9, 54, 0
11, 22656, Note_on_c, 9, 35, 87
11, 22656, Note_on_c, 9, 69, 77
11, 22656, Note_on_c, 9, 54, 95
11, 22704, Note_on_c, 9, 69, 0
11, 22704, Note_on_c, 9, 35, 0
11, 22704, Note_on_c, 9, 69, 64
11, 22752, Note_on_c, 9, 69, 0
11, 22756, Note_on_c, 9, 54, 0
11, 22756, Note_on_c, 9, 54, 97
11, 22756, Note_on_c, 9, 38, 87
11, 22756, Note_on_c, 9, 69, 81
11, 22800, Note_on_c, 9, 69, 0
11, 22800, Note_on_c, 9, 38, 0
11, 22800, Note_on_c, 9, 69, 70
11, 22848, Note_on_c, 9, 69, 0
11, 22848, Note_on_c, 9, 54, 0
11, 22848, Note_on_c, 9, 35, 87
11, 22848, Note_on_c, 9, 69, 83
11, 22848, Note_on_c, 9, 54, 95
11, 22896, Note_on_c, 9, 69, 0
11, 22896, Note_on_c, 9, 35, 0
11, 22896, Note_on_c, 9, 69, 71
11, 22944, Note_on_c, 9, 69, 0
11, 22944, Note_on_c, 9, 69, 88
11, 22948, Note_on_c, 9, 54, 0
11, 22948, Note_on_c, 9, 38, 87
11, 22948, Note_on_c, 9, 54, 97
11, 22992, Note_on_c, 9, 38, 0
11, 22992, Note_on_c, 9, 69, 0
11, 22992, Note_on_c, 9, 69, 72
11, 23040, Note_on_c, 9, 69, 0
11, 23040, Note_on_c, 9, 35, 87
11, 23040, Note_on_c, 9, 69, 77
11, 23041, Note_on_c, 9, 54, 0
11, 23088, Note_on_c, 9, 69, 0
11, 23088, Note_on_c, 9, 35, 0
11, 23088, Note_on_c, 9, 69, 59
11, 23136, Note_on_c, 9, 69, 0
11, 23136, Note_on_c, 9, 69, 75
11, 23140, Note_on_c, 9, 38, 87
11, 23140, Note_on_c, 9, 54, 97
11, 23184, Note_on_c, 9, 38, 0
11, 23184, Note_on_c, 9, 69, 0
11, 23184, Note_on_c, 9, 69, 62
11, 23232, Note_on_c, 9, 69, 0
11, 23232, Note_on_c, 9, 54, 0
11, 23232, Note_on_c, 9, 69, 73
11, 23232, Note_on_c, 9, 54, 95
11, 23236, Note_on_c, 9, 35, 87
11, 23280, Note_on_c, 9, 35, 0
11, 23280, Note_on_c, 9, 69, 0
11, 23280, Note_on_c, 9, 69, 66
11, 23328, Note_on_c, 9, 69, 0
11, 23332, Note_on_c, 9, 54, 0
11, 23332, Note_on_c, 9, 54, 97
11, 23332, Note_on_c, 9, 38, 87
11, 23332, Note_on_c, 9, 69, 75
11, 23376, Note_on_c, 9, 69, 0
11, 23376, Note_on_c, 9, 38, 0
11, 23376, Note_on_c, 9, 69, 66
11, 23424, Note_on_c, 9, 69, 0
11, 23424, Note_on_c, 9, 54, 0
11, 23424, Note_on_c, 9, 35, 87
11, 23424, Note_on_c, 9, 69, 77
11, 23424, Note_on_c, 9, 54, 95
11, 23472, Note_on_c, 9, 69, 0
11, 23472, Note_on_c, 9, 35, 0
11, 23472, Note_on_c, 9, 69, 64
11, 23520, Note_on_c, 9, 69, 0
11, 23520, Note_on_c, 9, 54, 0
11, 23520, Note_on_c, 9, 54, 97
11, 23520, Note_on_c, 9, 69, 81
11, 23524, Note_on_c, 9, 38, 87
11, 23568, Note_on_c, 9, 38, 0
11, 23568, Note_on_c, 9, 69, 0
11, 23568, Note_on_c, 9, 69, 70
11, 23616, Note_on_c, 9, 69, 0
11, 23616, Note_on_c, 9, 54, 0
11, 23616, Note_on_c, 9, 69, 83
11, 23616, Note_on_c, 9, 54, 95
11, 23620, Note_on_c, 9, 35, 87
11, 23664, Note_on_c, 9, 35, 0
11, 23664, Note_on_c, 9, 69, 0
11, 23668, Note_on_c, 9, 69, 71
11, 23712, Note_on_c, 9, 69, 0
11, 23712, Note_on_c, 9, 69, 88
11, 23716, Note_on_c, 9, 54, 0
11, 23716, Note_on_c, 9, 54, 97
11, 23720, Note_on_c, 9, 38, 87
11, 23760, Note_on_c, 9, 38, 0
11, 23760, Note_on_c, 9, 69, 0
11, 23760, Note_on_c, 9, 69, 72
11, 23808, Note_on_c, 9, 69, 0
11, 23808, Note_on_c, 9, 35, 87
11, 23808, Note_on_c, 9, 69, 77
11, 23812, Note_on_c, 9, 54, 0
11, 23812, Note_on_c, 9, 54, 95
11, 23856, Note_on_c, 9, 69, 0
11, 23856, Note_on_c, 9, 35, 0
11, 23856, Note_on_c, 9, 69, 59
11, 23904, Note_on_c, 9, 69, 0
11, 23904, Note_on_c, 9, 69, 75
11, 23908, Note_on_c, 9, 54, 0
11, 23908, Note_on_c, 9, 38, 87
11, 23908, Note_on_c, 9, 54, 97
11, 23948, Note_on_c, 9, 69, 0
11, 23952, Note_on_c, 9, 38, 0
11, 23952, Note_on_c, 9, 69, 62
11, 24000, Note_on_c, 9, 69, 0
11, 24000, Note_on_c, 9, 54, 0
11, 24000, Note_on_c, 9, 35, 87
11, 24000, Note_on_c, 9, 69, 73
11, 24000, Note_on_c, 9, 54, 95
11, 24048, Note_on_c, 9, 69, 0
11, 24048, Note_on_c, 9, 35, 0
11, 24048, Note_on_c, 9, 69, 66
11, 24096, Note_on_c, 9, 69, 0
11, 24096, Note_on_c, 9, 54, 0
11, 24096, Note_on_c, 9, 69, 75
11, 24096, Note_on_c, 9, 54, 97
11, 24100, Note_on_c, 9, 38, 87
11, 24144, Note_on_c, 9, 38, 0
11, 24144, Note_on_c, 9, 69, 0
11, 24144, Note_on_c, 9, 69, 66
11, 24192, Note_on_c, 9, 69, 0
11, 24192, Note_on_c, 9, 54, 0
11, 24192, Note_on_c, 9, 35, 87
11, 24192, Note_on_c, 9, 69, 77
11, 24192, Note_on_c, 9, 54, 95
11, 24240, Note_on_c, 9, 69, 0
11, 24240, Note_on_c, 9, 35, 0
11, 24240, Note_on_c, 9, 69, 64
11, 24288, Note_on_c, 9, 69, 0
11, 24288, Note_on_c, 9, 54, 0
11, 24288, Note_on_c, 9, 54, 97
11, 24288, Note_on_c, 9, 38, 87
11, 24288, Note_on_c, 9, 69, 81
11, 24336, Note_on_c, 9, 69, 0
11, 24336, Note_on_c, 9, 38, 0
11, 24336, Note_on_c, 9, 69, 70
11, 24384, Note_on_c, 9, 69, 0
11, 24384, Note_on_c, 9, 35, 87
11, 24384, Note_on_c, 9, 69, 83
11, 24388, Note_on_c, 9, 54, 0
11, 24388, Note_on_c, 9, 54, 95
11, 24432, Note_on_c, 9, 69, 0
11, 24432, Note_on_c, 9, 35, 0
11, 24432, Note_on_c, 9, 69, 71
11, 24480, Note_on_c, 9, 69, 0
11, 24480, Note_on_c, 9, 69, 88
11, 24488, Note_on_c, 9, 54, 0
11, 24488, Note_on_c, 9, 38, 87
11, 24488, Note_on_c, 9, 54, 97
11, 24528, Note_on_c, 9, 38, 0
11, 24528, Note_on_c, 9, 69, 0
11, 24528, Note_on_c, 9, 69, 72
11, 24576, Note_on_c, 9, 69, 0
11, 24576, Note_on_c, 9, 35, 87
11, 24576, Note_on_c, 9, 69, 77
11, 24580, Note_on_c, 9, 54, 0
11, 24580, Note_on_c, 9, 54, 95
11, 24624, Note_on_c, 9, 69, 0
11, 24624, Note_on_c, 9, 35, 0
11, 24624, Note_on_c, 9, 69, 59
11, 24672, Note_on_c, 9, 69, 0
11, 24672, Note_on_c, 9, 69, 75
11, 24676, Note_on_c, 9, 54, 0
11, 24676, Note_on_c, 9, 38, 87
11, 24676, Note_on_c, 9, 54, 97
11, 24720, Note_on_c, 9, 38, 0
11, 24720, Note_on_c, 9, 69, 0
11, 24720, Note_on_c, 9, 69, 62
11, 24768, Note_on_c, 9, 69, 0
11, 24768, Note_on_c, 9, 35, 87
11, 24768, Note_on_c, 9, 69, 73
11, 24772, Note_on_c, 9, 54, 0
11, 24772, Note_on_c, 9, 54, 95
11, 24816, Note_on_c, 9, 69, 0
11, 24816, Note_on_c, 9, 35, 0
11, 24816, Note_on_c, 9, 69, 66
11, 24864, Note_on_c, 9, 69, 0
11, 24864, Note_on_c, 9, 69, 75
11, 24868, Note_on_c, 9, 54, 0
11, 24868, Note_on_c, 9, 38, 87
11, 24868, Note_on_c, 9, 54, 97
11, 24912, Note_on_c, 9, 38, 0
11, 24912, Note_on_c, 9, 69, 0
11, 24912, Note_on_c, 9, 69, 66
11, 24960, Note_on_c, 9, 69, 0
11, 24960, Note_on_c, 9, 54, 0
11, 24960, Note_on_c, 9, 69, 77
11, 24960, Note_on_c, 9, 54, 95
11, 24964, Note_on_c, 9, 35, 87
11, 25008, Note_on_c, 9, 35, 0
11, 25008, Note_on_c, 9, 69, 0
11, 25008, Note_on_c, 9, 69, 64
11, 25056, Note_on_c, 9, 69, 0
11, 25056, Note_on_c, 9, 54, 0
11, 25056, Note_on_c, 9, 69, 81
11, 25056, Note_on_c, 9, 54, 97
11, 25060, Note_on_c, 9, 38, 87
11, 25104, Note_on_c, 9, 38, 0
11, 25104, Note_on_c, 9, 69, 0
11, 25104, Note_on_c, 9, 69, 70
11, 25152, Note_on_c, 9, 69, 0
11, 25152, Note_on_c, 9, 54, 0
11, 25152, Note_on_c, 9, 69, 83
11, 25152, Note_on_c, 9, 54, 95
11, 25156, Note_on_c, 9, 35, 87
11, 25200, Note_on_c, 9, 35, 0
11, 25200, Note_on_c, 9, 69, 0
11, 25200, Note_on_c, 9, 69, 71
11, 25248, Note_on_c, 9, 69, 0
11, 25248, Note_on_c, 9, 69, 88
11, 25252, Note_on_c, 9, 54, 0
11, 25252, Note_on_c, 9, 38, 87
11, 25252, Note_on_c, 9, 54, 97
11, 25296, Note_on_c, 9, 38, 0
11, 25296, Note_on_c, 9, 69, 0
11, 25296, Note_on_c, 9, 69, 72
11, 25344, Note_on_c, 9, 69, 0
11, 25348, Note_on_c, 9, 54, 0
11, 25348, Note_on_c, 9, 35, 87
11, 25348, Note_on_c, 9, 54, 95
11, 25348, Note_on_c, 9, 69, 77
11, 25392, Note_on_c, 9, 69, 0
11, 25392, Note_on_c, 9, 35, 0
11, 25392, Note_on_c, 9, 69, 59
11, 25440, Note_on_c, 9, 69, 0
11, 25440, Note_on_c, 9, 54, 0
11, 25440, Note_on_c, 9, 54, 97
11, 25440, Note_on_c, 9, 69, 75
11, 25444, Note_on_c, 9, 38, 87
11, 25488, Note_on_c, 9, 38, 0
11, 25488, Note_on_c, 9, 69, 0
11, 25488, Note_on_c, 9, 69, 62
11, 25536, Note_on_c, 9, 69, 0
11, 25536, Note_on_c, 9, 54, 0
11, 25536, Note_on_c, 9, 35, 87
11, 25536, Note_on_c, 9, 69, 73
11, 25536, Note_on_c, 9, 54, 95
11, 25584, Note_on_c, 9, 69, 0
11, 25584, Note_on_c, 9, 35, 0
11, 25584, Note_on_c, 9, 69, 66
11, 25632, Note_on_c, 9, 69, 0
11, 25632, Note_on_c, 9, 69, 75
11, 25636, Note_on_c, 9, 54, 0
11, 25636, Note_on_c, 9, 38, 87
11, 25636, Note_on_c, 9, 54, 97
11, 25680, Note_on_c, 9, 38, 0
11, 25680, Note_on_c, 9, 69, 0
11, 25680, Note_on_c, 9, 69, 66
11, 25728, Note_on_c, 9, 69, 0
11, 25728, Note_on_c, 9, 54, 0
11, 25728, Note_on_c, 9, 35, 87
11, 25728, Note_on_c, 9, 69, 77
11, 25728, Note_on_c, 9, 54, 95
11, 25776, Note_on_c, 9, 69, 0
11, 25776, Note_on_c, 9, 35, 0
11, 25776, Note_on_c, 9, 69, 64
11, 25824, Note_on_c, 9, 69, 0
11, 25824, Note_on_c, 9, 54, 0
11, 25824, Note_on_c, 9, 69, 81
11, 25824, Note_on_c, 9, 54, 97
11, 25828, Note_on_c, 9, 38, 87
11, 25872, Note_on_c, 9, 38, 0
11, 25872, Note_on_c, 9, 69, 0
11, 25872, Note_on_c, 9, 69, 70
11, 25920, Note_on_c, 9, 69, 0
11, 25920, Note_on_c, 9, 54, 0
11, 25920, Note_on_c, 9, 35, 87
11, 25920, Note_on_c, 9, 69, 83
11, 25920, Note_on_c, 9, 54, 95
11, 25968, Note_on_c, 9, 69, 0
11, 25968, Note_on_c, 9, 35, 0
11, 25968, Note_on_c, 9, 69, 71
11, 26016, Note_on_c, 9, 69, 0
11, 26016, Note_on_c, 9, 69, 88
11, 26020, Note_on_c, 9, 54, 0
11, 26020, Note_on_c, 9, 54, 97
11, 26024, Note_on_c, 9, 38, 87
11, 26064, Note_on_c, 9, 38, 0
11, 26064, Note_on_c, 9, 69, 0
11, 26064, Note_on_c, 9, 69, 72
11, 26112, Note_on_c, 9, 69, 0
11, 26112, Note_on_c, 9, 35, 87
11, 26112, Note_on_c, 9, 69, 77
11, 26116, Note_on_c, 9, 54, 0
11, 26116, Note_on_c, 9, 54, 95
11, 26160, Note_on_c, 9, 69, 0
11, 26160, Note_on_c, 9, 35, 0
11, 26160, Note_on_c, 9, 69, 59
11, 26208, Note_on_c, 9, 69, 0
11, 26208, Note_on_c, 9, 54, 0
11, 26208, Note_on_c, 9, 54, 97
11, 26208, Note_on_c, 9, 38, 87
11, 26208, Note_on_c, 9, 69, 75
11, 26256, Note_on_c, 9, 69, 0
11, 26256, Note_on_c, 9, 38, 0
11, 26256, Note_on_c, 9, 69, 62
11, 26304, Note_on_c, 9, 69, 0
11, 26304, Note_on_c, 9, 54, 0
11, 26304, Note_on_c, 9, 35, 87
11, 26304, Note_on_c, 9, 69, 73
11, 26304, Note_on_c, 9, 54, 95
11, 26352, Note_on_c, 9, 69, 0
11, 26352, Note_on_c, 9, 35, 0
11, 26352, Note_on_c, 9, 69, 66
11, 26400, Note_on_c, 9, 69, 0
11, 26400, Note_on_c, 9, 69, 75
11, 26404, Note_on_c, 9, 54, 0
11, 26404, Note_on_c, 9, 38, 87
11, 26404, Note_on_c, 9, 54, 97
11, 26448, Note_on_c, 9, 38, 0
11, 26448, Note_on_c, 9, 69, 0
11, 26448, Note_on_c, 9, 69, 66
11, 26496, Note_on_c, 9, 69, 0
11, 26496, Note_on_c, 9, 54, 0
11, 26496, Note_on_c, 9, 69, 77
11, 26496, Note_on_c, 9, 54, 95
11, 26500, Note_on_c, 9, 35, 87
11, 26544, Note_on_c, 9, 35, 0
11, 26544, Note_on_c, 9, 69, 0
11, 26544, Note_on_c, 9, 69, 64
11, 26592, Note_on_c, 9, 69, 0
11, 26592, Note_on_c, 9, 54, 0
11, 26592, Note_on_c, 9, 54, 97
11, 26592, Note_on_c, 9, 38, 87
11, 26592, Note_on_c, 9, 69, 81
11, 26640, Note_on_c, 9, 69, 0
11, 26640, Note_on_c, 9, 38, 0
11, 26640, Note_on_c, 9, 69, 70
11, 26688, Note_on_c, 9, 69, 0
11, 26688, Note_on_c, 9, 54, 0
11, 26688, Note_on_c, 9, 35, 87
11, 26688, Note_on_c, 9, 69, 83
11, 26688, Note_on_c, 9, 54, 95
11, 26736, Note_on_c, 9, 69, 0
11, 26736, Note_on_c, 9, 35, 0
11, 26736, Note_on_c, 9, 69, 71
11, 26784, Note_on_c, 9, 69, 0
11, 26784, Note_on_c, 9, 54, 0
11, 26784, Note_on_c, 9, 69, 88
11, 26784, Note_on_c, 9, 54, 97
11, 26788, Note_on_c, 9, 38, 87
11, 26832, Note_on_c, 9, 38, 0
11, 26832, Note_on_c, 9, 69, 0
11, 26832, Note_on_c, 9, 69, 72
11, 26880, Note_on_c, 9, 69, 0
11, 26880, Note_on_c, 9, 49, 77
11, 26880, Note_on_c, 9, 35, 87
11, 26880, Note_on_c, 9, 69, 77
11, 26881, Note_on_c, 9, 54, 0
11, 26928, Note_on_c, 9, 49, 0
11, 26928, Note_on_c, 9, 35, 0
11, 26928, Note_on_c, 9, 69, 0
11, 26928, Note_on_c, 9, 69, 59
11, 26976, Note_on_c, 9, 69, 0
11, 26976, Note_on_c, 9, 69, 75
11, 26976, Note_on_c, 9, 54, 97
11, 26980, Note_on_c, 9, 38, 87
11, 27024, Note_on_c, 9, 38, 0
11, 27024, Note_on_c, 9, 69, 0
11, 27024, Note_on_c, 9, 69, 62
11, 27072, Note_on_c, 9, 69, 0
11, 27072, Note_on_c, 9, 54, 0
11, 27072, Note_on_c, 9, 35, 87
11, 27072, Note_on_c, 9, 69, 73
11, 27072, Note_on_c, 9, 54, 95
11, 27120, Note_on_c, 9, 69, 0
11, 27120, Note_on_c, 9, 35, 0
11, 27120, Note_on_c, 9, 69, 66
11, 27168, Note_on_c, 9, 69, 0
11, 27168, Note_on_c, 9, 69, 75
11, 27172, Note_on_c, 9, 54, 0
11, 27172, Note_on_c, 9, 38, 87
11, 27172, Note_on_c, 9, 54, 97
11, 27216, Note_on_c, 9, 38, 0
11, 27216, Note_on_c, 9, 69, 0
11, 27216, Note_on_c, 9, 69, 66
11, 27264, Note_on_c, 9, 69, 0
11, 27264, Note_on_c, 9, 54, 0
11, 27264, Note_on_c, 9, 69, 77
11, 27264, Note_on_c, 9, 54, 95
11, 27268, Note_on_c, 9, 35, 87
11, 27312, Note_on_c, 9, 35, 0
11, 27312, Note_on_c, 9, 69, 0
11, 27312, Note_on_c, 9, 69, 64
11, 27360, Note_on_c, 9, 69, 0
11, 27360, Note_on_c, 9, 54, 0
11, 27360, Note_on_c, 9, 54, 97
11, 27360, Note_on_c, 9, 69, 81
11, 27364, Note_on_c, 9, 38, 87
11, 27408, Note_on_c, 9, 38, 0
11, 27408, Note_on_c, 9, 69, 0
11, 27408, Note_on_c, 9, 69, 70
11, 27456, Note_on_c, 9, 69, 0
11, 27456, Note_on_c, 9, 54, 0
11, 27456, Note_on_c, 9, 35, 87
11, 27456, Note_on_c, 9, 69, 83
11, 27456, Note_on_c, 9, 54, 95
11, 27504, Note_on_c, 9, 69, 0
11, 27504, Note_on_c, 9, 35, 0
11, 27504, Note_on_c, 9, 69, 71
11, 27552, Note_on_c, 9, 69, 0
11, 27552, Note_on_c, 9, 54, 0
11, 27552, Note_on_c, 9, 69, 88
11, 27552, Note_on_c, 9, 54, 97
11, 27556, Note_on_c, 9, 38, 87
11, 27600, Note_on_c, 9, 38, 0
11, 27600, Note_on_c, 9, 69, 0
11, 27600, Note_on_c, 9, 69, 72
11, 27648, Note_on_c, 9, 69, 0
11, 27648, Note_on_c, 9, 35, 87
11, 27652, Note_on_c, 9, 54, 0
11, 27652, Note_on_c, 9, 54, 95
11, 27652, Note_on_c, 9, 69, 77
11, 27696, Note_on_c, 9, 69, 0
11, 27696, Note_on_c, 9, 35, 0
11, 27696, Note_on_c, 9, 69, 59
11, 27744, Note_on_c, 9, 69, 0
11, 27744, Note_on_c, 9, 54, 0
11, 27744, Note_on_c, 9, 54, 97
11, 27744, Note_on_c, 9, 69, 75
11, 27744, Note_on_c, 9, 38, 87
11, 27792, Note_on_c, 9, 38, 0
11, 27792, Note_on_c, 9, 69, 0
11, 27792, Note_on_c, 9, 69, 62
11, 27840, Note_on_c, 9, 69, 0
11, 27840, Note_on_c, 9, 54, 0
11, 27840, Note_on_c, 9, 35, 87
11, 27840, Note_on_c, 9, 69, 73
11, 27840, Note_on_c, 9, 54, 95
11, 27888, Note_on_c, 9, 69, 0
11, 27888, Note_on_c, 9, 35, 0
11, 27888, Note_on_c, 9, 69, 66
11, 27936, Note_on_c, 9, 69, 0
11, 27936, Note_on_c, 9, 54, 0
11, 27936, Note_on_c, 9, 69, 75
11, 27936, Note_on_c, 9, 54, 97
11, 27940, Note_on_c, 9, 38, 87
11, 27984, Note_on_c, 9, 38, 0
11, 27984, Note_on_c, 9, 69, 0
11, 27984, Note_on_c, 9, 69, 66
11, 28032, Note_on_c, 9, 69, 0
11, 28032, Note_on_c, 9, 54, 0
11, 28032, Note_on_c, 9, 35, 87
11, 28032, Note_on_c, 9, 69, 77
11, 28032, Note_on_c, 9, 54, 95
11, 28080, Note_on_c, 9, 69, 0
11, 28080, Note_on_c, 9, 35, 0
11, 28080, Note_on_c, 9, 69, 64
11, 28128, Note_on_c, 9, 69, 0
11, 28128, Note_on_c, 9, 54, 0
11, 28128, Note_on_c, 9, 69, 81
11, 28128, Note_on_c, 9, 54, 97
11, 28132, Note_on_c, 9, 38, 87
11, 28176, Note_on_c, 9, 38, 0
11, 28176, Note_on_c, 9, 69, 0
11, 28176, Note_on_c, 9, 69, 70
11, 28224, Note_on_c, 9, 69, 0
11, 28224, Note_on_c, 9, 54, 0
11, 28224, Note_on_c, 9, 35, 87
11, 28224, Note_on_c, 9, 69, 83
11, 28224, Note_on_c, 9, 54, 95
11, 28272, Note_on_c, 9, 69, 0
11, 28272, Note_on_c, 9, 35, 0
11, 28272, Note_on_c, 9, 69, 71
11, 28320, Note_on_c, 9, 69, 0
11, 28320, Note_on_c, 9, 54, 0
11, 28320, Note_on_c, 9, 69, 88
11, 28320, Note_on_c, 9, 54, 97
11, 28324, Note_on_c, 9, 38, 87
11, 28368, Note_on_c, 9, 38, 0
11, 28368, Note_on_c, 9, 69, 0
11, 28368, Note_on_c, 9, 69, 72
11, 28416, Note_on_c, 9, 69, 0
11, 28416, Note_on_c, 9, 35, 87
11, 28420, Note_on_c, 9, 54, 0
11, 28420, Note_on_c, 9, 54, 95
11, 28420, Note_on_c, 9, 69, 77
11, 28464, Note_on_c, 9, 69, 0
11, 28464, Note_on_c, 9, 35, 0
11, 28464, Note_on_c, 9, 69, 59
11, 28512, Note_on_c, 9, 69, 0
11, 28512, Note_on_c, 9, 54, 0
11, 28512, Note_on_c, 9, 69, 75
11, 28512, Note_on_c, 9, 54, 97
11, 28516, Note_on_c, 9, 38, 87
11, 28560, Note_on_c, 9, 38, 0
11, 28560, Note_on_c, 9, 69, 0
11, 28560, Note_on_c, 9, 69, 62
11, 28608, Note_on_c, 9, 69, 0
11, 28608, Note_on_c, 9, 54, 0
11, 28608, Note_on_c, 9, 35, 87
11, 28608, Note_on_c, 9, 69, 73
11, 28608, Note_on_c, 9, 54, 95
11, 28656, Note_on_c, 9, 69, 0
11, 28656, Note_on_c, 9, 35, 0
11, 28656, Note_on_c, 9, 69, 66
11, 28704, Note_on_c, 9, 69, 0
11, 28704, Note_on_c, 9, 54, 0
11, 28704, Note_on_c, 9, 69, 75
11, 28704, Note_on_c, 9, 54, 97
11, 28708, Note_on_c, 9, 38, 87
11, 28752, Note_on_c, 9, 38, 0
11, 28752, Note_on_c, 9, 69, 0
11, 28752, Note_on_c, 9, 69, 66
11, 28800, Note_on_c, 9, 69, 0
11, 28800, Note_on_c, 9, 54, 0
11, 28800, Note_on_c, 9, 35, 87
11, 28800, Note_on_c, 9, 69, 77
11, 28800, Note_on_c, 9, 54, 95
11, 28848, Note_on_c, 9, 69, 0
11, 28848, Note_on_c, 9, 35, 0
11, 28848, Note_on_c, 9, 69, 64
11, 28896, Note_on_c, 9, 69, 0
11, 28896, Note_on_c, 9, 69, 81
11, 28900, Note_on_c, 9, 54, 0
11, 28900, Note_on_c, 9, 38, 87
11, 28900, Note_on_c, 9, 54, 97
11, 28944, Note_on_c, 9, 38, 0
11, 28944, Note_on_c, 9, 69, 0
11, 28944, Note_on_c, 9, 69, 70
11, 28992, Note_on_c, 9, 69, 0
11, 28992, Note_on_c, 9, 54, 0
11, 28992, Note_on_c, 9, 35, 87
11, 28992, Note_on_c, 9, 69, 83
11, 28992, Note_on_c, 9, 54, 95
11, 29040, Note_on_c, 9, 69, 0
11, 29040, Note_on_c, 9, 35, 0
11, 29040, Note_on_c, 9, 69, 71
11, 29088, Note_on_c, 9, 69, 0
11, 29088, Note_on_c, 9, 69, 88
11, 29092, Note_on_c, 9, 54, 0
11, 29092, Note_on_c, 9, 54, 97
11, 29096, Note_on_c, 9, 38, 87
11, 29136, Note_on_c, 9, 38, 0
11, 29136, Note_on_c, 9, 69, 0
11, 29136, Note_on_c, 9, 69, 72
11, 29184, Note_on_c, 9, 69, 0
11, 29188, Note_on_c, 9, 54, 0
11, 29188, Note_on_c, 9, 54, 95
11, 29188, Note_on_c, 9, 35, 87
11, 29188, Note_on_c, 9, 69, 77
11, 29232, Note_on_c, 9, 69, 0
11, 29232, Note_on_c, 9, 35, 0
11, 29232, Note_on_c, 9, 69, 59
11, 29280, Note_on_c, 9, 69, 0
11, 29280, Note_on_c, 9, 54, 0
11, 29280, Note_on_c, 9, 54, 97
11, 29280, Note_on_c, 9, 38, 87
11, 29280, Note_on_c, 9, 69, 75
11, 29328, Note_on_c, 9, 69, 0
11, 29328, Note_on_c, 9, 38, 0
11, 29328, Note_on_c, 9, 69, 62
11, 29376, Note_on_c, 9, 69, 0
11, 29376, Note_on_c, 9, 54, 0
11, 29376, Note_on_c, 9, 35, 87
11, 29376, Note_on_c, 9, 69, 73
11, 29376, Note_on_c, 9, 54, 95
11, 29424, Note_on_c, 9, 69, 0
11, 29424, Note_on_c, 9, 35, 0
11, 29424, Note_on_c, 9, 69, 66
11, 29472, Note_on_c, 9, 69, 0
11, 29472, Note_on_c, 9, 54, 0
11, 29472, Note_on_c, 9, 69, 75
11, 29472, Note_on_c, 9, 54, 97
11, 29476, Note_on_c, 9, 38, 87
11, 29520, Note_on_c, 9, 38, 0
11, 29520, Note_on_c, 9, 69, 0
11, 29520, Note_on_c, 9, 69, 66
11, 29568, Note_on_c, 9, 69, 0
11, 29568, Note_on_c, 9, 54, 0
11, 29568, Note_on_c, 9, 35, 87
11, 29568, Note_on_c, 9, 69, 77
11, 29568, Note_on_c, 9, 54, 95
11, 29616, Note_on_c, 9, 69, 0
11, 29616, Note_on_c, 9, 35, 0
11, 29616, Note_on_c, 9, 69, 64
11, 29664, Note_on_c, 9, 69, 0
11, 29664, Note_on_c, 9, 54, 0
11, 29664, Note_on_c, 9, 54, 97
11, 29664, Note_on_c, 9, 69, 81
11, 29668, Note_on_c, 9, 38, 87
11, 29712, Note_on_c, 9, 38, 0
11, 29712, Note_on_c, 9, 69, 0
11, 29712, Note_on_c, 9, 69, 70
11, 29760, Note_on_c, 9, 69, 0
11, 29760, Note_on_c, 9, 54, 0
11, 29760, Note_on_c, 9, 35, 87
11, 29760, Note_on_c, 9, 69, 83
11, 29760, Note_on_c, 9, 54, 95
11, 29808, Note_on_c, 9, 69, 0
11, 29808, Note_on_c, 9, 35, 0
11, 29808, Note_on_c, 9, 69, 71
11, 29856, Note_on_c, 9, 69, 0
11, 29856, Note_on_c, 9, 54, 0
11, 29856, Note_on_c, 9, 69, 88
11, 29856, Note_on_c, 9, 54, 97
11, 29860, Note_on_c, 9, 38, 87
11, 29904, Note_on_c, 9, 38, 0
11, 29904, Note_on_c, 9, 69, 0
11, 29904, Note_on_c, 9, 69, 72
11, 29952, Note_on_c, 9, 69, 0
11, 29956, Note_on_c, 9, 54, 0
11, 29956, Note_on_c, 9, 35, 87
11, 29956, Note_on_c, 9, 54, 95
11, 29956, Note_on_c, 9, 69, 77
11, 30000, Note_on_c, 9, 69, 0
11, 30000, Note_on_c, 9, 35, 0
11, 30000, Note_on_c, 9, 69, 59
11, 30048, Note_on_c, 9, 69, 0
11, 30048, Note_on_c, 9, 69, 75
11, 30052, Note_on_c, 9, 54, 0
11, 30052, Note_on_c, 9, 38, 87
11, 30052, Note_on_c, 9, 54, 97
11, 30096, Note_on_c, 9, 38, 0
11, 30096, Note_on_c, 9, 69, 0
11, 30096, Note_on_c, 9, 69, 62
11, 30144, Note_on_c, 9, 69, 0
11, 30144, Note_on_c, 9, 54, 0
11, 30144, Note_on_c, 9, 35, 87
11, 30144, Note_on_c, 9, 69, 73
11, 30144, Note_on_c, 9, 54, 95
11, 30192, Note_on_c, 9, 69, 0
11, 30192, Note_on_c, 9, 35, 0
11, 30192, Note_on_c, 9, 69, 66
11, 30240, Note_on_c, 9, 69, 0
11, 30240, Note_on_c, 9, 54, 0
11, 30240, Note_on_c, 9, 54, 97
11, 30240, Note_on_c, 9, 69, 75
11, 30240, Note_on_c, 9, 38, 87
11, 30288, Note_on_c, 9, 38, 0
11, 30288, Note_on_c, 9, 69, 0
11, 30288, Note_on_c, 9, 69, 66
11, 30336, Note_on_c, 9, 69, 0
11, 30336, Note_on_c, 9, 54, 0
11, 30336, Note_on_c, 9, 35, 87
11, 30336, Note_on_c, 9, 69, 77
11, 30336, Note_on_c, 9, 54, 95
11, 30384, Note_on_c, 9, 69, 0
11, 30384, Note_on_c, 9, 35, 0
11, 30384, Note_on_c, 9, 69, 64
11, 30432, Note_on_c, 9, 69, 0
11, 30432, Note_on_c, 9, 54, 0
11, 30432, Note_on_c, 9, 69, 81
11, 30432, Note_on_c, 9, 54, 97
11, 30436, Note_on_c, 9, 38, 87
11, 30480, Note_on_c, 9, 38, 0
11, 30480, Note_on_c, 9, 69, 0
11, 30480, Note_on_c, 9, 69, 70
11, 30528, Note_on_c, 9, 69, 0
11, 30528, Note_on_c, 9, 35, 87
11, 30528, Note_on_c, 9, 69, 83
11, 30532, Note_on_c, 9, 54, 0
11, 30532, Note_on_c, 9, 54, 95
11, 30576, Note_on_c, 9, 69, 0
11, 30576, Note_on_c, 9, 35, 0
11, 30576, Note_on_c, 9, 69, 71
11, 30624, Note_on_c, 9, 69, 0
11, 30628, Note_on_c, 9, 54, 0
11, 30628, Note_on_c, 9, 54, 97
11, 30628, Note_on_c, 9, 38, 87
11, 30628, Note_on_c, 9, 69, 88
11, 30672, Note_on_c, 9, 69, 0
11, 30672, Note_on_c, 9, 38, 0
11, 30672, Note_on_c, 9, 69, 72
11, 30720, Note_on_c, 9, 69, 0
11, 30720, Note_on_c, 9, 35, 87
11, 30724, Note_on_c, 9, 54, 0
11, 30724, Note_on_c, 9, 54, 95
11, 30724, Note_on_c, 9, 69, 77
11, 30768, Note_on_c, 9, 69, 0
11, 30768, Note_on_c, 9, 35, 0
11, 30768, Note_on_c, 9, 69, 59
11, 30816, Note_on_c, 9, 69, 0
11, 30816, Note_on_c, 9, 54, 0
11, 30816, Note_on_c, 9, 69, 75
11, 30816, Note_on_c, 9, 54, 97
11, 30820, Note_on_c, 9, 38, 87
11, 30864, Note_on_c, 9, 38, 0
11, 30864, Note_on_c, 9, 69, 0
11, 30864, Note_on_c, 9, 69, 62
11, 30912, Note_on_c, 9, 69, 0
11, 30912, Note_on_c, 9, 54, 0
11, 30912, Note_on_c, 9, 35, 87
11, 30912, Note_on_c, 9, 69, 73
11, 30912, Note_on_c, 9, 54, 95
11, 30960, Note_on_c, 9, 69, 0
11, 30960, Note_on_c, 9, 35, 0
11, 30960, Note_on_c, 9, 69, 66
11, 31008, Note_on_c, 9, 69, 0
11, 31008, Note_on_c, 9, 54, 0
11, 31008, Note_on_c, 9, 69, 75
11, 31008, Note_on_c, 9, 54, 97
11, 31012, Note_on_c, 9, 38, 87
11, 31056, Note_on_c, 9, 38, 0
11, 31056, Note_on_c, 9, 69, 0
11, 31056, Note_on_c, 9, 69, 66
11, 31104, Note_on_c, 9, 69, 0
11, 31104, Note_on_c, 9, 54, 0
11, 31104, Note_on_c, 9, 35, 87
11, 31104, Note_on_c, 9, 69, 77
11, 31104, Note_on_c, 9, 54, 95
11, 31152, Note_on_c, 9, 69, 0
11, 31152, Note_on_c, 9, 35, 0
11, 31152, Note_on_c, 9, 69, 64
11, 31200, Note_on_c, 9, 69, 0
11, 31200, Note_on_c, 9, 54, 0
11, 31200, Note_on_c, 9, 69, 81
11, 31200, Note_on_c, 9, 54, 97
11, 31204, Note_on_c, 9, 38, 87
11, 31248, Note_on_c, 9, 38, 0
11, 31248, Note_on_c, 9, 69, 0
11, 31248, Note_on_c, 9, 69, 70
11, 31296, Note_on_c, 9, 69, 0
11, 31296, Note_on_c, 9, 54, 0
11, 31296, Note_on_c, 9, 35, 87
11, 31296, Note_on_c, 9, 69, 83
11, 31296, Note_on_c, 9, 54, 95
11, 31344, Note_on_c, 9, 69, 0
11, 31344, Note_on_c, 9, 35, 0
11, 31344, Note_on_c, 9, 69, 71
11, 31392, Note_on_c, 9, 69, 0
11, 31392, Note_on_c, 9, 54, 0
11, 31392, Note_on_c, 9, 54, 97
11, 31392, Note_on_c, 9, 38, 87
11, 31392, Note_on_c, 9, 69, 88
11, 31440, Note_on_c, 9, 69, 0
11, 31440, Note_on_c, 9, 38, 0
11, 31440, Note_on_c, 9, 69, 72
11, 31488, Note_on_c, 9, 69, 0
11, 31488, Note_on_c, 9, 35, 87
11, 31492, Note_on_c, 9, 54, 0
11, 31492, Note_on_c, 9, 54, 95
11, 31492, Note_on_c, 9, 69, 77
11, 31536, Note_on_c, 9, 69, 0
11, 31536, Note_on_c, 9, 35, 0
11, 31536, Note_on_c, 9, 69, 59
11, 31584, Note_on_c, 9, 69, 0
11, 31584, Note_on_c, 9, 54, 0
11, 31584, Note_on_c, 9, 69, 75
11, 31584, Note_on_c, 9, 54, 97
11, 31588, Note_on_c, 9, 38, 87
11, 31632, Note_on_c, 9, 38, 0
11, 31632, Note_on_c, 9, 69, 0
11, 31632, Note_on_c, 9, 69, 62
11, 31680, Note_on_c, 9, 69, 0
11, 31680, Note_on_c, 9, 54, 0
11, 31680, Note_on_c, 9, 35, 87
11, 31680, Note_on_c, 9, 69, 73
11, 31680, Note_on_c, 9, 54, 95
11, 31728, Note_on_c, 9, 69, 0
11, 31728, Note_on_c, 9, 35, 0
11, 31728, Note_on_c, 9, 69, 66
11, 31776, Note_on_c, 9, 69, 0
11, 31776, Note_on_c, 9, 54, 0
11, 31776, Note_on_c, 9, 54, 97
11, 31776, Note_on_c, 9, 69, 75
11, 31776, Note_on_c, 9, 38, 87
11, 31824, Note_on_c, 9, 38, 0
11, 31824, Note_on_c, 9, 69, 0
11, 31824, Note_on_c, 9, 69, 66
11, 31872, Note_on_c, 9, 69, 0
11, 31872, Note_on_c, 9, 54, 0
11, 31872, Note_on_c, 9, 35, 87
11, 31872, Note_on_c, 9, 69, 77
11, 31872, Note_on_c, 9, 54, 95
11, 31920, Note_on_c, 9, 69, 0
11, 31920, Note_on_c, 9, 35, 0
11, 31920, Note_on_c, 9, 69, 64
11, 31968, Note_on_c, 9, 69, 0
11, 31968, Note_on_c, 9, 54, 0
11, 31968, Note_on_c, 9, 54, 97
11, 31968, Note_on_c, 9, 69, 81
11, 31968, Note_on_c, 9, 38, 87
11, 32016, Note_on_c, 9, 38, 0
11, 32016, Note_on_c, 9, 69, 0
11, 32016, Note_on_c, 9, 69, 70
11, 32064, Note_on_c, 9, 69, 0
11, 32064, Note_on_c, 9, 54, 0
11, 32064, Note_on_c, 9, 35, 87
11, 32064, Note_on_c, 9, 69, 83
11, 32064, Note_on_c, 9, 54, 95
11, 32112, Note_on_c, 9, 69, 0
11, 32112, Note_on_c, 9, 35, 0
11, 32112, Note_on_c, 9, 69, 71
11, 32160, Note_on_c, 9, 69, 0
11, 32160, Note_on_c, 9, 69, 88
11, 32164, Note_on_c, 9, 54, 0
11, 32164, Note_on_c, 9, 38, 87
11, 32164, Note_on_c, 9, 54, 97
11, 32208, Note_on_c, 9, 38, 0
11, 32208, Note_on_c, 9, 69, 0
11, 32208, Note_on_c, 9, 69, 72
11, 32256, Note_on_c, 9, 69, 0
11, 32256, Note_on_c, 9, 35, 87
11, 32256, Note_on_c, 9, 69, 77
11, 32260, Note_on_c, 9, 54, 0
11, 32260, Note_on_c, 9, 54, 95
11, 32304, Note_on_c, 9, 69, 0
11, 32304, Note_on_c, 9, 35, 0
11, 32304, Note_on_c, 9, 69, 59
11, 32352, Note_on_c, 9, 69, 0
11, 32352, Note_on_c, 9, 54, 0
11, 32352, Note_on_c, 9, 54, 97
11, 32352, Note_on_c, 9, 38, 87
11, 32352, Note_on_c, 9, 69, 75
11, 32400, Note_on_c, 9, 69, 0
11, 32400, Note_on_c, 9, 38, 0
11, 32400, Note_on_c, 9, 69, 62
11, 32448, Note_on_c, 9, 69, 0
11, 32448, Note_on_c, 9, 54, 0
11, 32448, Note_on_c, 9, 35, 87
11, 32448, Note_on_c, 9, 69, 73
11, 32448, Note_on_c, 9, 54, 95
11, 32496, Note_on_c, 9, 69, 0
11, 32496, Note_on_c, 9, 35, 0
11, 32496, Note_on_c, 9, 69, 66
11, 32544, Note_on_c, 9, 69, 0
11, 32544, Note_on_c, 9, 54, 0
11, 32544, Note_on_c, 9, 54, 97
11, 32544, Note_on_c, 9, 38, 87
11, 32544, Note_on_c, 9, 69, 75
11, 32592, Note_on_c, 9, 69, 0
11, 32592, Note_on_c, 9, 38, 0
11, 32592, Note_on_c, 9, 69, 66
11, 32640, Note_on_c, 9, 69, 0
11, 32640, Note_on_c, 9, 54, 0
11, 32640, Note_on_c, 9, 46, 97
11, 32640, Note_on_c, 9, 35, 87
11, 32640, Note_on_c, 9, 69, 77
11, 32640, Note_on_c, 9, 54, 95
11, 32688, Note_on_c, 9, 69, 0
11, 32688, Note_on_c, 9, 46, 0
11, 32688, Note_on_c, 9, 35, 0
11, 32688, Note_on_c, 9, 69, 64
11, 32736, Note_on_c, 9, 69, 0
11, 32736, Note_on_c, 9, 49, 77
11, 32736, Note_on_c, 9, 38, 87
11, 32736, Note_on_c, 9, 69, 81
11, 32740, Note_on_c, 9, 35, 87
11, 32784, Note_on_c, 9, 35, 0
11, 32784, Note_on_c, 9, 38, 0
11, 32784, Note_on_c, 9, 69, 0
11, 32784, Note_on_c, 9, 49, 0
11, 32784, Note_on_c, 9, 69, 70
11, 32832, Note_on_c, 9, 69, 0
11, 32832, Note_on_c, 9, 54, 0
11, 32832, Note_on_c, 9, 69, 83
11, 32832, Note_on_c, 9, 54, 95
11, 32880, Note_on_c, 9, 69, 0
11, 32880, Note_on_c, 9, 69, 71
11, 32928, Note_on_c, 9, 69, 0
11, 32928, Note_on_c, 9, 69, 88
11, 32976, Note_on_c, 9, 69, 0
11, 32976, Note_on_c, 9, 69, 72
11, 33024, Note_on_c, 9, 69, 0
11, 33024, Note_on_c, 9, 49, 77
11, 33024, Note_on_c, 9, 35, 87
11, 33024, Note_on_c, 9, 69, 77
11, 33028, Note_on_c, 9, 54, 0
11, 33028, Note_on_c, 9, 54, 95
11, 33072, Note_on_c, 9, 49, 0
11, 33072, Note_on_c, 9, 69, 0
11, 33072, Note_on_c, 9, 35, 0
11, 33072, Note_on_c, 9, 69, 59
11, 33120, Note_on_c, 9, 69, 0
11, 33120, Note_on_c, 9, 54, 0
11, 33120, Note_on_c, 9, 69, 75
11, 33120, Note_on_c, 9, 54, 97
11, 33124, Note_on_c, 9, 38, 87
11, 33168, Note_on_c, 9, 38, 0
11, 33168, Note_on_c, 9, 69, 0
11, 33168, Note_on_c, 9, 69, 62
11, 33216, Note_on_c, 9, 69, 0
11, 33216, Note_on_c, 9, 54, 0
11, 33216, Note_on_c, 9, 35, 87
11, 33216, Note_on_c, 9, 69, 73
11, 33216, Note_on_c, 9, 54, 95
11, 33264, Note_on_c, 9, 69, 0
11, 33264, Note_on_c, 9, 35, 0
11, 33264, Note_on_c, 9, 69, 66
11, 33312, Note_on_c, 9, 69, 0
11, 33312, Note_on_c, 9, 54, 0
11, 33312, Note_on_c, 9, 54, 97
11, 33312, Note_on_c, 9, 38, 87
11, 33312, Note_on_c, 9, 69, 75
11, 33360, Note_on_c, 9, 69, 0
11, 33360, Note_on_c, 9, 38, 0
11, 33360, Note_on_c, 9, 69, 66
11, 33408, Note_on_c, 9, 69, 0
11, 33408, Note_on_c, 9, 54, 0
11, 33408, Note_on_c, 9, 35, 87
11, 33408, Note_on_c, 9, 69, 77
11, 33408, Note_on_c, 9, 54, 95
11, 33456, Note_on_c, 9, 69, 0
11, 33456, Note_on_c, 9, 35, 0
11, 33456, Note_on_c, 9, 69, 64
11, 33504, Note_on_c, 9, 69, 0
11, 33504, Note_on_c, 9, 54, 0
11, 33504, Note_on_c, 9, 69, 81
11, 33504, Note_on_c, 9, 54, 97
11, 33508, Note_on_c, 9, 38, 87
11, 33552, Note_on_c, 9, 38, 0
11, 33552, Note_on_c, 9, 69, 0
11, 33552, Note_on_c, 9, 69, 70
11, 33600, Note_on_c, 9, 69, 0
11, 33600, Note_on_c, 9, 54, 0
11, 33600, Note_on_c, 9, 35, 87
11, 33600, Note_on_c, 9, 69, 83
11, 33600, Note_on_c, 9, 54, 95
11, 33648, Note_on_c, 9, 69, 0
11, 33648, Note_on_c, 9, 35, 0
11, 33648, Note_on_c, 9, 69, 71
11, 33696, Note_on_c, 9, 69, 0
11, 33700, Note_on_c, 9, 54, 0
11, 33700, Note_on_c, 9, 54, 97
11, 33700, Note_on_c, 9, 38, 87
11, 33700, Note_on_c, 9, 69, 88
11, 33744, Note_on_c, 9, 69, 0
11, 33744, Note_on_c, 9, 38, 0
11, 33744, Note_on_c, 9, 69, 72
11, 33792, Note_on_c, 9, 69, 0
11, 33792, Note_on_c, 9, 35, 87
11, 33792, Note_on_c, 9, 69, 77
11, 33796, Note_on_c, 9, 54, 0
11, 33796, Note_on_c, 9, 54, 95
11, 33840, Note_on_c, 9, 69, 0
11, 33840, Note_on_c, 9, 35, 0
11, 33840, Note_on_c, 9, 69, 59
11, 33888, Note_on_c, 9, 69, 0
11, 33888, Note_on_c, 9, 54, 0
11, 33888, Note_on_c, 9, 69, 75
11, 33888, Note_on_c, 9, 54, 97
11, 33892, Note_on_c, 9, 38, 87
11, 33936, Note_on_c, 9, 38, 0
11, 33936, Note_on_c, 9, 69, 0
11, 33936, Note_on_c, 9, 69, 62
11, 33984, Note_on_c, 9, 69, 0
11, 33984, Note_on_c, 9, 54, 0
11, 33984, Note_on_c, 9, 35, 87
11, 33984, Note_on_c, 9, 69, 73
11, 33984, Note_on_c, 9, 54, 95
11, 34032, Note_on_c, 9, 69, 0
11, 34032, Note_on_c, 9, 35, 0
11, 34032, Note_on_c, 9, 69, 66
11, 34080, Note_on_c, 9, 69, 0
11, 34080, Note_on_c, 9, 54, 0
11, 34080, Note_on_c, 9, 69, 75
11, 34080, Note_on_c, 9, 54, 97
11, 34084, Note_on_c, 9, 38, 87
11, 34128, Note_on_c, 9, 38, 0
11, 34128, Note_on_c, 9, 69, 0
11, 34128, Note_on_c, 9, 69, 66
11, 34176, Note_on_c, 9, 69, 0
11, 34176, Note_on_c, 9, 54, 0
11, 34176, Note_on_c, 9, 35, 87
11, 34176, Note_on_c, 9, 69, 77
11, 34176, Note_on_c, 9, 54, 95
11, 34224, Note_on_c, 9, 69, 0
11, 34224, Note_on_c, 9, 35, 0
11, 34224, Note_on_c, 9, 69, 64
11, 34272, Note_on_c, 9, 69, 0
11, 34272, Note_on_c, 9, 54, 0
11, 34272, Note_on_c, 9, 69, 81
11, 34272, Note_on_c, 9, 54, 97
11, 34276, Note_on_c, 9, 38, 87
11, 34320, Note_on_c, 9, 38, 0
11, 34320, Note_on_c, 9, 69, 0
11, 34320, Note_on_c, 9, 69, 70
11, 34368, Note_on_c, 9, 69, 0
11, 34368, Note_on_c, 9, 54, 0
11, 34368, Note_on_c, 9, 69, 83
11, 34368, Note_on_c, 9, 54, 95
11, 34372, Note_on_c, 9, 35, 87
11, 34416, Note_on_c, 9, 35, 0
11, 34416, Note_on_c, 9, 69, 0
11, 34416, Note_on_c, 9, 69, 71
11, 34464, Note_on_c, 9, 69, 0
11, 34464, Note_on_c, 9, 69, 88
11, 34468, Note_on_c, 9, 54, 0
11, 34468, Note_on_c, 9, 38, 87
11, 34468, Note_on_c, 9, 54, 97
11, 34512, Note_on_c, 9, 38, 0
11, 34512, Note_on_c, 9, 69, 0
11, 34512, Note_on_c, 9, 69, 72
11, 34560, Note_on_c, 9, 69, 0
11, 34560, Note_on_c, 9, 35, 87
11, 34560, Note_on_c, 9, 69, 77
11, 34564, Note_on_c, 9, 54, 0
11, 34564, Note_on_c, 9, 54, 95
11, 34608, Note_on_c, 9, 69, 0
11, 34608, Note_on_c, 9, 35, 0
11, 34608, Note_on_c, 9, 69, 59
11, 34656, Note_on_c, 9, 69, 0
11, 34656, Note_on_c, 9, 54, 0
11, 34656, Note_on_c, 9, 54, 97
11, 34656, Note_on_c, 9, 38, 87
11, 34656, Note_on_c, 9, 69, 75
11, 34704, Note_on_c, 9, 69, 0
11, 34704, Note_on_c, 9, 38, 0
11, 34704, Note_on_c, 9, 69, 62
11, 34752, Note_on_c, 9, 69, 0
11, 34752, Note_on_c, 9, 54, 0
11, 34752, Note_on_c, 9, 35, 87
11, 34752, Note_on_c, 9, 69, 73
11, 34752, Note_on_c, 9, 54, 95
11, 34800, Note_on_c, 9, 69, 0
11, 34800, Note_on_c, 9, 35, 0
11, 34800, Note_on_c, 9, 69, 66
11, 34848, Note_on_c, 9, 69, 0
11, 34848, Note_on_c, 9, 69, 75
11, 34852, Note_on_c, 9, 54, 0
11, 34852, Note_on_c, 9, 38, 87
11, 34852, Note_on_c, 9, 54, 97
11, 34896, Note_on_c, 9, 38, 0
11, 34896, Note_on_c, 9, 69, 0
11, 34896, Note_on_c, 9, 69, 66
11, 34944, Note_on_c, 9, 69, 0
11, 34944, Note_on_c, 9, 54, 0
11, 34944, Note_on_c, 9, 35, 87
11, 34944, Note_on_c, 9, 69, 77
11, 34944, Note_on_c, 9, 54, 95
11, 34992, Note_on_c, 9, 69, 0
11, 34992, Note_on_c, 9, 35, 0
11, 34992, Note_on_c, 9, 69, 64
11, 35040, Note_on_c, 9, 69, 0
11, 35044, Note_on_c, 9, 54, 0
11, 35044, Note_on_c, 9, 38, 87
11, 35044, Note_on_c, 9, 54, 97
11, 35044, Note_on_c, 9, 69, 81
11, 35088, Note_on_c, 9, 69, 0
11, 35088, Note_on_c, 9, 38, 0
11, 35092, Note_on_c, 9, 69, 70
11, 35136, Note_on_c, 9, 69, 0
11, 35136, Note_on_c, 9, 54, 0
11, 35136, Note_on_c, 9, 35, 87
11, 35136, Note_on_c, 9, 69, 83
11, 35136, Note_on_c, 9, 54, 95
11, 35184, Note_on_c, 9, 69, 0
11, 35184, Note_on_c, 9, 35, 0
11, 35184, Note_on_c, 9, 69, 71
11, 35232, Note_on_c, 9, 69, 0
11, 35236, Note_on_c, 9, 54, 0
11, 35236, Note_on_c, 9, 54, 97
11, 35236, Note_on_c, 9, 38, 87
11, 35236, Note_on_c, 9, 69, 88
11, 35280, Note_on_c, 9, 69, 0
11, 35280, Note_on_c, 9, 38, 0
11, 35280, Note_on_c, 9, 69, 72
11, 35328, Note_on_c, 9, 69, 0
11, 35328, Note_on_c, 9, 35, 87
11, 35328, Note_on_c, 9, 69, 77
11, 35332, Note_on_c, 9, 54, 0
11, 35332, Note_on_c, 9, 54, 95
11, 35376, Note_on_c, 9, 69, 0
11, 35376, Note_on_c, 9, 35, 0
11, 35376, Note_on_c, 9, 69, 59
11, 35424, Note_on_c, 9, 69, 0
11, 35424, Note_on_c, 9, 69, 75
11, 35428, Note_on_c, 9, 54, 0
11, 35428, Note_on_c, 9, 38, 87
11, 35428, Note_on_c, 9, 54, 97
11, 35472, Note_on_c, 9, 38, 0
11, 35472, Note_on_c, 9, 69, 0
11, 35472, Note_on_c, 9, 69, 62
11, 35520, Note_on_c, 9, 69, 0
11, 35520, Note_on_c, 9, 35, 87
11, 35524, Note_on_c, 9, 54, 0
11, 35524, Note_on_c, 9, 54, 95
11, 35524, Note_on_c, 9, 69, 73
11, 35568, Note_on_c, 9, 69, 0
11, 35568, Note_on_c, 9, 35, 0
11, 35568, Note_on_c, 9, 69, 66
11, 35616, Note_on_c, 9, 69, 0
11, 35620, Note_on_c, 9, 54, 0
11, 35620, Note_on_c, 9, 54, 97
11, 35620, Note_on_c, 9, 38, 87
11, 35620, Note_on_c, 9, 69, 75
11, 35664, Note_on_c, 9, 69, 0
11, 35664, Note_on_c, 9, 38, 0
11, 35664, Note_on_c, 9, 69, 66
11, 35712, Note_on_c, 9, 69, 0
11, 35712, Note_on_c, 9, 54, 0
11, 35712, Note_on_c, 9, 35, 87
11, 35712, Note_on_c, 9, 69, 77
11, 35712, Note_on_c, 9, 54, 95
11, 35760, Note_on_c, 9, 69, 0
11, 35760, Note_on_c, 9, 35, 0
11, 35760, Note_on_c, 9, 69, 64
11, 35808, Note_on_c, 9, 69, 0
11, 35808, Note_on_c, 9, 54, 0
11, 35808, Note_on_c, 9, 54, 97
11, 35808, Note_on_c, 9, 38, 87
11, 35812, Note_on_c, 9, 69, 81
11, 35856, Note_on_c, 9, 69, 0
11, 35856, Note_on_c, 9, 38, 0
11, 35856, Note_on_c, 9, 69, 70
11, 35904, Note_on_c, 9, 69, 0
11, 35904, Note_on_c, 9, 54, 0
11, 35904, Note_on_c, 9, 69, 83
11, 35904, Note_on_c, 9, 54, 95
11, 35908, Note_on_c, 9, 35, 87
11, 35952, Note_on_c, 9, 35, 0
11, 35952, Note_on_c, 9, 69, 0
11, 35952, Note_on_c, 9, 69, 71
11, 36000, Note_on_c, 9, 69, 0
11, 36000, Note_on_c, 9, 69, 88
11, 36008, Note_on_c, 9, 54, 0
11, 36008, Note_on_c, 9, 38, 87
11, 36008, Note_on_c, 9, 54, 97
11, 36048, Note_on_c, 9, 38, 0
11, 36048, Note_on_c, 9, 69, 0
11, 36048, Note_on_c, 9, 69, 72
11, 36096, Note_on_c, 9, 69, 0
11, 36096, Note_on_c, 9, 35, 87
11, 36096, Note_on_c, 9, 69, 77
11, 36100, Note_on_c, 9, 54, 0
11, 36100, Note_on_c, 9, 54, 95
11, 36144, Note_on_c, 9, 69, 0
11, 36144, Note_on_c, 9, 35, 0
11, 36144, Note_on_c, 9, 69, 59
11, 36192, Note_on_c, 9, 69, 0
11, 36192, Note_on_c, 9, 69, 75
11, 36196, Note_on_c, 9, 54, 0
11, 36196, Note_on_c, 9, 38, 87
11, 36196, Note_on_c, 9, 54, 97
11, 36240, Note_on_c, 9, 38, 0
11, 36240, Note_on_c, 9, 69, 0
11, 36240, Note_on_c, 9, 69, 62
11, 36288, Note_on_c, 9, 69, 0
11, 36288, Note_on_c, 9, 54, 0
11, 36288, Note_on_c, 9, 35, 87
11, 36288, Note_on_c, 9, 69, 73
11, 36288, Note_on_c, 9, 54, 95
11, 36336, Note_on_c, 9, 69, 0
11, 36336, Note_on_c, 9, 35, 0
11, 36336, Note_on_c, 9, 69, 66
11, 36384, Note_on_c, 9, 69, 0
11, 36384, Note_on_c, 9, 54, 0
11, 36384, Note_on_c, 9, 69, 75
11, 36384, Note_on_c, 9, 54, 97
11, 36388, Note_on_c, 9, 38, 87
11, 36432, Note_on_c, 9, 38, 0
11, 36432, Note_on_c, 9, 69, 0
11, 36432, Note_on_c, 9, 69, 66
11, 36480, Note_on_c, 9, 69, 0
11, 36480, Note_on_c, 9, 54, 0
11, 36480, Note_on_c, 9, 35, 87
11, 36480, Note_on_c, 9, 69, 77
11, 36480, Note_on_c, 9, 54, 95
11, 36528, Note_on_c, 9, 69, 0
11, 36528, Note_on_c, 9, 35, 0
11, 36528, Note_on_c, 9, 69, 64
11, 36576, Note_on_c, 9, 69, 0
11, 36576, Note_on_c, 9, 54, 0
11, 36576, Note_on_c, 9, 54, 97
11, 36576, Note_on_c, 9, 69, 81
11, 36576, Note_on_c, 9, 38, 87
11, 36624, Note_on_c, 9, 38, 0
11, 36624, Note_on_c, 9, 69, 0
11, 36624, Note_on_c, 9, 69, 70
11, 36672, Note_on_c, 9, 69, 0
11, 36672, Note_on_c, 9, 54, 0
11, 36672, Note_on_c, 9, 35, 87
11, 36672, Note_on_c, 9, 69, 83
11, 36672, Note_on_c, 9, 54, 95
11, 36720, Note_on_c, 9, 69, 0
11, 36720, Note_on_c, 9, 35, 0
11, 36720, Note_on_c, 9, 69, 71
11, 36768, Note_on_c, 9, 69, 0
11, 36768, Note_on_c, 9, 69, 88
11, 36776, Note_on_c, 9, 54, 0
11, 36776, Note_on_c, 9, 38, 87
11, 36776, Note_on_c, 9, 54, 97
11, 36816, Note_on_c, 9, 38, 0
11, 36816, Note_on_c, 9, 69, 0
11, 36816, Note_on_c, 9, 69, 72
11, 36864, Note_on_c, 9, 69, 0
11, 36864, Note_on_c, 9, 35, 87
11, 36864, Note_on_c, 9, 69, 77
11, 36868, Note_on_c, 9, 54, 0
11, 36868, Note_on_c, 9, 54, 95
11, 36912, Note_on_c, 9, 69, 0
11, 36912, Note_on_c, 9, 35, 0
11, 36912, Note_on_c, 9, 69, 59
11, 36960, Note_on_c, 9, 69, 0
11, 36960, Note_on_c, 9, 69, 75
11, 36964, Note_on_c, 9, 54, 0
11, 36964, Note_on_c, 9, 38, 87
11, 36964, Note_on_c, 9, 54, 97
11, 37008, Note_on_c, 9, 38, 0
11, 37008, Note_on_c, 9, 69, 0
11, 37008, Note_on_c, 9, 69, 62
11, 37056, Note_on_c, 9, 69, 0
11, 37056, Note_on_c, 9, 35, 87
11, 37060, Note_on_c, 9, 54, 0
11, 37060, Note_on_c, 9, 54, 95
11, 37060, Note_on_c, 9, 69, 73
11, 37104, Note_on_c, 9, 69, 0
11, 37104, Note_on_c, 9, 35, 0
11, 37104, Note_on_c, 9, 69, 66
11, 37152, Note_on_c, 9, 69, 0
11, 37152, Note_on_c, 9, 69, 75
11, 37156, Note_on_c, 9, 54, 0
11, 37156, Note_on_c, 9, 38, 87
11, 37156, Note_on_c, 9, 54, 97
11, 37200, Note_on_c, 9, 38, 0
11, 37200, Note_on_c, 9, 69, 0
11, 37200, Note_on_c, 9, 69, 66
11, 37248, Note_on_c, 9, 69, 0
11, 37248, Note_on_c, 9, 54, 0
11, 37248, Note_on_c, 9, 35, 87
11, 37248, Note_on_c, 9, 69, 77
11, 37248, Note_on_c, 9, 54, 95
11, 37296, Note_on_c, 9, 69, 0
11, 37296, Note_on_c, 9, 35, 0
11, 37296, Note_on_c, 9, 69, 64
11, 37344, Note_on_c, 9, 69, 0
11, 37344, Note_on_c, 9, 54, 0
11, 37344, Note_on_c, 9, 69, 81
11, 37344, Note_on_c, 9, 54, 97
11, 37348, Note_on_c, 9, 38, 87
11, 37392, Note_on_c, 9, 38, 0
11, 37392, Note_on_c, 9, 69, 0
11, 37392, Note_on_c, 9, 69, 70
11, 37440, Note_on_c, 9, 69, 0
11, 37440, Note_on_c, 9, 54, 0
11, 37440, Note_on_c, 9, 35, 87
11, 37440, Note_on_c, 9, 69, 83
11, 37440, Note_on_c, 9, 54, 95
11, 37488, Note_on_c, 9, 69, 0
11, 37488, Note_on_c, 9, 35, 0
11, 37488, Note_on_c, 9, 69, 71
11, 37536, Note_on_c, 9, 69, 0
11, 37536, Note_on_c, 9, 69, 88
11, 37540, Note_on_c, 9, 54, 0
11, 37540, Note_on_c, 9, 38, 87
11, 37540, Note_on_c, 9, 54, 97
11, 37584, Note_on_c, 9, 38, 0
11, 37584, Note_on_c, 9, 69, 0
11, 37584, Note_on_c, 9, 69, 72
11, 37632, Note_on_c, 9, 69, 0
11, 37636, Note_on_c, 9, 54, 0
11, 37636, Note_on_c, 9, 54, 95
11, 37636, Note_on_c, 9, 35, 87
11, 37636, Note_on_c, 9, 69, 77
11, 37680, Note_on_c, 9, 69, 0
11, 37680, Note_on_c, 9, 35, 0
11, 37680, Note_on_c, 9, 69, 59
11, 37728, Note_on_c, 9, 69, 0
11, 37728, Note_on_c, 9, 54, 0
11, 37728, Note_on_c, 9, 54, 97
11, 37728, Note_on_c, 9, 38, 87
11, 37728, Note_on_c, 9, 69, 75
11, 37776, Note_on_c, 9, 69, 0
11, 37776, Note_on_c, 9, 38, 0
11, 37776, Note_on_c, 9, 69, 62
11, 37824, Note_on_c, 9, 69, 0
11, 37824, Note_on_c, 9, 54, 0
11, 37824, Note_on_c, 9, 35, 87
11, 37824, Note_on_c, 9, 69, 73
11, 37824, Note_on_c, 9, 54, 95
11, 37872, Note_on_c, 9, 69, 0
11, 37872, Note_on_c, 9, 35, 0
11, 37872, Note_on_c, 9, 69, 66
11, 37920, Note_on_c, 9, 69, 0
11, 37920, Note_on_c, 9, 54, 0
11, 37920, Note_on_c, 9, 69, 75
11, 37920, Note_on_c, 9, 54, 97
11, 37924, Note_on_c, 9, 38, 87
11, 37968, Note_on_c, 9, 38, 0
11, 37968, Note_on_c, 9, 69, 0
11, 37968, Note_on_c, 9, 69, 66
11, 38016, Note_on_c, 9, 69, 0
11, 38016, Note_on_c, 9, 54, 0
11, 38016, Note_on_c, 9, 35, 87
11, 38016, Note_on_c, 9, 69, 77
11, 38016, Note_on_c, 9, 54, 95
11, 38064, Note_on_c, 9, 69, 0
11, 38064, Note_on_c, 9, 35, 0
11, 38064, Note_on_c, 9, 69, 64
11, 38112, Note_on_c, 9, 69, 0
11, 38112, Note_on_c, 9, 54, 0
11, 38112, Note_on_c, 9, 69, 81
11, 38112, Note_on_c, 9, 54, 97
11, 38116, Note_on_c, 9, 38, 87
11, 38160, Note_on_c, 9, 38, 0
11, 38160, Note_on_c, 9, 69, 0
11, 38160, Note_on_c, 9, 69, 70
11, 38208, Note_on_c, 9, 69, 0
11, 38208, Note_on_c, 9, 54, 0
11, 38208, Note_on_c, 9, 35, 87
11, 38208, Note_on_c, 9, 69, 83
11, 38208, Note_on_c, 9, 54, 95
11, 38256, Note_on_c, 9, 69, 0
11, 38256, Note_on_c, 9, 35, 0
11, 38256, Note_on_c, 9, 69, 71
11, 38304, Note_on_c, 9, 69, 0
11, 38304, Note_on_c, 9, 69, 88
11, 38308, Note_on_c, 9, 54, 0
11, 38308, Note_on_c, 9, 54, 97
11, 38312, Note_on_c, 9, 38, 87
11, 38352, Note_on_c, 9, 38, 0
11, 38352, Note_on_c, 9, 69, 0
11, 38352, Note_on_c, 9, 69, 72
11, 38400, Note_on_c, 9, 69, 0
11, 38400, Note_on_c, 9, 35, 87
11, 38400, Note_on_c, 9, 69, 77
11, 38401, Note_on_c, 9, 54, 0
11, 38448, Note_on_c, 9, 69, 0
11, 38448, Note_on_c, 9, 35, 0
11, 38448, Note_on_c, 9, 69, 59
11, 38496, Note_on_c, 9, 69, 0
11, 38496, Note_on_c, 9, 54, 97
11, 38496, Note_on_c, 9, 69, 75
11, 38496, Note_on_c, 9, 38, 87
11, 38544, Note_on_c, 9, 38, 0
11, 38544, Note_on_c, 9, 69, 0
11, 38544, Note_on_c, 9, 69, 62
11, 38592, Note_on_c, 9, 69, 0
11, 38592, Note_on_c, 9, 54, 0
11, 38592, Note_on_c, 9, 35, 87
11, 38592, Note_on_c, 9, 69, 73
11, 38592, Note_on_c, 9, 54, 95
11, 38640, Note_on_c, 9, 69, 0
11, 38640, Note_on_c, 9, 35, 0
11, 38640, Note_on_c, 9, 69, 66
11, 38688, Note_on_c, 9, 69, 0
11, 38688, Note_on_c, 9, 69, 75
11, 38692, Note_on_c, 9, 54, 0
11, 38692, Note_on_c, 9, 38, 87
11, 38692, Note_on_c, 9, 54, 97
11, 38736, Note_on_c, 9, 38, 0
11, 38736, Note_on_c, 9, 69, 0
11, 38736, Note_on_c, 9, 69, 66
11, 38784, Note_on_c, 9, 69, 0
11, 38784, Note_on_c, 9, 54, 0
11, 38784, Note_on_c, 9, 35, 87
11, 38784, Note_on_c, 9, 69, 77
11, 38784, Note_on_c, 9, 54, 95
11, 38832, Note_on_c, 9, 69, 0
11, 38832, Note_on_c, 9, 35, 0
11, 38832, Note_on_c, 9, 69, 64
11, 38880, Note_on_c, 9, 69, 0
11, 38880, Note_on_c, 9, 54, 0
11, 38880, Note_on_c, 9, 54, 97
11, 38880, Note_on_c, 9, 69, 81
11, 38884, Note_on_c, 9, 38, 87
11, 38928, Note_on_c, 9, 38, 0
11, 38928, Note_on_c, 9, 69, 0
11, 38928, Note_on_c, 9, 69, 70
11, 38976, Note_on_c, 9, 69, 0
11, 38976, Note_on_c, 9, 54, 0
11, 38976, Note_on_c, 9, 35, 87
11, 38976, Note_on_c, 9, 69, 83
11, 38976, Note_on_c, 9, 54, 95
11, 39024, Note_on_c, 9, 69, 0
11, 39024, Note_on_c, 9, 35, 0
11, 39024, Note_on_c, 9, 69, 71
11, 39072, Note_on_c, 9, 69, 0
11, 39072, Note_on_c, 9, 54, 0
11, 39072, Note_on_c, 9, 69, 88
11, 39072, Note_on_c, 9, 54, 97
11, 39076, Note_on_c, 9, 38, 87
11, 39120, Note_on_c, 9, 38, 0
11, 39120, Note_on_c, 9, 69, 0
11, 39120, Note_on_c, 9, 69, 72
11, 39168, Note_on_c, 9, 69, 0
11, 39168, Note_on_c, 9, 49, 77
11, 39168, Note_on_c, 9, 35, 87
11, 39168, Note_on_c, 9, 69, 77
11, 39172, Note_on_c, 9, 54, 0
11, 39172, Note_on_c, 9, 54, 95
11, 39216, Note_on_c, 9, 49, 0
11, 39216, Note_on_c, 9, 69, 0
11, 39216, Note_on_c, 9, 35, 0
11, 39216, Note_on_c, 9, 69, 59
11, 39264, Note_on_c, 9, 69, 0
11, 39264, Note_on_c, 9, 54, 0
11, 39264, Note_on_c, 9, 69, 75
11, 39264, Note_on_c, 9, 54, 97
11, 39268, Note_on_c, 9, 38, 87
11, 39312, Note_on_c, 9, 38, 0
11, 39312, Note_on_c, 9, 69, 0
11, 39312, Note_on_c, 9, 69, 62
11, 39360, Note_on_c, 9, 69, 0
11, 39360, Note_on_c, 9, 35, 87
11, 39364, Note_on_c, 9, 54, 0
11, 39364, Note_on_c, 9, 54, 95
11, 39364, Note_on_c, 9, 69, 73
11, 39408, Note_on_c, 9, 69, 0
11, 39408, Note_on_c, 9, 35, 0
11, 39408, Note_on_c, 9, 69, 66
11, 39456, Note_on_c, 9, 69, 0
11, 39456, Note_on_c, 9, 54, 0
11, 39456, Note_on_c, 9, 54, 97
11, 39456, Note_on_c, 9, 38, 87
11, 39460, Note_on_c, 9, 69, 75
11, 39504, Note_on_c, 9, 69, 0
11, 39504, Note_on_c, 9, 38, 0
11, 39504, Note_on_c, 9, 69, 66
11, 39552, Note_on_c, 9, 69, 0
11, 39552, Note_on_c, 9, 54, 0
11, 39552, Note_on_c, 9, 35, 87
11, 39552, Note_on_c, 9, 69, 77
11, 39552, Note_on_c, 9, 54, 95
11, 39600, Note_on_c, 9, 69, 0
11, 39600, Note_on_c, 9, 35, 0
11, 39600, Note_on_c, 9, 69, 64
11, 39648, Note_on_c, 9, 69, 0
11, 39648, Note_on_c, 9, 54, 0
11, 39648, Note_on_c, 9, 69, 81
11, 39648, Note_on_c, 9, 54, 97
11, 39652, Note_on_c, 9, 38, 87
11, 39696, Note_on_c, 9, 38, 0
11, 39696, Note_on_c, 9, 69, 0
11, 39696, Note_on_c, 9, 69, 70
11, 39744, Note_on_c, 9, 69, 0
11, 39744, Note_on_c, 9, 54, 0
11, 39744, Note_on_c, 9, 35, 87
11, 39744, Note_on_c, 9, 69, 83
11, 39744, Note_on_c, 9, 54, 95
11, 39792, Note_on_c, 9, 69, 0
11, 39792, Note_on_c, 9, 35, 0
11, 39792, Note_on_c, 9, 69, 71
11, 39840, Note_on_c, 9, 69, 0
11, 39840, Note_on_c, 9, 69, 88
11, 39844, Note_on_c, 9, 54, 0
11, 39844, Note_on_c, 9, 38, 87
11, 39844, Note_on_c, 9, 54, 97
11, 39888, Note_on_c, 9, 38, 0
11, 39888, Note_on_c, 9, 69, 0
11, 39888, Note_on_c, 9, 69, 72
11, 39936, Note_on_c, 9, 69, 0
11, 39936, Note_on_c, 9, 35, 87
11, 39936, Note_on_c, 9, 69, 77
11, 39940, Note_on_c, 9, 54, 0
11, 39940, Note_on_c, 9, 54, 95
11, 39984, Note_on_c, 9, 69, 0
11, 39984, Note_on_c, 9, 35, 0
11, 39984, Note_on_c, 9, 69, 59
11, 40032, Note_on_c, 9, 69, 0
11, 40032, Note_on_c, 9, 69, 75
11, 40036, Note_on_c, 9, 54, 0
11, 40036, Note_on_c, 9, 38, 87
11, 40036, Note_on_c, 9, 54, 97
11, 40080, Note_on_c, 9, 38, 0
11, 40080, Note_on_c, 9, 69, 0
11, 40080, Note_on_c, 9, 69, 62
11, 40128, Note_on_c, 9, 69, 0
11, 40128, Note_on_c, 9, 54, 0
11, 40128, Note_on_c, 9, 69, 73
11, 40128, Note_on_c, 9, 54, 95
11, 40132, Note_on_c, 9, 35, 87
11, 40176, Note_on_c, 9, 35, 0
11, 40176, Note_on_c, 9, 69, 0
11, 40176, Note_on_c, 9, 69, 66
11, 40224, Note_on_c, 9, 69, 0
11, 40224, Note_on_c, 9, 54, 0
11, 40224, Note_on_c, 9, 69, 75
11, 40224, Note_on_c, 9, 54, 97
11, 40228, Note_on_c, 9, 38, 87
11, 40272, Note_on_c, 9, 38, 0
11, 40272, Note_on_c, 9, 69, 0
11, 40272, Note_on_c, 9, 69, 66
11, 40320, Note_on_c, 9, 69, 0
11, 40320, Note_on_c, 9, 54, 0
11, 40320, Note_on_c, 9, 35, 87
11, 40320, Note_on_c, 9, 69, 77
11, 40320, Note_on_c, 9, 54, 95
11, 40368, Note_on_c, 9, 69, 0
11, 40368, Note_on_c, 9, 35, 0
11, 40368, Note_on_c, 9, 69, 64
11, 40416, Note_on_c, 9, 69, 0
11, 40416, Note_on_c, 9, 54, 0
11, 40416, Note_on_c, 9, 69, 81
11, 40416, Note_on_c, 9, 54, 97
11, 40420, Note_on_c, 9, 38, 87
11, 40464, Note_on_c, 9, 38, 0
11, 40464, Note_on_c, 9, 69, 0
11, 40464, Note_on_c, 9, 69, 70
11, 40512, Note_on_c, 9, 69, 0
11, 40512, Note_on_c, 9, 54, 0
11, 40512, Note_on_c, 9, 35, 87
11, 40512, Note_on_c, 9, 69, 83
11, 40512, Note_on_c, 9, 54, 95
11, 40560, Note_on_c, 9, 69, 0
11, 40560, Note_on_c, 9, 35, 0
11, 40560, Note_on_c, 9, 69, 71
11, 40608, Note_on_c, 9, 69, 0
11, 40608, Note_on_c, 9, 54, 0
11, 40608, Note_on_c, 9, 69, 88
11, 40608, Note_on_c, 9, 54, 97
11, 40612, Note_on_c, 9, 38, 87
11, 40656, Note_on_c, 9, 38, 0
11, 40656, Note_on_c, 9, 69, 0
11, 40656, Note_on_c, 9, 69, 72
11, 40704, Note_on_c, 9, 69, 0
11, 40704, Note_on_c, 9, 35, 87
11, 40704, Note_on_c, 9, 69, 77
11, 40705, Note_on_c, 9, 54, 0
11, 40752, Note_on_c, 9, 69, 0
11, 40752, Note_on_c, 9, 35, 0
11, 40752, Note_on_c, 9, 69, 59
11, 40800, Note_on_c, 9, 69, 0
11, 40800, Note_on_c, 9, 54, 97
11, 40800, Note_on_c, 9, 69, 75
11, 40800, Note_on_c, 9, 38, 87
11, 40848, Note_on_c, 9, 38, 0
11, 40848, Note_on_c, 9, 69, 0
11, 40848, Note_on_c, 9, 69, 62
11, 40896, Note_on_c, 9, 69, 0
11, 40896, Note_on_c, 9, 69, 73
11, 40900, Note_on_c, 9, 54, 0
11, 40900, Note_on_c, 9, 35, 87
11, 40900, Note_on_c, 9, 54, 95
11, 40944, Note_on_c, 9, 35, 0
11, 40944, Note_on_c, 9, 69, 0
11, 40944, Note_on_c, 9, 69, 66
11, 40992, Note_on_c, 9, 69, 0
11, 40992, Note_on_c, 9, 69, 75
11, 40996, Note_on_c, 9, 54, 0
11, 40996, Note_on_c, 9, 38, 87
11, 40996, Note_on_c, 9, 54, 97
11, 41040, Note_on_c, 9, 38, 0
11, 41040, Note_on_c, 9, 69, 0
11, 41040, Note_on_c, 9, 69, 66
11, 41088, Note_on_c, 9, 69, 0
11, 41088, Note_on_c, 9, 69, 77
11, 41092, Note_on_c, 9, 54, 0
11, 41092, Note_on_c, 9, 35, 87
11, 41092, Note_on_c, 9, 54, 95
11, 41136, Note_on_c, 9, 35, 0
11, 41136, Note_on_c, 9, 69, 0
11, 41136, Note_on_c, 9, 69, 64
11, 41184, Note_on_c, 9, 69, 0
11, 41188, Note_on_c, 9, 54, 0
11, 41188, Note_on_c, 9, 54, 97
11, 41188, Note_on_c, 9, 38, 87
11, 41188, Note_on_c, 9, 69, 81
11, 41232, Note_on_c, 9, 69, 0
11, 41232, Note_on_c, 9, 38, 0
11, 41232, Note_on_c, 9, 69, 70
11, 41280, Note_on_c, 9, 69, 0
11, 41280, Note_on_c, 9, 54, 0
11, 41280, Note_on_c, 9, 35, 87
11, 41280, Note_on_c, 9, 69, 83
11, 41280, Note_on_c, 9, 54, 95
11, 41328, Note_on_c, 9, 69, 0
11, 41328, Note_on_c, 9, 35, 0
11, 41328, Note_on_c, 9, 69, 71
11, 41376, Note_on_c, 9, 69, 0
11, 41376, Note_on_c, 9, 69, 88
11, 41380, Note_on_c, 9, 54, 0
11, 41380, Note_on_c, 9, 38, 87
11, 41380, Note_on_c, 9, 54, 97
11, 41424, Note_on_c, 9, 38, 0
11, 41424, Note_on_c, 9, 69, 0
11, 41424, Note_on_c, 9, 69, 72
11, 41472, Note_on_c, 9, 69, 0
11, 41472, Note_on_c, 9, 35, 87
11, 41472, Note_on_c, 9, 69, 77
11, 41473, Note_on_c, 9, 54, 0
11, 41520, Note_on_c, 9, 69, 0
11, 41520, Note_on_c, 9, 35, 0
11, 41520, Note_on_c, 9, 69, 59
11, 41568, Note_on_c, 9, 69, 0
11, 41568, Note_on_c, 9, 69, 75
11, 41572, Note_on_c, 9, 38, 87
11, 41572, Note_on_c, 9, 54, 97
11, 41616, Note_on_c, 9, 38, 0
11, 41616, Note_on_c, 9, 69, 0
11, 41616, Note_on_c, 9, 69, 62
11, 41664, Note_on_c, 9, 69, 0
11, 41664, Note_on_c, 9, 35, 87
11, 41668, Note_on_c, 9, 54, 0
11, 41668, Note_on_c, 9, 54, 95
11, 41668, Note_on_c, 9, 69, 73
11, 41712, Note_on_c, 9, 69, 0
11, 41712, Note_on_c, 9, 35, 0
11, 41712, Note_on_c, 9, 69, 66
11, 41760, Note_on_c, 9, 69, 0
11, 41760, Note_on_c, 9, 69, 75
11, 41764, Note_on_c, 9, 54, 0
11, 41764, Note_on_c, 9, 38, 87
11, 41764, Note_on_c, 9, 54, 97
11, 41808, Note_on_c, 9, 38, 0
11, 41808, Note_on_c, 9, 69, 0
11, 41808, Note_on_c, 9, 69, 66
11, 41856, Note_on_c, 9, 69, 0
11, 41856, Note_on_c, 9, 54, 0
11, 41856, Note_on_c, 9, 35, 87
11, 41856, Note_on_c, 9, 69, 77
11, 41856, Note_on_c, 9, 54, 95
11, 41904, Note_on_c, 9, 69, 0
11, 41904, Note_on_c, 9, 35, 0
11, 41904, Note_on_c, 9, 69, 64
11, 41952, Note_on_c, 9, 69, 0
11, 41952, Note_on_c, 9, 69, 81
11, 41956, Note_on_c, 9, 54, 0
11, 41956, Note_on_c, 9, 38, 87
11, 41956, Note_on_c, 9, 54, 97
11, 42000, Note_on_c, 9, 38, 0
11, 42000, Note_on_c, 9, 69, 0
11, 42000, Note_on_c, 9, 69, 70
11, 42048, Note_on_c, 9, 69, 0
11, 42048, Note_on_c, 9, 54, 0
11, 42048, Note_on_c, 9, 35, 87
11, 42048, Note_on_c, 9, 69, 83
11, 42048, Note_on_c, 9, 54, 95
11, 42096, Note_on_c, 9, 69, 0
11, 42096, Note_on_c, 9, 35, 0
11, 42096, Note_on_c, 9, 69, 71
11, 42144, Note_on_c, 9, 69, 0
11, 42144, Note_on_c, 9, 69, 88
11, 42148, Note_on_c, 9, 54, 0
11, 42148, Note_on_c, 9, 38, 87
11, 42148, Note_on_c, 9, 54, 97
11, 42192, Note_on_c, 9, 38, 0
11, 42192, Note_on_c, 9, 69, 0
11, 42192, Note_on_c, 9, 69, 72
11, 42240, Note_on_c, 9, 69, 0
11, 42240, Note_on_c, 9, 35, 87
11, 42240, Note_on_c, 9, 69, 77
11, 42241, Note_on_c, 9, 54, 0
11, 42288, Note_on_c, 9, 69, 0
11, 42288, Note_on_c, 9, 35, 0
11, 42288, Note_on_c, 9, 69, 59
11, 42336, Note_on_c, 9, 69, 0
11, 42336, Note_on_c, 9, 69, 75
11, 42340, Note_on_c, 9, 38, 87
11, 42340, Note_on_c, 9, 54, 97
11, 42384, Note_on_c, 9, 38, 0
11, 42384, Note_on_c, 9, 69, 0
11, 42384, Note_on_c, 9, 69, 62
11, 42432, Note_on_c, 9, 69, 0
11, 42432, Note_on_c, 9, 54, 0
11, 42432, Note_on_c, 9, 35, 87
11, 42432, Note_on_c, 9, 69, 73
11, 42432, Note_on_c, 9, 54, 95
11, 42480, Note_on_c, 9, 69, 0
11, 42480, Note_on_c, 9, 35, 0
11, 42480, Note_on_c, 9, 69, 66
11, 42528, Note_on_c, 9, 69, 0
11, 42528, Note_on_c, 9, 54, 0
11, 42528, Note_on_c, 9, 69, 75
11, 42528, Note_on_c, 9, 54, 97
11, 42532, Note_on_c, 9, 38, 87
11, 42576, Note_on_c, 9, 38, 0
11, 42576, Note_on_c, 9, 69, 0
11, 42576, Note_on_c, 9, 69, 66
11, 42624, Note_on_c, 9, 69, 0
11, 42624, Note_on_c, 9, 54, 0
11, 42624, Note_on_c, 9, 35, 87
11, 42624, Note_on_c, 9, 69, 77
11, 42624, Note_on_c, 9, 54, 95
11, 42672, Note_on_c, 9, 69, 0
11, 42672, Note_on_c, 9, 35, 0
11, 42672, Note_on_c, 9, 69, 64
11, 42720, Note_on_c, 9, 69, 0
11, 42720, Note_on_c, 9, 54, 0
11, 42720, Note_on_c, 9, 54, 97
11, 42720, Note_on_c, 9, 69, 81
11, 42720, Note_on_c, 9, 38, 87
11, 42768, Note_on_c, 9, 38, 0
11, 42768, Note_on_c, 9, 69, 0
11, 42768, Note_on_c, 9, 69, 70
11, 42816, Note_on_c, 9, 69, 0
11, 42816, Note_on_c, 9, 54, 0
11, 42816, Note_on_c, 9, 35, 87
11, 42816, Note_on_c, 9, 69, 83
11, 42816, Note_on_c, 9, 54, 95
11, 42864, Note_on_c, 9, 69, 0
11, 42864, Note_on_c, 9, 35, 0
11, 42864, Note_on_c, 9, 69, 71
11, 42912, Note_on_c, 9, 69, 0
11, 42912, Note_on_c, 9, 69, 88
11, 42916, Note_on_c, 9, 54, 0
11, 42916, Note_on_c, 9, 38, 87
11, 42916, Note_on_c, 9, 54, 97
11, 42960, Note_on_c, 9, 38, 0
11, 42960, Note_on_c, 9, 69, 0
11, 42960, Note_on_c, 9, 69, 72
11, 43008, Note_on_c, 9, 69, 0
11, 43008, Note_on_c, 9, 35, 87
11, 43008, Note_on_c, 9, 69, 77
11, 43012, Note_on_c, 9, 54, 0
11, 43012, Note_on_c, 9, 54, 95
11, 43056, Note_on_c, 9, 69, 0
11, 43056, Note_on_c, 9, 35, 0
11, 43056, Note_on_c, 9, 69, 59
11, 43104, Note_on_c, 9, 69, 0
11, 43104, Note_on_c, 9, 69, 75
11, 43108, Note_on_c, 9, 54, 0
11, 43108, Note_on_c, 9, 38, 87
11, 43108, Note_on_c, 9, 54, 97
11, 43152, Note_on_c, 9, 38, 0
11, 43152, Note_on_c, 9, 69, 0
11, 43152, Note_on_c, 9, 69, 62
11, 43200, Note_on_c, 9, 69, 0
11, 43200, Note_on_c, 9, 35, 87
11, 43204, Note_on_c, 9, 54, 0
11, 43204, Note_on_c, 9, 54, 95
11, 43204, Note_on_c, 9, 69, 73
11, 43248, Note_on_c, 9, 69, 0
11, 43248, Note_on_c, 9, 35, 0
11, 43248, Note_on_c, 9, 69, 66
11, 43296, Note_on_c, 9, 69, 0
11, 43296, Note_on_c, 9, 69, 75
11, 43300, Note_on_c, 9, 54, 0
11, 43300, Note_on_c, 9, 38, 87
11, 43300, Note_on_c, 9, 54, 97
11, 43344, Note_on_c, 9, 38, 0
11, 43344, Note_on_c, 9, 69, 0
11, 43344, Note_on_c, 9, 69, 66
11, 43392, Note_on_c, 9, 69, 0
11, 43392, Note_on_c, 9, 35, 87
11, 43396, Note_on_c, 9, 54, 0
11, 43396, Note_on_c, 9, 54, 95
11, 43396, Note_on_c, 9, 69, 77
11, 43440, Note_on_c, 9, 69, 0
11, 43440, Note_on_c, 9, 35, 0
11, 43440, Note_on_c, 9, 69, 64
11, 43488, Note_on_c, 9, 69, 0
11, 43488, Note_on_c, 9, 54, 0
11, 43488, Note_on_c, 9, 69, 81
11, 43488, Note_on_c, 9, 54, 97
11, 43492, Note_on_c, 9, 38, 87
11, 43536, Note_on_c, 9, 38, 0
11, 43536, Note_on_c, 9, 69, 0
11, 43536, Note_on_c, 9, 69, 70
11, 43584, Note_on_c, 9, 69, 0
11, 43584, Note_on_c, 9, 54, 0
11, 43584, Note_on_c, 9, 35, 87
11, 43584, Note_on_c, 9, 69, 83
11, 43584, Note_on_c, 9, 54, 95
11, 43632, Note_on_c, 9, 69, 0
11, 43632, Note_on_c, 9, 35, 0
11, 43632, Note_on_c, 9, 69, 71
11, 43680, Note_on_c, 9, 69, 0
11, 43680, Note_on_c, 9, 69, 88
11, 43684, Note_on_c, 9, 54, 0
11, 43684, Note_on_c, 9, 54, 97
11, 43688, Note_on_c, 9, 38, 87
11, 43728, Note_on_c, 9, 38, 0
11, 43728, Note_on_c, 9, 69, 0
11, 43728, Note_on_c, 9, 69, 72
11, 43776, Note_on_c, 9, 69, 0
11, 43776, Note_on_c, 9, 35, 87
11, 43776, Note_on_c, 9, 69, 77
11, 43780, Note_on_c, 9, 54, 0
11, 43780, Note_on_c, 9, 54, 95
11, 43824, Note_on_c, 9, 69, 0
11, 43824, Note_on_c, 9, 35, 0
11, 43824, Note_on_c, 9, 69, 59
11, 43872, Note_on_c, 9, 69, 0
11, 43872, Note_on_c, 9, 54, 0
11, 43872, Note_on_c, 9, 54, 97
11, 43872, Note_on_c, 9, 69, 75
11, 43876, Note_on_c, 9, 38, 87
11, 43920, Note_on_c, 9, 38, 0
11, 43920, Note_on_c, 9, 69, 0
11, 43920, Note_on_c, 9, 69, 62
11, 43968, Note_on_c, 9, 69, 0
11, 43968, Note_on_c, 9, 54, 0
11, 43968, Note_on_c, 9, 69, 73
11, 43968, Note_on_c, 9, 54, 95
11, 43972, Note_on_c, 9, 35, 87
11, 44016, Note_on_c, 9, 35, 0
11, 44016, Note_on_c, 9, 69, 0
11, 44016, Note_on_c, 9, 69, 66
11, 44064, Note_on_c, 9, 69, 0
11, 44064, Note_on_c, 9, 69, 75
11, 44068, Note_on_c, 9, 54, 0
11, 44068, Note_on_c, 9, 38, 87
11, 44068, Note_on_c, 9, 54, 97
11, 44112, Note_on_c, 9, 38, 0
11, 44112, Note_on_c, 9, 69, 0
11, 44112, Note_on_c, 9, 69, 66
11, 44160, Note_on_c, 9, 69, 0
11, 44160, Note_on_c, 9, 54, 0
11, 44160, Note_on_c, 9, 69, 77
11, 44160, Note_on_c, 9, 54, 95
11, 44164, Note_on_c, 9, 35, 87
11, 44208, Note_on_c, 9, 69, 0
11, 44208, Note_on_c, 9, 69, 64
11, 44212, Note_on_c, 9, 35, 0
11, 44256, Note_on_c, 9, 69, 0
11, 44256, Note_on_c, 9, 69, 81
11, 44260, Note_on_c, 9, 54, 0
11, 44260, Note_on_c, 9, 38, 87
11, 44260, Note_on_c, 9, 54, 97
11, 44304, Note_on_c, 9, 38, 0
11, 44304, Note_on_c, 9, 69, 0
11, 44304, Note_on_c, 9, 69, 70
11, 44352, Note_on_c, 9, 69, 0
11, 44352, Note_on_c, 9, 54, 0
11, 44352, Note_on_c, 9, 35, 87
11, 44352, Note_on_c, 9, 69, 83
11, 44352, Note_on_c, 9, 54, 95
11, 44400, Note_on_c, 9, 69, 0
11, 44400, Note_on_c, 9, 35, 0
11, 44400, Note_on_c, 9, 69, 71
11, 44448, Note_on_c, 9, 69, 0
11, 44448, Note_on_c, 9, 69, 88
11, 44452, Note_on_c, 9, 54, 0
11, 44452, Note_on_c, 9, 54, 97
11, 44456, Note_on_c, 9, 38, 87
11, 44496, Note_on_c, 9, 38, 0
11, 44496, Note_on_c, 9, 69, 0
11, 44496, Note_on_c, 9, 69, 72
11, 44544, Note_on_c, 9, 69, 0
11, 44544, Note_on_c, 9, 35, 87
11, 44544, Note_on_c, 9, 69, 77
11, 44545, Note_on_c, 9, 54, 0
11, 44592, Note_on_c, 9, 69, 0
11, 44592, Note_on_c, 9, 35, 0
11, 44592, Note_on_c, 9, 69, 59
11, 44640, Note_on_c, 9, 69, 0
11, 44640, Note_on_c, 9, 54, 97
11, 44640, Note_on_c, 9, 38, 87
11, 44640, Note_on_c, 9, 69, 75
11, 44688, Note_on_c, 9, 69, 0
11, 44688, Note_on_c, 9, 38, 0
11, 44688, Note_on_c, 9, 69, 62
11, 44736, Note_on_c, 9, 69, 0
11, 44736, Note_on_c, 9, 54, 0
11, 44736, Note_on_c, 9, 35, 87
11, 44736, Note_on_c, 9, 69, 73
11, 44736, Note_on_c, 9, 54, 95
11, 44784, Note_on_c, 9, 69, 0
11, 44784, Note_on_c, 9, 35, 0
11, 44784, Note_on_c, 9, 69, 66
11, 44832, Note_on_c, 9, 69, 0
11, 44832, Note_on_c, 9, 69, 75
11, 44836, Note_on_c, 9, 54, 0
11, 44836, Note_on_c, 9, 38, 87
11, 44836, Note_on_c, 9, 54, 97
11, 44880, Note_on_c, 9, 38, 0
11, 44880, Note_on_c, 9, 69, 0
11, 44880, Note_on_c, 9, 69, 66
11, 44928, Note_on_c, 9, 69, 0
11, 44928, Note_on_c, 9, 54, 0
11, 44928, Note_on_c, 9, 35, 87
11, 44928, Note_on_c, 9, 69, 77
11, 44928, Note_on_c, 9, 54, 95
11, 44976, Note_on_c, 9, 69, 0
11, 44976, Note_on_c, 9, 35, 0
11, 44976, Note_on_c, 9, 69, 64
11, 45024, Note_on_c, 9, 69, 0
11, 45024, Note_on_c, 9, 54, 0
11, 45024, Note_on_c, 9, 69, 81
11, 45024, Note_on_c, 9, 54, 97
11, 45028, Note_on_c, 9, 38, 87
11, 45072, Note_on_c, 9, 38, 0
11, 45072, Note_on_c, 9, 69, 0
11, 45072, Note_on_c, 9, 69, 70
11, 45120, Note_on_c, 9, 69, 0
11, 45120, Note_on_c, 9, 54, 0
11, 45120, Note_on_c, 9, 69, 83
11, 45120, Note_on_c, 9, 54, 95
11, 45124, Note_on_c, 9, 35, 87
11, 45168, Note_on_c, 9, 35, 0
11, 45168, Note_on_c, 9, 69, 0
11, 45168, Note_on_c, 9, 69, 71
11, 45216, Note_on_c, 9, 69, 0
11, 45220, Note_on_c, 9, 69, 88
11, 45224, Note_on_c, 9, 54, 0
11, 45224, Note_on_c, 9, 38, 87
11, 45224, Note_on_c, 9, 54, 97
11, 45264, Note_on_c, 9, 38, 0
11, 45264, Note_on_c, 9, 69, 0
11, 45264, Note_on_c, 9, 69, 72
11, 45312, Note_on_c, 9, 69, 0
11, 45312, Note_on_c, 9, 35, 87
11, 45312, Note_on_c, 9, 69, 77
11, 45316, Note_on_c, 9, 54, 0
11, 45316, Note_on_c, 9, 54, 95
11, 45360, Note_on_c, 9, 69, 0
11, 45360, Note_on_c, 9, 35, 0
11, 45360, Note_on_c, 9, 69, 59
11, 45408, Note_on_c, 9, 69, 0
11, 45408, Note_on_c, 9, 54, 0
11, 45408, Note_on_c, 9, 54, 97
11, 45408, Note_on_c, 9, 69, 75
11, 45408, Note_on_c, 9, 38, 87
11, 45456, Note_on_c, 9, 38, 0
11, 45456, Note_on_c, 9, 69, 0
11, 45456, Note_on_c, 9, 69, 62
11, 45504, Note_on_c, 9, 69, 0
11, 45504, Note_on_c, 9, 54, 0
11, 45504, Note_on_c, 9, 35, 87
11, 45504, Note_on_c, 9, 69, 73
11, 45504, Note_on_c, 9, 54, 95
11, 45552, Note_on_c, 9, 69, 0
11, 45552, Note_on_c, 9, 35, 0
11, 45552, Note_on_c, 9, 69, 66
11, 45600, Note_on_c, 9, 69, 0
11, 45600, Note_on_c, 9, 54, 0
11, 45600, Note_on_c, 9, 54, 97
11, 45600, Note_on_c, 9, 38, 87
11, 45604, Note_on_c, 9, 69, 75
11, 45648, Note_on_c, 9, 69, 0
11, 45648, Note_on_c, 9, 38, 0
11, 45648, Note_on_c, 9, 69, 66
11, 45696, Note_on_c, 9, 69, 0
11, 45696, Note_on_c, 9, 54, 0
11, 45696, Note_on_c, 9, 35, 87
11, 45696, Note_on_c, 9, 69, 77
11, 45696, Note_on_c, 9, 54, 95
11, 45744, Note_on_c, 9, 69, 0
11, 45744, Note_on_c, 9, 35, 0
11, 45744, Note_on_c, 9, 69, 64
11, 45792, Note_on_c, 9, 69, 0
11, 45792, Note_on_c, 9, 54, 0
11, 45792, Note_on_c, 9, 69, 81
11, 45792, Note_on_c, 9, 54, 97
11, 45796, Note_on_c, 9, 38, 87
11, 45840, Note_on_c, 9, 38, 0
11, 45840, Note_on_c, 9, 69, 0
11, 45840, Note_on_c, 9, 69, 70
11, 45888, Note_on_c, 9, 69, 0
11, 45888, Note_on_c, 9, 54, 0
11, 45888, Note_on_c, 9, 35, 87
11, 45888, Note_on_c, 9, 69, 83
11, 45888, Note_on_c, 9, 54, 95
11, 45936, Note_on_c, 9, 69, 0
11, 45936, Note_on_c, 9, 35, 0
11, 45936, Note_on_c, 9, 69, 71
11, 45984, Note_on_c, 9, 69, 0
11, 45984, Note_on_c, 9, 69, 88
11, 45988, Note_on_c, 9, 54, 0
11, 45988, Note_on_c, 9, 38, 87
11, 45988, Note_on_c, 9, 54, 97
11, 46032, Note_on_c, 9, 38, 0
11, 46032, Note_on_c, 9, 69, 0
11, 46032, Note_on_c, 9, 69, 72
11, 46080, Note_on_c, 9, 69, 0
11, 46080, Note_on_c, 9, 35, 87
11, 46080, Note_on_c, 9, 69, 77
11, 46081, Note_on_c, 9, 54, 0
11, 46128, Note_on_c, 9, 69, 0
11, 46128, Note_on_c, 9, 35, 0
11, 46128, Note_on_c, 9, 69, 59
11, 46176, Note_on_c, 9, 69, 0
11, 46176, Note_on_c, 9, 54, 97
11, 46176, Note_on_c, 9, 38, 87
11, 46176, Note_on_c, 9, 69, 75
11, 46224, Note_on_c, 9, 69, 0
11, 46224, Note_on_c, 9, 38, 0
11, 46224, Note_on_c, 9, 69, 62
11, 46272, Note_on_c, 9, 69, 0
11, 46272, Note_on_c, 9, 54, 0
11, 46272, Note_on_c, 9, 35, 87
11, 46272, Note_on_c, 9, 69, 73
11, 46272, Note_on_c, 9, 54, 95
11, 46320, Note_on_c, 9, 69, 0
11, 46320, Note_on_c, 9, 35, 0
11, 46320, Note_on_c, 9, 69, 66
11, 46368, Note_on_c, 9, 69, 0
11, 46368, Note_on_c, 9, 54, 0
11, 46368, Note_on_c, 9, 54, 97
11, 46368, Note_on_c, 9, 38, 87
11, 46372, Note_on_c, 9, 69, 75
11, 46416, Note_on_c, 9, 69, 0
11, 46416, Note_on_c, 9, 38, 0
11, 46416, Note_on_c, 9, 69, 66
11, 46464, Note_on_c, 9, 69, 0
11, 46464, Note_on_c, 9, 35, 87
11, 46468, Note_on_c, 9, 54, 0
11, 46468, Note_on_c, 9, 54, 95
11, 46468, Note_on_c, 9, 69, 77
11, 46512, Note_on_c, 9, 69, 0
11, 46512, Note_on_c, 9, 35, 0
11, 46512, Note_on_c, 9, 69, 64
11, 46560, Note_on_c, 9, 69, 0
11, 46560, Note_on_c, 9, 54, 0
11, 46560, Note_on_c, 9, 69, 81
11, 46560, Note_on_c, 9, 54, 97
11, 46564, Note_on_c, 9, 38, 87
11, 46608, Note_on_c, 9, 38, 0
11, 46608, Note_on_c, 9, 69, 0
11, 46608, Note_on_c, 9, 69, 70
11, 46656, Note_on_c, 9, 69, 0
11, 46656, Note_on_c, 9, 35, 87
11, 46656, Note_on_c, 9, 69, 83
11, 46660, Note_on_c, 9, 54, 0
11, 46660, Note_on_c, 9, 54, 95
11, 46704, Note_on_c, 9, 69, 0
11, 46704, Note_on_c, 9, 35, 0
11, 46704, Note_on_c, 9, 69, 71
11, 46752, Note_on_c, 9, 69, 0
11, 46752, Note_on_c, 9, 69, 88
11, 46756, Note_on_c, 9, 54, 0
11, 46756, Note_on_c, 9, 38, 87
11, 46756, Note_on_c, 9, 54, 97
11, 46800, Note_on_c, 9, 38, 0
11, 46800, Note_on_c, 9, 69, 0
11, 46800, Note_on_c, 9, 69, 72
11, 46848, Note_on_c, 9, 69, 0
11, 46848, Note_on_c, 9, 35, 87
11, 46848, Note_on_c, 9, 69, 77
11, 46849, Note_on_c, 9, 54, 0
11, 46896, Note_on_c, 9, 69, 0
11, 46896, Note_on_c, 9, 35, 0
11, 46896, Note_on_c, 9, 69, 59
11, 46944, Note_on_c, 9, 69, 0
11, 46944, Note_on_c, 9, 54, 97
11, 46944, Note_on_c, 9, 69, 75
11, 46944, Note_on_c, 9, 38, 87
11, 46992, Note_on_c, 9, 38, 0
11, 46992, Note_on_c, 9, 69, 0
11, 46992, Note_on_c, 9, 69, 62
11, 47040, Note_on_c, 9, 69, 0
11, 47040, Note_on_c, 9, 54, 0
11, 47040, Note_on_c, 9, 35, 87
11, 47040, Note_on_c, 9, 69, 73
11, 47040, Note_on_c, 9, 54, 95
11, 47088, Note_on_c, 9, 69, 0
11, 47088, Note_on_c, 9, 35, 0
11, 47088, Note_on_c, 9, 69, 66
11, 47136, Note_on_c, 9, 69, 0
11, 47136, Note_on_c, 9, 54, 0
11, 47136, Note_on_c, 9, 54, 97
11, 47136, Note_on_c, 9, 69, 75
11, 47136, Note_on_c, 9, 38, 87
11, 47184, Note_on_c, 9, 38, 0
11, 47184, Note_on_c, 9, 69, 0
11, 47184, Note_on_c, 9, 69, 66
11, 47232, Note_on_c, 9, 69, 0
11, 47232, Note_on_c, 9, 54, 0
11, 47232, Note_on_c, 9, 35, 87
11, 47232, Note_on_c, 9, 69, 77
11, 47232, Note_on_c, 9, 54, 95
11, 47280, Note_on_c, 9, 69, 0
11, 47280, Note_on_c, 9, 35, 0
11, 47280, Note_on_c, 9, 69, 64
11, 47328, Note_on_c, 9, 69, 0
11, 47332, Note_on_c, 9, 54, 0
11, 47332, Note_on_c, 9, 54, 97
11, 47332, Note_on_c, 9, 38, 87
11, 47332, Note_on_c, 9, 69, 81
11, 47376, Note_on_c, 9, 69, 0
11, 47376, Note_on_c, 9, 38, 0
11, 47376, Note_on_c, 9, 69, 70
11, 47424, Note_on_c, 9, 69, 0
11, 47424, Note_on_c, 9, 54, 0
11, 47424, Note_on_c, 9, 35, 87
11, 47424, Note_on_c, 9, 69, 83
11, 47424, Note_on_c, 9, 54, 95
11, 47472, Note_on_c, 9, 69, 0
11, 47472, Note_on_c, 9, 35, 0
11, 47472, Note_on_c, 9, 69, 71
11, 47520, Note_on_c, 9, 69, 0
11, 47520, Note_on_c, 9, 69, 88
11, 47524, Note_on_c, 9, 54, 0
11, 47524, Note_on_c, 9, 38, 87
11, 47524, Note_on_c, 9, 54, 97
11, 47568, Note_on_c, 9, 38, 0
11, 47568, Note_on_c, 9, 69, 0
11, 47568, Note_on_c, 9, 69, 72
11, 47616, Note_on_c, 9, 69, 0
11, 47616, Note_on_c, 9, 35, 87
11, 47616, Note_on_c, 9, 69, 77
11, 47617, Note_on_c, 9, 54, 0
11, 47664, Note_on_c, 9, 69, 0
11, 47664, Note_on_c, 9, 35, 0
11, 47664, Note_on_c, 9, 69, 59
11, 47712, Note_on_c, 9, 69, 0
11, 47712, Note_on_c, 9, 54, 97
11, 47712, Note_on_c, 9, 38, 87
11, 47712, Note_on_c, 9, 69, 75
11, 47760, Note_on_c, 9, 69, 0
11, 47760, Note_on_c, 9, 38, 0
11, 47760, Note_on_c, 9, 69, 62
11, 47808, Note_on_c, 9, 69, 0
11, 47808, Note_on_c, 9, 54, 0
11, 47808, Note_on_c, 9, 35, 87
11, 47808, Note_on_c, 9, 69, 73
11, 47808, Note_on_c, 9, 54, 95
11, 47856, Note_on_c, 9, 69, 0
11, 47856, Note_on_c, 9, 35, 0
11, 47856, Note_on_c, 9, 69, 66
11, 47904, Note_on_c, 9, 69, 0
11, 47904, Note_on_c, 9, 54, 0
11, 47904, Note_on_c, 9, 54, 97
11, 47904, Note_on_c, 9, 38, 87
11, 47908, Note_on_c, 9, 69, 75
11, 47952, Note_on_c, 9, 69, 0
11, 47952, Note_on_c, 9, 38, 0
11, 47952, Note_on_c, 9, 69, 66
11, 48000, Note_on_c, 9, 69, 0
11, 48000, Note_on_c, 9, 54, 0
11, 48000, Note_on_c, 9, 59, 120
11, 48000, Note_on_c, 9, 38, 90
11, 48004, Note_on_c, 9, 35, 87
11, 48032, Note_on_c, 9, 38, 0
11, 48032, Note_on_c, 9, 59, 0
11, 48048, Note_on_c, 9, 35, 0
11, 48096, Note_on_c, 9, 59, 120
11, 48100, Note_on_c, 9, 38, 87
11, 48128, Note_on_c, 9, 59, 0
11, 48148, Note_on_c, 9, 38, 0
11, 48192, Note_on_c, 9, 59, 120
11, 48192, Note_on_c, 9, 38, 90
11, 48224, Note_on_c, 9, 38, 0
11, 48224, Note_on_c, 9, 59, 0
11, 48224, End_track
0, 0, End_of_file
