<?xml version="1.0" encoding="iso-8859-1"?>
<!-- Generator: Adobe Illustrator 16.0.0, SVG Export Plug-In . SVG Version: 6.00 Build 0)  -->
<!DOCTYPE svg PUBLIC "-//W3C//DTD SVG 1.1//EN" "http://www.w3.org/Graphics/SVG/1.1/DTD/svg11.dtd">
<svg version="1.1" id="Capa_1" xmlns="http://www.w3.org/2000/svg" xmlns:xlink="http://www.w3.org/1999/xlink" x="0px" y="0px"
	 width="966.816px" height="966.816px" viewBox="0 0 966.816 966.816" style="enable-background:new 0 0 966.816 966.816;"
	 xml:space="preserve">
<g>
	<path d="M416.946,27.601c18.301-17.4,43.4-27.6,68.701-27.6c26.199-0.1,52,10.7,70.6,29c0.1,0.1,0.199,0.2,0.301,0.3l215.199,215.2
		c39.1,39.1,39.1,102.4,0,141.4c-39.1,39.1-102.4,39.1-141.4,0l-44.4-44.4v283.901l44.4-44.4c39.1-39.1,102.4-39.1,141.4,0
		c39.1,39.1,39.1,102.4,0,141.4l-215.199,215.1c-11.102,11.1-24.701,19.4-39.602,24.4c-13.898,4.6-28.799,5.899-43.299,4.199
		c-13.3-1.6-26.3-6-37.899-12.699c-7.5-4.301-14.5-9.7-20.601-15.9l-220.1-220.1c-19.5-19.5-29.3-45.101-29.3-70.7
		c0-25.601,9.8-51.2,29.3-70.7c39.1-39.1,102.399-39.1,141.399,0l49.301,49.3V341.4l-49.301,49.3c-39.1,39.1-102.399,39.1-141.399,0
		c-19.5-19.5-29.3-45.1-29.3-70.7s9.8-51.2,29.3-70.7l220.1-220C415.747,28.701,416.346,28.201,416.946,27.601z"/>
</g>
<g>
</g>
<g>
</g>
<g>
</g>
<g>
</g>
<g>
</g>
<g>
</g>
<g>
</g>
<g>
</g>
<g>
</g>
<g>
</g>
<g>
</g>
<g>
</g>
<g>
</g>
<g>
</g>
<g>
</g>
</svg>
