<svg height="512pt" viewBox="-20 0 512 512" width="512pt" xmlns="http://www.w3.org/2000/svg"><path d="m384.75 87.171875v304.59375h-288.5625v-384.75h208.40625zm0 0" fill="#e8f4fa"/><path d="m96.1875 7.015625h24.046875v384.75h-24.046875zm0 0" fill="#c0dceb"/><path d="m384.75 87.171875h-80.15625v-80.15625" fill="#c0dceb"/><g fill="#fff"><path d="m176.34375 71.640625h16.03125v15.027344h-16.03125zm0 0"/><path d="m208.40625 71.640625h16.03125v15.027344h-16.03125zm0 0"/><path d="m240.46875 71.640625h16.03125v15.027344h-16.03125zm0 0"/></g><path d="m400.78125 503.984375h-32.0625v-80.15625c0-8.855469 7.179688-16.03125 16.03125-16.03125 8.855469 0 16.03125 7.175781 16.03125 16.03125zm0 0" fill="#95a8b8"/><path d="m464.90625 287.5625c0 44.269531-35.886719 80.15625-80.15625 80.15625s-80.15625-35.886719-80.15625-80.15625 35.886719-80.15625 80.15625-80.15625 80.15625 35.886719 80.15625 80.15625zm0 0" fill="#8ae0ff"/><path d="m432.84375 287.5625c0 26.5625-21.53125 48.09375-48.09375 48.09375-26.558594 0-48.09375-21.53125-48.09375-48.09375s21.535156-48.09375 48.09375-48.09375c26.5625 0 48.09375 21.53125 48.09375 48.09375zm0 0" fill="#fff"/><path d="m96.1875 159.3125h-32.0625c-17.707031 0-32.0625-14.355469-32.0625-32.0625v-48.09375c0-8.855469 7.175781-16.03125 16.03125-16.03125h64.125c8.855469 0 16.03125 7.175781 16.03125 16.03125v48.09375c0 17.707031-14.355469 32.0625-32.0625 32.0625zm0 0" fill="#ff927d"/><path d="m56.109375 127.25v-48.09375c0-8.855469 7.175781-16.03125 16.03125-16.03125h-24.046875c-8.851562 0-16.03125 7.175781-16.03125 16.03125v48.09375c0 17.707031 14.355469 32.0625 32.0625 32.0625h24.046875c-17.707031 0-32.0625-14.355469-32.0625-32.0625zm0 0" fill="#ff6242"/><path d="m48.09375 63.125c0-17.710938 14.355469-32.0625 32.0625-32.0625s32.0625 14.351562 32.0625 32.0625" fill="#ff6242"/><path d="m103.203125 183.359375h-15.03125v216.421875h272.53125v-15.03125h-257.5zm0 0"/><path d="m296.578125 95.1875h80.15625v88.171875h15.03125v-99.300781l-84.058594-84.058594h-187.472656v15.03125h176.34375zm15.03125-70.03125 55 55h-55zm0 0"/><path d="m128.25 312.609375h152.296875v15.03125h-152.296875zm0 0"/><path d="m184.359375 120.234375h168.328125v15.03125h-168.328125zm0 0"/><path d="m128.25 264.515625h152.296875v15.03125h-152.296875zm0 0"/><path d="m128.25 216.421875h176.34375v15.03125h-176.34375zm0 0"/><path d="m184.359375 168.328125h168.328125v15.03125h-168.328125zm0 0"/><path d="m472.171875 287.5625c0-48.34375-39.203125-87.671875-87.546875-87.671875-48.339844 0-87.859375 39.328125-87.859375 87.671875 0 45.808594 35.882813 83.519531 79.96875 87.34375v26.613281c-9.015625 3.144531-16.03125 11.953125-16.03125 22.308594v88.171875h47.09375v-88.171875c0-10.355469-6.011719-19.164063-16.03125-22.308594v-26.613281c45.085937-3.824219 80.40625-41.535156 80.40625-87.34375zm-160.0625 0c0-40.054688 32.585937-72.644531 72.640625-72.644531 40.058594 0 72.644531 32.589843 72.644531 72.644531s-32.585937 72.640625-72.644531 72.640625c-40.054688 0-72.640625-32.585937-72.640625-72.640625zm80.65625 209.40625h-17.03125v-73.140625c0-4.695313 3.820313-8.515625 8.515625-8.515625s8.515625 3.820312 8.515625 8.515625zm0 0"/><path d="m440.359375 287.5625c0-30.664062-24.945313-55.609375-55.609375-55.609375-30.660156 0-55.605469 24.945313-55.605469 55.609375 0 30.660156 24.945313 55.609375 55.605469 55.609375 30.664062 0 55.609375-24.949219 55.609375-55.609375zm-96.1875 0c0-22.375 18.203125-40.582031 40.578125-40.582031 22.378906 0 40.582031 18.207031 40.582031 40.582031s-18.203125 40.578125-40.582031 40.578125c-22.375 0-40.578125-18.203125-40.578125-40.578125zm0 0"/><path d="m128.25 150.410156v.886719h16.03125v16.03125h15.03125v-31.0625h-24.480469c.605469-3.003906.433594-6.09375.433594-9.015625v-8.015625h25.046875v-15.03125h-25.046875v-17.03125h24.046875v-32.0625h-15.03125v17.03125h-9.753906c-2.40625-8.015625-8.378906-12.984375-15.578125-15.226563-1.707031-10.332031-6.730469-19.582031-15.746094-25.578124v-24.320313h-15.03125v17.464844c-2.003906-.605469-5.589844-.933594-8.515625-.933594s-5.511719.328125-8.515625.933594v-17.464844h-15.03125v24.320313c-8.015625 5.996093-13.539063 15.242187-15.242187 25.578124-7.203126 2.242188-12.675782 7.210938-15.082032 15.226563h-10.753906v-17.03125h-15.03125v32.0625h24.046875v17.03125h-24.046875v15.03125h24.046875v8.015625c0 2.921875.828125 6.011719 1.433594 9.015625h-25.480469v31.0625h15.03125v-16.03125h17.03125v-.886719c7.195312 9.933594 18.882812 16.917969 32.0625 16.917969h32.0625c13.179688 0 24.867188-6.984375 32.0625-16.917969zm-8.015625-23.160156c0 13.535156-10.511719 25.046875-24.046875 25.046875h-9.015625v-81.15625h25.046875c4.695312 0 8.015625 3.316406 8.015625 8.015625zm-16.710937-71.140625h-46.734376c3.183594-10.019531 12.453126-17.03125 23.367188-17.03125s20.1875 7.011719 23.367188 17.03125zm-64.445313 71.140625v-48.09375c0-4.699219 4.320313-8.015625 9.015625-8.015625h24.046875v81.15625h-8.015625c-13.535156 0-25.046875-11.511719-25.046875-25.046875zm0 0"/></svg>