<svg id="Capa_1" enable-background="new 0 0 508.583 508.583" height="512" viewBox="0 0 508.583 508.583" width="512" xmlns="http://www.w3.org/2000/svg"><g><g><g><path d="m165.277 86.542c0 24.853-45 75-45 75s-45-50.147-45-75 20.147-45 45-45 45 20.147 45 45z" fill="#fd6930"/></g></g><g><g><path d="m120.277 41.542c-5.261 0-10.307.911-15 2.571 17.476 6.179 30 22.838 30 42.429 0 15.236-16.911 39.976-30 56.843 8.261 10.646 15 18.157 15 18.157s45-50.147 45-75-20.147-45-45-45z" fill="#ef4424"/></g></g><g><g><path d="m19.096 467.041h166.917c6.404 0 11.596-5.192 11.596-11.596v-233.806c0-6.404-5.192-11.596-11.596-11.596h-117.157c-5.052 0-9.897 2.007-13.469 5.579l-42.308 39.409c-3.572 3.572-5.579 8.417-5.579 13.469v186.945c0 6.404 5.192 11.596 11.596 11.596z" fill="#edf5fa"/></g></g><g><g><path d="m186.013 210.043h-30c6.404 0 11.596 5.192 11.596 11.596v233.807c0 6.404-5.192 11.596-11.596 11.596h30c6.404 0 11.596-5.192 11.596-11.596v-233.807c-.001-6.404-5.192-11.596-11.596-11.596z" fill="#d0e7f2"/></g></g><g><g><path d="m10.136 263.356h41.409c6.719 0 12.167-5.447 12.167-12.167v-38.959" fill="#b7d9eb"/></g></g><g><g><path d="m322.57 467.041h166.917c6.404 0 11.596-5.192 11.596-11.596v-233.806c0-6.404-5.192-11.596-11.596-11.596h-117.156c-5.052 0-9.897 2.007-13.469 5.579l-42.308 39.409c-3.572 3.572-5.579 8.417-5.579 13.469v186.945c0 6.404 5.191 11.596 11.595 11.596z" fill="#edf5fa"/></g></g><g><g><path d="m489.487 210.043h-30c6.404 0 11.596 5.192 11.596 11.596v233.807c0 6.404-5.192 11.596-11.596 11.596h30c6.404 0 11.596-5.192 11.596-11.596v-233.807c0-6.404-5.192-11.596-11.596-11.596z" fill="#d0e7f2"/></g></g><g><g><path d="m313.611 263.356h41.409c6.719 0 12.167-5.447 12.167-12.167v-38.959" fill="#b7d9eb"/></g></g><g><g><path d="m459.187 86.542c0 24.853-45 75-45 75s-45-50.147-45-75 20.147-45 45-45 45 20.147 45 45z" fill="#62dbfb"/></g></g><g><g><path d="m414.187 41.542c-5.261 0-10.307.912-15 2.571 17.476 6.179 30 22.837 30 42.429 0 15.236-16.911 39.976-30 56.843 8.261 10.646 15 18.157 15 18.157s45-50.147 45-75-20.147-45-45-45z" fill="#01c0fa"/></g></g><g><path d="m186.013 202.543h-38.207c-4.142 0-7.5 3.358-7.5 7.5s3.358 7.5 7.5 7.5h38.207c2.258 0 4.096 1.837 4.096 4.096v233.807c0 2.258-1.837 4.096-4.096 4.096h-166.917c-2.259 0-4.096-1.837-4.096-4.096v-184.59h36.546c10.844 0 19.667-8.823 19.667-19.667v-33.646h46.593c4.142 0 7.5-3.358 7.5-7.5s-3.358-7.5-7.5-7.5h-48.95c-7.043 0-13.667 2.724-18.67 7.674l-42.219 39.326c-.065.06-.128.122-.191.184-5.014 5.014-7.776 11.681-7.776 18.773v186.945c0 10.529 8.566 19.096 19.096 19.096h166.917c10.529 0 19.096-8.566 19.096-19.096v-233.806c-.001-10.53-8.567-19.096-19.096-19.096zm-129.801 22.56v26.087c0 2.573-2.093 4.667-4.667 4.667h-28.348z"/><path d="m147.806 295.977h-90.744c-4.142 0-7.5 3.358-7.5 7.5s3.358 7.5 7.5 7.5h90.744c4.142 0 7.5-3.358 7.5-7.5s-3.358-7.5-7.5-7.5z"/><path d="m147.806 323.871h-90.744c-4.142 0-7.5 3.358-7.5 7.5s3.358 7.5 7.5 7.5h90.744c4.142 0 7.5-3.358 7.5-7.5s-3.358-7.5-7.5-7.5z"/><path d="m147.806 351.765h-90.744c-4.142 0-7.5 3.358-7.5 7.5s3.358 7.5 7.5 7.5h90.744c4.142 0 7.5-3.358 7.5-7.5s-3.358-7.5-7.5-7.5z"/><path d="m147.806 394.85h-90.744c-4.142 0-7.5 3.358-7.5 7.5s3.358 7.5 7.5 7.5h90.744c4.142 0 7.5-3.358 7.5-7.5s-3.358-7.5-7.5-7.5z"/><path d="m489.487 202.543h-117.156c-7.043 0-13.667 2.724-18.67 7.674l-42.219 39.326c-.065.06-.128.122-.191.184-5.015 5.014-7.776 11.681-7.776 18.772v186.945c0 10.529 8.566 19.096 19.096 19.096h58.626c4.142 0 7.5-3.358 7.5-7.5s-3.358-7.5-7.5-7.5h-58.627c-2.258 0-4.096-1.837-4.096-4.096v-184.588h36.545c10.844 0 19.667-8.823 19.667-19.667v-33.646h114.8c2.258 0 4.096 1.837 4.096 4.096v233.807c0 2.258-1.837 4.096-4.096 4.096h-78.291c-4.142 0-7.5 3.358-7.5 7.5s3.358 7.5 7.5 7.5h78.291c10.529 0 19.096-8.566 19.096-19.096v-233.807c.001-10.53-8.565-19.096-19.095-19.096zm-134.467 53.313h-28.349l33.016-30.754v26.087c0 2.574-2.094 4.667-4.667 4.667z"/><path d="m360.536 310.977h90.744c4.142 0 7.5-3.358 7.5-7.5s-3.358-7.5-7.5-7.5h-90.744c-4.142 0-7.5 3.358-7.5 7.5s3.358 7.5 7.5 7.5z"/><path d="m360.536 338.871h90.744c4.142 0 7.5-3.358 7.5-7.5s-3.358-7.5-7.5-7.5h-90.744c-4.142 0-7.5 3.358-7.5 7.5s3.358 7.5 7.5 7.5z"/><path d="m360.536 366.765h90.744c4.142 0 7.5-3.358 7.5-7.5s-3.358-7.5-7.5-7.5h-90.744c-4.142 0-7.5 3.358-7.5 7.5s3.358 7.5 7.5 7.5z"/><path d="m360.536 409.85h90.744c4.142 0 7.5-3.358 7.5-7.5s-3.358-7.5-7.5-7.5h-90.744c-4.142 0-7.5 3.358-7.5 7.5s3.358 7.5 7.5 7.5z"/><path d="m246.533 333.239-10.085-10.084c-2.929-2.93-7.678-2.929-10.606 0-2.929 2.929-2.929 7.678 0 10.606l4.781 4.781-4.781 4.781c-2.929 2.929-2.929 7.677 0 10.606 1.464 1.465 3.384 2.197 5.303 2.197s3.839-.732 5.303-2.197l10.085-10.084c1.465-1.464 2.197-3.384 2.197-5.303s-.733-3.839-2.197-5.303z"/><path d="m286.715 333.239-10.085-10.084c-2.929-2.93-7.678-2.929-10.606 0-2.929 2.929-2.929 7.678 0 10.606l4.781 4.781-4.781 4.781c-2.929 2.929-2.929 7.677 0 10.606 1.464 1.465 3.384 2.197 5.303 2.197s3.839-.732 5.303-2.197l10.085-10.084c1.465-1.464 2.197-3.384 2.197-5.303s-.732-3.839-2.197-5.303z"/><path d="m120.277 169.042c2.13 0 4.16-.906 5.582-2.491 4.802-5.352 46.918-53.063 46.918-80.009 0-28.949-23.551-52.5-52.5-52.5s-52.5 23.551-52.5 52.5c0 26.947 42.116 74.658 46.918 80.009 1.423 1.585 3.452 2.491 5.582 2.491zm0-120c20.678 0 37.5 16.822 37.5 37.5 0 14.299-21.122 44.129-37.501 63.563-16.379-19.424-37.499-49.247-37.499-63.563 0-20.678 16.823-37.5 37.5-37.5z"/><path d="m414.187 169.042c2.13 0 4.16-.906 5.582-2.491 4.802-5.352 46.918-53.063 46.918-80.009 0-28.949-23.551-52.5-52.5-52.5s-52.5 23.551-52.5 52.5c0 26.947 42.116 74.658 46.918 80.009 1.422 1.585 3.452 2.491 5.582 2.491zm0-120c20.678 0 37.5 16.822 37.5 37.5 0 14.299-21.122 44.129-37.501 63.563-16.379-19.424-37.499-49.247-37.499-63.563 0-20.678 16.822-37.5 37.5-37.5z"/></g></g></svg>