0, 0, Header, 1, 2, 480
1, 0, Start_track
1, 0, Title_t, "teste_estrelas"
1, 0, Time_signature, 4, 2, 24, 8
1, 0, Key_signature, 0, "major"
1, 0, Tempo, 600000
1, 0, Program_c, 0, 000
1, 0, End_track
2, 0, Start_track
2,0,Note_on_c,0,37,40
2,249,Note_off_c,0,37,0
2,250,Note_on_c,0,37,40
2,499,Note_off_c,0,37,0
2,500,Note_on_c,0,36,40
2,749,Note_off_c,0,36,0
2,750,Note_on_c,0,37,40
2,999,Note_off_c,0,37,0
2,1000,Note_on_c,0,36,40
2,1249,Note_off_c,0,36,0
2,1250,Note_on_c,0,37,40
2,1499,Note_off_c,0,37,0
2,1500,Note_on_c,0,36,40
2,1749,Note_off_c,0,36,0
2,1750,Note_on_c,0,36,40
2,1999,Note_off_c,0,36,0
2,2000,Note_on_c,0,36,40
2,2249,Note_off_c,0,36,0
2,2250,Note_on_c,0,36,40
2,2499,Note_off_c,0,36,0
2,2500,Note_on_c,0,38,40
2,2749,Note_off_c,0,38,0
2,2750,Note_on_c,0,37,40
2,2999,Note_off_c,0,37,0
2,3000,Note_on_c,0,37,40
2,3249,Note_off_c,0,37,0
2,3250,Note_on_c,0,38,40
2,3499,Note_off_c,0,38,0
2,3500,Note_on_c,0,36,40
2,3749,Note_off_c,0,36,0
2,3750,Note_on_c,0,37,40
2,3999,Note_off_c,0,37,0
2,4000,Note_on_c,0,37,40
2,4249,Note_off_c,0,37,0
2,4250,Note_on_c,0,38,40
2,4499,Note_off_c,0,38,0
2,4500,Note_on_c,0,37,40
2,4749,Note_off_c,0,37,0
2,4750,Note_on_c,0,37,40
2,4999,Note_off_c,0,37,0
2,5000,Note_on_c,0,65,40
2,5249,Note_off_c,0,65,0
2,5250,Note_on_c,0,43,40
2,5499,Note_off_c,0,43,0
2,5500,Note_on_c,0,42,40
2,5749,Note_off_c,0,42,0
2,5750,Note_on_c,0,44,40
2,5999,Note_off_c,0,44,0
2,6000,Note_on_c,0,54,40
2,6249,Note_off_c,0,54,0
2,6250,Note_on_c,0,49,40
2,6499,Note_off_c,0,49,0
2,6500,Note_on_c,0,44,40
2,6749,Note_off_c,0,44,0
2,6750,Note_on_c,0,43,40
2,6999,Note_off_c,0,43,0
2,7000,Note_on_c,0,48,40
2,7249,Note_off_c,0,48,0
2,7250,Note_on_c,0,42,40
2,7499,Note_off_c,0,42,0
2,7500,Note_on_c,0,82,40
2,7749,Note_off_c,0,82,0
2,7750,Note_on_c,0,71,40
2,7999,Note_off_c,0,71,0
2,8000,Note_on_c,0,52,40
2,8249,Note_off_c,0,52,0
2,8250,Note_on_c,0,45,40
2,8499,Note_off_c,0,45,0
2,8500,Note_on_c,0,40,40
2,8749,Note_off_c,0,40,0
2,8750,Note_on_c,0,43,40
2,8999,Note_off_c,0,43,0
2,9000,Note_on_c,0,42,40
2,9249,Note_off_c,0,42,0
2,9250,Note_on_c,0,41,40
2,9499,Note_off_c,0,41,0
2,9500,Note_on_c,0,41,40
2,9749,Note_off_c,0,41,0
2,9750,Note_on_c,0,40,40
2,9999,Note_off_c,0,40,0
2,10000,Note_on_c,0,38,40
2,10249,Note_off_c,0,38,0
2,10250,Note_on_c,0,37,40
2,10499,Note_off_c,0,37,0
2,10500,Note_on_c,0,37,40
2,10749,Note_off_c,0,37,0
2,10750,Note_on_c,0,37,40
2,10999,Note_off_c,0,37,0
2,11000,Note_on_c,0,37,40
2,11249,Note_off_c,0,37,0
2,11250,Note_on_c,0,38,40
2,11499,Note_off_c,0,38,0
2,11500,Note_on_c,0,38,40
2,11749,Note_off_c,0,38,0
2,11750,Note_on_c,0,38,40
2,11999,Note_off_c,0,38,0
2,12000,Note_on_c,0,38,40
2,12249,Note_off_c,0,38,0
2,12250,Note_on_c,0,76,40
2,12499,Note_off_c,0,76,0
2,12500,Note_on_c,0,37,40
2,14499,Note_off_c,0,37,0
2,14500,Note_on_c,0,38,40
2,15499,Note_off_c,0,38,0
2,15500,Note_on_c,0,38,40
2,16499,Note_off_c,0,38,0
2,16500,Note_on_c,0,38,80
2,18499,Note_off_c,0,38,0
2,18500,Note_on_c,0,38,40
2,19499,Note_off_c,0,38,0
2,19500,Note_on_c,0,37,40
2,20499,Note_off_c,0,37,0
2,20500,Note_on_c,0,38,40
2,22499,Note_off_c,0,38,0
2,22500,Note_on_c,0,37,40
2,23499,Note_off_c,0,37,0
2,23500,Note_on_c,0,38,40
2,23999,Note_off_c,0,38,0
2,24000,Note_on_c,0,38,40
2,25999,Note_off_c,0,38,0
2,26000,Note_on_c,0,37,40
2,26249,Note_off_c,0,37,0
2,26250,Note_on_c,0,37,40
2,26499,Note_off_c,0,37,0
2,26500,Note_on_c,0,37,40
2,26749,Note_off_c,0,37,0
2,26750,Note_on_c,0,37,40
2,26999,Note_off_c,0,37,0
2,27000,Note_on_c,0,37,40
2,27249,Note_off_c,0,37,0
2,27250,Note_on_c,0,37,40
2,27499,Note_off_c,0,37,0
2,27500,Note_on_c,0,37,40
2,27749,Note_off_c,0,37,0
2,27750,Note_on_c,0,37,40
2,27999,Note_off_c,0,37,0
2,28000,Note_on_c,0,37,40
2,28249,Note_off_c,0,37,0
2,28250,Note_on_c,0,37,40
2,28499,Note_off_c,0,37,0
2,28500,Note_on_c,0,37,40
2,28749,Note_off_c,0,37,0
2,28750,Note_on_c,0,38,40
2,28999,Note_off_c,0,38,0
2,29000,Note_on_c,0,37,40
2,29249,Note_off_c,0,37,0
2,29250,Note_on_c,0,37,40
2,29499,Note_off_c,0,37,0
2,29500,Note_on_c,0,38,40
2,29749,Note_off_c,0,38,0
2,29750,Note_on_c,0,37,40
2,29999,Note_off_c,0,37,0
2,30000,Note_on_c,0,37,40
2,30249,Note_off_c,0,37,0
2,30250,Note_on_c,0,37,40
2,30499,Note_off_c,0,37,0
2,30500,Note_on_c,0,36,40
2,30749,Note_off_c,0,36,0
2,30750,Note_on_c,0,37,40
2,30999,Note_off_c,0,37,0
2,31000,Note_on_c,0,42,40
2,31249,Note_off_c,0,42,0
2,31250,Note_on_c,0,46,40
2,31499,Note_off_c,0,46,0
2,31500,Note_on_c,0,44,40
2,31749,Note_off_c,0,44,0
2,31750,Note_on_c,0,55,40
2,31999,Note_off_c,0,55,0
2,32000,Note_on_c,0,51,40
2,32249,Note_off_c,0,51,0
2,32250,Note_on_c,0,45,40
2,32499,Note_off_c,0,45,0
2,32500,Note_on_c,0,48,40
2,32749,Note_off_c,0,48,0
2,32750,Note_on_c,0,47,40
2,32999,Note_off_c,0,47,0
2,33000,Note_on_c,0,50,40
2,33249,Note_off_c,0,50,0
2,33250,Note_on_c,0,58,40
2,33499,Note_off_c,0,58,0
2,33500,Note_on_c,0,40,40
2,33749,Note_off_c,0,40,0
2,33750,Note_on_c,0,39,40
2,33999,Note_off_c,0,39,0
2,34000,Note_on_c,0,38,40
2,34249,Note_off_c,0,38,0
2,34250,Note_on_c,0,39,40
2,34499,Note_off_c,0,39,0
2,34500,Note_on_c,0,44,40
2,34749,Note_off_c,0,44,0
2,34750,Note_on_c,0,47,40
2,34999,Note_off_c,0,47,0
2,35000,Note_on_c,0,40,40
2,35249,Note_off_c,0,40,0
2,35250,Note_on_c,0,43,40
2,35499,Note_off_c,0,43,0
2,35500,Note_on_c,0,48,40
2,35749,Note_off_c,0,48,0
2,35750,Note_on_c,0,79,40
2,35999,Note_off_c,0,79,0
2,36000,Note_on_c,0,75,40
2,36249,Note_off_c,0,75,0
2,36250,Note_on_c,0,84,80
2,36499,Note_off_c,0,84,0
2,36500,Note_on_c,0,62,40
2,36749,Note_off_c,0,62,0
2,36750,Note_on_c,0,55,40
2,36999,Note_off_c,0,55,0
2,37000,Note_on_c,0,47,40
2,37249,Note_off_c,0,47,0
2,37250,Note_on_c,0,51,40
2,37499,Note_off_c,0,51,0
2,37500,Note_on_c,0,64,40
2,37749,Note_off_c,0,64,0
2,37750,Note_on_c,0,49,40
2,37999,Note_off_c,0,49,0
2,38000,Note_on_c,0,64,40
2,38249,Note_off_c,0,64,0
2,38250,Note_on_c,0,75,40
2,38499,Note_off_c,0,75,0
2,38500,Note_on_c,0,37,40
2,39499,Note_off_c,0,37,0
2,39500,Note_on_c,0,38,40
2,40499,Note_off_c,0,38,0
2,40500,Note_on_c,0,38,40
2,42499,Note_off_c,0,38,0
2,42500,Note_on_c,0,37,40
2,43499,Note_off_c,0,37,0
2,43500,Note_on_c,0,38,40
2,45499,Note_off_c,0,38,0
2,45500,Note_on_c,0,38,40
2,46499,Note_off_c,0,38,0
2,46500,Note_on_c,0,38,40
2,48499,Note_off_c,0,38,0
2,48500,Note_on_c,0,38,40
2,48999,Note_off_c,0,38,0
2,49000,Note_on_c,0,42,40
2,49999,Note_off_c,0,42,0
2,50000,Note_on_c,0,38,40
2,50999,Note_off_c,0,38,0
2,51000,Note_on_c,0,37,40
2,51249,Note_off_c,0,37,0
2,51250,Note_on_c,0,38,40
2,51499,Note_off_c,0,38,0
2,51500,Note_on_c,0,37,40
2,51749,Note_off_c,0,37,0
2,51750,Note_on_c,0,37,40
2,51999,Note_off_c,0,37,0
2,52000,Note_on_c,0,37,40
2,52249,Note_off_c,0,37,0
2,52250,Note_on_c,0,37,40
2,52499,Note_off_c,0,37,0
2,52500,Note_on_c,0,37,40
2,52749,Note_off_c,0,37,0
2,52750,Note_on_c,0,37,40
2,52999,Note_off_c,0,37,0
2,53000,Note_on_c,0,37,40
2,53249,Note_off_c,0,37,0
2,53250,Note_on_c,0,36,40
2,53499,Note_off_c,0,36,0
2,53500,Note_on_c,0,37,40
2,53749,Note_off_c,0,37,0
2,53750,Note_on_c,0,38,40
2,53999,Note_off_c,0,38,0
2,54000,Note_on_c,0,37,40
2,54249,Note_off_c,0,37,0
2,54250,Note_on_c,0,37,40
2,54499,Note_off_c,0,37,0
2,54500,Note_on_c,0,38,40
2,54749,Note_off_c,0,38,0
2,54750,Note_on_c,0,37,40
2,54999,Note_off_c,0,37,0
2,55000,Note_on_c,0,37,40
2,55249,Note_off_c,0,37,0
2,55250,Note_on_c,0,38,40
2,55499,Note_off_c,0,38,0
2,55500,Note_on_c,0,37,40
2,55749,Note_off_c,0,37,0
2,55750,Note_on_c,0,38,40
2,55999,Note_off_c,0,38,0
2,56000,Note_on_c,0,50,40
2,56249,Note_off_c,0,50,0
2,56250,Note_on_c,0,60,40
2,56499,Note_off_c,0,60,0
2,56500,Note_on_c,0,56,40
2,56749,Note_off_c,0,56,0
2,56750,Note_on_c,0,51,40
2,56999,Note_off_c,0,51,0
2,57000,Note_on_c,0,48,40
2,57249,Note_off_c,0,48,0
2,57250,Note_on_c,0,44,40
2,57499,Note_off_c,0,44,0
2,57500,Note_on_c,0,49,40
2,57749,Note_off_c,0,49,0
2,57750,Note_on_c,0,52,40
2,57999,Note_off_c,0,52,0
2,58000,Note_on_c,0,43,40
2,58249,Note_off_c,0,43,0
2,58250,Note_on_c,0,49,40
2,58499,Note_off_c,0,49,0
2,58500,Note_on_c,0,70,40
2,58749,Note_off_c,0,70,0
2,58750,Note_on_c,0,44,40
2,58999,Note_off_c,0,44,0
2,59000,Note_on_c,0,51,40
2,59249,Note_off_c,0,51,0
2,59250,Note_on_c,0,54,40
2,59499,Note_off_c,0,54,0
2,59500,Note_on_c,0,65,40
2,59749,Note_off_c,0,65,0
2,59750,Note_on_c,0,69,40
2,59999,Note_off_c,0,69,0
2,60000,Note_on_c,0,66,40
2,60249,Note_off_c,0,66,0
2,60250,Note_on_c,0,58,40
2,60499,Note_off_c,0,58,0
2,60500,Note_on_c,0,49,40
2,60749,Note_off_c,0,49,0
2,60750,Note_on_c,0,81,40
2,60999,Note_off_c,0,81,0
2,61000,Note_on_c,0,65,40
2,61249,Note_off_c,0,65,0
2,61250,Note_on_c,0,48,40
2,61499,Note_off_c,0,48,0
2,61500,Note_on_c,0,49,80
2,61749,Note_off_c,0,49,0
2,61750,Note_on_c,0,40,40
2,61999,Note_off_c,0,40,0
2,62000,Note_on_c,0,44,40
2,62249,Note_off_c,0,44,0
2,62250,Note_on_c,0,42,40
2,62499,Note_off_c,0,42,0
2,62500,Note_on_c,0,58,40
2,62749,Note_off_c,0,58,0
2,62750,Note_on_c,0,66,40
2,62999,Note_off_c,0,66,0
2,63000,Note_on_c,0,55,40
2,63249,Note_off_c,0,55,0
2,63250,Note_on_c,0,45,40
2,63499,Note_off_c,0,45,0
2,63500,Note_on_c,0,38,40
2,64499,Note_off_c,0,38,0
2,64500,Note_on_c,0,37,40
2,65499,Note_off_c,0,37,0
2,65500,Note_on_c,0,38,80
2,66499,Note_off_c,0,38,0
2,66500,Note_on_c,0,66,40
2,68499,Note_off_c,0,66,0
2,68500,Note_on_c,0,38,40
2,69499,Note_off_c,0,38,0
2,69500,Note_on_c,0,38,40
2,71499,Note_off_c,0,38,0
2,71500,Note_on_c,0,56,40
2,72499,Note_off_c,0,56,0
2,72500,Note_on_c,0,47,40
2,74499,Note_off_c,0,47,0
2,74500,Note_on_c,0,48,40
2,74999,Note_off_c,0,48,0
2,75000,Note_on_c,0,64,40
2,75999,Note_off_c,0,64,0
2,76000,Note_on_c,0,37,40
2,76249,Note_off_c,0,37,0
2,76250,Note_on_c,0,37,40
2,76499,Note_off_c,0,37,0
2,76500,Note_on_c,0,37,40
2,76749,Note_off_c,0,37,0
2,76750,Note_on_c,0,37,40
2,76999,Note_off_c,0,37,0
2,77000,Note_on_c,0,37,40
2,77249,Note_off_c,0,37,0
2,77250,Note_on_c,0,37,40
2,77499,Note_off_c,0,37,0
2,77500,Note_on_c,0,37,40
2,77749,Note_off_c,0,37,0
2,77750,Note_on_c,0,37,40
2,77999,Note_off_c,0,37,0
2,78000,Note_on_c,0,37,40
2,78249,Note_off_c,0,37,0
2,78250,Note_on_c,0,37,40
2,78499,Note_off_c,0,37,0
2,78500,Note_on_c,0,37,40
2,78749,Note_off_c,0,37,0
2,78750,Note_on_c,0,37,40
2,78999,Note_off_c,0,37,0
2,79000,Note_on_c,0,37,40
2,79249,Note_off_c,0,37,0
2,79250,Note_on_c,0,37,40
2,79499,Note_off_c,0,37,0
2,79500,Note_on_c,0,37,40
2,79749,Note_off_c,0,37,0
2,79750,Note_on_c,0,38,40
2,79999,Note_off_c,0,38,0
2,80000,Note_on_c,0,37,40
2,80249,Note_off_c,0,37,0
2,80250,Note_on_c,0,37,40
2,80499,Note_off_c,0,37,0
2,80500,Note_on_c,0,37,40
2,80749,Note_off_c,0,37,0
2,80750,Note_on_c,0,37,40
2,80999,Note_off_c,0,37,0
2,81000,Note_on_c,0,54,40
2,81249,Note_off_c,0,54,0
2,81250,Note_on_c,0,53,40
2,81499,Note_off_c,0,53,0
2,81500,Note_on_c,0,52,40
2,81749,Note_off_c,0,52,0
2,81750,Note_on_c,0,50,40
2,81999,Note_off_c,0,50,0
2,82000,Note_on_c,0,56,40
2,82249,Note_off_c,0,56,0
2,82250,Note_on_c,0,58,40
2,82499,Note_off_c,0,58,0
2,82500,Note_on_c,0,63,40
2,82749,Note_off_c,0,63,0
2,82750,Note_on_c,0,62,40
2,82999,Note_off_c,0,62,0
2,83000,Note_on_c,0,56,40
2,83249,Note_off_c,0,56,0
2,83250,Note_on_c,0,57,40
2,83499,Note_off_c,0,57,0
2,83500,Note_on_c,0,61,40
2,83749,Note_off_c,0,61,0
2,83750,Note_on_c,0,46,40
2,83999,Note_off_c,0,46,0
2,84000,Note_on_c,0,50,40
2,84249,Note_off_c,0,50,0
2,84250,Note_on_c,0,61,40
2,84499,Note_off_c,0,61,0
2,84500,Note_on_c,0,76,40
2,84749,Note_off_c,0,76,0
2,84750,Note_on_c,0,74,40
2,84999,Note_off_c,0,74,0
2,85000,Note_on_c,0,45,40
2,85249,Note_off_c,0,45,0
2,85250,Note_on_c,0,58,40
2,85499,Note_off_c,0,58,0
2,85500,Note_on_c,0,55,40
2,85749,Note_off_c,0,55,0
2,85750,Note_on_c,0,43,40
2,85999,Note_off_c,0,43,0
2,86000,Note_on_c,0,63,40
2,86249,Note_off_c,0,63,0
2,86250,Note_on_c,0,49,40
2,86499,Note_off_c,0,49,0
2,86500,Note_on_c,0,45,40
2,86749,Note_off_c,0,45,0
2,86750,Note_on_c,0,63,80
2,86999,Note_off_c,0,63,0
2,87000,Note_on_c,0,54,40
2,87249,Note_off_c,0,54,0
2,87250,Note_on_c,0,57,40
2,87499,Note_off_c,0,57,0
2,87500,Note_on_c,0,46,80
2,87749,Note_off_c,0,46,0
2,87750,Note_on_c,0,47,80
2,87999,Note_off_c,0,47,0
2,88000,Note_on_c,0,62,40
2,88249,Note_off_c,0,62,0
2,88250,Note_on_c,0,60,80
2,88499,Note_off_c,0,60,0
2,88500,Note_on_c,0,64,40
2,89499,Note_off_c,0,64,0
2,89500,Note_on_c,0,81,40
2,90499,Note_off_c,0,81,0
2,90500,Note_on_c,0,74,80
2,92499,Note_off_c,0,74,0
2,92500,Note_on_c,0,68,80
2,93499,Note_off_c,0,68,0
2,93500,Note_on_c,0,61,80
2,94499,Note_off_c,0,61,0
2,94500,Note_on_c,0,82,40
2,95499,Note_off_c,0,82,0
2,95500,Note_on_c,0,72,80
2,96499,Note_off_c,0,72,0
2,96500,Note_on_c,0,44,80
2,97499,Note_off_c,0,44,0
2,97500,Note_on_c,0,45,40
2,98499,Note_off_c,0,45,0
2,98500,Note_on_c,0,81,40
2,100499,Note_off_c,0,81,0
2,100500,End_track
0,0,End_of_file
